<svg xmlns="http://www.w3.org/2000/svg" xmlns:xlink="http://www.w3.org/1999/xlink" width="2119" zoomAndPan="magnify" viewBox="0 0 1589.25 192.749996" height="257" preserveAspectRatio="xMidYMid meet" version="1.0"><defs><g/><clipPath id="efc1872ea2"><path d="M 0.65625 0 L 1587.847656 0 L 1587.847656 192.5 L 0.65625 192.5 Z M 0.65625 0 " clip-rule="nonzero"/></clipPath><clipPath id="57a618b18b"><path d="M 0.65625 0 L 1587.484375 0 L 1587.484375 62.648438 L 0.65625 62.648438 Z M 0.65625 0 " clip-rule="nonzero"/></clipPath><clipPath id="f640ea7ad3"><path d="M 0.65625 78.828125 L 374.28125 78.828125 L 374.28125 191.921875 L 0.65625 191.921875 Z M 0.65625 78.828125 " clip-rule="nonzero"/></clipPath><clipPath id="2b613bdedc"><path d="M 405.054688 78.828125 L 778.683594 78.828125 L 778.683594 191.921875 L 405.054688 191.921875 Z M 405.054688 78.828125 " clip-rule="nonzero"/></clipPath><clipPath id="4abde6b667"><path d="M 1213.859375 78.828125 L 1587.484375 78.828125 L 1587.484375 191.921875 L 1213.859375 191.921875 Z M 1213.859375 78.828125 " clip-rule="nonzero"/></clipPath><clipPath id="be2fa9c9aa"><path d="M 809.457031 78.828125 L 1183.082031 78.828125 L 1183.082031 191.921875 L 809.457031 191.921875 Z M 809.457031 78.828125 " clip-rule="nonzero"/></clipPath></defs><g clip-path="url(#efc1872ea2)"><path fill="#ffffff" d="M 0.65625 0 L 1587.847656 0 L 1587.847656 192.5 L 0.65625 192.5 Z M 0.65625 0 " fill-opacity="1" fill-rule="nonzero"/></g><g clip-path="url(#57a618b18b)"><path fill="#080808" d="M 0.65625 0 L 1587.429688 0 L 1587.429688 62.648438 L 0.65625 62.648438 Z M 0.65625 0 " fill-opacity="1" fill-rule="nonzero"/></g><g fill="#ffff00" fill-opacity="1"><g transform="translate(640.629399, 44.192679)"><g><path d="M 24.125 -13.84375 L 24.125 -1.546875 C 22.945312 -0.972656 21.53125 -0.515625 19.875 -0.171875 C 18.226562 0.160156 16.539062 0.328125 14.8125 0.328125 C 12.175781 0.328125 9.882812 -0.195312 7.9375 -1.25 C 6 -2.3125 4.515625 -3.820312 3.484375 -5.78125 C 2.453125 -7.75 1.9375 -10.097656 1.9375 -12.828125 C 1.9375 -15.515625 2.453125 -17.84375 3.484375 -19.8125 C 4.515625 -21.78125 5.984375 -23.289062 7.890625 -24.34375 C 9.796875 -25.394531 12.03125 -25.921875 14.59375 -25.921875 C 16.394531 -25.921875 18.078125 -25.65625 19.640625 -25.125 C 21.210938 -24.601562 22.523438 -23.863281 23.578125 -22.90625 L 22 -19.515625 C 20.800781 -20.453125 19.625 -21.125 18.46875 -21.53125 C 17.320312 -21.9375 16.066406 -22.140625 14.703125 -22.140625 C 12.066406 -22.140625 10.070312 -21.347656 8.71875 -19.765625 C 7.363281 -18.191406 6.6875 -15.878906 6.6875 -12.828125 C 6.6875 -9.691406 7.378906 -7.328125 8.765625 -5.734375 C 10.160156 -4.140625 12.238281 -3.34375 15 -3.34375 C 16.675781 -3.34375 18.328125 -3.570312 19.953125 -4.03125 L 19.953125 -10.5 L 14.421875 -10.5 L 14.421875 -13.84375 Z M 24.125 -13.84375 "/></g></g></g><g fill="#ffff00" fill-opacity="1"><g transform="translate(667.190284, 44.192679)"><g><path d="M 8.765625 0 L 8.765625 -21.78125 L 0.4375 -21.78125 L 0.4375 -25.59375 L 21.828125 -25.59375 L 21.828125 -21.78125 L 13.453125 -21.78125 L 13.453125 0 Z M 8.765625 0 "/></g></g></g><g fill="#ffff00" fill-opacity="1"><g transform="translate(689.438164, 44.192679)"><g><path d="M 2.765625 0 L 2.765625 -25.59375 L 19.484375 -25.59375 L 19.484375 -21.890625 L 7.375 -21.890625 L 7.375 -14.890625 L 18.765625 -14.890625 L 18.765625 -11.140625 L 7.375 -11.140625 L 7.375 0 Z M 2.765625 0 "/></g></g></g><g fill="#ffff00" fill-opacity="1"><g transform="translate(709.996787, 44.192679)"><g><path d="M 11.4375 0.328125 C 9.46875 0.328125 7.625 0.0625 5.90625 -0.46875 C 4.195312 -1 2.742188 -1.753906 1.546875 -2.734375 L 3.125 -6.109375 C 4.375 -5.171875 5.675781 -4.476562 7.03125 -4.03125 C 8.382812 -3.59375 9.863281 -3.375 11.46875 -3.375 C 13.238281 -3.375 14.609375 -3.6875 15.578125 -4.3125 C 16.554688 -4.9375 17.046875 -5.8125 17.046875 -6.9375 C 17.046875 -7.894531 16.59375 -8.628906 15.6875 -9.140625 C 14.789062 -9.660156 13.3125 -10.148438 11.25 -10.609375 C 8.039062 -11.304688 5.703125 -12.203125 4.234375 -13.296875 C 2.773438 -14.398438 2.046875 -16.007812 2.046875 -18.125 C 2.046875 -19.632812 2.453125 -20.972656 3.265625 -22.140625 C 4.085938 -23.316406 5.242188 -24.238281 6.734375 -24.90625 C 8.234375 -25.582031 9.96875 -25.921875 11.9375 -25.921875 C 13.738281 -25.921875 15.445312 -25.648438 17.0625 -25.109375 C 18.675781 -24.566406 20 -23.816406 21.03125 -22.859375 L 19.484375 -19.484375 C 17.210938 -21.304688 14.695312 -22.21875 11.9375 -22.21875 C 10.28125 -22.21875 8.972656 -21.875 8.015625 -21.1875 C 7.054688 -20.507812 6.578125 -19.582031 6.578125 -18.40625 C 6.578125 -17.394531 7 -16.625 7.84375 -16.09375 C 8.695312 -15.570312 10.15625 -15.085938 12.21875 -14.640625 C 14.351562 -14.128906 16.09375 -13.578125 17.4375 -12.984375 C 18.78125 -12.398438 19.8125 -11.644531 20.53125 -10.71875 C 21.25 -9.800781 21.609375 -8.648438 21.609375 -7.265625 C 21.609375 -5.734375 21.195312 -4.394531 20.375 -3.25 C 19.5625 -2.113281 18.390625 -1.234375 16.859375 -0.609375 C 15.328125 0.015625 13.519531 0.328125 11.4375 0.328125 Z M 11.4375 0.328125 "/></g></g></g><g fill="#ffff00" fill-opacity="1"><g transform="translate(733.143213, 44.192679)"><g/></g></g><g fill="#ffff00" fill-opacity="1"><g transform="translate(742.991229, 44.192679)"><g><path d="M 24.125 -13.84375 L 24.125 -1.546875 C 22.945312 -0.972656 21.53125 -0.515625 19.875 -0.171875 C 18.226562 0.160156 16.539062 0.328125 14.8125 0.328125 C 12.175781 0.328125 9.882812 -0.195312 7.9375 -1.25 C 6 -2.3125 4.515625 -3.820312 3.484375 -5.78125 C 2.453125 -7.75 1.9375 -10.097656 1.9375 -12.828125 C 1.9375 -15.515625 2.453125 -17.84375 3.484375 -19.8125 C 4.515625 -21.78125 5.984375 -23.289062 7.890625 -24.34375 C 9.796875 -25.394531 12.03125 -25.921875 14.59375 -25.921875 C 16.394531 -25.921875 18.078125 -25.65625 19.640625 -25.125 C 21.210938 -24.601562 22.523438 -23.863281 23.578125 -22.90625 L 22 -19.515625 C 20.800781 -20.453125 19.625 -21.125 18.46875 -21.53125 C 17.320312 -21.9375 16.066406 -22.140625 14.703125 -22.140625 C 12.066406 -22.140625 10.070312 -21.347656 8.71875 -19.765625 C 7.363281 -18.191406 6.6875 -15.878906 6.6875 -12.828125 C 6.6875 -9.691406 7.378906 -7.328125 8.765625 -5.734375 C 10.160156 -4.140625 12.238281 -3.34375 15 -3.34375 C 16.675781 -3.34375 18.328125 -3.570312 19.953125 -4.03125 L 19.953125 -10.5 L 14.421875 -10.5 L 14.421875 -13.84375 Z M 24.125 -13.84375 "/></g></g></g><g fill="#ffff00" fill-opacity="1"><g transform="translate(769.552115, 44.192679)"><g><path d="M 10.671875 0.28125 C 8.828125 0.28125 7.203125 -0.0976562 5.796875 -0.859375 C 4.398438 -1.628906 3.320312 -2.726562 2.5625 -4.15625 C 1.8125 -5.582031 1.4375 -7.253906 1.4375 -9.171875 C 1.4375 -11.085938 1.8125 -12.757812 2.5625 -14.1875 C 3.320312 -15.613281 4.398438 -16.707031 5.796875 -17.46875 C 7.203125 -18.238281 8.828125 -18.625 10.671875 -18.625 C 12.492188 -18.625 14.097656 -18.238281 15.484375 -17.46875 C 16.878906 -16.707031 17.953125 -15.613281 18.703125 -14.1875 C 19.460938 -12.757812 19.84375 -11.085938 19.84375 -9.171875 C 19.84375 -7.253906 19.460938 -5.582031 18.703125 -4.15625 C 17.953125 -2.726562 16.878906 -1.628906 15.484375 -0.859375 C 14.097656 -0.0976562 12.492188 0.28125 10.671875 0.28125 Z M 10.640625 -3.234375 C 12.171875 -3.234375 13.335938 -3.726562 14.140625 -4.71875 C 14.953125 -5.71875 15.359375 -7.203125 15.359375 -9.171875 C 15.359375 -11.109375 14.945312 -12.585938 14.125 -13.609375 C 13.3125 -14.628906 12.160156 -15.140625 10.671875 -15.140625 C 9.160156 -15.140625 8 -14.628906 7.1875 -13.609375 C 6.375 -12.585938 5.96875 -11.109375 5.96875 -9.171875 C 5.96875 -7.203125 6.367188 -5.71875 7.171875 -4.71875 C 7.972656 -3.726562 9.128906 -3.234375 10.640625 -3.234375 Z M 10.640625 -3.234375 "/></g></g></g><g fill="#ffff00" fill-opacity="1"><g transform="translate(790.82957, 44.192679)"><g><path d="M 15.171875 -18.125 L 19.625 -18.125 L 11.6875 0 L 7.765625 0 L -0.078125 -18.125 L 4.640625 -18.125 L 9.84375 -5.109375 Z M 15.171875 -18.125 "/></g></g></g><g fill="#ffff00" fill-opacity="1"><g transform="translate(810.345889, 44.192679)"><g><path d="M 18.34375 -8.84375 L 5.828125 -8.84375 C 5.921875 -6.90625 6.40625 -5.472656 7.28125 -4.546875 C 8.15625 -3.617188 9.457031 -3.15625 11.1875 -3.15625 C 13.175781 -3.15625 15.019531 -3.804688 16.71875 -5.109375 L 18.015625 -2.015625 C 17.148438 -1.316406 16.085938 -0.757812 14.828125 -0.34375 C 13.566406 0.0703125 12.289062 0.28125 11 0.28125 C 8.03125 0.28125 5.691406 -0.554688 3.984375 -2.234375 C 2.285156 -3.910156 1.4375 -6.207031 1.4375 -9.125 C 1.4375 -10.976562 1.804688 -12.625 2.546875 -14.0625 C 3.296875 -15.5 4.335938 -16.617188 5.671875 -17.421875 C 7.015625 -18.222656 8.539062 -18.625 10.25 -18.625 C 12.738281 -18.625 14.707031 -17.8125 16.15625 -16.1875 C 17.613281 -14.570312 18.34375 -12.351562 18.34375 -9.53125 Z M 10.359375 -15.390625 C 9.160156 -15.390625 8.179688 -15.035156 7.421875 -14.328125 C 6.671875 -13.617188 6.1875 -12.59375 5.96875 -11.25 L 14.421875 -11.25 C 14.273438 -12.613281 13.859375 -13.644531 13.171875 -14.34375 C 12.492188 -15.039062 11.554688 -15.390625 10.359375 -15.390625 Z M 10.359375 -15.390625 "/></g></g></g><g fill="#ffff00" fill-opacity="1"><g transform="translate(830.04191, 44.192679)"><g><path d="M 12.21875 -18.59375 C 12.914062 -18.59375 13.515625 -18.492188 14.015625 -18.296875 L 13.984375 -14.203125 C 13.210938 -14.515625 12.421875 -14.671875 11.609375 -14.671875 C 10.078125 -14.671875 8.910156 -14.226562 8.109375 -13.34375 C 7.304688 -12.457031 6.90625 -11.28125 6.90625 -9.8125 L 6.90625 0 L 2.4375 0 L 2.4375 -13.015625 C 2.4375 -14.929688 2.34375 -16.644531 2.15625 -18.15625 L 6.359375 -18.15625 L 6.71875 -14.953125 C 7.175781 -16.128906 7.894531 -17.03125 8.875 -17.65625 C 9.863281 -18.28125 10.976562 -18.59375 12.21875 -18.59375 Z M 12.21875 -18.59375 "/></g></g></g><g fill="#ffff00" fill-opacity="1"><g transform="translate(844.131042, 44.192679)"><g><path d="M 12.828125 -18.625 C 17.171875 -18.625 19.34375 -16.128906 19.34375 -11.140625 L 19.34375 0 L 14.84375 0 L 14.84375 -10.9375 C 14.84375 -12.375 14.566406 -13.421875 14.015625 -14.078125 C 13.460938 -14.734375 12.613281 -15.0625 11.46875 -15.0625 C 10.101562 -15.0625 9 -14.625 8.15625 -13.75 C 7.320312 -12.875 6.90625 -11.71875 6.90625 -10.28125 L 6.90625 0 L 2.4375 0 L 2.4375 -13.015625 C 2.4375 -14.929688 2.34375 -16.644531 2.15625 -18.15625 L 6.359375 -18.15625 L 6.6875 -15.171875 C 7.3125 -16.273438 8.15625 -17.125 9.21875 -17.71875 C 10.289062 -18.320312 11.492188 -18.625 12.828125 -18.625 Z M 12.828125 -18.625 "/></g></g></g><g fill="#ffff00" fill-opacity="1"><g transform="translate(865.803858, 44.192679)"><g><path d="M 19.8125 -18.15625 L 19.8125 0 L 15.390625 0 L 15.390625 -2.90625 C 14.835938 -1.90625 14.046875 -1.125 13.015625 -0.5625 C 11.984375 0 10.804688 0.28125 9.484375 0.28125 C 7.910156 0.28125 6.507812 -0.0976562 5.28125 -0.859375 C 4.0625 -1.628906 3.113281 -2.71875 2.4375 -4.125 C 1.769531 -5.539062 1.4375 -7.1875 1.4375 -9.0625 C 1.4375 -10.925781 1.773438 -12.582031 2.453125 -14.03125 C 3.140625 -15.488281 4.09375 -16.617188 5.3125 -17.421875 C 6.539062 -18.222656 7.929688 -18.625 9.484375 -18.625 C 10.804688 -18.625 11.984375 -18.34375 13.015625 -17.78125 C 14.046875 -17.21875 14.835938 -16.429688 15.390625 -15.421875 L 15.390625 -18.15625 Z M 10.71875 -3.234375 C 12.195312 -3.234375 13.34375 -3.75 14.15625 -4.78125 C 14.976562 -5.8125 15.390625 -7.257812 15.390625 -9.125 C 15.390625 -11.050781 14.976562 -12.523438 14.15625 -13.546875 C 13.34375 -14.578125 12.179688 -15.09375 10.671875 -15.09375 C 9.191406 -15.09375 8.035156 -14.5625 7.203125 -13.5 C 6.378906 -12.4375 5.96875 -10.957031 5.96875 -9.0625 C 5.96875 -7.1875 6.378906 -5.742188 7.203125 -4.734375 C 8.035156 -3.734375 9.207031 -3.234375 10.71875 -3.234375 Z M 10.71875 -3.234375 "/></g></g></g><g fill="#ffff00" fill-opacity="1"><g transform="translate(888.051726, 44.192679)"><g><path d="M 12.828125 -18.625 C 17.171875 -18.625 19.34375 -16.128906 19.34375 -11.140625 L 19.34375 0 L 14.84375 0 L 14.84375 -10.9375 C 14.84375 -12.375 14.566406 -13.421875 14.015625 -14.078125 C 13.460938 -14.734375 12.613281 -15.0625 11.46875 -15.0625 C 10.101562 -15.0625 9 -14.625 8.15625 -13.75 C 7.320312 -12.875 6.90625 -11.71875 6.90625 -10.28125 L 6.90625 0 L 2.4375 0 L 2.4375 -13.015625 C 2.4375 -14.929688 2.34375 -16.644531 2.15625 -18.15625 L 6.359375 -18.15625 L 6.6875 -15.171875 C 7.3125 -16.273438 8.15625 -17.125 9.21875 -17.71875 C 10.289062 -18.320312 11.492188 -18.625 12.828125 -18.625 Z M 12.828125 -18.625 "/></g></g></g><g fill="#ffff00" fill-opacity="1"><g transform="translate(909.724542, 44.192679)"><g><path d="M 10.671875 0.28125 C 8.785156 0.28125 7.144531 -0.0976562 5.75 -0.859375 C 4.363281 -1.628906 3.296875 -2.710938 2.546875 -4.109375 C 1.804688 -5.515625 1.4375 -7.164062 1.4375 -9.0625 C 1.4375 -10.957031 1.828125 -12.625 2.609375 -14.0625 C 3.390625 -15.5 4.488281 -16.617188 5.90625 -17.421875 C 7.332031 -18.222656 8.984375 -18.625 10.859375 -18.625 C 12.148438 -18.625 13.398438 -18.421875 14.609375 -18.015625 C 15.828125 -17.609375 16.796875 -17.046875 17.515625 -16.328125 L 16.25 -13.15625 C 15.476562 -13.78125 14.660156 -14.253906 13.796875 -14.578125 C 12.941406 -14.898438 12.09375 -15.0625 11.25 -15.0625 C 9.625 -15.0625 8.351562 -14.550781 7.4375 -13.53125 C 6.53125 -12.519531 6.078125 -11.050781 6.078125 -9.125 C 6.078125 -7.207031 6.523438 -5.742188 7.421875 -4.734375 C 8.316406 -3.734375 9.59375 -3.234375 11.25 -3.234375 C 12.09375 -3.234375 12.941406 -3.398438 13.796875 -3.734375 C 14.660156 -4.078125 15.476562 -4.554688 16.25 -5.171875 L 17.515625 -2.015625 C 16.742188 -1.296875 15.742188 -0.734375 14.515625 -0.328125 C 13.296875 0.078125 12.015625 0.28125 10.671875 0.28125 Z M 10.671875 0.28125 "/></g></g></g><g fill="#ffff00" fill-opacity="1"><g transform="translate(927.803197, 44.192679)"><g><path d="M 18.34375 -8.84375 L 5.828125 -8.84375 C 5.921875 -6.90625 6.40625 -5.472656 7.28125 -4.546875 C 8.15625 -3.617188 9.457031 -3.15625 11.1875 -3.15625 C 13.175781 -3.15625 15.019531 -3.804688 16.71875 -5.109375 L 18.015625 -2.015625 C 17.148438 -1.316406 16.085938 -0.757812 14.828125 -0.34375 C 13.566406 0.0703125 12.289062 0.28125 11 0.28125 C 8.03125 0.28125 5.691406 -0.554688 3.984375 -2.234375 C 2.285156 -3.910156 1.4375 -6.207031 1.4375 -9.125 C 1.4375 -10.976562 1.804688 -12.625 2.546875 -14.0625 C 3.296875 -15.5 4.335938 -16.617188 5.671875 -17.421875 C 7.015625 -18.222656 8.539062 -18.625 10.25 -18.625 C 12.738281 -18.625 14.707031 -17.8125 16.15625 -16.1875 C 17.613281 -14.570312 18.34375 -12.351562 18.34375 -9.53125 Z M 10.359375 -15.390625 C 9.160156 -15.390625 8.179688 -15.035156 7.421875 -14.328125 C 6.671875 -13.617188 6.1875 -12.59375 5.96875 -11.25 L 14.421875 -11.25 C 14.273438 -12.613281 13.859375 -13.644531 13.171875 -14.34375 C 12.492188 -15.039062 11.554688 -15.390625 10.359375 -15.390625 Z M 10.359375 -15.390625 "/></g></g></g><g clip-path="url(#f640ea7ad3)"><path fill="#d9d9d9" d="M 0.65625 78.828125 L 374.394531 78.828125 L 374.394531 191.921875 L 0.65625 191.921875 Z M 0.65625 78.828125 " fill-opacity="1" fill-rule="nonzero"/></g><g fill="#080808" fill-opacity="1"><g transform="translate(58.798143, 146.240614)"><g><path d="M 20.09375 -11.53125 L 20.09375 -1.28125 C 19.113281 -0.800781 17.9375 -0.421875 16.5625 -0.140625 C 15.1875 0.128906 13.78125 0.265625 12.34375 0.265625 C 10.144531 0.265625 8.234375 -0.171875 6.609375 -1.046875 C 4.992188 -1.921875 3.757812 -3.175781 2.90625 -4.8125 C 2.050781 -6.457031 1.625 -8.414062 1.625 -10.6875 C 1.625 -12.925781 2.050781 -14.863281 2.90625 -16.5 C 3.757812 -18.132812 4.976562 -19.390625 6.5625 -20.265625 C 8.15625 -21.148438 10.019531 -21.59375 12.15625 -21.59375 C 13.65625 -21.59375 15.054688 -21.375 16.359375 -20.9375 C 17.671875 -20.5 18.769531 -19.878906 19.65625 -19.078125 L 18.328125 -16.265625 C 17.328125 -17.046875 16.347656 -17.601562 15.390625 -17.9375 C 14.429688 -18.28125 13.382812 -18.453125 12.25 -18.453125 C 10.050781 -18.453125 8.390625 -17.789062 7.265625 -16.46875 C 6.140625 -15.15625 5.578125 -13.226562 5.578125 -10.6875 C 5.578125 -8.070312 6.15625 -6.097656 7.3125 -4.765625 C 8.46875 -3.441406 10.191406 -2.78125 12.484375 -2.78125 C 13.890625 -2.78125 15.269531 -2.972656 16.625 -3.359375 L 16.625 -8.75 L 12.015625 -8.75 L 12.015625 -11.53125 Z M 20.09375 -11.53125 "/></g></g></g><g fill="#080808" fill-opacity="1"><g transform="translate(80.930827, 146.240614)"><g><path d="M 15.8125 -15.125 L 15.8125 0 L 12.15625 0 L 12.15625 -2.34375 C 11.675781 -1.5 11.035156 -0.859375 10.234375 -0.421875 C 9.441406 0.015625 8.523438 0.234375 7.484375 0.234375 C 3.796875 0.234375 1.953125 -1.835938 1.953125 -5.984375 L 1.953125 -15.125 L 5.65625 -15.125 L 5.65625 -5.953125 C 5.65625 -4.859375 5.878906 -4.050781 6.328125 -3.53125 C 6.785156 -3.007812 7.484375 -2.75 8.421875 -2.75 C 9.515625 -2.75 10.390625 -3.109375 11.046875 -3.828125 C 11.710938 -4.546875 12.046875 -5.503906 12.046875 -6.703125 L 12.046875 -15.125 Z M 15.8125 -15.125 "/></g></g></g><g fill="#080808" fill-opacity="1"><g transform="translate(98.780725, 146.240614)"><g><path d="M 2.03125 0 L 2.03125 -15.125 L 5.75 -15.125 L 5.75 0 Z M 1.796875 -21.984375 L 5.96875 -21.984375 L 5.96875 -18.296875 L 1.796875 -18.296875 Z M 1.796875 -21.984375 "/></g></g></g><g fill="#080808" fill-opacity="1"><g transform="translate(106.597544, 146.240614)"><g><path d="M 16.5 -22.046875 L 16.5 0 L 12.8125 0 L 12.8125 -2.421875 C 12.351562 -1.585938 11.695312 -0.9375 10.84375 -0.46875 C 9.988281 0 9.007812 0.234375 7.90625 0.234375 C 6.601562 0.234375 5.441406 -0.09375 4.421875 -0.75 C 3.410156 -1.40625 2.617188 -2.335938 2.046875 -3.546875 C 1.484375 -4.753906 1.203125 -6.140625 1.203125 -7.703125 C 1.203125 -9.253906 1.476562 -10.617188 2.03125 -11.796875 C 2.59375 -12.972656 3.382812 -13.882812 4.40625 -14.53125 C 5.425781 -15.1875 6.59375 -15.515625 7.90625 -15.515625 C 8.988281 -15.515625 9.953125 -15.289062 10.796875 -14.84375 C 11.648438 -14.394531 12.304688 -13.757812 12.765625 -12.9375 L 12.765625 -22.046875 Z M 8.890625 -2.703125 C 10.128906 -2.703125 11.09375 -3.128906 11.78125 -3.984375 C 12.46875 -4.835938 12.8125 -6.054688 12.8125 -7.640625 C 12.8125 -9.210938 12.472656 -10.425781 11.796875 -11.28125 C 11.117188 -12.144531 10.160156 -12.578125 8.921875 -12.578125 C 7.660156 -12.578125 6.6875 -12.148438 6 -11.296875 C 5.3125 -10.453125 4.96875 -9.253906 4.96875 -7.703125 C 4.96875 -6.117188 5.3125 -4.890625 6 -4.015625 C 6.6875 -3.140625 7.648438 -2.703125 8.890625 -2.703125 Z M 8.890625 -2.703125 "/></g></g></g><g fill="#080808" fill-opacity="1"><g transform="translate(125.136283, 146.240614)"><g><path d="M 2.03125 0 L 2.03125 -15.125 L 5.75 -15.125 L 5.75 0 Z M 1.796875 -21.984375 L 5.96875 -21.984375 L 5.96875 -18.296875 L 1.796875 -18.296875 Z M 1.796875 -21.984375 "/></g></g></g><g fill="#080808" fill-opacity="1"><g transform="translate(132.953102, 146.240614)"><g><path d="M 10.6875 -15.515625 C 14.300781 -15.515625 16.109375 -13.4375 16.109375 -9.28125 L 16.109375 0 L 12.375 0 L 12.375 -9.109375 C 12.375 -10.304688 12.144531 -11.175781 11.6875 -11.71875 C 11.226562 -12.269531 10.519531 -12.546875 9.5625 -12.546875 C 8.414062 -12.546875 7.492188 -12.179688 6.796875 -11.453125 C 6.097656 -10.722656 5.75 -9.757812 5.75 -8.5625 L 5.75 0 L 2.03125 0 L 2.03125 -10.84375 C 2.03125 -12.4375 1.953125 -13.863281 1.796875 -15.125 L 5.296875 -15.125 L 5.578125 -12.640625 C 6.085938 -13.554688 6.785156 -14.265625 7.671875 -14.765625 C 8.566406 -15.265625 9.570312 -15.515625 10.6875 -15.515625 Z M 10.6875 -15.515625 "/></g></g></g><g fill="#080808" fill-opacity="1"><g transform="translate(151.012647, 146.240614)"><g><path d="M 16.65625 -15.125 L 16.65625 -0.484375 C 16.65625 1.878906 16.003906 3.664062 14.703125 4.875 C 13.410156 6.09375 11.503906 6.703125 8.984375 6.703125 C 6.648438 6.703125 4.59375 6.210938 2.8125 5.234375 L 3.421875 2.390625 C 5.253906 3.347656 7.078125 3.828125 8.890625 3.828125 C 11.585938 3.828125 12.9375 2.488281 12.9375 -0.1875 L 12.9375 -3.171875 C 12.476562 -2.359375 11.804688 -1.695312 10.921875 -1.1875 C 10.046875 -0.675781 9.0625 -0.421875 7.96875 -0.421875 C 6.644531 -0.421875 5.46875 -0.734375 4.4375 -1.359375 C 3.414062 -1.992188 2.617188 -2.882812 2.046875 -4.03125 C 1.484375 -5.175781 1.203125 -6.488281 1.203125 -7.96875 C 1.203125 -9.445312 1.484375 -10.757812 2.046875 -11.90625 C 2.617188 -13.050781 3.414062 -13.9375 4.4375 -14.5625 C 5.46875 -15.195312 6.644531 -15.515625 7.96875 -15.515625 C 9.082031 -15.515625 10.070312 -15.28125 10.9375 -14.8125 C 11.8125 -14.34375 12.476562 -13.6875 12.9375 -12.84375 L 12.9375 -15.125 Z M 8.953125 -3.359375 C 10.191406 -3.359375 11.164062 -3.765625 11.875 -4.578125 C 12.582031 -5.398438 12.9375 -6.53125 12.9375 -7.96875 C 12.9375 -9.40625 12.585938 -10.53125 11.890625 -11.34375 C 11.191406 -12.164062 10.210938 -12.578125 8.953125 -12.578125 C 7.710938 -12.578125 6.738281 -12.164062 6.03125 -11.34375 C 5.320312 -10.53125 4.96875 -9.40625 4.96875 -7.96875 C 4.96875 -6.53125 5.320312 -5.398438 6.03125 -4.578125 C 6.738281 -3.765625 7.710938 -3.359375 8.953125 -3.359375 Z M 8.953125 -3.359375 "/></g></g></g><g fill="#080808" fill-opacity="1"><g transform="translate(169.671188, 146.240614)"><g/></g></g><g fill="#080808" fill-opacity="1"><g transform="translate(177.877356, 146.240614)"><g><path d="M 2.3125 -21.328125 L 11.5625 -21.328125 C 13.851562 -21.328125 15.640625 -20.769531 16.921875 -19.65625 C 18.203125 -18.550781 18.84375 -17.039062 18.84375 -15.125 C 18.84375 -13.207031 18.195312 -11.6875 16.90625 -10.5625 C 15.625 -9.445312 13.84375 -8.890625 11.5625 -8.890625 L 6.171875 -8.890625 L 6.171875 0 L 2.3125 0 Z M 11.109375 -11.890625 C 12.453125 -11.890625 13.46875 -12.160156 14.15625 -12.703125 C 14.84375 -13.253906 15.1875 -14.050781 15.1875 -15.09375 C 15.1875 -16.15625 14.847656 -16.957031 14.171875 -17.5 C 13.492188 -18.050781 12.472656 -18.328125 11.109375 -18.328125 L 6.171875 -18.328125 L 6.171875 -11.890625 Z M 11.109375 -11.890625 "/></g></g></g><g fill="#080808" fill-opacity="1"><g transform="translate(197.823725, 146.240614)"><g><path d="M 10.1875 -15.484375 C 10.757812 -15.484375 11.257812 -15.40625 11.6875 -15.25 L 11.65625 -11.828125 C 11.007812 -12.085938 10.347656 -12.21875 9.671875 -12.21875 C 8.398438 -12.21875 7.425781 -11.847656 6.75 -11.109375 C 6.082031 -10.367188 5.75 -9.390625 5.75 -8.171875 L 5.75 0 L 2.03125 0 L 2.03125 -10.84375 C 2.03125 -12.4375 1.953125 -13.863281 1.796875 -15.125 L 5.296875 -15.125 L 5.59375 -12.453125 C 5.976562 -13.429688 6.578125 -14.179688 7.390625 -14.703125 C 8.210938 -15.222656 9.144531 -15.484375 10.1875 -15.484375 Z M 10.1875 -15.484375 "/></g></g></g><g fill="#080808" fill-opacity="1"><g transform="translate(209.563925, 146.240614)"><g><path d="M 2.03125 0 L 2.03125 -15.125 L 5.75 -15.125 L 5.75 0 Z M 1.796875 -21.984375 L 5.96875 -21.984375 L 5.96875 -18.296875 L 1.796875 -18.296875 Z M 1.796875 -21.984375 "/></g></g></g><g fill="#080808" fill-opacity="1"><g transform="translate(217.380744, 146.240614)"><g><path d="M 10.6875 -15.515625 C 14.300781 -15.515625 16.109375 -13.4375 16.109375 -9.28125 L 16.109375 0 L 12.375 0 L 12.375 -9.109375 C 12.375 -10.304688 12.144531 -11.175781 11.6875 -11.71875 C 11.226562 -12.269531 10.519531 -12.546875 9.5625 -12.546875 C 8.414062 -12.546875 7.492188 -12.179688 6.796875 -11.453125 C 6.097656 -10.722656 5.75 -9.757812 5.75 -8.5625 L 5.75 0 L 2.03125 0 L 2.03125 -10.84375 C 2.03125 -12.4375 1.953125 -13.863281 1.796875 -15.125 L 5.296875 -15.125 L 5.578125 -12.640625 C 6.085938 -13.554688 6.785156 -14.265625 7.671875 -14.765625 C 8.566406 -15.265625 9.570312 -15.515625 10.6875 -15.515625 Z M 10.6875 -15.515625 "/></g></g></g><g fill="#080808" fill-opacity="1"><g transform="translate(235.440288, 146.240614)"><g><path d="M 8.890625 0.234375 C 7.316406 0.234375 5.953125 -0.0820312 4.796875 -0.71875 C 3.640625 -1.351562 2.75 -2.253906 2.125 -3.421875 C 1.507812 -4.597656 1.203125 -5.972656 1.203125 -7.546875 C 1.203125 -9.128906 1.523438 -10.519531 2.171875 -11.71875 C 2.816406 -12.914062 3.734375 -13.847656 4.921875 -14.515625 C 6.109375 -15.179688 7.484375 -15.515625 9.046875 -15.515625 C 10.117188 -15.515625 11.160156 -15.34375 12.171875 -15 C 13.179688 -14.664062 13.988281 -14.195312 14.59375 -13.59375 L 13.53125 -10.96875 C 12.894531 -11.476562 12.21875 -11.867188 11.5 -12.140625 C 10.78125 -12.410156 10.070312 -12.546875 9.375 -12.546875 C 8.019531 -12.546875 6.960938 -12.117188 6.203125 -11.265625 C 5.441406 -10.421875 5.0625 -9.203125 5.0625 -7.609375 C 5.0625 -6.015625 5.4375 -4.796875 6.1875 -3.953125 C 6.9375 -3.117188 8 -2.703125 9.375 -2.703125 C 10.070312 -2.703125 10.78125 -2.835938 11.5 -3.109375 C 12.21875 -3.390625 12.894531 -3.789062 13.53125 -4.3125 L 14.59375 -1.671875 C 13.945312 -1.078125 13.113281 -0.609375 12.09375 -0.265625 C 11.082031 0.0664062 10.015625 0.234375 8.890625 0.234375 Z M 8.890625 0.234375 "/></g></g></g><g fill="#080808" fill-opacity="1"><g transform="translate(250.504886, 146.240614)"><g><path d="M 2.03125 0 L 2.03125 -15.125 L 5.75 -15.125 L 5.75 0 Z M 1.796875 -21.984375 L 5.96875 -21.984375 L 5.96875 -18.296875 L 1.796875 -18.296875 Z M 1.796875 -21.984375 "/></g></g></g><g fill="#080808" fill-opacity="1"><g transform="translate(258.321693, 146.240614)"><g><path d="M 10.65625 -15.515625 C 11.957031 -15.515625 13.113281 -15.179688 14.125 -14.515625 C 15.132812 -13.847656 15.921875 -12.910156 16.484375 -11.703125 C 17.054688 -10.492188 17.34375 -9.109375 17.34375 -7.546875 C 17.34375 -5.992188 17.0625 -4.625 16.5 -3.4375 C 15.945312 -2.257812 15.164062 -1.351562 14.15625 -0.71875 C 13.144531 -0.0820312 11.976562 0.234375 10.65625 0.234375 C 9.5625 0.234375 8.582031 0 7.71875 -0.46875 C 6.863281 -0.9375 6.207031 -1.585938 5.75 -2.421875 L 5.75 6.46875 L 2.03125 6.46875 L 2.03125 -10.84375 C 2.03125 -12.4375 1.953125 -13.863281 1.796875 -15.125 L 5.296875 -15.125 L 5.59375 -12.515625 C 6 -13.453125 6.648438 -14.1875 7.546875 -14.71875 C 8.441406 -15.25 9.476562 -15.515625 10.65625 -15.515625 Z M 9.640625 -2.703125 C 10.898438 -2.703125 11.867188 -3.117188 12.546875 -3.953125 C 13.222656 -4.796875 13.5625 -5.992188 13.5625 -7.546875 C 13.5625 -9.128906 13.222656 -10.363281 12.546875 -11.25 C 11.867188 -12.132812 10.910156 -12.578125 9.671875 -12.578125 C 8.398438 -12.578125 7.421875 -12.144531 6.734375 -11.28125 C 6.054688 -10.425781 5.71875 -9.203125 5.71875 -7.609375 C 5.71875 -6.023438 6.054688 -4.8125 6.734375 -3.96875 C 7.421875 -3.125 8.390625 -2.703125 9.640625 -2.703125 Z M 9.640625 -2.703125 "/></g></g></g><g fill="#080808" fill-opacity="1"><g transform="translate(276.890389, 146.240614)"><g><path d="M 2.03125 0 L 2.03125 -22.046875 L 5.75 -22.046875 L 5.75 0 Z M 2.03125 0 "/></g></g></g><g fill="#080808" fill-opacity="1"><g transform="translate(284.707208, 146.240614)"><g><path d="M 15.28125 -7.375 L 4.859375 -7.375 C 4.929688 -5.75 5.332031 -4.550781 6.0625 -3.78125 C 6.789062 -3.019531 7.875 -2.640625 9.3125 -2.640625 C 10.96875 -2.640625 12.503906 -3.175781 13.921875 -4.25 L 15 -1.671875 C 14.28125 -1.097656 13.394531 -0.632812 12.34375 -0.28125 C 11.300781 0.0625 10.242188 0.234375 9.171875 0.234375 C 6.691406 0.234375 4.742188 -0.460938 3.328125 -1.859375 C 1.910156 -3.253906 1.203125 -5.171875 1.203125 -7.609375 C 1.203125 -9.148438 1.507812 -10.519531 2.125 -11.71875 C 2.75 -12.914062 3.617188 -13.847656 4.734375 -14.515625 C 5.847656 -15.179688 7.113281 -15.515625 8.53125 -15.515625 C 10.613281 -15.515625 12.257812 -14.835938 13.46875 -13.484375 C 14.675781 -12.140625 15.28125 -10.289062 15.28125 -7.9375 Z M 8.625 -12.8125 C 7.625 -12.8125 6.804688 -12.515625 6.171875 -11.921875 C 5.546875 -11.335938 5.144531 -10.488281 4.96875 -9.375 L 12.015625 -9.375 C 11.890625 -10.507812 11.539062 -11.363281 10.96875 -11.9375 C 10.40625 -12.519531 9.625 -12.8125 8.625 -12.8125 Z M 8.625 -12.8125 "/></g></g></g><g fill="#080808" fill-opacity="1"><g transform="translate(301.119544, 146.240614)"><g><path d="M 7.578125 0.234375 C 4.835938 0.234375 2.660156 -0.398438 1.046875 -1.671875 L 2.09375 -4.3125 C 3.707031 -3.113281 5.554688 -2.515625 7.640625 -2.515625 C 8.535156 -2.515625 9.226562 -2.664062 9.71875 -2.96875 C 10.207031 -3.269531 10.453125 -3.6875 10.453125 -4.21875 C 10.453125 -4.675781 10.28125 -5.039062 9.9375 -5.3125 C 9.601562 -5.582031 9.023438 -5.816406 8.203125 -6.015625 L 5.6875 -6.59375 C 2.9375 -7.1875 1.5625 -8.59375 1.5625 -10.8125 C 1.5625 -11.726562 1.816406 -12.539062 2.328125 -13.25 C 2.847656 -13.957031 3.578125 -14.507812 4.515625 -14.90625 C 5.460938 -15.3125 6.550781 -15.515625 7.78125 -15.515625 C 8.863281 -15.515625 9.90625 -15.347656 10.90625 -15.015625 C 11.90625 -14.691406 12.78125 -14.21875 13.53125 -13.59375 L 12.4375 -11.046875 C 10.914062 -12.171875 9.359375 -12.734375 7.765625 -12.734375 C 6.898438 -12.734375 6.226562 -12.570312 5.75 -12.25 C 5.269531 -11.925781 5.03125 -11.488281 5.03125 -10.9375 C 5.03125 -10.5 5.175781 -10.148438 5.46875 -9.890625 C 5.757812 -9.628906 6.253906 -9.40625 6.953125 -9.21875 L 9.53125 -8.65625 C 11.019531 -8.3125 12.109375 -7.785156 12.796875 -7.078125 C 13.492188 -6.367188 13.84375 -5.445312 13.84375 -4.3125 C 13.84375 -2.914062 13.28125 -1.804688 12.15625 -0.984375 C 11.039062 -0.171875 9.515625 0.234375 7.578125 0.234375 Z M 7.578125 0.234375 "/></g></g></g><g clip-path="url(#2b613bdedc)"><path fill="#d9d9d9" d="M 405.054688 78.828125 L 778.796875 78.828125 L 778.796875 191.921875 L 405.054688 191.921875 Z M 405.054688 78.828125 " fill-opacity="1" fill-rule="nonzero"/></g><g fill="#080808" fill-opacity="1"><g transform="translate(423.24324, 146.240614)"><g><path d="M 19.859375 0 L 15.78125 0 L 13.0625 -7.09375 C 12.820312 -7.757812 12.453125 -8.21875 11.953125 -8.46875 C 11.453125 -8.726562 10.800781 -8.859375 10 -8.859375 L 6.140625 -8.859375 L 6.140625 0 L 2.3125 0 L 2.3125 -21.328125 L 11.4375 -21.328125 C 13.851562 -21.328125 15.691406 -20.796875 16.953125 -19.734375 C 18.210938 -18.679688 18.84375 -17.164062 18.84375 -15.1875 C 18.84375 -13.769531 18.46875 -12.566406 17.71875 -11.578125 C 16.96875 -10.585938 15.90625 -9.882812 14.53125 -9.46875 C 15.789062 -9.207031 16.695312 -8.328125 17.25 -6.828125 Z M 10.90625 -11.859375 C 12.363281 -11.859375 13.441406 -12.128906 14.140625 -12.671875 C 14.835938 -13.210938 15.1875 -14.03125 15.1875 -15.125 C 15.1875 -16.207031 14.84375 -17.007812 14.15625 -17.53125 C 13.46875 -18.0625 12.382812 -18.328125 10.90625 -18.328125 L 6.078125 -18.328125 L 6.078125 -11.859375 Z M 10.90625 -11.859375 "/></g></g></g><g fill="#080808" fill-opacity="1"><g transform="translate(444.267788, 146.240614)"><g><path d="M 8.890625 0.234375 C 7.359375 0.234375 6.003906 -0.0820312 4.828125 -0.71875 C 3.660156 -1.351562 2.765625 -2.265625 2.140625 -3.453125 C 1.515625 -4.640625 1.203125 -6.035156 1.203125 -7.640625 C 1.203125 -9.234375 1.515625 -10.625 2.140625 -11.8125 C 2.765625 -13 3.660156 -13.910156 4.828125 -14.546875 C 6.003906 -15.191406 7.359375 -15.515625 8.890625 -15.515625 C 10.410156 -15.515625 11.75 -15.191406 12.90625 -14.546875 C 14.0625 -13.910156 14.953125 -13 15.578125 -11.8125 C 16.210938 -10.625 16.53125 -9.234375 16.53125 -7.640625 C 16.53125 -6.035156 16.210938 -4.640625 15.578125 -3.453125 C 14.953125 -2.265625 14.0625 -1.351562 12.90625 -0.71875 C 11.75 -0.0820312 10.410156 0.234375 8.890625 0.234375 Z M 8.859375 -2.703125 C 10.140625 -2.703125 11.113281 -3.113281 11.78125 -3.9375 C 12.457031 -4.769531 12.796875 -6.003906 12.796875 -7.640625 C 12.796875 -9.253906 12.453125 -10.484375 11.765625 -11.328125 C 11.085938 -12.179688 10.128906 -12.609375 8.890625 -12.609375 C 7.640625 -12.609375 6.671875 -12.179688 5.984375 -11.328125 C 5.304688 -10.484375 4.96875 -9.253906 4.96875 -7.640625 C 4.96875 -6.003906 5.300781 -4.769531 5.96875 -3.9375 C 6.644531 -3.113281 7.609375 -2.703125 8.859375 -2.703125 Z M 8.859375 -2.703125 "/></g></g></g><g fill="#080808" fill-opacity="1"><g transform="translate(461.997896, 146.240614)"><g><path d="M 2.03125 0 L 2.03125 -22.046875 L 5.75 -22.046875 L 5.75 0 Z M 2.03125 0 "/></g></g></g><g fill="#080808" fill-opacity="1"><g transform="translate(469.814715, 146.240614)"><g><path d="M 15.28125 -7.375 L 4.859375 -7.375 C 4.929688 -5.75 5.332031 -4.550781 6.0625 -3.78125 C 6.789062 -3.019531 7.875 -2.640625 9.3125 -2.640625 C 10.96875 -2.640625 12.503906 -3.175781 13.921875 -4.25 L 15 -1.671875 C 14.28125 -1.097656 13.394531 -0.632812 12.34375 -0.28125 C 11.300781 0.0625 10.242188 0.234375 9.171875 0.234375 C 6.691406 0.234375 4.742188 -0.460938 3.328125 -1.859375 C 1.910156 -3.253906 1.203125 -5.171875 1.203125 -7.609375 C 1.203125 -9.148438 1.507812 -10.519531 2.125 -11.71875 C 2.75 -12.914062 3.617188 -13.847656 4.734375 -14.515625 C 5.847656 -15.179688 7.113281 -15.515625 8.53125 -15.515625 C 10.613281 -15.515625 12.257812 -14.835938 13.46875 -13.484375 C 14.675781 -12.140625 15.28125 -10.289062 15.28125 -7.9375 Z M 8.625 -12.8125 C 7.625 -12.8125 6.804688 -12.515625 6.171875 -11.921875 C 5.546875 -11.335938 5.144531 -10.488281 4.96875 -9.375 L 12.015625 -9.375 C 11.890625 -10.507812 11.539062 -11.363281 10.96875 -11.9375 C 10.40625 -12.519531 9.625 -12.8125 8.625 -12.8125 Z M 8.625 -12.8125 "/></g></g></g><g fill="#080808" fill-opacity="1"><g transform="translate(486.22704, 146.240614)"><g><path d="M 7.578125 0.234375 C 4.835938 0.234375 2.660156 -0.398438 1.046875 -1.671875 L 2.09375 -4.3125 C 3.707031 -3.113281 5.554688 -2.515625 7.640625 -2.515625 C 8.535156 -2.515625 9.226562 -2.664062 9.71875 -2.96875 C 10.207031 -3.269531 10.453125 -3.6875 10.453125 -4.21875 C 10.453125 -4.675781 10.28125 -5.039062 9.9375 -5.3125 C 9.601562 -5.582031 9.023438 -5.816406 8.203125 -6.015625 L 5.6875 -6.59375 C 2.9375 -7.1875 1.5625 -8.59375 1.5625 -10.8125 C 1.5625 -11.726562 1.816406 -12.539062 2.328125 -13.25 C 2.847656 -13.957031 3.578125 -14.507812 4.515625 -14.90625 C 5.460938 -15.3125 6.550781 -15.515625 7.78125 -15.515625 C 8.863281 -15.515625 9.90625 -15.347656 10.90625 -15.015625 C 11.90625 -14.691406 12.78125 -14.21875 13.53125 -13.59375 L 12.4375 -11.046875 C 10.914062 -12.171875 9.359375 -12.734375 7.765625 -12.734375 C 6.898438 -12.734375 6.226562 -12.570312 5.75 -12.25 C 5.269531 -11.925781 5.03125 -11.488281 5.03125 -10.9375 C 5.03125 -10.5 5.175781 -10.148438 5.46875 -9.890625 C 5.757812 -9.628906 6.253906 -9.40625 6.953125 -9.21875 L 9.53125 -8.65625 C 11.019531 -8.3125 12.109375 -7.785156 12.796875 -7.078125 C 13.492188 -6.367188 13.84375 -5.445312 13.84375 -4.3125 C 13.84375 -2.914062 13.28125 -1.804688 12.15625 -0.984375 C 11.039062 -0.171875 9.515625 0.234375 7.578125 0.234375 Z M 7.578125 0.234375 "/></g></g></g><g fill="#080808" fill-opacity="1"><g transform="translate(501.231736, 146.240614)"><g/></g></g><g fill="#080808" fill-opacity="1"><g transform="translate(509.437904, 146.240614)"><g><path d="M 19.34375 0.265625 C 17.632812 -0.328125 16.160156 -1.1875 14.921875 -2.3125 C 13.054688 -0.613281 10.914062 0.234375 8.5 0.234375 C 7.0625 0.234375 5.789062 -0.0078125 4.6875 -0.5 C 3.582031 -0.988281 2.722656 -1.671875 2.109375 -2.546875 C 1.503906 -3.421875 1.203125 -4.429688 1.203125 -5.578125 C 1.203125 -6.867188 1.5625 -8.015625 2.28125 -9.015625 C 3 -10.015625 4.144531 -10.953125 5.71875 -11.828125 C 4.914062 -12.710938 4.332031 -13.519531 3.96875 -14.25 C 3.613281 -14.988281 3.4375 -15.75 3.4375 -16.53125 C 3.4375 -18.03125 3.972656 -19.238281 5.046875 -20.15625 C 6.128906 -21.070312 7.539062 -21.53125 9.28125 -21.53125 C 10.882812 -21.53125 12.164062 -21.109375 13.125 -20.265625 C 14.082031 -19.429688 14.5625 -18.316406 14.5625 -16.921875 C 14.5625 -15.847656 14.242188 -14.867188 13.609375 -13.984375 C 12.984375 -13.109375 11.953125 -12.25 10.515625 -11.40625 L 14.734375 -7.03125 C 15.578125 -8.726562 16.035156 -10.65625 16.109375 -12.8125 L 19.296875 -12.8125 C 19.148438 -9.695312 18.367188 -7.015625 16.953125 -4.765625 C 18.128906 -3.660156 19.546875 -2.84375 21.203125 -2.3125 Z M 9.3125 -18.953125 C 8.570312 -18.953125 7.976562 -18.734375 7.53125 -18.296875 C 7.082031 -17.859375 6.859375 -17.269531 6.859375 -16.53125 C 6.859375 -16.070312 6.984375 -15.625 7.234375 -15.1875 C 7.484375 -14.75 7.945312 -14.148438 8.625 -13.390625 C 9.6875 -14.003906 10.429688 -14.566406 10.859375 -15.078125 C 11.285156 -15.585938 11.5 -16.15625 11.5 -16.78125 C 11.5 -17.4375 11.296875 -17.960938 10.890625 -18.359375 C 10.492188 -18.753906 9.96875 -18.953125 9.3125 -18.953125 Z M 4.859375 -5.78125 C 4.859375 -4.820312 5.195312 -4.0625 5.875 -3.5 C 6.550781 -2.945312 7.46875 -2.671875 8.625 -2.671875 C 10.1875 -2.671875 11.59375 -3.25 12.84375 -4.40625 L 7.609375 -9.828125 C 6.648438 -9.222656 5.953125 -8.601562 5.515625 -7.96875 C 5.078125 -7.332031 4.859375 -6.601562 4.859375 -5.78125 Z M 4.859375 -5.78125 "/></g></g></g><g fill="#080808" fill-opacity="1"><g transform="translate(530.043158, 146.240614)"><g/></g></g><g fill="#080808" fill-opacity="1"><g transform="translate(538.249326, 146.240614)"><g><path d="M 19.859375 0 L 15.78125 0 L 13.0625 -7.09375 C 12.820312 -7.757812 12.453125 -8.21875 11.953125 -8.46875 C 11.453125 -8.726562 10.800781 -8.859375 10 -8.859375 L 6.140625 -8.859375 L 6.140625 0 L 2.3125 0 L 2.3125 -21.328125 L 11.4375 -21.328125 C 13.851562 -21.328125 15.691406 -20.796875 16.953125 -19.734375 C 18.210938 -18.679688 18.84375 -17.164062 18.84375 -15.1875 C 18.84375 -13.769531 18.46875 -12.566406 17.71875 -11.578125 C 16.96875 -10.585938 15.90625 -9.882812 14.53125 -9.46875 C 15.789062 -9.207031 16.695312 -8.328125 17.25 -6.828125 Z M 10.90625 -11.859375 C 12.363281 -11.859375 13.441406 -12.128906 14.140625 -12.671875 C 14.835938 -13.210938 15.1875 -14.03125 15.1875 -15.125 C 15.1875 -16.207031 14.84375 -17.007812 14.15625 -17.53125 C 13.46875 -18.0625 12.382812 -18.328125 10.90625 -18.328125 L 6.078125 -18.328125 L 6.078125 -11.859375 Z M 10.90625 -11.859375 "/></g></g></g><g fill="#080808" fill-opacity="1"><g transform="translate(559.273875, 146.240614)"><g><path d="M 15.28125 -7.375 L 4.859375 -7.375 C 4.929688 -5.75 5.332031 -4.550781 6.0625 -3.78125 C 6.789062 -3.019531 7.875 -2.640625 9.3125 -2.640625 C 10.96875 -2.640625 12.503906 -3.175781 13.921875 -4.25 L 15 -1.671875 C 14.28125 -1.097656 13.394531 -0.632812 12.34375 -0.28125 C 11.300781 0.0625 10.242188 0.234375 9.171875 0.234375 C 6.691406 0.234375 4.742188 -0.460938 3.328125 -1.859375 C 1.910156 -3.253906 1.203125 -5.171875 1.203125 -7.609375 C 1.203125 -9.148438 1.507812 -10.519531 2.125 -11.71875 C 2.75 -12.914062 3.617188 -13.847656 4.734375 -14.515625 C 5.847656 -15.179688 7.113281 -15.515625 8.53125 -15.515625 C 10.613281 -15.515625 12.257812 -14.835938 13.46875 -13.484375 C 14.675781 -12.140625 15.28125 -10.289062 15.28125 -7.9375 Z M 8.625 -12.8125 C 7.625 -12.8125 6.804688 -12.515625 6.171875 -11.921875 C 5.546875 -11.335938 5.144531 -10.488281 4.96875 -9.375 L 12.015625 -9.375 C 11.890625 -10.507812 11.539062 -11.363281 10.96875 -11.9375 C 10.40625 -12.519531 9.625 -12.8125 8.625 -12.8125 Z M 8.625 -12.8125 "/></g></g></g><g fill="#080808" fill-opacity="1"><g transform="translate(575.6862, 146.240614)"><g><path d="M 7.578125 0.234375 C 4.835938 0.234375 2.660156 -0.398438 1.046875 -1.671875 L 2.09375 -4.3125 C 3.707031 -3.113281 5.554688 -2.515625 7.640625 -2.515625 C 8.535156 -2.515625 9.226562 -2.664062 9.71875 -2.96875 C 10.207031 -3.269531 10.453125 -3.6875 10.453125 -4.21875 C 10.453125 -4.675781 10.28125 -5.039062 9.9375 -5.3125 C 9.601562 -5.582031 9.023438 -5.816406 8.203125 -6.015625 L 5.6875 -6.59375 C 2.9375 -7.1875 1.5625 -8.59375 1.5625 -10.8125 C 1.5625 -11.726562 1.816406 -12.539062 2.328125 -13.25 C 2.847656 -13.957031 3.578125 -14.507812 4.515625 -14.90625 C 5.460938 -15.3125 6.550781 -15.515625 7.78125 -15.515625 C 8.863281 -15.515625 9.90625 -15.347656 10.90625 -15.015625 C 11.90625 -14.691406 12.78125 -14.21875 13.53125 -13.59375 L 12.4375 -11.046875 C 10.914062 -12.171875 9.359375 -12.734375 7.765625 -12.734375 C 6.898438 -12.734375 6.226562 -12.570312 5.75 -12.25 C 5.269531 -11.925781 5.03125 -11.488281 5.03125 -10.9375 C 5.03125 -10.5 5.175781 -10.148438 5.46875 -9.890625 C 5.757812 -9.628906 6.253906 -9.40625 6.953125 -9.21875 L 9.53125 -8.65625 C 11.019531 -8.3125 12.109375 -7.785156 12.796875 -7.078125 C 13.492188 -6.367188 13.84375 -5.445312 13.84375 -4.3125 C 13.84375 -2.914062 13.28125 -1.804688 12.15625 -0.984375 C 11.039062 -0.171875 9.515625 0.234375 7.578125 0.234375 Z M 7.578125 0.234375 "/></g></g></g><g fill="#080808" fill-opacity="1"><g transform="translate(590.690896, 146.240614)"><g><path d="M 10.65625 -15.515625 C 11.957031 -15.515625 13.113281 -15.179688 14.125 -14.515625 C 15.132812 -13.847656 15.921875 -12.910156 16.484375 -11.703125 C 17.054688 -10.492188 17.34375 -9.109375 17.34375 -7.546875 C 17.34375 -5.992188 17.0625 -4.625 16.5 -3.4375 C 15.945312 -2.257812 15.164062 -1.351562 14.15625 -0.71875 C 13.144531 -0.0820312 11.976562 0.234375 10.65625 0.234375 C 9.5625 0.234375 8.582031 0 7.71875 -0.46875 C 6.863281 -0.9375 6.207031 -1.585938 5.75 -2.421875 L 5.75 6.46875 L 2.03125 6.46875 L 2.03125 -10.84375 C 2.03125 -12.4375 1.953125 -13.863281 1.796875 -15.125 L 5.296875 -15.125 L 5.59375 -12.515625 C 6 -13.453125 6.648438 -14.1875 7.546875 -14.71875 C 8.441406 -15.25 9.476562 -15.515625 10.65625 -15.515625 Z M 9.640625 -2.703125 C 10.898438 -2.703125 11.867188 -3.117188 12.546875 -3.953125 C 13.222656 -4.796875 13.5625 -5.992188 13.5625 -7.546875 C 13.5625 -9.128906 13.222656 -10.363281 12.546875 -11.25 C 11.867188 -12.132812 10.910156 -12.578125 9.671875 -12.578125 C 8.398438 -12.578125 7.421875 -12.144531 6.734375 -11.28125 C 6.054688 -10.425781 5.71875 -9.203125 5.71875 -7.609375 C 5.71875 -6.023438 6.054688 -4.8125 6.734375 -3.96875 C 7.421875 -3.125 8.390625 -2.703125 9.640625 -2.703125 Z M 9.640625 -2.703125 "/></g></g></g><g fill="#080808" fill-opacity="1"><g transform="translate(609.259592, 146.240614)"><g><path d="M 8.890625 0.234375 C 7.359375 0.234375 6.003906 -0.0820312 4.828125 -0.71875 C 3.660156 -1.351562 2.765625 -2.265625 2.140625 -3.453125 C 1.515625 -4.640625 1.203125 -6.035156 1.203125 -7.640625 C 1.203125 -9.234375 1.515625 -10.625 2.140625 -11.8125 C 2.765625 -13 3.660156 -13.910156 4.828125 -14.546875 C 6.003906 -15.191406 7.359375 -15.515625 8.890625 -15.515625 C 10.410156 -15.515625 11.75 -15.191406 12.90625 -14.546875 C 14.0625 -13.910156 14.953125 -13 15.578125 -11.8125 C 16.210938 -10.625 16.53125 -9.234375 16.53125 -7.640625 C 16.53125 -6.035156 16.210938 -4.640625 15.578125 -3.453125 C 14.953125 -2.265625 14.0625 -1.351562 12.90625 -0.71875 C 11.75 -0.0820312 10.410156 0.234375 8.890625 0.234375 Z M 8.859375 -2.703125 C 10.140625 -2.703125 11.113281 -3.113281 11.78125 -3.9375 C 12.457031 -4.769531 12.796875 -6.003906 12.796875 -7.640625 C 12.796875 -9.253906 12.453125 -10.484375 11.765625 -11.328125 C 11.085938 -12.179688 10.128906 -12.609375 8.890625 -12.609375 C 7.640625 -12.609375 6.671875 -12.179688 5.984375 -11.328125 C 5.304688 -10.484375 4.96875 -9.253906 4.96875 -7.640625 C 4.96875 -6.003906 5.300781 -4.769531 5.96875 -3.9375 C 6.644531 -3.113281 7.609375 -2.703125 8.859375 -2.703125 Z M 8.859375 -2.703125 "/></g></g></g><g fill="#080808" fill-opacity="1"><g transform="translate(626.9897, 146.240614)"><g><path d="M 10.6875 -15.515625 C 14.300781 -15.515625 16.109375 -13.4375 16.109375 -9.28125 L 16.109375 0 L 12.375 0 L 12.375 -9.109375 C 12.375 -10.304688 12.144531 -11.175781 11.6875 -11.71875 C 11.226562 -12.269531 10.519531 -12.546875 9.5625 -12.546875 C 8.414062 -12.546875 7.492188 -12.179688 6.796875 -11.453125 C 6.097656 -10.722656 5.75 -9.757812 5.75 -8.5625 L 5.75 0 L 2.03125 0 L 2.03125 -10.84375 C 2.03125 -12.4375 1.953125 -13.863281 1.796875 -15.125 L 5.296875 -15.125 L 5.578125 -12.640625 C 6.085938 -13.554688 6.785156 -14.265625 7.671875 -14.765625 C 8.566406 -15.265625 9.570312 -15.515625 10.6875 -15.515625 Z M 10.6875 -15.515625 "/></g></g></g><g fill="#080808" fill-opacity="1"><g transform="translate(645.049245, 146.240614)"><g><path d="M 7.578125 0.234375 C 4.835938 0.234375 2.660156 -0.398438 1.046875 -1.671875 L 2.09375 -4.3125 C 3.707031 -3.113281 5.554688 -2.515625 7.640625 -2.515625 C 8.535156 -2.515625 9.226562 -2.664062 9.71875 -2.96875 C 10.207031 -3.269531 10.453125 -3.6875 10.453125 -4.21875 C 10.453125 -4.675781 10.28125 -5.039062 9.9375 -5.3125 C 9.601562 -5.582031 9.023438 -5.816406 8.203125 -6.015625 L 5.6875 -6.59375 C 2.9375 -7.1875 1.5625 -8.59375 1.5625 -10.8125 C 1.5625 -11.726562 1.816406 -12.539062 2.328125 -13.25 C 2.847656 -13.957031 3.578125 -14.507812 4.515625 -14.90625 C 5.460938 -15.3125 6.550781 -15.515625 7.78125 -15.515625 C 8.863281 -15.515625 9.90625 -15.347656 10.90625 -15.015625 C 11.90625 -14.691406 12.78125 -14.21875 13.53125 -13.59375 L 12.4375 -11.046875 C 10.914062 -12.171875 9.359375 -12.734375 7.765625 -12.734375 C 6.898438 -12.734375 6.226562 -12.570312 5.75 -12.25 C 5.269531 -11.925781 5.03125 -11.488281 5.03125 -10.9375 C 5.03125 -10.5 5.175781 -10.148438 5.46875 -9.890625 C 5.757812 -9.628906 6.253906 -9.40625 6.953125 -9.21875 L 9.53125 -8.65625 C 11.019531 -8.3125 12.109375 -7.785156 12.796875 -7.078125 C 13.492188 -6.367188 13.84375 -5.445312 13.84375 -4.3125 C 13.84375 -2.914062 13.28125 -1.804688 12.15625 -0.984375 C 11.039062 -0.171875 9.515625 0.234375 7.578125 0.234375 Z M 7.578125 0.234375 "/></g></g></g><g fill="#080808" fill-opacity="1"><g transform="translate(660.053953, 146.240614)"><g><path d="M 2.03125 0 L 2.03125 -15.125 L 5.75 -15.125 L 5.75 0 Z M 1.796875 -21.984375 L 5.96875 -21.984375 L 5.96875 -18.296875 L 1.796875 -18.296875 Z M 1.796875 -21.984375 "/></g></g></g><g fill="#080808" fill-opacity="1"><g transform="translate(667.870771, 146.240614)"><g><path d="M 10.65625 -15.515625 C 11.976562 -15.515625 13.144531 -15.1875 14.15625 -14.53125 C 15.164062 -13.882812 15.945312 -12.972656 16.5 -11.796875 C 17.0625 -10.617188 17.34375 -9.253906 17.34375 -7.703125 C 17.34375 -6.140625 17.054688 -4.753906 16.484375 -3.546875 C 15.921875 -2.335938 15.132812 -1.40625 14.125 -0.75 C 13.113281 -0.09375 11.957031 0.234375 10.65625 0.234375 C 9.539062 0.234375 8.546875 -0.00390625 7.671875 -0.484375 C 6.804688 -0.960938 6.15625 -1.628906 5.71875 -2.484375 L 5.71875 0 L 2.03125 0 L 2.03125 -22.046875 L 5.75 -22.046875 L 5.75 -12.84375 C 6.207031 -13.6875 6.863281 -14.34375 7.71875 -14.8125 C 8.582031 -15.28125 9.5625 -15.515625 10.65625 -15.515625 Z M 9.671875 -2.703125 C 10.910156 -2.703125 11.867188 -3.140625 12.546875 -4.015625 C 13.222656 -4.890625 13.5625 -6.117188 13.5625 -7.703125 C 13.5625 -9.253906 13.222656 -10.453125 12.546875 -11.296875 C 11.867188 -12.148438 10.898438 -12.578125 9.640625 -12.578125 C 8.390625 -12.578125 7.421875 -12.144531 6.734375 -11.28125 C 6.054688 -10.425781 5.71875 -9.210938 5.71875 -7.640625 C 5.71875 -6.035156 6.054688 -4.8125 6.734375 -3.96875 C 7.421875 -3.125 8.398438 -2.703125 9.671875 -2.703125 Z M 9.671875 -2.703125 "/></g></g></g><g fill="#080808" fill-opacity="1"><g transform="translate(686.439467, 146.240614)"><g><path d="M 2.03125 0 L 2.03125 -15.125 L 5.75 -15.125 L 5.75 0 Z M 1.796875 -21.984375 L 5.96875 -21.984375 L 5.96875 -18.296875 L 1.796875 -18.296875 Z M 1.796875 -21.984375 "/></g></g></g><g fill="#080808" fill-opacity="1"><g transform="translate(694.256286, 146.240614)"><g><path d="M 2.03125 0 L 2.03125 -22.046875 L 5.75 -22.046875 L 5.75 0 Z M 2.03125 0 "/></g></g></g><g fill="#080808" fill-opacity="1"><g transform="translate(702.073105, 146.240614)"><g><path d="M 2.03125 0 L 2.03125 -15.125 L 5.75 -15.125 L 5.75 0 Z M 1.796875 -21.984375 L 5.96875 -21.984375 L 5.96875 -18.296875 L 1.796875 -18.296875 Z M 1.796875 -21.984375 "/></g></g></g><g fill="#080808" fill-opacity="1"><g transform="translate(709.889923, 146.240614)"><g><path d="M 6.796875 -12.3125 L 6.796875 -5.546875 C 6.796875 -3.765625 7.625 -2.875 9.28125 -2.875 C 9.738281 -2.875 10.238281 -2.953125 10.78125 -3.109375 L 10.78125 -0.15625 C 10.125 0.0820312 9.328125 0.203125 8.390625 0.203125 C 6.671875 0.203125 5.351562 -0.273438 4.4375 -1.234375 C 3.519531 -2.191406 3.0625 -3.566406 3.0625 -5.359375 L 3.0625 -12.3125 L 0.15625 -12.3125 L 0.15625 -15.125 L 3.0625 -15.125 L 3.0625 -18.8125 L 6.796875 -20.0625 L 6.796875 -15.125 L 10.8125 -15.125 L 10.8125 -12.3125 Z M 6.796875 -12.3125 "/></g></g></g><g fill="#080808" fill-opacity="1"><g transform="translate(721.240786, 146.240614)"><g><path d="M 2.03125 0 L 2.03125 -15.125 L 5.75 -15.125 L 5.75 0 Z M 1.796875 -21.984375 L 5.96875 -21.984375 L 5.96875 -18.296875 L 1.796875 -18.296875 Z M 1.796875 -21.984375 "/></g></g></g><g fill="#080808" fill-opacity="1"><g transform="translate(729.057605, 146.240614)"><g><path d="M 15.28125 -7.375 L 4.859375 -7.375 C 4.929688 -5.75 5.332031 -4.550781 6.0625 -3.78125 C 6.789062 -3.019531 7.875 -2.640625 9.3125 -2.640625 C 10.96875 -2.640625 12.503906 -3.175781 13.921875 -4.25 L 15 -1.671875 C 14.28125 -1.097656 13.394531 -0.632812 12.34375 -0.28125 C 11.300781 0.0625 10.242188 0.234375 9.171875 0.234375 C 6.691406 0.234375 4.742188 -0.460938 3.328125 -1.859375 C 1.910156 -3.253906 1.203125 -5.171875 1.203125 -7.609375 C 1.203125 -9.148438 1.507812 -10.519531 2.125 -11.71875 C 2.75 -12.914062 3.617188 -13.847656 4.734375 -14.515625 C 5.847656 -15.179688 7.113281 -15.515625 8.53125 -15.515625 C 10.613281 -15.515625 12.257812 -14.835938 13.46875 -13.484375 C 14.675781 -12.140625 15.28125 -10.289062 15.28125 -7.9375 Z M 8.625 -12.8125 C 7.625 -12.8125 6.804688 -12.515625 6.171875 -11.921875 C 5.546875 -11.335938 5.144531 -10.488281 4.96875 -9.375 L 12.015625 -9.375 C 11.890625 -10.507812 11.539062 -11.363281 10.96875 -11.9375 C 10.40625 -12.519531 9.625 -12.8125 8.625 -12.8125 Z M 8.625 -12.8125 "/></g></g></g><g fill="#080808" fill-opacity="1"><g transform="translate(745.469941, 146.240614)"><g><path d="M 7.578125 0.234375 C 4.835938 0.234375 2.660156 -0.398438 1.046875 -1.671875 L 2.09375 -4.3125 C 3.707031 -3.113281 5.554688 -2.515625 7.640625 -2.515625 C 8.535156 -2.515625 9.226562 -2.664062 9.71875 -2.96875 C 10.207031 -3.269531 10.453125 -3.6875 10.453125 -4.21875 C 10.453125 -4.675781 10.28125 -5.039062 9.9375 -5.3125 C 9.601562 -5.582031 9.023438 -5.816406 8.203125 -6.015625 L 5.6875 -6.59375 C 2.9375 -7.1875 1.5625 -8.59375 1.5625 -10.8125 C 1.5625 -11.726562 1.816406 -12.539062 2.328125 -13.25 C 2.847656 -13.957031 3.578125 -14.507812 4.515625 -14.90625 C 5.460938 -15.3125 6.550781 -15.515625 7.78125 -15.515625 C 8.863281 -15.515625 9.90625 -15.347656 10.90625 -15.015625 C 11.90625 -14.691406 12.78125 -14.21875 13.53125 -13.59375 L 12.4375 -11.046875 C 10.914062 -12.171875 9.359375 -12.734375 7.765625 -12.734375 C 6.898438 -12.734375 6.226562 -12.570312 5.75 -12.25 C 5.269531 -11.925781 5.03125 -11.488281 5.03125 -10.9375 C 5.03125 -10.5 5.175781 -10.148438 5.46875 -9.890625 C 5.757812 -9.628906 6.253906 -9.40625 6.953125 -9.21875 L 9.53125 -8.65625 C 11.019531 -8.3125 12.109375 -7.785156 12.796875 -7.078125 C 13.492188 -6.367188 13.84375 -5.445312 13.84375 -4.3125 C 13.84375 -2.914062 13.28125 -1.804688 12.15625 -0.984375 C 11.039062 -0.171875 9.515625 0.234375 7.578125 0.234375 Z M 7.578125 0.234375 "/></g></g></g><g clip-path="url(#4abde6b667)"><path fill="#d9d9d9" d="M 1213.859375 78.828125 L 1587.597656 78.828125 L 1587.597656 191.921875 L 1213.859375 191.921875 Z M 1213.859375 78.828125 " fill-opacity="1" fill-rule="nonzero"/></g><g fill="#080808" fill-opacity="1"><g transform="translate(1285.98704, 146.240614)"><g><path d="M 11.984375 0.265625 C 9.890625 0.265625 8.054688 -0.179688 6.484375 -1.078125 C 4.921875 -1.972656 3.71875 -3.242188 2.875 -4.890625 C 2.039062 -6.546875 1.625 -8.476562 1.625 -10.6875 C 1.625 -12.882812 2.039062 -14.804688 2.875 -16.453125 C 3.71875 -18.109375 4.921875 -19.378906 6.484375 -20.265625 C 8.054688 -21.148438 9.890625 -21.59375 11.984375 -21.59375 C 13.421875 -21.59375 14.769531 -21.367188 16.03125 -20.921875 C 17.300781 -20.472656 18.359375 -19.847656 19.203125 -19.046875 L 17.9375 -16.234375 C 16.976562 -17.015625 16.023438 -17.578125 15.078125 -17.921875 C 14.128906 -18.273438 13.117188 -18.453125 12.046875 -18.453125 C 9.984375 -18.453125 8.390625 -17.78125 7.265625 -16.4375 C 6.140625 -15.101562 5.578125 -13.1875 5.578125 -10.6875 C 5.578125 -8.175781 6.132812 -6.242188 7.25 -4.890625 C 8.363281 -3.546875 9.960938 -2.875 12.046875 -2.875 C 13.117188 -2.875 14.128906 -3.046875 15.078125 -3.390625 C 16.023438 -3.742188 16.976562 -4.3125 17.9375 -5.09375 L 19.203125 -2.28125 C 18.359375 -1.476562 17.300781 -0.851562 16.03125 -0.40625 C 14.769531 0.0390625 13.421875 0.265625 11.984375 0.265625 Z M 11.984375 0.265625 "/></g></g></g><g fill="#080808" fill-opacity="1"><g transform="translate(1306.502449, 146.240614)"><g><path d="M 10.6875 -15.515625 C 14.300781 -15.515625 16.109375 -13.4375 16.109375 -9.28125 L 16.109375 0 L 12.375 0 L 12.375 -9.109375 C 12.375 -10.304688 12.144531 -11.175781 11.6875 -11.71875 C 11.226562 -12.269531 10.519531 -12.546875 9.5625 -12.546875 C 8.414062 -12.546875 7.492188 -12.179688 6.796875 -11.453125 C 6.097656 -10.722656 5.75 -9.757812 5.75 -8.5625 L 5.75 0 L 2.03125 0 L 2.03125 -22.046875 L 5.75 -22.046875 L 5.75 -12.9375 C 6.269531 -13.757812 6.957031 -14.394531 7.8125 -14.84375 C 8.675781 -15.289062 9.632812 -15.515625 10.6875 -15.515625 Z M 10.6875 -15.515625 "/></g></g></g><g fill="#080808" fill-opacity="1"><g transform="translate(1324.561994, 146.240614)"><g><path d="M 16.5 -15.125 L 16.5 0 L 12.8125 0 L 12.8125 -2.421875 C 12.351562 -1.585938 11.695312 -0.9375 10.84375 -0.46875 C 9.988281 0 9.007812 0.234375 7.90625 0.234375 C 6.59375 0.234375 5.425781 -0.0820312 4.40625 -0.71875 C 3.382812 -1.351562 2.59375 -2.257812 2.03125 -3.4375 C 1.476562 -4.625 1.203125 -5.992188 1.203125 -7.546875 C 1.203125 -9.109375 1.484375 -10.492188 2.046875 -11.703125 C 2.617188 -12.910156 3.410156 -13.847656 4.421875 -14.515625 C 5.441406 -15.179688 6.601562 -15.515625 7.90625 -15.515625 C 9.007812 -15.515625 9.988281 -15.28125 10.84375 -14.8125 C 11.695312 -14.34375 12.351562 -13.6875 12.8125 -12.84375 L 12.8125 -15.125 Z M 8.921875 -2.703125 C 10.160156 -2.703125 11.117188 -3.128906 11.796875 -3.984375 C 12.472656 -4.835938 12.8125 -6.046875 12.8125 -7.609375 C 12.8125 -9.203125 12.472656 -10.425781 11.796875 -11.28125 C 11.117188 -12.144531 10.148438 -12.578125 8.890625 -12.578125 C 7.648438 -12.578125 6.6875 -12.132812 6 -11.25 C 5.3125 -10.363281 4.96875 -9.128906 4.96875 -7.546875 C 4.96875 -5.992188 5.3125 -4.796875 6 -3.953125 C 6.6875 -3.117188 7.660156 -2.703125 8.921875 -2.703125 Z M 8.921875 -2.703125 "/></g></g></g><g fill="#080808" fill-opacity="1"><g transform="translate(1343.100733, 146.240614)"><g><path d="M 10.6875 -15.515625 C 14.300781 -15.515625 16.109375 -13.4375 16.109375 -9.28125 L 16.109375 0 L 12.375 0 L 12.375 -9.109375 C 12.375 -10.304688 12.144531 -11.175781 11.6875 -11.71875 C 11.226562 -12.269531 10.519531 -12.546875 9.5625 -12.546875 C 8.414062 -12.546875 7.492188 -12.179688 6.796875 -11.453125 C 6.097656 -10.722656 5.75 -9.757812 5.75 -8.5625 L 5.75 0 L 2.03125 0 L 2.03125 -10.84375 C 2.03125 -12.4375 1.953125 -13.863281 1.796875 -15.125 L 5.296875 -15.125 L 5.578125 -12.640625 C 6.085938 -13.554688 6.785156 -14.265625 7.671875 -14.765625 C 8.566406 -15.265625 9.570312 -15.515625 10.6875 -15.515625 Z M 10.6875 -15.515625 "/></g></g></g><g fill="#080808" fill-opacity="1"><g transform="translate(1361.160278, 146.240614)"><g><path d="M 16.65625 -15.125 L 16.65625 -0.484375 C 16.65625 1.878906 16.003906 3.664062 14.703125 4.875 C 13.410156 6.09375 11.503906 6.703125 8.984375 6.703125 C 6.648438 6.703125 4.59375 6.210938 2.8125 5.234375 L 3.421875 2.390625 C 5.253906 3.347656 7.078125 3.828125 8.890625 3.828125 C 11.585938 3.828125 12.9375 2.488281 12.9375 -0.1875 L 12.9375 -3.171875 C 12.476562 -2.359375 11.804688 -1.695312 10.921875 -1.1875 C 10.046875 -0.675781 9.0625 -0.421875 7.96875 -0.421875 C 6.644531 -0.421875 5.46875 -0.734375 4.4375 -1.359375 C 3.414062 -1.992188 2.617188 -2.882812 2.046875 -4.03125 C 1.484375 -5.175781 1.203125 -6.488281 1.203125 -7.96875 C 1.203125 -9.445312 1.484375 -10.757812 2.046875 -11.90625 C 2.617188 -13.050781 3.414062 -13.9375 4.4375 -14.5625 C 5.46875 -15.195312 6.644531 -15.515625 7.96875 -15.515625 C 9.082031 -15.515625 10.070312 -15.28125 10.9375 -14.8125 C 11.8125 -14.34375 12.476562 -13.6875 12.9375 -12.84375 L 12.9375 -15.125 Z M 8.953125 -3.359375 C 10.191406 -3.359375 11.164062 -3.765625 11.875 -4.578125 C 12.582031 -5.398438 12.9375 -6.53125 12.9375 -7.96875 C 12.9375 -9.40625 12.585938 -10.53125 11.890625 -11.34375 C 11.191406 -12.164062 10.210938 -12.578125 8.953125 -12.578125 C 7.710938 -12.578125 6.738281 -12.164062 6.03125 -11.34375 C 5.320312 -10.53125 4.96875 -9.40625 4.96875 -7.96875 C 4.96875 -6.53125 5.320312 -5.398438 6.03125 -4.578125 C 6.738281 -3.765625 7.710938 -3.359375 8.953125 -3.359375 Z M 8.953125 -3.359375 "/></g></g></g><g fill="#080808" fill-opacity="1"><g transform="translate(1379.818819, 146.240614)"><g><path d="M 15.28125 -7.375 L 4.859375 -7.375 C 4.929688 -5.75 5.332031 -4.550781 6.0625 -3.78125 C 6.789062 -3.019531 7.875 -2.640625 9.3125 -2.640625 C 10.96875 -2.640625 12.503906 -3.175781 13.921875 -4.25 L 15 -1.671875 C 14.28125 -1.097656 13.394531 -0.632812 12.34375 -0.28125 C 11.300781 0.0625 10.242188 0.234375 9.171875 0.234375 C 6.691406 0.234375 4.742188 -0.460938 3.328125 -1.859375 C 1.910156 -3.253906 1.203125 -5.171875 1.203125 -7.609375 C 1.203125 -9.148438 1.507812 -10.519531 2.125 -11.71875 C 2.75 -12.914062 3.617188 -13.847656 4.734375 -14.515625 C 5.847656 -15.179688 7.113281 -15.515625 8.53125 -15.515625 C 10.613281 -15.515625 12.257812 -14.835938 13.46875 -13.484375 C 14.675781 -12.140625 15.28125 -10.289062 15.28125 -7.9375 Z M 8.625 -12.8125 C 7.625 -12.8125 6.804688 -12.515625 6.171875 -11.921875 C 5.546875 -11.335938 5.144531 -10.488281 4.96875 -9.375 L 12.015625 -9.375 C 11.890625 -10.507812 11.539062 -11.363281 10.96875 -11.9375 C 10.40625 -12.519531 9.625 -12.8125 8.625 -12.8125 Z M 8.625 -12.8125 "/></g></g></g><g fill="#080808" fill-opacity="1"><g transform="translate(1396.231144, 146.240614)"><g/></g></g><g fill="#080808" fill-opacity="1"><g transform="translate(1404.437312, 146.240614)"><g><path d="M 2.3125 -21.328125 L 11.5625 -21.328125 C 13.851562 -21.328125 15.640625 -20.769531 16.921875 -19.65625 C 18.203125 -18.550781 18.84375 -17.039062 18.84375 -15.125 C 18.84375 -13.207031 18.195312 -11.6875 16.90625 -10.5625 C 15.625 -9.445312 13.84375 -8.890625 11.5625 -8.890625 L 6.171875 -8.890625 L 6.171875 0 L 2.3125 0 Z M 11.109375 -11.890625 C 12.453125 -11.890625 13.46875 -12.160156 14.15625 -12.703125 C 14.84375 -13.253906 15.1875 -14.050781 15.1875 -15.09375 C 15.1875 -16.15625 14.847656 -16.957031 14.171875 -17.5 C 13.492188 -18.050781 12.472656 -18.328125 11.109375 -18.328125 L 6.171875 -18.328125 L 6.171875 -11.890625 Z M 11.109375 -11.890625 "/></g></g></g><g fill="#080808" fill-opacity="1"><g transform="translate(1424.383681, 146.240614)"><g><path d="M 10.1875 -15.484375 C 10.757812 -15.484375 11.257812 -15.40625 11.6875 -15.25 L 11.65625 -11.828125 C 11.007812 -12.085938 10.347656 -12.21875 9.671875 -12.21875 C 8.398438 -12.21875 7.425781 -11.847656 6.75 -11.109375 C 6.082031 -10.367188 5.75 -9.390625 5.75 -8.171875 L 5.75 0 L 2.03125 0 L 2.03125 -10.84375 C 2.03125 -12.4375 1.953125 -13.863281 1.796875 -15.125 L 5.296875 -15.125 L 5.59375 -12.453125 C 5.976562 -13.429688 6.578125 -14.179688 7.390625 -14.703125 C 8.210938 -15.222656 9.144531 -15.484375 10.1875 -15.484375 Z M 10.1875 -15.484375 "/></g></g></g><g fill="#080808" fill-opacity="1"><g transform="translate(1436.123881, 146.240614)"><g><path d="M 8.890625 0.234375 C 7.359375 0.234375 6.003906 -0.0820312 4.828125 -0.71875 C 3.660156 -1.351562 2.765625 -2.265625 2.140625 -3.453125 C 1.515625 -4.640625 1.203125 -6.035156 1.203125 -7.640625 C 1.203125 -9.234375 1.515625 -10.625 2.140625 -11.8125 C 2.765625 -13 3.660156 -13.910156 4.828125 -14.546875 C 6.003906 -15.191406 7.359375 -15.515625 8.890625 -15.515625 C 10.410156 -15.515625 11.75 -15.191406 12.90625 -14.546875 C 14.0625 -13.910156 14.953125 -13 15.578125 -11.8125 C 16.210938 -10.625 16.53125 -9.234375 16.53125 -7.640625 C 16.53125 -6.035156 16.210938 -4.640625 15.578125 -3.453125 C 14.953125 -2.265625 14.0625 -1.351562 12.90625 -0.71875 C 11.75 -0.0820312 10.410156 0.234375 8.890625 0.234375 Z M 8.859375 -2.703125 C 10.140625 -2.703125 11.113281 -3.113281 11.78125 -3.9375 C 12.457031 -4.769531 12.796875 -6.003906 12.796875 -7.640625 C 12.796875 -9.253906 12.453125 -10.484375 11.765625 -11.328125 C 11.085938 -12.179688 10.128906 -12.609375 8.890625 -12.609375 C 7.640625 -12.609375 6.671875 -12.179688 5.984375 -11.328125 C 5.304688 -10.484375 4.96875 -9.253906 4.96875 -7.640625 C 4.96875 -6.003906 5.300781 -4.769531 5.96875 -3.9375 C 6.644531 -3.113281 7.609375 -2.703125 8.859375 -2.703125 Z M 8.859375 -2.703125 "/></g></g></g><g fill="#080808" fill-opacity="1"><g transform="translate(1453.853989, 146.240614)"><g><path d="M 8.890625 0.234375 C 7.316406 0.234375 5.953125 -0.0820312 4.796875 -0.71875 C 3.640625 -1.351562 2.75 -2.253906 2.125 -3.421875 C 1.507812 -4.597656 1.203125 -5.972656 1.203125 -7.546875 C 1.203125 -9.128906 1.523438 -10.519531 2.171875 -11.71875 C 2.816406 -12.914062 3.734375 -13.847656 4.921875 -14.515625 C 6.109375 -15.179688 7.484375 -15.515625 9.046875 -15.515625 C 10.117188 -15.515625 11.160156 -15.34375 12.171875 -15 C 13.179688 -14.664062 13.988281 -14.195312 14.59375 -13.59375 L 13.53125 -10.96875 C 12.894531 -11.476562 12.21875 -11.867188 11.5 -12.140625 C 10.78125 -12.410156 10.070312 -12.546875 9.375 -12.546875 C 8.019531 -12.546875 6.960938 -12.117188 6.203125 -11.265625 C 5.441406 -10.421875 5.0625 -9.203125 5.0625 -7.609375 C 5.0625 -6.015625 5.4375 -4.796875 6.1875 -3.953125 C 6.9375 -3.117188 8 -2.703125 9.375 -2.703125 C 10.070312 -2.703125 10.78125 -2.835938 11.5 -3.109375 C 12.21875 -3.390625 12.894531 -3.789062 13.53125 -4.3125 L 14.59375 -1.671875 C 13.945312 -1.078125 13.113281 -0.609375 12.09375 -0.265625 C 11.082031 0.0664062 10.015625 0.234375 8.890625 0.234375 Z M 8.890625 0.234375 "/></g></g></g><g fill="#080808" fill-opacity="1"><g transform="translate(1468.918586, 146.240614)"><g><path d="M 15.28125 -7.375 L 4.859375 -7.375 C 4.929688 -5.75 5.332031 -4.550781 6.0625 -3.78125 C 6.789062 -3.019531 7.875 -2.640625 9.3125 -2.640625 C 10.96875 -2.640625 12.503906 -3.175781 13.921875 -4.25 L 15 -1.671875 C 14.28125 -1.097656 13.394531 -0.632812 12.34375 -0.28125 C 11.300781 0.0625 10.242188 0.234375 9.171875 0.234375 C 6.691406 0.234375 4.742188 -0.460938 3.328125 -1.859375 C 1.910156 -3.253906 1.203125 -5.171875 1.203125 -7.609375 C 1.203125 -9.148438 1.507812 -10.519531 2.125 -11.71875 C 2.75 -12.914062 3.617188 -13.847656 4.734375 -14.515625 C 5.847656 -15.179688 7.113281 -15.515625 8.53125 -15.515625 C 10.613281 -15.515625 12.257812 -14.835938 13.46875 -13.484375 C 14.675781 -12.140625 15.28125 -10.289062 15.28125 -7.9375 Z M 8.625 -12.8125 C 7.625 -12.8125 6.804688 -12.515625 6.171875 -11.921875 C 5.546875 -11.335938 5.144531 -10.488281 4.96875 -9.375 L 12.015625 -9.375 C 11.890625 -10.507812 11.539062 -11.363281 10.96875 -11.9375 C 10.40625 -12.519531 9.625 -12.8125 8.625 -12.8125 Z M 8.625 -12.8125 "/></g></g></g><g fill="#080808" fill-opacity="1"><g transform="translate(1485.330922, 146.240614)"><g><path d="M 7.578125 0.234375 C 4.835938 0.234375 2.660156 -0.398438 1.046875 -1.671875 L 2.09375 -4.3125 C 3.707031 -3.113281 5.554688 -2.515625 7.640625 -2.515625 C 8.535156 -2.515625 9.226562 -2.664062 9.71875 -2.96875 C 10.207031 -3.269531 10.453125 -3.6875 10.453125 -4.21875 C 10.453125 -4.675781 10.28125 -5.039062 9.9375 -5.3125 C 9.601562 -5.582031 9.023438 -5.816406 8.203125 -6.015625 L 5.6875 -6.59375 C 2.9375 -7.1875 1.5625 -8.59375 1.5625 -10.8125 C 1.5625 -11.726562 1.816406 -12.539062 2.328125 -13.25 C 2.847656 -13.957031 3.578125 -14.507812 4.515625 -14.90625 C 5.460938 -15.3125 6.550781 -15.515625 7.78125 -15.515625 C 8.863281 -15.515625 9.90625 -15.347656 10.90625 -15.015625 C 11.90625 -14.691406 12.78125 -14.21875 13.53125 -13.59375 L 12.4375 -11.046875 C 10.914062 -12.171875 9.359375 -12.734375 7.765625 -12.734375 C 6.898438 -12.734375 6.226562 -12.570312 5.75 -12.25 C 5.269531 -11.925781 5.03125 -11.488281 5.03125 -10.9375 C 5.03125 -10.5 5.175781 -10.148438 5.46875 -9.890625 C 5.757812 -9.628906 6.253906 -9.40625 6.953125 -9.21875 L 9.53125 -8.65625 C 11.019531 -8.3125 12.109375 -7.785156 12.796875 -7.078125 C 13.492188 -6.367188 13.84375 -5.445312 13.84375 -4.3125 C 13.84375 -2.914062 13.28125 -1.804688 12.15625 -0.984375 C 11.039062 -0.171875 9.515625 0.234375 7.578125 0.234375 Z M 7.578125 0.234375 "/></g></g></g><g fill="#080808" fill-opacity="1"><g transform="translate(1500.33563, 146.240614)"><g><path d="M 7.578125 0.234375 C 4.835938 0.234375 2.660156 -0.398438 1.046875 -1.671875 L 2.09375 -4.3125 C 3.707031 -3.113281 5.554688 -2.515625 7.640625 -2.515625 C 8.535156 -2.515625 9.226562 -2.664062 9.71875 -2.96875 C 10.207031 -3.269531 10.453125 -3.6875 10.453125 -4.21875 C 10.453125 -4.675781 10.28125 -5.039062 9.9375 -5.3125 C 9.601562 -5.582031 9.023438 -5.816406 8.203125 -6.015625 L 5.6875 -6.59375 C 2.9375 -7.1875 1.5625 -8.59375 1.5625 -10.8125 C 1.5625 -11.726562 1.816406 -12.539062 2.328125 -13.25 C 2.847656 -13.957031 3.578125 -14.507812 4.515625 -14.90625 C 5.460938 -15.3125 6.550781 -15.515625 7.78125 -15.515625 C 8.863281 -15.515625 9.90625 -15.347656 10.90625 -15.015625 C 11.90625 -14.691406 12.78125 -14.21875 13.53125 -13.59375 L 12.4375 -11.046875 C 10.914062 -12.171875 9.359375 -12.734375 7.765625 -12.734375 C 6.898438 -12.734375 6.226562 -12.570312 5.75 -12.25 C 5.269531 -11.925781 5.03125 -11.488281 5.03125 -10.9375 C 5.03125 -10.5 5.175781 -10.148438 5.46875 -9.890625 C 5.757812 -9.628906 6.253906 -9.40625 6.953125 -9.21875 L 9.53125 -8.65625 C 11.019531 -8.3125 12.109375 -7.785156 12.796875 -7.078125 C 13.492188 -6.367188 13.84375 -5.445312 13.84375 -4.3125 C 13.84375 -2.914062 13.28125 -1.804688 12.15625 -0.984375 C 11.039062 -0.171875 9.515625 0.234375 7.578125 0.234375 Z M 7.578125 0.234375 "/></g></g></g><g clip-path="url(#be2fa9c9aa)"><path fill="#d9d9d9" d="M 809.457031 78.828125 L 1183.199219 78.828125 L 1183.199219 191.921875 L 809.457031 191.921875 Z M 809.457031 78.828125 " fill-opacity="1" fill-rule="nonzero"/></g><g fill="#080808" fill-opacity="1"><g transform="translate(894.647235, 146.240614)"><g><path d="M 11.984375 0.265625 C 9.890625 0.265625 8.054688 -0.179688 6.484375 -1.078125 C 4.921875 -1.972656 3.71875 -3.242188 2.875 -4.890625 C 2.039062 -6.546875 1.625 -8.476562 1.625 -10.6875 C 1.625 -12.882812 2.039062 -14.804688 2.875 -16.453125 C 3.71875 -18.109375 4.921875 -19.378906 6.484375 -20.265625 C 8.054688 -21.148438 9.890625 -21.59375 11.984375 -21.59375 C 13.421875 -21.59375 14.769531 -21.367188 16.03125 -20.921875 C 17.300781 -20.472656 18.359375 -19.847656 19.203125 -19.046875 L 17.9375 -16.234375 C 16.976562 -17.015625 16.023438 -17.578125 15.078125 -17.921875 C 14.128906 -18.273438 13.117188 -18.453125 12.046875 -18.453125 C 9.984375 -18.453125 8.390625 -17.78125 7.265625 -16.4375 C 6.140625 -15.101562 5.578125 -13.1875 5.578125 -10.6875 C 5.578125 -8.175781 6.132812 -6.242188 7.25 -4.890625 C 8.363281 -3.546875 9.960938 -2.875 12.046875 -2.875 C 13.117188 -2.875 14.128906 -3.046875 15.078125 -3.390625 C 16.023438 -3.742188 16.976562 -4.3125 17.9375 -5.09375 L 19.203125 -2.28125 C 18.359375 -1.476562 17.300781 -0.851562 16.03125 -0.40625 C 14.769531 0.0390625 13.421875 0.265625 11.984375 0.265625 Z M 11.984375 0.265625 "/></g></g></g><g fill="#080808" fill-opacity="1"><g transform="translate(915.162644, 146.240614)"><g><path d="M 10.6875 -15.515625 C 14.300781 -15.515625 16.109375 -13.4375 16.109375 -9.28125 L 16.109375 0 L 12.375 0 L 12.375 -9.109375 C 12.375 -10.304688 12.144531 -11.175781 11.6875 -11.71875 C 11.226562 -12.269531 10.519531 -12.546875 9.5625 -12.546875 C 8.414062 -12.546875 7.492188 -12.179688 6.796875 -11.453125 C 6.097656 -10.722656 5.75 -9.757812 5.75 -8.5625 L 5.75 0 L 2.03125 0 L 2.03125 -22.046875 L 5.75 -22.046875 L 5.75 -12.9375 C 6.269531 -13.757812 6.957031 -14.394531 7.8125 -14.84375 C 8.675781 -15.289062 9.632812 -15.515625 10.6875 -15.515625 Z M 10.6875 -15.515625 "/></g></g></g><g fill="#080808" fill-opacity="1"><g transform="translate(933.222189, 146.240614)"><g><path d="M 16.5 -15.125 L 16.5 0 L 12.8125 0 L 12.8125 -2.421875 C 12.351562 -1.585938 11.695312 -0.9375 10.84375 -0.46875 C 9.988281 0 9.007812 0.234375 7.90625 0.234375 C 6.59375 0.234375 5.425781 -0.0820312 4.40625 -0.71875 C 3.382812 -1.351562 2.59375 -2.257812 2.03125 -3.4375 C 1.476562 -4.625 1.203125 -5.992188 1.203125 -7.546875 C 1.203125 -9.109375 1.484375 -10.492188 2.046875 -11.703125 C 2.617188 -12.910156 3.410156 -13.847656 4.421875 -14.515625 C 5.441406 -15.179688 6.601562 -15.515625 7.90625 -15.515625 C 9.007812 -15.515625 9.988281 -15.28125 10.84375 -14.8125 C 11.695312 -14.34375 12.351562 -13.6875 12.8125 -12.84375 L 12.8125 -15.125 Z M 8.921875 -2.703125 C 10.160156 -2.703125 11.117188 -3.128906 11.796875 -3.984375 C 12.472656 -4.835938 12.8125 -6.046875 12.8125 -7.609375 C 12.8125 -9.203125 12.472656 -10.425781 11.796875 -11.28125 C 11.117188 -12.144531 10.148438 -12.578125 8.890625 -12.578125 C 7.648438 -12.578125 6.6875 -12.132812 6 -11.25 C 5.3125 -10.363281 4.96875 -9.128906 4.96875 -7.546875 C 4.96875 -5.992188 5.3125 -4.796875 6 -3.953125 C 6.6875 -3.117188 7.660156 -2.703125 8.921875 -2.703125 Z M 8.921875 -2.703125 "/></g></g></g><g fill="#080808" fill-opacity="1"><g transform="translate(951.760929, 146.240614)"><g><path d="M 10.6875 -15.515625 C 14.300781 -15.515625 16.109375 -13.4375 16.109375 -9.28125 L 16.109375 0 L 12.375 0 L 12.375 -9.109375 C 12.375 -10.304688 12.144531 -11.175781 11.6875 -11.71875 C 11.226562 -12.269531 10.519531 -12.546875 9.5625 -12.546875 C 8.414062 -12.546875 7.492188 -12.179688 6.796875 -11.453125 C 6.097656 -10.722656 5.75 -9.757812 5.75 -8.5625 L 5.75 0 L 2.03125 0 L 2.03125 -10.84375 C 2.03125 -12.4375 1.953125 -13.863281 1.796875 -15.125 L 5.296875 -15.125 L 5.578125 -12.640625 C 6.085938 -13.554688 6.785156 -14.265625 7.671875 -14.765625 C 8.566406 -15.265625 9.570312 -15.515625 10.6875 -15.515625 Z M 10.6875 -15.515625 "/></g></g></g><g fill="#080808" fill-opacity="1"><g transform="translate(969.820474, 146.240614)"><g><path d="M 16.65625 -15.125 L 16.65625 -0.484375 C 16.65625 1.878906 16.003906 3.664062 14.703125 4.875 C 13.410156 6.09375 11.503906 6.703125 8.984375 6.703125 C 6.648438 6.703125 4.59375 6.210938 2.8125 5.234375 L 3.421875 2.390625 C 5.253906 3.347656 7.078125 3.828125 8.890625 3.828125 C 11.585938 3.828125 12.9375 2.488281 12.9375 -0.1875 L 12.9375 -3.171875 C 12.476562 -2.359375 11.804688 -1.695312 10.921875 -1.1875 C 10.046875 -0.675781 9.0625 -0.421875 7.96875 -0.421875 C 6.644531 -0.421875 5.46875 -0.734375 4.4375 -1.359375 C 3.414062 -1.992188 2.617188 -2.882812 2.046875 -4.03125 C 1.484375 -5.175781 1.203125 -6.488281 1.203125 -7.96875 C 1.203125 -9.445312 1.484375 -10.757812 2.046875 -11.90625 C 2.617188 -13.050781 3.414062 -13.9375 4.4375 -14.5625 C 5.46875 -15.195312 6.644531 -15.515625 7.96875 -15.515625 C 9.082031 -15.515625 10.070312 -15.28125 10.9375 -14.8125 C 11.8125 -14.34375 12.476562 -13.6875 12.9375 -12.84375 L 12.9375 -15.125 Z M 8.953125 -3.359375 C 10.191406 -3.359375 11.164062 -3.765625 11.875 -4.578125 C 12.582031 -5.398438 12.9375 -6.53125 12.9375 -7.96875 C 12.9375 -9.40625 12.585938 -10.53125 11.890625 -11.34375 C 11.191406 -12.164062 10.210938 -12.578125 8.953125 -12.578125 C 7.710938 -12.578125 6.738281 -12.164062 6.03125 -11.34375 C 5.320312 -10.53125 4.96875 -9.40625 4.96875 -7.96875 C 4.96875 -6.53125 5.320312 -5.398438 6.03125 -4.578125 C 6.738281 -3.765625 7.710938 -3.359375 8.953125 -3.359375 Z M 8.953125 -3.359375 "/></g></g></g><g fill="#080808" fill-opacity="1"><g transform="translate(988.479015, 146.240614)"><g><path d="M 15.28125 -7.375 L 4.859375 -7.375 C 4.929688 -5.75 5.332031 -4.550781 6.0625 -3.78125 C 6.789062 -3.019531 7.875 -2.640625 9.3125 -2.640625 C 10.96875 -2.640625 12.503906 -3.175781 13.921875 -4.25 L 15 -1.671875 C 14.28125 -1.097656 13.394531 -0.632812 12.34375 -0.28125 C 11.300781 0.0625 10.242188 0.234375 9.171875 0.234375 C 6.691406 0.234375 4.742188 -0.460938 3.328125 -1.859375 C 1.910156 -3.253906 1.203125 -5.171875 1.203125 -7.609375 C 1.203125 -9.148438 1.507812 -10.519531 2.125 -11.71875 C 2.75 -12.914062 3.617188 -13.847656 4.734375 -14.515625 C 5.847656 -15.179688 7.113281 -15.515625 8.53125 -15.515625 C 10.613281 -15.515625 12.257812 -14.835938 13.46875 -13.484375 C 14.675781 -12.140625 15.28125 -10.289062 15.28125 -7.9375 Z M 8.625 -12.8125 C 7.625 -12.8125 6.804688 -12.515625 6.171875 -11.921875 C 5.546875 -11.335938 5.144531 -10.488281 4.96875 -9.375 L 12.015625 -9.375 C 11.890625 -10.507812 11.539062 -11.363281 10.96875 -11.9375 C 10.40625 -12.519531 9.625 -12.8125 8.625 -12.8125 Z M 8.625 -12.8125 "/></g></g></g><g fill="#080808" fill-opacity="1"><g transform="translate(1004.89134, 146.240614)"><g/></g></g><g fill="#080808" fill-opacity="1"><g transform="translate(1013.097508, 146.240614)"><g><path d="M 7.3125 0 L 7.3125 -18.15625 L 0.359375 -18.15625 L 0.359375 -21.328125 L 18.1875 -21.328125 L 18.1875 -18.15625 L 11.203125 -18.15625 L 11.203125 0 Z M 7.3125 0 "/></g></g></g><g fill="#080808" fill-opacity="1"><g transform="translate(1031.636248, 146.240614)"><g><path d="M 16.359375 -15.125 L 9.3125 1.015625 C 8.519531 2.890625 7.503906 4.253906 6.265625 5.109375 C 5.023438 5.972656 3.492188 6.546875 1.671875 6.828125 L 0.84375 3.953125 C 2.257812 3.628906 3.320312 3.222656 4.03125 2.734375 C 4.738281 2.242188 5.3125 1.519531 5.75 0.5625 L 6.234375 -0.546875 L -0.0625 -15.125 L 3.859375 -15.125 L 8.203125 -4.25 L 12.640625 -15.125 Z M 16.359375 -15.125 "/></g></g></g><g fill="#080808" fill-opacity="1"><g transform="translate(1047.898826, 146.240614)"><g><path d="M 10.65625 -15.515625 C 11.957031 -15.515625 13.113281 -15.179688 14.125 -14.515625 C 15.132812 -13.847656 15.921875 -12.910156 16.484375 -11.703125 C 17.054688 -10.492188 17.34375 -9.109375 17.34375 -7.546875 C 17.34375 -5.992188 17.0625 -4.625 16.5 -3.4375 C 15.945312 -2.257812 15.164062 -1.351562 14.15625 -0.71875 C 13.144531 -0.0820312 11.976562 0.234375 10.65625 0.234375 C 9.5625 0.234375 8.582031 0 7.71875 -0.46875 C 6.863281 -0.9375 6.207031 -1.585938 5.75 -2.421875 L 5.75 6.46875 L 2.03125 6.46875 L 2.03125 -10.84375 C 2.03125 -12.4375 1.953125 -13.863281 1.796875 -15.125 L 5.296875 -15.125 L 5.59375 -12.515625 C 6 -13.453125 6.648438 -14.1875 7.546875 -14.71875 C 8.441406 -15.25 9.476562 -15.515625 10.65625 -15.515625 Z M 9.640625 -2.703125 C 10.898438 -2.703125 11.867188 -3.117188 12.546875 -3.953125 C 13.222656 -4.796875 13.5625 -5.992188 13.5625 -7.546875 C 13.5625 -9.128906 13.222656 -10.363281 12.546875 -11.25 C 11.867188 -12.132812 10.910156 -12.578125 9.671875 -12.578125 C 8.398438 -12.578125 7.421875 -12.144531 6.734375 -11.28125 C 6.054688 -10.425781 5.71875 -9.203125 5.71875 -7.609375 C 5.71875 -6.023438 6.054688 -4.8125 6.734375 -3.96875 C 7.421875 -3.125 8.390625 -2.703125 9.640625 -2.703125 Z M 9.640625 -2.703125 "/></g></g></g><g fill="#080808" fill-opacity="1"><g transform="translate(1066.467522, 146.240614)"><g><path d="M 15.28125 -7.375 L 4.859375 -7.375 C 4.929688 -5.75 5.332031 -4.550781 6.0625 -3.78125 C 6.789062 -3.019531 7.875 -2.640625 9.3125 -2.640625 C 10.96875 -2.640625 12.503906 -3.175781 13.921875 -4.25 L 15 -1.671875 C 14.28125 -1.097656 13.394531 -0.632812 12.34375 -0.28125 C 11.300781 0.0625 10.242188 0.234375 9.171875 0.234375 C 6.691406 0.234375 4.742188 -0.460938 3.328125 -1.859375 C 1.910156 -3.253906 1.203125 -5.171875 1.203125 -7.609375 C 1.203125 -9.148438 1.507812 -10.519531 2.125 -11.71875 C 2.75 -12.914062 3.617188 -13.847656 4.734375 -14.515625 C 5.847656 -15.179688 7.113281 -15.515625 8.53125 -15.515625 C 10.613281 -15.515625 12.257812 -14.835938 13.46875 -13.484375 C 14.675781 -12.140625 15.28125 -10.289062 15.28125 -7.9375 Z M 8.625 -12.8125 C 7.625 -12.8125 6.804688 -12.515625 6.171875 -11.921875 C 5.546875 -11.335938 5.144531 -10.488281 4.96875 -9.375 L 12.015625 -9.375 C 11.890625 -10.507812 11.539062 -11.363281 10.96875 -11.9375 C 10.40625 -12.519531 9.625 -12.8125 8.625 -12.8125 Z M 8.625 -12.8125 "/></g></g></g><g fill="#080808" fill-opacity="1"><g transform="translate(1082.879847, 146.240614)"><g><path d="M 7.578125 0.234375 C 4.835938 0.234375 2.660156 -0.398438 1.046875 -1.671875 L 2.09375 -4.3125 C 3.707031 -3.113281 5.554688 -2.515625 7.640625 -2.515625 C 8.535156 -2.515625 9.226562 -2.664062 9.71875 -2.96875 C 10.207031 -3.269531 10.453125 -3.6875 10.453125 -4.21875 C 10.453125 -4.675781 10.28125 -5.039062 9.9375 -5.3125 C 9.601562 -5.582031 9.023438 -5.816406 8.203125 -6.015625 L 5.6875 -6.59375 C 2.9375 -7.1875 1.5625 -8.59375 1.5625 -10.8125 C 1.5625 -11.726562 1.816406 -12.539062 2.328125 -13.25 C 2.847656 -13.957031 3.578125 -14.507812 4.515625 -14.90625 C 5.460938 -15.3125 6.550781 -15.515625 7.78125 -15.515625 C 8.863281 -15.515625 9.90625 -15.347656 10.90625 -15.015625 C 11.90625 -14.691406 12.78125 -14.21875 13.53125 -13.59375 L 12.4375 -11.046875 C 10.914062 -12.171875 9.359375 -12.734375 7.765625 -12.734375 C 6.898438 -12.734375 6.226562 -12.570312 5.75 -12.25 C 5.269531 -11.925781 5.03125 -11.488281 5.03125 -10.9375 C 5.03125 -10.5 5.175781 -10.148438 5.46875 -9.890625 C 5.757812 -9.628906 6.253906 -9.40625 6.953125 -9.21875 L 9.53125 -8.65625 C 11.019531 -8.3125 12.109375 -7.785156 12.796875 -7.078125 C 13.492188 -6.367188 13.84375 -5.445312 13.84375 -4.3125 C 13.84375 -2.914062 13.28125 -1.804688 12.15625 -0.984375 C 11.039062 -0.171875 9.515625 0.234375 7.578125 0.234375 Z M 7.578125 0.234375 "/></g></g></g></svg>