<svg xmlns="http://www.w3.org/2000/svg" xmlns:xlink="http://www.w3.org/1999/xlink" width="1171" zoomAndPan="magnify" viewBox="0 0 878.25 808.499975" height="1078" preserveAspectRatio="xMidYMid meet" version="1.0"><defs><g/><clipPath id="6f9729dd87"><path d="M 0 0.09375 L 877 0.09375 L 877 807.15625 L 0 807.15625 Z M 0 0.09375 " clip-rule="nonzero"/></clipPath></defs><path fill="#d9d9d9" d="M 203.378906 263.035156 L 41.042969 263.035156 L 41.042969 228.738281 L 203.378906 228.738281 Z M 203.378906 684.191406 L 41.042969 684.191406 L 41.042969 718.488281 L 203.378906 718.488281 Z M 178.683594 263.035156 L 65.277344 263.035156 L 65.277344 684.191406 L 178.683594 684.191406 Z M 414.1875 228.738281 L 251.851562 228.738281 L 251.851562 263.035156 L 414.1875 263.035156 Z M 414.1875 684.191406 L 251.851562 684.191406 L 251.851562 718.488281 L 414.1875 718.488281 Z M 389.949219 263.035156 L 276.085938 263.035156 L 276.085938 684.191406 L 389.492188 684.191406 L 389.492188 263.035156 Z M 836.261719 228.738281 L 673.921875 228.738281 L 673.921875 263.035156 L 836.261719 263.035156 Z M 836.261719 684.191406 L 673.921875 684.191406 L 673.921875 718.488281 L 836.261719 718.488281 Z M 812.023438 263.035156 L 698.617188 263.035156 L 698.617188 684.191406 L 812.023438 684.191406 Z M 625.453125 228.738281 L 463.117188 228.738281 L 463.117188 263.035156 L 625.453125 263.035156 Z M 625.453125 684.191406 L 463.117188 684.191406 L 463.117188 718.488281 L 625.453125 718.488281 Z M 600.757812 263.035156 L 487.351562 263.035156 L 487.351562 684.191406 L 600.757812 684.191406 Z M 600.757812 263.035156 " fill-opacity="1" fill-rule="nonzero"/><path fill="#080808" d="M 2.628906 142.3125 L 438.421875 2.382812 L 874.214844 142.3125 L 874.214844 199.929688 L 2.628906 199.929688 Z M 874.671875 747.296875 L 2.628906 747.296875 L 2.628906 804.917969 L 874.671875 804.917969 Z M 874.671875 747.296875 " fill-opacity="1" fill-rule="nonzero"/><g clip-path="url(#6f9729dd87)"><path fill="#080808" d="M 38.753906 681.90625 L 38.753906 720.777344 L 205.664062 720.777344 L 205.664062 681.90625 L 181.429688 681.90625 L 181.429688 265.320312 L 205.664062 265.320312 L 205.664062 226.449219 L 38.753906 226.449219 L 38.753906 265.320312 L 62.992188 265.320312 L 62.992188 681.90625 Z M 201.089844 686.480469 L 201.089844 716.203125 L 43.328125 716.203125 L 43.328125 686.480469 Z M 43.328125 260.746094 L 43.328125 231.023438 L 201.089844 231.023438 L 201.089844 260.746094 Z M 67.5625 265.320312 L 176.398438 265.320312 L 176.398438 681.90625 L 67.5625 681.90625 Z M 249.5625 681.90625 L 249.5625 720.777344 L 416.472656 720.777344 L 416.472656 681.90625 L 392.238281 681.90625 L 392.238281 265.320312 L 416.472656 265.320312 L 416.472656 226.449219 L 249.5625 226.449219 L 249.5625 265.320312 L 273.800781 265.320312 L 273.800781 681.90625 Z M 411.898438 686.480469 L 411.898438 716.203125 L 254.136719 716.203125 L 254.136719 686.480469 Z M 254.136719 260.746094 L 254.136719 231.023438 L 411.898438 231.023438 L 411.898438 260.746094 Z M 278.371094 265.320312 L 387.207031 265.320312 L 387.207031 681.90625 L 278.371094 681.90625 Z M 671.636719 681.90625 L 671.636719 720.777344 L 838.546875 720.777344 L 838.546875 681.90625 L 814.308594 681.90625 L 814.308594 265.320312 L 838.546875 265.320312 L 838.546875 226.449219 L 671.636719 226.449219 L 671.636719 265.320312 L 695.875 265.320312 L 695.875 681.90625 Z M 833.972656 686.480469 L 833.972656 716.203125 L 676.210938 716.203125 L 676.210938 686.480469 Z M 676.210938 260.746094 L 676.210938 231.023438 L 833.972656 231.023438 L 833.972656 260.746094 Z M 700.445312 265.320312 L 809.738281 265.320312 L 809.738281 681.90625 L 700.902344 681.90625 L 700.902344 265.320312 Z M 460.828125 681.90625 L 460.828125 720.777344 L 627.738281 720.777344 L 627.738281 681.90625 L 603.5 681.90625 L 603.5 265.320312 L 627.738281 265.320312 L 627.738281 226.449219 L 460.828125 226.449219 L 460.828125 265.320312 L 485.066406 265.320312 L 485.066406 681.90625 Z M 623.164062 686.480469 L 623.164062 716.203125 L 465.402344 716.203125 L 465.402344 686.480469 Z M 465.402344 260.746094 L 465.402344 231.023438 L 623.164062 231.023438 L 623.164062 260.746094 Z M 489.636719 265.320312 L 598.472656 265.320312 L 598.472656 681.90625 L 489.636719 681.90625 Z M 438.421875 0.09375 L 0.34375 140.480469 L 0.34375 202.214844 L 876.957031 202.214844 L 876.957031 140.480469 Z M 872.386719 197.640625 L 4.917969 197.640625 L 4.917969 144.140625 L 438.421875 5.125 L 871.929688 144.140625 L 871.929688 197.640625 Z M 0.34375 807.203125 L 876.957031 807.203125 L 876.957031 745.011719 L 0.34375 745.011719 Z M 4.917969 749.585938 L 872.386719 749.585938 L 872.386719 802.628906 L 4.917969 802.628906 Z M 4.917969 749.585938 " fill-opacity="1" fill-rule="nonzero"/></g><g fill="#ffff00" fill-opacity="1"><g transform="translate(287.1108, 126.222063)"><g><path d="M 23.734375 -13.59375 L 23.734375 -1.515625 C 22.660156 -0.960938 21.300781 -0.523438 19.65625 -0.203125 C 18.007812 0.117188 16.335938 0.28125 14.640625 0.28125 C 12.046875 0.28125 9.800781 -0.238281 7.90625 -1.28125 C 6.019531 -2.320312 4.578125 -3.820312 3.578125 -5.78125 C 2.585938 -7.75 2.09375 -10.101562 2.09375 -12.84375 C 2.09375 -15.53125 2.585938 -17.851562 3.578125 -19.8125 C 4.578125 -21.78125 6.003906 -23.285156 7.859375 -24.328125 C 9.710938 -25.367188 11.898438 -25.890625 14.421875 -25.890625 C 16.222656 -25.890625 17.882812 -25.617188 19.40625 -25.078125 C 20.925781 -24.546875 22.226562 -23.773438 23.3125 -22.765625 L 21.984375 -20 C 20.753906 -21.007812 19.550781 -21.726562 18.375 -22.15625 C 17.207031 -22.582031 15.898438 -22.796875 14.453125 -22.796875 C 11.671875 -22.796875 9.554688 -21.945312 8.109375 -20.25 C 6.660156 -18.550781 5.9375 -16.082031 5.9375 -12.84375 C 5.9375 -9.507812 6.675781 -6.984375 8.15625 -5.265625 C 9.644531 -3.554688 11.84375 -2.703125 14.75 -2.703125 C 16.6875 -2.703125 18.554688 -2.988281 20.359375 -3.5625 L 20.359375 -10.75 L 14.390625 -10.75 L 14.390625 -13.59375 Z M 23.734375 -13.59375 "/></g></g></g><g fill="#ffff00" fill-opacity="1"><g transform="translate(313.548278, 126.222063)"><g><path d="M 9.09375 0 L 9.09375 -22.515625 L 0.4375 -22.515625 L 0.4375 -25.609375 L 21.515625 -25.609375 L 21.515625 -22.515625 L 12.84375 -22.515625 L 12.84375 0 Z M 9.09375 0 "/></g></g></g><g fill="#ffff00" fill-opacity="1"><g transform="translate(335.489585, 126.222063)"><g><path d="M 2.984375 0 L 2.984375 -25.609375 L 19.25 -25.609375 L 19.25 -22.546875 L 6.65625 -22.546875 L 6.65625 -14.53125 L 18.53125 -14.53125 L 18.53125 -11.46875 L 6.65625 -11.46875 L 6.65625 0 Z M 2.984375 0 "/></g></g></g><g fill="#ffff00" fill-opacity="1"><g transform="translate(355.884204, 126.222063)"><g><path d="M 11.359375 0.28125 C 9.367188 0.28125 7.550781 0.0195312 5.90625 -0.5 C 4.269531 -1.03125 2.851562 -1.820312 1.65625 -2.875 L 2.984375 -5.609375 C 4.234375 -4.597656 5.53125 -3.863281 6.875 -3.40625 C 8.21875 -2.957031 9.726562 -2.734375 11.40625 -2.734375 C 13.320312 -2.734375 14.804688 -3.09375 15.859375 -3.8125 C 16.910156 -4.53125 17.4375 -5.550781 17.4375 -6.875 C 17.4375 -7.976562 16.945312 -8.8125 15.96875 -9.375 C 14.988281 -9.9375 13.429688 -10.457031 11.296875 -10.9375 C 9.253906 -11.363281 7.585938 -11.859375 6.296875 -12.421875 C 5.003906 -12.984375 3.984375 -13.738281 3.234375 -14.6875 C 2.492188 -15.632812 2.125 -16.851562 2.125 -18.34375 C 2.125 -19.832031 2.519531 -21.144531 3.3125 -22.28125 C 4.101562 -23.414062 5.222656 -24.300781 6.671875 -24.9375 C 8.117188 -25.570312 9.789062 -25.890625 11.6875 -25.890625 C 13.488281 -25.890625 15.171875 -25.613281 16.734375 -25.0625 C 18.304688 -24.519531 19.625 -23.742188 20.6875 -22.734375 L 19.34375 -20 C 18.175781 -20.976562 16.96875 -21.703125 15.71875 -22.171875 C 14.46875 -22.640625 13.132812 -22.875 11.71875 -22.875 C 9.875 -22.875 8.425781 -22.484375 7.375 -21.703125 C 6.320312 -20.921875 5.796875 -19.863281 5.796875 -18.53125 C 5.796875 -17.375 6.253906 -16.492188 7.171875 -15.890625 C 8.097656 -15.296875 9.582031 -14.757812 11.625 -14.28125 C 13.75 -13.800781 15.472656 -13.296875 16.796875 -12.765625 C 18.117188 -12.242188 19.175781 -11.523438 19.96875 -10.609375 C 20.757812 -9.703125 21.15625 -8.523438 21.15625 -7.078125 C 21.15625 -5.597656 20.757812 -4.304688 19.96875 -3.203125 C 19.175781 -2.097656 18.039062 -1.238281 16.5625 -0.625 C 15.082031 -0.0195312 13.347656 0.28125 11.359375 0.28125 Z M 11.359375 0.28125 "/></g></g></g><g fill="#ffff00" fill-opacity="1"><g transform="translate(378.652808, 126.222063)"><g/></g></g><g fill="#ffff00" fill-opacity="1"><g transform="translate(388.256625, 126.222063)"><g><path d="M 23.734375 -13.59375 L 23.734375 -1.515625 C 22.660156 -0.960938 21.300781 -0.523438 19.65625 -0.203125 C 18.007812 0.117188 16.335938 0.28125 14.640625 0.28125 C 12.046875 0.28125 9.800781 -0.238281 7.90625 -1.28125 C 6.019531 -2.320312 4.578125 -3.820312 3.578125 -5.78125 C 2.585938 -7.75 2.09375 -10.101562 2.09375 -12.84375 C 2.09375 -15.53125 2.585938 -17.851562 3.578125 -19.8125 C 4.578125 -21.78125 6.003906 -23.285156 7.859375 -24.328125 C 9.710938 -25.367188 11.898438 -25.890625 14.421875 -25.890625 C 16.222656 -25.890625 17.882812 -25.617188 19.40625 -25.078125 C 20.925781 -24.546875 22.226562 -23.773438 23.3125 -22.765625 L 21.984375 -20 C 20.753906 -21.007812 19.550781 -21.726562 18.375 -22.15625 C 17.207031 -22.582031 15.898438 -22.796875 14.453125 -22.796875 C 11.671875 -22.796875 9.554688 -21.945312 8.109375 -20.25 C 6.660156 -18.550781 5.9375 -16.082031 5.9375 -12.84375 C 5.9375 -9.507812 6.675781 -6.984375 8.15625 -5.265625 C 9.644531 -3.554688 11.84375 -2.703125 14.75 -2.703125 C 16.6875 -2.703125 18.554688 -2.988281 20.359375 -3.5625 L 20.359375 -10.75 L 14.390625 -10.75 L 14.390625 -13.59375 Z M 23.734375 -13.59375 "/></g></g></g><g fill="#ffff00" fill-opacity="1"><g transform="translate(414.694103, 126.222063)"><g><path d="M 10.46875 0.25 C 8.695312 0.25 7.140625 -0.128906 5.796875 -0.890625 C 4.453125 -1.660156 3.410156 -2.753906 2.671875 -4.171875 C 1.941406 -5.585938 1.578125 -7.242188 1.578125 -9.140625 C 1.578125 -11.035156 1.941406 -12.695312 2.671875 -14.125 C 3.410156 -15.550781 4.453125 -16.644531 5.796875 -17.40625 C 7.140625 -18.175781 8.695312 -18.5625 10.46875 -18.5625 C 12.21875 -18.5625 13.765625 -18.175781 15.109375 -17.40625 C 16.453125 -16.644531 17.488281 -15.550781 18.21875 -14.125 C 18.945312 -12.695312 19.3125 -11.035156 19.3125 -9.140625 C 19.3125 -7.242188 18.945312 -5.585938 18.21875 -4.171875 C 17.488281 -2.753906 16.453125 -1.660156 15.109375 -0.890625 C 13.765625 -0.128906 12.21875 0.25 10.46875 0.25 Z M 10.4375 -2.625 C 12.113281 -2.625 13.394531 -3.175781 14.28125 -4.28125 C 15.164062 -5.382812 15.609375 -7.003906 15.609375 -9.140625 C 15.609375 -11.222656 15.15625 -12.828125 14.25 -13.953125 C 13.351562 -15.078125 12.09375 -15.640625 10.46875 -15.640625 C 8.8125 -15.640625 7.523438 -15.078125 6.609375 -13.953125 C 5.703125 -12.828125 5.25 -11.222656 5.25 -9.140625 C 5.25 -7.003906 5.695312 -5.382812 6.59375 -4.28125 C 7.5 -3.175781 8.78125 -2.625 10.4375 -2.625 Z M 10.4375 -2.625 "/></g></g></g><g fill="#ffff00" fill-opacity="1"><g transform="translate(435.592302, 126.222063)"><g><path d="M 15.5 -18.09375 L 19.140625 -18.09375 L 11.265625 0 L 7.984375 0 L 0.1875 -18.09375 L 4.03125 -18.09375 L 9.71875 -4.09375 Z M 15.5 -18.09375 "/></g></g></g><g fill="#ffff00" fill-opacity="1"><g transform="translate(454.871881, 126.222063)"><g><path d="M 18.125 -9 L 5.171875 -9 C 5.296875 -4.75 7.226562 -2.625 10.96875 -2.625 C 13.050781 -2.625 14.957031 -3.304688 16.6875 -4.671875 L 17.796875 -2.09375 C 16.984375 -1.363281 15.945312 -0.789062 14.6875 -0.375 C 13.4375 0.0390625 12.175781 0.25 10.90625 0.25 C 8 0.25 5.71875 -0.582031 4.0625 -2.25 C 2.40625 -3.914062 1.578125 -6.195312 1.578125 -9.09375 C 1.578125 -10.945312 1.941406 -12.59375 2.671875 -14.03125 C 3.410156 -15.46875 4.4375 -16.582031 5.75 -17.375 C 7.070312 -18.164062 8.570312 -18.5625 10.25 -18.5625 C 12.695312 -18.5625 14.617188 -17.769531 16.015625 -16.1875 C 17.421875 -14.601562 18.125 -12.410156 18.125 -9.609375 Z M 10.328125 -15.859375 C 8.953125 -15.859375 7.832031 -15.453125 6.96875 -14.640625 C 6.113281 -13.828125 5.566406 -12.664062 5.328125 -11.15625 L 14.921875 -11.15625 C 14.785156 -12.6875 14.320312 -13.851562 13.53125 -14.65625 C 12.738281 -15.457031 11.671875 -15.859375 10.328125 -15.859375 Z M 10.328125 -15.859375 "/></g></g></g><g fill="#ffff00" fill-opacity="1"><g transform="translate(474.511149, 126.222063)"><g><path d="M 11.6875 -18.5625 C 12.238281 -18.5625 12.816406 -18.476562 13.421875 -18.3125 L 13.34375 -15 C 12.695312 -15.238281 11.988281 -15.359375 11.21875 -15.359375 C 9.5625 -15.359375 8.320312 -14.859375 7.5 -13.859375 C 6.675781 -12.867188 6.265625 -11.617188 6.265625 -10.109375 L 6.265625 0 L 2.65625 0 L 2.65625 -13.015625 C 2.65625 -14.910156 2.5625 -16.613281 2.375 -18.125 L 5.75 -18.125 L 6.078125 -14.859375 C 6.554688 -16.054688 7.296875 -16.972656 8.296875 -17.609375 C 9.304688 -18.242188 10.4375 -18.5625 11.6875 -18.5625 Z M 11.6875 -18.5625 "/></g></g></g><g fill="#ffff00" fill-opacity="1"><g transform="translate(488.035613, 126.222063)"><g><path d="M 12.296875 -18.5625 C 16.640625 -18.5625 18.8125 -16.140625 18.8125 -11.296875 L 18.8125 0 L 15.171875 0 L 15.171875 -11.078125 C 15.171875 -12.660156 14.863281 -13.8125 14.25 -14.53125 C 13.644531 -15.25 12.671875 -15.609375 11.328125 -15.609375 C 9.796875 -15.609375 8.566406 -15.128906 7.640625 -14.171875 C 6.722656 -13.210938 6.265625 -11.929688 6.265625 -10.328125 L 6.265625 0 L 2.65625 0 L 2.65625 -13.015625 C 2.65625 -14.910156 2.5625 -16.613281 2.375 -18.125 L 5.75 -18.125 L 6.078125 -15 C 6.648438 -16.144531 7.484375 -17.023438 8.578125 -17.640625 C 9.671875 -18.253906 10.910156 -18.5625 12.296875 -18.5625 Z M 12.296875 -18.5625 "/></g></g></g><g fill="#ffff00" fill-opacity="1"><g transform="translate(509.365435, 126.222063)"><g><path d="M 19.25 -18.125 L 19.25 0 L 15.640625 0 L 15.640625 -3.09375 C 15.117188 -2.007812 14.332031 -1.179688 13.28125 -0.609375 C 12.238281 -0.0351562 11.023438 0.25 9.640625 0.25 C 8.035156 0.25 6.625 -0.128906 5.40625 -0.890625 C 4.195312 -1.660156 3.253906 -2.75 2.578125 -4.15625 C 1.910156 -5.5625 1.578125 -7.195312 1.578125 -9.0625 C 1.578125 -10.9375 1.921875 -12.59375 2.609375 -14.03125 C 3.296875 -15.46875 4.25 -16.582031 5.46875 -17.375 C 6.6875 -18.164062 8.078125 -18.5625 9.640625 -18.5625 C 11.023438 -18.5625 12.234375 -18.265625 13.265625 -17.671875 C 14.296875 -17.085938 15.085938 -16.253906 15.640625 -15.171875 L 15.640625 -18.125 Z M 10.5 -2.625 C 12.132812 -2.625 13.398438 -3.191406 14.296875 -4.328125 C 15.191406 -5.472656 15.640625 -7.078125 15.640625 -9.140625 C 15.640625 -11.222656 15.191406 -12.828125 14.296875 -13.953125 C 13.398438 -15.078125 12.125 -15.640625 10.46875 -15.640625 C 8.832031 -15.640625 7.550781 -15.054688 6.625 -13.890625 C 5.707031 -12.734375 5.25 -11.125 5.25 -9.0625 C 5.25 -7.019531 5.707031 -5.4375 6.625 -4.3125 C 7.550781 -3.1875 8.84375 -2.625 10.5 -2.625 Z M 10.5 -2.625 "/></g></g></g><g fill="#ffff00" fill-opacity="1"><g transform="translate(531.270769, 126.222063)"><g><path d="M 12.296875 -18.5625 C 16.640625 -18.5625 18.8125 -16.140625 18.8125 -11.296875 L 18.8125 0 L 15.171875 0 L 15.171875 -11.078125 C 15.171875 -12.660156 14.863281 -13.8125 14.25 -14.53125 C 13.644531 -15.25 12.671875 -15.609375 11.328125 -15.609375 C 9.796875 -15.609375 8.566406 -15.128906 7.640625 -14.171875 C 6.722656 -13.210938 6.265625 -11.929688 6.265625 -10.328125 L 6.265625 0 L 2.65625 0 L 2.65625 -13.015625 C 2.65625 -14.910156 2.5625 -16.613281 2.375 -18.125 L 5.75 -18.125 L 6.078125 -15 C 6.648438 -16.144531 7.484375 -17.023438 8.578125 -17.640625 C 9.671875 -18.253906 10.910156 -18.5625 12.296875 -18.5625 Z M 12.296875 -18.5625 "/></g></g></g><g fill="#ffff00" fill-opacity="1"><g transform="translate(552.600591, 126.222063)"><g><path d="M 10.53125 0.25 C 8.71875 0.25 7.128906 -0.128906 5.765625 -0.890625 C 4.410156 -1.660156 3.375 -2.75 2.65625 -4.15625 C 1.9375 -5.5625 1.578125 -7.195312 1.578125 -9.0625 C 1.578125 -10.9375 1.953125 -12.59375 2.703125 -14.03125 C 3.460938 -15.46875 4.523438 -16.582031 5.890625 -17.375 C 7.265625 -18.164062 8.863281 -18.5625 10.6875 -18.5625 C 11.957031 -18.5625 13.175781 -18.347656 14.34375 -17.921875 C 15.519531 -17.503906 16.46875 -16.9375 17.1875 -16.21875 L 16.078125 -13.59375 C 14.378906 -14.9375 12.664062 -15.609375 10.9375 -15.609375 C 9.1875 -15.609375 7.816406 -15.035156 6.828125 -13.890625 C 5.847656 -12.753906 5.359375 -11.15625 5.359375 -9.09375 C 5.359375 -7.03125 5.847656 -5.441406 6.828125 -4.328125 C 7.816406 -3.210938 9.1875 -2.65625 10.9375 -2.65625 C 12.707031 -2.65625 14.421875 -3.328125 16.078125 -4.671875 L 17.1875 -2.046875 C 16.425781 -1.328125 15.453125 -0.765625 14.265625 -0.359375 C 13.078125 0.046875 11.832031 0.25 10.53125 0.25 Z M 10.53125 0.25 "/></g></g></g><g fill="#ffff00" fill-opacity="1"><g transform="translate(570.549282, 126.222063)"><g><path d="M 18.125 -9 L 5.171875 -9 C 5.296875 -4.75 7.226562 -2.625 10.96875 -2.625 C 13.050781 -2.625 14.957031 -3.304688 16.6875 -4.671875 L 17.796875 -2.09375 C 16.984375 -1.363281 15.945312 -0.789062 14.6875 -0.375 C 13.4375 0.0390625 12.175781 0.25 10.90625 0.25 C 8 0.25 5.71875 -0.582031 4.0625 -2.25 C 2.40625 -3.914062 1.578125 -6.195312 1.578125 -9.09375 C 1.578125 -10.945312 1.941406 -12.59375 2.671875 -14.03125 C 3.410156 -15.46875 4.4375 -16.582031 5.75 -17.375 C 7.070312 -18.164062 8.570312 -18.5625 10.25 -18.5625 C 12.695312 -18.5625 14.617188 -17.769531 16.015625 -16.1875 C 17.421875 -14.601562 18.125 -12.410156 18.125 -9.609375 Z M 10.328125 -15.859375 C 8.953125 -15.859375 7.832031 -15.453125 6.96875 -14.640625 C 6.113281 -13.828125 5.566406 -12.664062 5.328125 -11.15625 L 14.921875 -11.15625 C 14.785156 -12.6875 14.320312 -13.851562 13.53125 -14.65625 C 12.738281 -15.457031 11.671875 -15.859375 10.328125 -15.859375 Z M 10.328125 -15.859375 "/></g></g></g><g fill="#ffff00" fill-opacity="1"><g transform="translate(291.55427, 788.237409)"><g><path d="M 23.734375 -13.59375 L 23.734375 -1.515625 C 22.660156 -0.960938 21.300781 -0.523438 19.65625 -0.203125 C 18.007812 0.117188 16.335938 0.28125 14.640625 0.28125 C 12.046875 0.28125 9.800781 -0.238281 7.90625 -1.28125 C 6.019531 -2.320312 4.578125 -3.820312 3.578125 -5.78125 C 2.585938 -7.75 2.09375 -10.101562 2.09375 -12.84375 C 2.09375 -15.53125 2.585938 -17.851562 3.578125 -19.8125 C 4.578125 -21.78125 6.003906 -23.285156 7.859375 -24.328125 C 9.710938 -25.367188 11.898438 -25.890625 14.421875 -25.890625 C 16.222656 -25.890625 17.882812 -25.617188 19.40625 -25.078125 C 20.925781 -24.546875 22.226562 -23.773438 23.3125 -22.765625 L 21.984375 -20 C 20.753906 -21.007812 19.550781 -21.726562 18.375 -22.15625 C 17.207031 -22.582031 15.898438 -22.796875 14.453125 -22.796875 C 11.671875 -22.796875 9.554688 -21.945312 8.109375 -20.25 C 6.660156 -18.550781 5.9375 -16.082031 5.9375 -12.84375 C 5.9375 -9.507812 6.675781 -6.984375 8.15625 -5.265625 C 9.644531 -3.554688 11.84375 -2.703125 14.75 -2.703125 C 16.6875 -2.703125 18.554688 -2.988281 20.359375 -3.5625 L 20.359375 -10.75 L 14.390625 -10.75 L 14.390625 -13.59375 Z M 23.734375 -13.59375 "/></g></g></g><g fill="#ffff00" fill-opacity="1"><g transform="translate(317.991748, 788.237409)"><g><path d="M 9.09375 0 L 9.09375 -22.515625 L 0.4375 -22.515625 L 0.4375 -25.609375 L 21.515625 -25.609375 L 21.515625 -22.515625 L 12.84375 -22.515625 L 12.84375 0 Z M 9.09375 0 "/></g></g></g><g fill="#ffff00" fill-opacity="1"><g transform="translate(339.933055, 788.237409)"><g><path d="M 2.984375 0 L 2.984375 -25.609375 L 19.25 -25.609375 L 19.25 -22.546875 L 6.65625 -22.546875 L 6.65625 -14.53125 L 18.53125 -14.53125 L 18.53125 -11.46875 L 6.65625 -11.46875 L 6.65625 0 Z M 2.984375 0 "/></g></g></g><g fill="#ffff00" fill-opacity="1"><g transform="translate(360.327674, 788.237409)"><g><path d="M 11.359375 0.28125 C 9.367188 0.28125 7.550781 0.0195312 5.90625 -0.5 C 4.269531 -1.03125 2.851562 -1.820312 1.65625 -2.875 L 2.984375 -5.609375 C 4.234375 -4.597656 5.53125 -3.863281 6.875 -3.40625 C 8.21875 -2.957031 9.726562 -2.734375 11.40625 -2.734375 C 13.320312 -2.734375 14.804688 -3.09375 15.859375 -3.8125 C 16.910156 -4.53125 17.4375 -5.550781 17.4375 -6.875 C 17.4375 -7.976562 16.945312 -8.8125 15.96875 -9.375 C 14.988281 -9.9375 13.429688 -10.457031 11.296875 -10.9375 C 9.253906 -11.363281 7.585938 -11.859375 6.296875 -12.421875 C 5.003906 -12.984375 3.984375 -13.738281 3.234375 -14.6875 C 2.492188 -15.632812 2.125 -16.851562 2.125 -18.34375 C 2.125 -19.832031 2.519531 -21.144531 3.3125 -22.28125 C 4.101562 -23.414062 5.222656 -24.300781 6.671875 -24.9375 C 8.117188 -25.570312 9.789062 -25.890625 11.6875 -25.890625 C 13.488281 -25.890625 15.171875 -25.613281 16.734375 -25.0625 C 18.304688 -24.519531 19.625 -23.742188 20.6875 -22.734375 L 19.34375 -20 C 18.175781 -20.976562 16.96875 -21.703125 15.71875 -22.171875 C 14.46875 -22.640625 13.132812 -22.875 11.71875 -22.875 C 9.875 -22.875 8.425781 -22.484375 7.375 -21.703125 C 6.320312 -20.921875 5.796875 -19.863281 5.796875 -18.53125 C 5.796875 -17.375 6.253906 -16.492188 7.171875 -15.890625 C 8.097656 -15.296875 9.582031 -14.757812 11.625 -14.28125 C 13.75 -13.800781 15.472656 -13.296875 16.796875 -12.765625 C 18.117188 -12.242188 19.175781 -11.523438 19.96875 -10.609375 C 20.757812 -9.703125 21.15625 -8.523438 21.15625 -7.078125 C 21.15625 -5.597656 20.757812 -4.304688 19.96875 -3.203125 C 19.175781 -2.097656 18.039062 -1.238281 16.5625 -0.625 C 15.082031 -0.0195312 13.347656 0.28125 11.359375 0.28125 Z M 11.359375 0.28125 "/></g></g></g><g fill="#ffff00" fill-opacity="1"><g transform="translate(383.096278, 788.237409)"><g/></g></g><g fill="#ffff00" fill-opacity="1"><g transform="translate(392.700095, 788.237409)"><g><path d="M 14.25 0.28125 C 11.769531 0.28125 9.613281 -0.25 7.78125 -1.3125 C 5.945312 -2.375 4.539062 -3.890625 3.5625 -5.859375 C 2.582031 -7.828125 2.09375 -10.15625 2.09375 -12.84375 C 2.09375 -15.5 2.582031 -17.8125 3.5625 -19.78125 C 4.539062 -21.75 5.945312 -23.257812 7.78125 -24.3125 C 9.613281 -25.363281 11.769531 -25.890625 14.25 -25.890625 C 16 -25.890625 17.617188 -25.617188 19.109375 -25.078125 C 20.609375 -24.546875 21.875 -23.765625 22.90625 -22.734375 L 21.625 -20 C 20.414062 -20.976562 19.226562 -21.6875 18.0625 -22.125 C 16.90625 -22.570312 15.644531 -22.796875 14.28125 -22.796875 C 11.613281 -22.796875 9.554688 -21.929688 8.109375 -20.203125 C 6.660156 -18.484375 5.9375 -16.03125 5.9375 -12.84375 C 5.9375 -9.625 6.660156 -7.144531 8.109375 -5.40625 C 9.554688 -3.675781 11.613281 -2.8125 14.28125 -2.8125 C 15.644531 -2.8125 16.90625 -3.03125 18.0625 -3.46875 C 19.226562 -3.914062 20.414062 -4.628906 21.625 -5.609375 L 22.90625 -2.875 C 21.875 -1.84375 20.609375 -1.054688 19.109375 -0.515625 C 17.617188 0.015625 16 0.28125 14.25 0.28125 Z M 14.25 0.28125 "/></g></g></g><g fill="#ffff00" fill-opacity="1"><g transform="translate(417.30313, 788.237409)"><g><path d="M 10.46875 0.25 C 8.695312 0.25 7.140625 -0.128906 5.796875 -0.890625 C 4.453125 -1.660156 3.410156 -2.753906 2.671875 -4.171875 C 1.941406 -5.585938 1.578125 -7.242188 1.578125 -9.140625 C 1.578125 -11.035156 1.941406 -12.695312 2.671875 -14.125 C 3.410156 -15.550781 4.453125 -16.644531 5.796875 -17.40625 C 7.140625 -18.175781 8.695312 -18.5625 10.46875 -18.5625 C 12.21875 -18.5625 13.765625 -18.175781 15.109375 -17.40625 C 16.453125 -16.644531 17.488281 -15.550781 18.21875 -14.125 C 18.945312 -12.695312 19.3125 -11.035156 19.3125 -9.140625 C 19.3125 -7.242188 18.945312 -5.585938 18.21875 -4.171875 C 17.488281 -2.753906 16.453125 -1.660156 15.109375 -0.890625 C 13.765625 -0.128906 12.21875 0.25 10.46875 0.25 Z M 10.4375 -2.625 C 12.113281 -2.625 13.394531 -3.175781 14.28125 -4.28125 C 15.164062 -5.382812 15.609375 -7.003906 15.609375 -9.140625 C 15.609375 -11.222656 15.15625 -12.828125 14.25 -13.953125 C 13.351562 -15.078125 12.09375 -15.640625 10.46875 -15.640625 C 8.8125 -15.640625 7.523438 -15.078125 6.609375 -13.953125 C 5.703125 -12.828125 5.25 -11.222656 5.25 -9.140625 C 5.25 -7.003906 5.695312 -5.382812 6.59375 -4.28125 C 7.5 -3.175781 8.78125 -2.625 10.4375 -2.625 Z M 10.4375 -2.625 "/></g></g></g><g fill="#ffff00" fill-opacity="1"><g transform="translate(438.201329, 788.237409)"><g><path d="M 23.34375 -18.5625 C 27.375 -18.5625 29.390625 -16.140625 29.390625 -11.296875 L 29.390625 0 L 25.75 0 L 25.75 -11.109375 C 25.75 -12.671875 25.476562 -13.8125 24.9375 -14.53125 C 24.40625 -15.25 23.539062 -15.609375 22.34375 -15.609375 C 20.945312 -15.609375 19.847656 -15.128906 19.046875 -14.171875 C 18.242188 -13.210938 17.84375 -11.90625 17.84375 -10.25 L 17.84375 0 L 14.203125 0 L 14.203125 -11.109375 C 14.203125 -12.671875 13.929688 -13.8125 13.390625 -14.53125 C 12.859375 -15.25 11.992188 -15.609375 10.796875 -15.609375 C 9.398438 -15.609375 8.296875 -15.128906 7.484375 -14.171875 C 6.671875 -13.210938 6.265625 -11.90625 6.265625 -10.25 L 6.265625 0 L 2.65625 0 L 2.65625 -13.015625 C 2.65625 -14.910156 2.5625 -16.613281 2.375 -18.125 L 5.75 -18.125 L 6.078125 -15.109375 C 6.609375 -16.210938 7.363281 -17.0625 8.34375 -17.65625 C 9.320312 -18.257812 10.472656 -18.5625 11.796875 -18.5625 C 14.597656 -18.5625 16.429688 -17.398438 17.296875 -15.078125 C 17.847656 -16.148438 18.65625 -17 19.71875 -17.625 C 20.789062 -18.25 22 -18.5625 23.34375 -18.5625 Z M 23.34375 -18.5625 "/></g></g></g><g fill="#ffff00" fill-opacity="1"><g transform="translate(470.142114, 788.237409)"><g><path d="M 23.34375 -18.5625 C 27.375 -18.5625 29.390625 -16.140625 29.390625 -11.296875 L 29.390625 0 L 25.75 0 L 25.75 -11.109375 C 25.75 -12.671875 25.476562 -13.8125 24.9375 -14.53125 C 24.40625 -15.25 23.539062 -15.609375 22.34375 -15.609375 C 20.945312 -15.609375 19.847656 -15.128906 19.046875 -14.171875 C 18.242188 -13.210938 17.84375 -11.90625 17.84375 -10.25 L 17.84375 0 L 14.203125 0 L 14.203125 -11.109375 C 14.203125 -12.671875 13.929688 -13.8125 13.390625 -14.53125 C 12.859375 -15.25 11.992188 -15.609375 10.796875 -15.609375 C 9.398438 -15.609375 8.296875 -15.128906 7.484375 -14.171875 C 6.671875 -13.210938 6.265625 -11.90625 6.265625 -10.25 L 6.265625 0 L 2.65625 0 L 2.65625 -13.015625 C 2.65625 -14.910156 2.5625 -16.613281 2.375 -18.125 L 5.75 -18.125 L 6.078125 -15.109375 C 6.609375 -16.210938 7.363281 -17.0625 8.34375 -17.65625 C 9.320312 -18.257812 10.472656 -18.5625 11.796875 -18.5625 C 14.597656 -18.5625 16.429688 -17.398438 17.296875 -15.078125 C 17.847656 -16.148438 18.65625 -17 19.71875 -17.625 C 20.789062 -18.25 22 -18.5625 23.34375 -18.5625 Z M 23.34375 -18.5625 "/></g></g></g><g fill="#ffff00" fill-opacity="1"><g transform="translate(502.082911, 788.237409)"><g><path d="M 18.421875 -18.125 L 18.421875 0 L 14.890625 0 L 14.890625 -3.015625 C 14.316406 -1.960938 13.523438 -1.15625 12.515625 -0.59375 C 11.503906 -0.03125 10.363281 0.25 9.09375 0.25 C 4.726562 0.25 2.546875 -2.171875 2.546875 -7.015625 L 2.546875 -18.125 L 6.15625 -18.125 L 6.15625 -7.046875 C 6.15625 -5.554688 6.457031 -4.457031 7.0625 -3.75 C 7.675781 -3.050781 8.609375 -2.703125 9.859375 -2.703125 C 11.335938 -2.703125 12.523438 -3.179688 13.421875 -4.140625 C 14.328125 -5.097656 14.78125 -6.367188 14.78125 -7.953125 L 14.78125 -18.125 Z M 18.421875 -18.125 "/></g></g></g><g fill="#ffff00" fill-opacity="1"><g transform="translate(523.160949, 788.237409)"><g><path d="M 12.296875 -18.5625 C 16.640625 -18.5625 18.8125 -16.140625 18.8125 -11.296875 L 18.8125 0 L 15.171875 0 L 15.171875 -11.078125 C 15.171875 -12.660156 14.863281 -13.8125 14.25 -14.53125 C 13.644531 -15.25 12.671875 -15.609375 11.328125 -15.609375 C 9.796875 -15.609375 8.566406 -15.128906 7.640625 -14.171875 C 6.722656 -13.210938 6.265625 -11.929688 6.265625 -10.328125 L 6.265625 0 L 2.65625 0 L 2.65625 -13.015625 C 2.65625 -14.910156 2.5625 -16.613281 2.375 -18.125 L 5.75 -18.125 L 6.078125 -15 C 6.648438 -16.144531 7.484375 -17.023438 8.578125 -17.640625 C 9.671875 -18.253906 10.910156 -18.5625 12.296875 -18.5625 Z M 12.296875 -18.5625 "/></g></g></g><g fill="#ffff00" fill-opacity="1"><g transform="translate(544.490771, 788.237409)"><g><path d="M 2.65625 0 L 2.65625 -18.125 L 6.265625 -18.125 L 6.265625 0 Z M 2.328125 -26.03125 L 6.546875 -26.03125 L 6.546875 -22.21875 L 2.328125 -22.21875 Z M 2.328125 -26.03125 "/></g></g></g><g fill="#ffff00" fill-opacity="1"><g transform="translate(553.411169, 788.237409)"><g><path d="M 7.375 -15.328125 L 7.375 -6.21875 C 7.375 -4.976562 7.644531 -4.097656 8.1875 -3.578125 C 8.726562 -3.066406 9.476562 -2.8125 10.4375 -2.8125 C 11.050781 -2.8125 11.6875 -2.90625 12.34375 -3.09375 L 12.34375 -0.140625 C 11.550781 0.117188 10.648438 0.25 9.640625 0.25 C 7.765625 0.25 6.3125 -0.273438 5.28125 -1.328125 C 4.25 -2.378906 3.734375 -3.914062 3.734375 -5.9375 L 3.734375 -15.328125 L 0.21875 -15.328125 L 0.21875 -18.125 L 3.734375 -18.125 L 3.734375 -22.65625 L 7.375 -23.921875 L 7.375 -18.125 L 12.375 -18.125 L 12.375 -15.328125 Z M 7.375 -15.328125 "/></g></g></g><g fill="#ffff00" fill-opacity="1"><g transform="translate(566.46805, 788.237409)"><g><path d="M 19.140625 -18.125 L 10.6875 1.46875 C 9.75 3.601562 8.578125 5.164062 7.171875 6.15625 C 5.773438 7.15625 4.046875 7.828125 1.984375 8.171875 L 1.1875 5.359375 C 2.882812 4.972656 4.171875 4.472656 5.046875 3.859375 C 5.921875 3.253906 6.625 2.335938 7.15625 1.109375 L 7.8125 -0.390625 L 0.1875 -18.125 L 4.03125 -18.125 L 9.71875 -4.09375 L 15.5 -18.125 Z M 19.140625 -18.125 "/></g></g></g><g fill="#080808" fill-opacity="1"><g transform="translate(131.227879, 596.476006)"><g><path d="M -11.125 -19.515625 L -1.234375 -19.515625 C -0.785156 -18.671875 -0.425781 -17.566406 -0.15625 -16.203125 C 0.101562 -14.847656 0.234375 -13.472656 0.234375 -12.078125 C 0.234375 -9.960938 -0.195312 -8.132812 -1.0625 -6.59375 C -1.9375 -5.050781 -3.191406 -3.875 -4.828125 -3.0625 C -6.460938 -2.257812 -8.421875 -1.859375 -10.703125 -1.859375 C -12.953125 -1.859375 -14.890625 -2.257812 -16.515625 -3.0625 C -18.148438 -3.875 -19.398438 -5.035156 -20.265625 -6.546875 C -21.140625 -8.054688 -21.578125 -9.835938 -21.578125 -11.890625 C -21.578125 -13.390625 -21.351562 -14.765625 -20.90625 -16.015625 C -20.457031 -17.265625 -19.78125 -18.335938 -18.875 -19.234375 L -17 -18.28125 C -17.875 -17.238281 -18.503906 -16.222656 -18.890625 -15.234375 C -19.285156 -14.242188 -19.484375 -13.128906 -19.484375 -11.890625 C -19.484375 -9.472656 -18.726562 -7.617188 -17.21875 -6.328125 C -15.707031 -5.046875 -13.535156 -4.40625 -10.703125 -4.40625 C -7.804688 -4.40625 -5.601562 -5.0625 -4.09375 -6.375 C -2.582031 -7.695312 -1.828125 -9.617188 -1.828125 -12.140625 C -1.828125 -13.910156 -2.109375 -15.617188 -2.671875 -17.265625 L -9.171875 -17.265625 L -9.171875 -11.953125 L -11.125 -11.953125 Z M -11.125 -19.515625 "/></g></g></g><g fill="#080808" fill-opacity="1"><g transform="translate(131.227879, 574.564737)"><g><path d="M -15.078125 -14.953125 L 0 -14.953125 L 0 -12.59375 L -2.609375 -12.59375 C -1.691406 -12.113281 -0.992188 -11.441406 -0.515625 -10.578125 C -0.0351562 -9.722656 0.203125 -8.753906 0.203125 -7.671875 C 0.203125 -5.890625 -0.289062 -4.539062 -1.28125 -3.625 C -2.28125 -2.707031 -3.757812 -2.25 -5.71875 -2.25 L -15.078125 -2.25 L -15.078125 -4.671875 L -5.78125 -4.671875 C -4.425781 -4.671875 -3.425781 -4.953125 -2.78125 -5.515625 C -2.144531 -6.078125 -1.828125 -6.925781 -1.828125 -8.0625 C -1.828125 -9.394531 -2.257812 -10.472656 -3.125 -11.296875 C -4 -12.117188 -5.144531 -12.53125 -6.5625 -12.53125 L -15.078125 -12.53125 Z M -15.078125 -14.953125 "/></g></g></g><g fill="#080808" fill-opacity="1"><g transform="translate(131.227879, 557.269529)"><g><path d="M 0 -2.34375 L -15.078125 -2.34375 L -15.078125 -4.765625 L 0 -4.765625 Z M -21.453125 -2.09375 L -21.453125 -5.0625 L -18.703125 -5.0625 L -18.703125 -2.09375 Z M -21.453125 -2.09375 "/></g></g></g><g fill="#080808" fill-opacity="1"><g transform="translate(131.227879, 550.13563)"><g><path d="M -22.0625 -15.609375 L 0 -15.609375 L 0 -13.21875 L -2.734375 -13.21875 C -1.785156 -12.78125 -1.054688 -12.113281 -0.546875 -11.21875 C -0.046875 -10.332031 0.203125 -9.300781 0.203125 -8.125 C 0.203125 -6.800781 -0.125 -5.632812 -0.78125 -4.625 C -1.4375 -3.613281 -2.359375 -2.828125 -3.546875 -2.265625 C -4.734375 -1.710938 -6.109375 -1.4375 -7.671875 -1.4375 C -9.234375 -1.4375 -10.597656 -1.710938 -11.765625 -2.265625 C -12.929688 -2.816406 -13.832031 -3.597656 -14.46875 -4.609375 C -15.113281 -5.628906 -15.4375 -6.800781 -15.4375 -8.125 C -15.4375 -9.300781 -15.179688 -10.328125 -14.671875 -11.203125 C -14.160156 -12.085938 -13.445312 -12.75 -12.53125 -13.1875 L -22.0625 -13.1875 Z M -1.796875 -8.59375 C -1.796875 -10.070312 -2.300781 -11.210938 -3.3125 -12.015625 C -4.320312 -12.816406 -5.753906 -13.21875 -7.609375 -13.21875 C -9.453125 -13.21875 -10.875 -12.816406 -11.875 -12.015625 C -12.882812 -11.210938 -13.390625 -10.070312 -13.390625 -8.59375 C -13.390625 -7.125 -12.890625 -5.972656 -11.890625 -5.140625 C -10.898438 -4.304688 -9.492188 -3.890625 -7.671875 -3.890625 C -5.816406 -3.890625 -4.375 -4.304688 -3.34375 -5.140625 C -2.3125 -5.972656 -1.796875 -7.125 -1.796875 -8.59375 Z M -1.796875 -8.59375 "/></g></g></g><g fill="#080808" fill-opacity="1"><g transform="translate(131.227879, 532.151)"><g><path d="M 0 -2.34375 L -15.078125 -2.34375 L -15.078125 -4.765625 L 0 -4.765625 Z M -21.453125 -2.09375 L -21.453125 -5.0625 L -18.703125 -5.0625 L -18.703125 -2.09375 Z M -21.453125 -2.09375 "/></g></g></g><g fill="#080808" fill-opacity="1"><g transform="translate(131.227879, 525.017101)"><g><path d="M -15.4375 -9.859375 C -15.4375 -13.472656 -13.445312 -15.28125 -9.46875 -15.28125 L 0 -15.28125 L 0 -12.859375 L -9.34375 -12.859375 C -10.75 -12.859375 -11.773438 -12.578125 -12.421875 -12.015625 C -13.066406 -11.453125 -13.390625 -10.570312 -13.390625 -9.375 C -13.390625 -7.976562 -12.957031 -6.859375 -12.09375 -6.015625 C -11.238281 -5.179688 -10.082031 -4.765625 -8.625 -4.765625 L 0 -4.765625 L 0 -2.34375 L -10.84375 -2.34375 C -12.40625 -2.34375 -13.816406 -2.257812 -15.078125 -2.09375 L -15.078125 -4.40625 L -12.375 -4.640625 C -13.351562 -5.097656 -14.109375 -5.785156 -14.640625 -6.703125 C -15.171875 -7.628906 -15.4375 -8.679688 -15.4375 -9.859375 Z M -15.4375 -9.859375 "/></g></g></g><g fill="#080808" fill-opacity="1"><g transform="translate(131.227879, 507.482092)"><g><path d="M -15.078125 -15.765625 L -0.125 -15.765625 C 2.113281 -15.765625 3.804688 -15.1875 4.953125 -14.03125 C 6.109375 -12.882812 6.6875 -11.191406 6.6875 -8.953125 C 6.6875 -6.660156 6.164062 -4.6875 5.125 -3.03125 L 3.140625 -3.453125 C 3.679688 -4.410156 4.070312 -5.3125 4.3125 -6.15625 C 4.550781 -7.007812 4.671875 -7.941406 4.671875 -8.953125 C 4.671875 -10.410156 4.285156 -11.507812 3.515625 -12.25 C 2.753906 -12.988281 1.613281 -13.359375 0.09375 -13.359375 L -3.46875 -13.359375 C -2.507812 -12.898438 -1.765625 -12.226562 -1.234375 -11.34375 C -0.710938 -10.457031 -0.453125 -9.40625 -0.453125 -8.1875 C -0.453125 -6.863281 -0.757812 -5.6875 -1.375 -4.65625 C -2 -3.625 -2.878906 -2.828125 -4.015625 -2.265625 C -5.148438 -1.710938 -6.457031 -1.4375 -7.9375 -1.4375 C -9.414062 -1.4375 -10.722656 -1.710938 -11.859375 -2.265625 C -13.003906 -2.828125 -13.882812 -3.625 -14.5 -4.65625 C -15.125 -5.6875 -15.4375 -6.863281 -15.4375 -8.1875 C -15.4375 -9.382812 -15.175781 -10.425781 -14.65625 -11.3125 C -14.132812 -12.195312 -13.40625 -12.875 -12.46875 -13.34375 L -15.078125 -13.34375 Z M -2.484375 -8.65625 C -2.484375 -10.113281 -2.96875 -11.257812 -3.9375 -12.09375 C -4.90625 -12.925781 -6.238281 -13.34375 -7.9375 -13.34375 C -9.632812 -13.34375 -10.96875 -12.925781 -11.9375 -12.09375 C -12.90625 -11.257812 -13.390625 -10.113281 -13.390625 -8.65625 C -13.390625 -7.175781 -12.90625 -6.007812 -11.9375 -5.15625 C -10.96875 -4.3125 -9.632812 -3.890625 -7.9375 -3.890625 C -6.238281 -3.890625 -4.90625 -4.3125 -3.9375 -5.15625 C -2.96875 -6.007812 -2.484375 -7.175781 -2.484375 -8.65625 Z M -2.484375 -8.65625 "/></g></g></g><g fill="#080808" fill-opacity="1"><g transform="translate(131.227879, 489.377573)"><g/></g></g><g fill="#080808" fill-opacity="1"><g transform="translate(131.227879, 481.554264)"><g><path d="M -21.34375 -2.640625 L -21.34375 -11.140625 C -21.34375 -13.335938 -20.8125 -15.050781 -19.75 -16.28125 C -18.6875 -17.507812 -17.226562 -18.125 -15.375 -18.125 C -13.519531 -18.125 -12.054688 -17.503906 -10.984375 -16.265625 C -9.910156 -15.035156 -9.375 -13.328125 -9.375 -11.140625 L -9.375 -5.09375 L 0 -5.09375 L 0 -2.640625 Z M -11.421875 -10.9375 C -11.421875 -12.519531 -11.757812 -13.707031 -12.4375 -14.5 C -13.113281 -15.300781 -14.09375 -15.703125 -15.375 -15.703125 C -16.65625 -15.703125 -17.628906 -15.300781 -18.296875 -14.5 C -18.960938 -13.707031 -19.296875 -12.519531 -19.296875 -10.9375 L -19.296875 -5.09375 L -11.421875 -5.09375 Z M -11.421875 -10.9375 "/></g></g></g><g fill="#080808" fill-opacity="1"><g transform="translate(131.227879, 462.040945)"><g><path d="M -15.4375 -9.34375 C -15.4375 -9.84375 -15.375 -10.304688 -15.25 -10.734375 L -13.03125 -10.671875 C -13.195312 -10.210938 -13.28125 -9.679688 -13.28125 -9.078125 C -13.28125 -7.617188 -12.820312 -6.535156 -11.90625 -5.828125 C -11 -5.117188 -9.894531 -4.765625 -8.59375 -4.765625 L 0 -4.765625 L 0 -2.34375 L -10.84375 -2.34375 C -12.40625 -2.34375 -13.816406 -2.257812 -15.078125 -2.09375 L -15.078125 -4.40625 L -12.28125 -4.640625 C -13.300781 -5.023438 -14.082031 -5.632812 -14.625 -6.46875 C -15.164062 -7.3125 -15.4375 -8.269531 -15.4375 -9.34375 Z M -15.4375 -9.34375 "/></g></g></g><g fill="#080808" fill-opacity="1"><g transform="translate(131.227879, 451.190227)"><g><path d="M 0 -2.34375 L -15.078125 -2.34375 L -15.078125 -4.765625 L 0 -4.765625 Z M -21.453125 -2.09375 L -21.453125 -5.0625 L -18.703125 -5.0625 L -18.703125 -2.09375 Z M -21.453125 -2.09375 "/></g></g></g><g fill="#080808" fill-opacity="1"><g transform="translate(131.227879, 444.056327)"><g><path d="M -15.4375 -9.859375 C -15.4375 -13.472656 -13.445312 -15.28125 -9.46875 -15.28125 L 0 -15.28125 L 0 -12.859375 L -9.34375 -12.859375 C -10.75 -12.859375 -11.773438 -12.578125 -12.421875 -12.015625 C -13.066406 -11.453125 -13.390625 -10.570312 -13.390625 -9.375 C -13.390625 -7.976562 -12.957031 -6.859375 -12.09375 -6.015625 C -11.238281 -5.179688 -10.082031 -4.765625 -8.625 -4.765625 L 0 -4.765625 L 0 -2.34375 L -10.84375 -2.34375 C -12.40625 -2.34375 -13.816406 -2.257812 -15.078125 -2.09375 L -15.078125 -4.40625 L -12.375 -4.640625 C -13.351562 -5.097656 -14.109375 -5.785156 -14.640625 -6.703125 C -15.171875 -7.628906 -15.4375 -8.679688 -15.4375 -9.859375 Z M -15.4375 -9.859375 "/></g></g></g><g fill="#080808" fill-opacity="1"><g transform="translate(131.227879, 426.521318)"><g><path d="M 0.203125 -8.65625 C 0.203125 -7.195312 -0.113281 -5.921875 -0.75 -4.828125 C -1.382812 -3.742188 -2.285156 -2.90625 -3.453125 -2.3125 C -4.628906 -1.726562 -5.992188 -1.4375 -7.546875 -1.4375 C -9.109375 -1.4375 -10.484375 -1.734375 -11.671875 -2.328125 C -12.859375 -2.929688 -13.78125 -3.785156 -14.4375 -4.890625 C -15.101562 -6.003906 -15.4375 -7.300781 -15.4375 -8.78125 C -15.4375 -9.800781 -15.257812 -10.785156 -14.90625 -11.734375 C -14.5625 -12.679688 -14.078125 -13.460938 -13.453125 -14.078125 L -11.65625 -13.28125 C -12.257812 -12.519531 -12.695312 -11.785156 -12.96875 -11.078125 C -13.25 -10.367188 -13.390625 -9.644531 -13.390625 -8.90625 C -13.390625 -7.363281 -12.875 -6.148438 -11.84375 -5.265625 C -10.820312 -4.390625 -9.390625 -3.953125 -7.546875 -3.953125 C -5.734375 -3.953125 -4.320312 -4.382812 -3.3125 -5.25 C -2.300781 -6.125 -1.796875 -7.34375 -1.796875 -8.90625 C -1.796875 -9.644531 -1.9375 -10.367188 -2.21875 -11.078125 C -2.5 -11.785156 -2.9375 -12.519531 -3.53125 -13.28125 L -1.734375 -14.078125 C -1.140625 -13.441406 -0.664062 -12.640625 -0.3125 -11.671875 C 0.03125 -10.703125 0.203125 -9.695312 0.203125 -8.65625 Z M 0.203125 -8.65625 "/></g></g></g><g fill="#080808" fill-opacity="1"><g transform="translate(131.227879, 411.683998)"><g><path d="M 0 -2.34375 L -15.078125 -2.34375 L -15.078125 -4.765625 L 0 -4.765625 Z M -21.453125 -2.09375 L -21.453125 -5.0625 L -18.703125 -5.0625 L -18.703125 -2.09375 Z M -21.453125 -2.09375 "/></g></g></g><g fill="#080808" fill-opacity="1"><g transform="translate(131.227879, 404.550099)"><g><path d="M -15.4375 -9.859375 C -15.4375 -11.179688 -15.101562 -12.347656 -14.4375 -13.359375 C -13.78125 -14.378906 -12.859375 -15.171875 -11.671875 -15.734375 C -10.484375 -16.296875 -9.109375 -16.578125 -7.546875 -16.578125 C -5.992188 -16.578125 -4.628906 -16.296875 -3.453125 -15.734375 C -2.285156 -15.171875 -1.382812 -14.382812 -0.75 -13.375 C -0.113281 -12.375 0.203125 -11.203125 0.203125 -9.859375 C 0.203125 -8.679688 -0.0507812 -7.648438 -0.5625 -6.765625 C -1.082031 -5.890625 -1.820312 -5.222656 -2.78125 -4.765625 L 6.46875 -4.765625 L 6.46875 -2.34375 L -10.84375 -2.34375 C -12.40625 -2.34375 -13.816406 -2.257812 -15.078125 -2.09375 L -15.078125 -4.40625 L -12.171875 -4.640625 C -13.203125 -5.066406 -14.003906 -5.734375 -14.578125 -6.640625 C -15.148438 -7.546875 -15.4375 -8.617188 -15.4375 -9.859375 Z M -1.796875 -9.40625 C -1.796875 -10.882812 -2.296875 -12.03125 -3.296875 -12.84375 C -4.296875 -13.65625 -5.710938 -14.0625 -7.546875 -14.0625 C -9.390625 -14.0625 -10.820312 -13.648438 -11.84375 -12.828125 C -12.875 -12.003906 -13.390625 -10.863281 -13.390625 -9.40625 C -13.390625 -7.90625 -12.890625 -6.753906 -11.890625 -5.953125 C -10.898438 -5.160156 -9.472656 -4.765625 -7.609375 -4.765625 C -5.753906 -4.765625 -4.320312 -5.160156 -3.3125 -5.953125 C -2.300781 -6.753906 -1.796875 -7.90625 -1.796875 -9.40625 Z M -1.796875 -9.40625 "/></g></g><g transform="translate(131.227879, 386.565458)"><g><path d="M 0 -2.34375 L -22.0625 -2.34375 L -22.0625 -4.765625 L 0 -4.765625 Z M 0 -2.34375 "/></g></g></g><g fill="#080808" fill-opacity="1"><g transform="translate(131.227879, 379.431559)"><g><path d="M -7.609375 -14.953125 L -7.609375 -3.890625 C -5.691406 -3.910156 -4.242188 -4.351562 -3.265625 -5.21875 C -2.285156 -6.09375 -1.796875 -7.359375 -1.796875 -9.015625 C -1.796875 -10.773438 -2.382812 -12.394531 -3.5625 -13.875 L -1.796875 -14.6875 C -1.179688 -14.03125 -0.691406 -13.1875 -0.328125 -12.15625 C 0.0234375 -11.125 0.203125 -10.066406 0.203125 -8.984375 C 0.203125 -6.628906 -0.488281 -4.78125 -1.875 -3.4375 C -3.257812 -2.101562 -5.160156 -1.4375 -7.578125 -1.4375 C -9.117188 -1.4375 -10.484375 -1.734375 -11.671875 -2.328125 C -12.859375 -2.929688 -13.78125 -3.769531 -14.4375 -4.84375 C -15.101562 -5.925781 -15.4375 -7.160156 -15.4375 -8.546875 C -15.4375 -10.535156 -14.78125 -12.097656 -13.46875 -13.234375 C -12.164062 -14.378906 -10.363281 -14.953125 -8.0625 -14.953125 Z M -13.546875 -8.578125 C -13.546875 -7.316406 -13.164062 -6.289062 -12.40625 -5.5 C -11.644531 -4.707031 -10.578125 -4.203125 -9.203125 -3.984375 L -9.203125 -12.765625 C -10.617188 -12.648438 -11.695312 -12.234375 -12.4375 -11.515625 C -13.175781 -10.804688 -13.546875 -9.828125 -13.546875 -8.578125 Z M -13.546875 -8.578125 "/></g></g></g><g fill="#080808" fill-opacity="1"><g transform="translate(131.227879, 363.1255)"><g><path d="M 0.203125 -7.4375 C 0.203125 -4.894531 -0.441406 -2.882812 -1.734375 -1.40625 L -3.53125 -2.21875 C -2.894531 -3.039062 -2.4375 -3.867188 -2.15625 -4.703125 C -1.875 -5.546875 -1.734375 -6.484375 -1.734375 -7.515625 C -1.734375 -8.660156 -1.925781 -9.523438 -2.3125 -10.109375 C -2.707031 -10.703125 -3.273438 -11 -4.015625 -11 C -4.617188 -11 -5.097656 -10.796875 -5.453125 -10.390625 C -5.816406 -9.992188 -6.097656 -9.335938 -6.296875 -8.421875 L -6.890625 -5.875 C -7.171875 -4.613281 -7.671875 -3.640625 -8.390625 -2.953125 C -9.109375 -2.265625 -9.96875 -1.921875 -10.96875 -1.921875 C -12.289062 -1.921875 -13.363281 -2.445312 -14.1875 -3.5 C -15.019531 -4.5625 -15.4375 -5.960938 -15.4375 -7.703125 C -15.4375 -8.765625 -15.265625 -9.765625 -14.921875 -10.703125 C -14.585938 -11.640625 -14.097656 -12.425781 -13.453125 -13.0625 L -11.6875 -12.25 C -12.863281 -10.832031 -13.453125 -9.316406 -13.453125 -7.703125 C -13.453125 -6.617188 -13.25 -5.78125 -12.84375 -5.1875 C -12.4375 -4.601562 -11.863281 -4.3125 -11.125 -4.3125 C -10.5 -4.3125 -10.003906 -4.492188 -9.640625 -4.859375 C -9.285156 -5.234375 -9.007812 -5.832031 -8.8125 -6.65625 L -8.1875 -9.203125 C -7.863281 -10.597656 -7.363281 -11.632812 -6.6875 -12.3125 C -6.019531 -13 -5.148438 -13.34375 -4.078125 -13.34375 C -2.773438 -13.34375 -1.734375 -12.8125 -0.953125 -11.75 C -0.179688 -10.6875 0.203125 -9.25 0.203125 -7.4375 Z M 0.203125 -7.4375 "/></g></g></g><g fill="#080808" fill-opacity="1"><g transform="translate(322.512208, 524.432063)"><g><path d="M 0 -19.390625 L 0 -16.78125 L -7.109375 -14.140625 C -7.984375 -13.828125 -8.566406 -13.382812 -8.859375 -12.8125 C -9.160156 -12.238281 -9.3125 -11.4375 -9.3125 -10.40625 L -9.3125 -5.0625 L 0 -5.0625 L 0 -2.640625 L -21.34375 -2.640625 L -21.34375 -11.125 C -21.34375 -13.414062 -20.832031 -15.175781 -19.8125 -16.40625 C -18.789062 -17.632812 -17.320312 -18.25 -15.40625 -18.25 C -14.007812 -18.25 -12.832031 -17.882812 -11.875 -17.15625 C -10.925781 -16.425781 -10.253906 -15.375 -9.859375 -14 C -9.753906 -14.613281 -9.488281 -15.140625 -9.0625 -15.578125 C -8.632812 -16.023438 -8.019531 -16.394531 -7.21875 -16.6875 Z M -11.359375 -10.90625 C -11.359375 -14.1875 -12.695312 -15.828125 -15.375 -15.828125 C -16.695312 -15.828125 -17.679688 -15.425781 -18.328125 -14.625 C -18.972656 -13.820312 -19.296875 -12.582031 -19.296875 -10.90625 L -19.296875 -5.0625 L -11.359375 -5.0625 Z M -11.359375 -10.90625 "/></g></g></g><g fill="#080808" fill-opacity="1"><g transform="translate(322.512208, 503.659825)"><g><path d="M 0.203125 -8.578125 C 0.203125 -7.148438 -0.113281 -5.894531 -0.75 -4.8125 C -1.382812 -3.738281 -2.289062 -2.90625 -3.46875 -2.3125 C -4.65625 -1.726562 -6.035156 -1.4375 -7.609375 -1.4375 C -9.191406 -1.4375 -10.570312 -1.726562 -11.75 -2.3125 C -12.925781 -2.90625 -13.832031 -3.738281 -14.46875 -4.8125 C -15.113281 -5.894531 -15.4375 -7.148438 -15.4375 -8.578125 C -15.4375 -9.992188 -15.113281 -11.238281 -14.46875 -12.3125 C -13.832031 -13.394531 -12.925781 -14.226562 -11.75 -14.8125 C -10.570312 -15.40625 -9.191406 -15.703125 -7.609375 -15.703125 C -6.035156 -15.703125 -4.65625 -15.40625 -3.46875 -14.8125 C -2.289062 -14.226562 -1.382812 -13.394531 -0.75 -12.3125 C -0.113281 -11.238281 0.203125 -9.992188 0.203125 -8.578125 Z M -1.796875 -8.578125 C -1.796875 -10.066406 -2.289062 -11.210938 -3.28125 -12.015625 C -4.269531 -12.816406 -5.710938 -13.21875 -7.609375 -13.21875 C -9.453125 -13.21875 -10.875 -12.804688 -11.875 -11.984375 C -12.882812 -11.171875 -13.390625 -10.035156 -13.390625 -8.578125 C -13.390625 -7.097656 -12.882812 -5.945312 -11.875 -5.125 C -10.875 -4.300781 -9.453125 -3.890625 -7.609375 -3.890625 C -5.710938 -3.890625 -4.269531 -4.296875 -3.28125 -5.109375 C -2.289062 -5.921875 -1.796875 -7.078125 -1.796875 -8.578125 Z M -1.796875 -8.578125 "/></g></g></g><g fill="#080808" fill-opacity="1"><g transform="translate(322.512208, 486.514487)"><g><path d="M 0 -2.34375 L -22.0625 -2.34375 L -22.0625 -4.765625 L 0 -4.765625 Z M 0 -2.34375 "/></g></g></g><g fill="#080808" fill-opacity="1"><g transform="translate(322.512208, 479.380587)"><g><path d="M -7.609375 -14.953125 L -7.609375 -3.890625 C -5.691406 -3.910156 -4.242188 -4.351562 -3.265625 -5.21875 C -2.285156 -6.09375 -1.796875 -7.359375 -1.796875 -9.015625 C -1.796875 -10.773438 -2.382812 -12.394531 -3.5625 -13.875 L -1.796875 -14.6875 C -1.179688 -14.03125 -0.691406 -13.1875 -0.328125 -12.15625 C 0.0234375 -11.125 0.203125 -10.066406 0.203125 -8.984375 C 0.203125 -6.628906 -0.488281 -4.78125 -1.875 -3.4375 C -3.257812 -2.101562 -5.160156 -1.4375 -7.578125 -1.4375 C -9.117188 -1.4375 -10.484375 -1.734375 -11.671875 -2.328125 C -12.859375 -2.929688 -13.78125 -3.769531 -14.4375 -4.84375 C -15.101562 -5.925781 -15.4375 -7.160156 -15.4375 -8.546875 C -15.4375 -10.535156 -14.78125 -12.097656 -13.46875 -13.234375 C -12.164062 -14.378906 -10.363281 -14.953125 -8.0625 -14.953125 Z M -13.546875 -8.578125 C -13.546875 -7.316406 -13.164062 -6.289062 -12.40625 -5.5 C -11.644531 -4.707031 -10.578125 -4.203125 -9.203125 -3.984375 L -9.203125 -12.765625 C -10.617188 -12.648438 -11.695312 -12.234375 -12.4375 -11.515625 C -13.175781 -10.804688 -13.546875 -9.828125 -13.546875 -8.578125 Z M -13.546875 -8.578125 "/></g></g></g><g fill="#080808" fill-opacity="1"><g transform="translate(322.512208, 463.074529)"><g><path d="M 0.203125 -7.4375 C 0.203125 -4.894531 -0.441406 -2.882812 -1.734375 -1.40625 L -3.53125 -2.21875 C -2.894531 -3.039062 -2.4375 -3.867188 -2.15625 -4.703125 C -1.875 -5.546875 -1.734375 -6.484375 -1.734375 -7.515625 C -1.734375 -8.660156 -1.925781 -9.523438 -2.3125 -10.109375 C -2.707031 -10.703125 -3.273438 -11 -4.015625 -11 C -4.617188 -11 -5.097656 -10.796875 -5.453125 -10.390625 C -5.816406 -9.992188 -6.097656 -9.335938 -6.296875 -8.421875 L -6.890625 -5.875 C -7.171875 -4.613281 -7.671875 -3.640625 -8.390625 -2.953125 C -9.109375 -2.265625 -9.96875 -1.921875 -10.96875 -1.921875 C -12.289062 -1.921875 -13.363281 -2.445312 -14.1875 -3.5 C -15.019531 -4.5625 -15.4375 -5.960938 -15.4375 -7.703125 C -15.4375 -8.765625 -15.265625 -9.765625 -14.921875 -10.703125 C -14.585938 -11.640625 -14.097656 -12.425781 -13.453125 -13.0625 L -11.6875 -12.25 C -12.863281 -10.832031 -13.453125 -9.316406 -13.453125 -7.703125 C -13.453125 -6.617188 -13.25 -5.78125 -12.84375 -5.1875 C -12.4375 -4.601562 -11.863281 -4.3125 -11.125 -4.3125 C -10.5 -4.3125 -10.003906 -4.492188 -9.640625 -4.859375 C -9.285156 -5.234375 -9.007812 -5.832031 -8.8125 -6.65625 L -8.1875 -9.203125 C -7.863281 -10.597656 -7.363281 -11.632812 -6.6875 -12.3125 C -6.019531 -13 -5.148438 -13.34375 -4.078125 -13.34375 C -2.773438 -13.34375 -1.734375 -12.8125 -0.953125 -11.75 C -0.179688 -10.6875 0.203125 -9.25 0.203125 -7.4375 Z M 0.203125 -7.4375 "/></g></g></g><g fill="#080808" fill-opacity="1"><g transform="translate(322.512208, 448.20724)"><g/></g></g><g fill="#080808" fill-opacity="1"><g transform="translate(322.512208, 440.383931)"><g><path d="M -4.3125 -16.1875 C -3.175781 -17.21875 -2.207031 -18.613281 -1.40625 -20.375 L 0.265625 -19.0625 C -0.492188 -17.40625 -1.441406 -16.003906 -2.578125 -14.859375 C -1.679688 -14.003906 -0.992188 -13.035156 -0.515625 -11.953125 C -0.0351562 -10.878906 0.203125 -9.710938 0.203125 -8.453125 C 0.203125 -7.085938 -0.03125 -5.882812 -0.5 -4.84375 C -0.96875 -3.8125 -1.617188 -3.007812 -2.453125 -2.4375 C -3.296875 -1.875 -4.265625 -1.59375 -5.359375 -1.59375 C -6.640625 -1.59375 -7.796875 -1.976562 -8.828125 -2.75 C -9.859375 -3.53125 -10.890625 -4.789062 -11.921875 -6.53125 C -13.003906 -5.59375 -13.910156 -4.9375 -14.640625 -4.5625 C -15.367188 -4.195312 -16.125 -4.015625 -16.90625 -4.015625 C -18.300781 -4.015625 -19.421875 -4.492188 -20.265625 -5.453125 C -21.117188 -6.410156 -21.546875 -7.679688 -21.546875 -9.265625 C -21.546875 -10.742188 -21.160156 -11.910156 -20.390625 -12.765625 C -19.617188 -13.628906 -18.578125 -14.0625 -17.265625 -14.0625 C -16.203125 -14.0625 -15.25 -13.738281 -14.40625 -13.09375 C -13.570312 -12.457031 -12.632812 -11.328125 -11.59375 -9.703125 L -5.9375 -14.75 C -7.75 -15.6875 -9.945312 -16.1875 -12.53125 -16.25 L -12.53125 -18.40625 C -10.90625 -18.363281 -9.398438 -18.148438 -8.015625 -17.765625 C -6.628906 -17.390625 -5.394531 -16.863281 -4.3125 -16.1875 Z M -19.6875 -9.296875 C -19.6875 -8.410156 -19.429688 -7.695312 -18.921875 -7.15625 C -18.410156 -6.625 -17.738281 -6.359375 -16.90625 -6.359375 C -16.320312 -6.359375 -15.769531 -6.492188 -15.25 -6.765625 C -14.726562 -7.046875 -14 -7.597656 -13.0625 -8.421875 C -13.882812 -9.742188 -14.59375 -10.648438 -15.1875 -11.140625 C -15.789062 -11.640625 -16.441406 -11.890625 -17.140625 -11.890625 C -17.898438 -11.890625 -18.515625 -11.648438 -18.984375 -11.171875 C -19.453125 -10.691406 -19.6875 -10.066406 -19.6875 -9.296875 Z M -1.765625 -8.515625 C -1.765625 -10.472656 -2.535156 -12.140625 -4.078125 -13.515625 L -10.453125 -7.828125 C -9.597656 -6.421875 -8.785156 -5.425781 -8.015625 -4.84375 C -7.242188 -4.269531 -6.378906 -3.984375 -5.421875 -3.984375 C -4.304688 -3.984375 -3.414062 -4.390625 -2.75 -5.203125 C -2.09375 -6.023438 -1.765625 -7.128906 -1.765625 -8.515625 Z M -1.765625 -8.515625 "/></g></g></g><g fill="#080808" fill-opacity="1"><g transform="translate(364.47637, 585.18877)"><g><path d="M 0 -19.390625 L 0 -16.78125 L -7.109375 -14.140625 C -7.984375 -13.828125 -8.566406 -13.382812 -8.859375 -12.8125 C -9.160156 -12.238281 -9.3125 -11.4375 -9.3125 -10.40625 L -9.3125 -5.0625 L 0 -5.0625 L 0 -2.640625 L -21.34375 -2.640625 L -21.34375 -11.125 C -21.34375 -13.414062 -20.832031 -15.175781 -19.8125 -16.40625 C -18.789062 -17.632812 -17.320312 -18.25 -15.40625 -18.25 C -14.007812 -18.25 -12.832031 -17.882812 -11.875 -17.15625 C -10.925781 -16.425781 -10.253906 -15.375 -9.859375 -14 C -9.753906 -14.613281 -9.488281 -15.140625 -9.0625 -15.578125 C -8.632812 -16.023438 -8.019531 -16.394531 -7.21875 -16.6875 Z M -11.359375 -10.90625 C -11.359375 -14.1875 -12.695312 -15.828125 -15.375 -15.828125 C -16.695312 -15.828125 -17.679688 -15.425781 -18.328125 -14.625 C -18.972656 -13.820312 -19.296875 -12.582031 -19.296875 -10.90625 L -19.296875 -5.0625 L -11.359375 -5.0625 Z M -11.359375 -10.90625 "/></g></g></g><g fill="#080808" fill-opacity="1"><g transform="translate(364.47637, 564.416532)"><g><path d="M -7.609375 -14.953125 L -7.609375 -3.890625 C -5.691406 -3.910156 -4.242188 -4.351562 -3.265625 -5.21875 C -2.285156 -6.09375 -1.796875 -7.359375 -1.796875 -9.015625 C -1.796875 -10.773438 -2.382812 -12.394531 -3.5625 -13.875 L -1.796875 -14.6875 C -1.179688 -14.03125 -0.691406 -13.1875 -0.328125 -12.15625 C 0.0234375 -11.125 0.203125 -10.066406 0.203125 -8.984375 C 0.203125 -6.628906 -0.488281 -4.78125 -1.875 -3.4375 C -3.257812 -2.101562 -5.160156 -1.4375 -7.578125 -1.4375 C -9.117188 -1.4375 -10.484375 -1.734375 -11.671875 -2.328125 C -12.859375 -2.929688 -13.78125 -3.769531 -14.4375 -4.84375 C -15.101562 -5.925781 -15.4375 -7.160156 -15.4375 -8.546875 C -15.4375 -10.535156 -14.78125 -12.097656 -13.46875 -13.234375 C -12.164062 -14.378906 -10.363281 -14.953125 -8.0625 -14.953125 Z M -13.546875 -8.578125 C -13.546875 -7.316406 -13.164062 -6.289062 -12.40625 -5.5 C -11.644531 -4.707031 -10.578125 -4.203125 -9.203125 -3.984375 L -9.203125 -12.765625 C -10.617188 -12.648438 -11.695312 -12.234375 -12.4375 -11.515625 C -13.175781 -10.804688 -13.546875 -9.828125 -13.546875 -8.578125 Z M -13.546875 -8.578125 "/></g></g></g><g fill="#080808" fill-opacity="1"><g transform="translate(364.47637, 548.110473)"><g><path d="M 0.203125 -7.4375 C 0.203125 -4.894531 -0.441406 -2.882812 -1.734375 -1.40625 L -3.53125 -2.21875 C -2.894531 -3.039062 -2.4375 -3.867188 -2.15625 -4.703125 C -1.875 -5.546875 -1.734375 -6.484375 -1.734375 -7.515625 C -1.734375 -8.660156 -1.925781 -9.523438 -2.3125 -10.109375 C -2.707031 -10.703125 -3.273438 -11 -4.015625 -11 C -4.617188 -11 -5.097656 -10.796875 -5.453125 -10.390625 C -5.816406 -9.992188 -6.097656 -9.335938 -6.296875 -8.421875 L -6.890625 -5.875 C -7.171875 -4.613281 -7.671875 -3.640625 -8.390625 -2.953125 C -9.109375 -2.265625 -9.96875 -1.921875 -10.96875 -1.921875 C -12.289062 -1.921875 -13.363281 -2.445312 -14.1875 -3.5 C -15.019531 -4.5625 -15.4375 -5.960938 -15.4375 -7.703125 C -15.4375 -8.765625 -15.265625 -9.765625 -14.921875 -10.703125 C -14.585938 -11.640625 -14.097656 -12.425781 -13.453125 -13.0625 L -11.6875 -12.25 C -12.863281 -10.832031 -13.453125 -9.316406 -13.453125 -7.703125 C -13.453125 -6.617188 -13.25 -5.78125 -12.84375 -5.1875 C -12.4375 -4.601562 -11.863281 -4.3125 -11.125 -4.3125 C -10.5 -4.3125 -10.003906 -4.492188 -9.640625 -4.859375 C -9.285156 -5.234375 -9.007812 -5.832031 -8.8125 -6.65625 L -8.1875 -9.203125 C -7.863281 -10.597656 -7.363281 -11.632812 -6.6875 -12.3125 C -6.019531 -13 -5.148438 -13.34375 -4.078125 -13.34375 C -2.773438 -13.34375 -1.734375 -12.8125 -0.953125 -11.75 C -0.179688 -10.6875 0.203125 -9.25 0.203125 -7.4375 Z M 0.203125 -7.4375 "/></g></g></g><g fill="#080808" fill-opacity="1"><g transform="translate(364.47637, 533.243184)"><g><path d="M -15.4375 -9.859375 C -15.4375 -11.179688 -15.101562 -12.347656 -14.4375 -13.359375 C -13.78125 -14.378906 -12.859375 -15.171875 -11.671875 -15.734375 C -10.484375 -16.296875 -9.109375 -16.578125 -7.546875 -16.578125 C -5.992188 -16.578125 -4.628906 -16.296875 -3.453125 -15.734375 C -2.285156 -15.171875 -1.382812 -14.382812 -0.75 -13.375 C -0.113281 -12.375 0.203125 -11.203125 0.203125 -9.859375 C 0.203125 -8.679688 -0.0507812 -7.648438 -0.5625 -6.765625 C -1.082031 -5.890625 -1.820312 -5.222656 -2.78125 -4.765625 L 6.46875 -4.765625 L 6.46875 -2.34375 L -10.84375 -2.34375 C -12.40625 -2.34375 -13.816406 -2.257812 -15.078125 -2.09375 L -15.078125 -4.40625 L -12.171875 -4.640625 C -13.203125 -5.066406 -14.003906 -5.734375 -14.578125 -6.640625 C -15.148438 -7.546875 -15.4375 -8.617188 -15.4375 -9.859375 Z M -1.796875 -9.40625 C -1.796875 -10.882812 -2.296875 -12.03125 -3.296875 -12.84375 C -4.296875 -13.65625 -5.710938 -14.0625 -7.546875 -14.0625 C -9.390625 -14.0625 -10.820312 -13.648438 -11.84375 -12.828125 C -12.875 -12.003906 -13.390625 -10.863281 -13.390625 -9.40625 C -13.390625 -7.90625 -12.890625 -6.753906 -11.890625 -5.953125 C -10.898438 -5.160156 -9.472656 -4.765625 -7.609375 -4.765625 C -5.753906 -4.765625 -4.320312 -5.160156 -3.3125 -5.953125 C -2.300781 -6.753906 -1.796875 -7.90625 -1.796875 -9.40625 Z M -1.796875 -9.40625 "/></g></g></g><g fill="#080808" fill-opacity="1"><g transform="translate(364.47637, 515.258554)"><g><path d="M 0.203125 -8.578125 C 0.203125 -7.148438 -0.113281 -5.894531 -0.75 -4.8125 C -1.382812 -3.738281 -2.289062 -2.90625 -3.46875 -2.3125 C -4.65625 -1.726562 -6.035156 -1.4375 -7.609375 -1.4375 C -9.191406 -1.4375 -10.570312 -1.726562 -11.75 -2.3125 C -12.925781 -2.90625 -13.832031 -3.738281 -14.46875 -4.8125 C -15.113281 -5.894531 -15.4375 -7.148438 -15.4375 -8.578125 C -15.4375 -9.992188 -15.113281 -11.238281 -14.46875 -12.3125 C -13.832031 -13.394531 -12.925781 -14.226562 -11.75 -14.8125 C -10.570312 -15.40625 -9.191406 -15.703125 -7.609375 -15.703125 C -6.035156 -15.703125 -4.65625 -15.40625 -3.46875 -14.8125 C -2.289062 -14.226562 -1.382812 -13.394531 -0.75 -12.3125 C -0.113281 -11.238281 0.203125 -9.992188 0.203125 -8.578125 Z M -1.796875 -8.578125 C -1.796875 -10.066406 -2.289062 -11.210938 -3.28125 -12.015625 C -4.269531 -12.816406 -5.710938 -13.21875 -7.609375 -13.21875 C -9.453125 -13.21875 -10.875 -12.804688 -11.875 -11.984375 C -12.882812 -11.171875 -13.390625 -10.035156 -13.390625 -8.578125 C -13.390625 -7.097656 -12.882812 -5.945312 -11.875 -5.125 C -10.875 -4.300781 -9.453125 -3.890625 -7.609375 -3.890625 C -5.710938 -3.890625 -4.269531 -4.296875 -3.28125 -5.109375 C -2.289062 -5.921875 -1.796875 -7.078125 -1.796875 -8.578125 Z M -1.796875 -8.578125 "/></g></g></g><g fill="#080808" fill-opacity="1"><g transform="translate(364.47637, 498.113216)"><g><path d="M -15.4375 -9.859375 C -15.4375 -13.472656 -13.445312 -15.28125 -9.46875 -15.28125 L 0 -15.28125 L 0 -12.859375 L -9.34375 -12.859375 C -10.75 -12.859375 -11.773438 -12.578125 -12.421875 -12.015625 C -13.066406 -11.453125 -13.390625 -10.570312 -13.390625 -9.375 C -13.390625 -7.976562 -12.957031 -6.859375 -12.09375 -6.015625 C -11.238281 -5.179688 -10.082031 -4.765625 -8.625 -4.765625 L 0 -4.765625 L 0 -2.34375 L -10.84375 -2.34375 C -12.40625 -2.34375 -13.816406 -2.257812 -15.078125 -2.09375 L -15.078125 -4.40625 L -12.375 -4.640625 C -13.351562 -5.097656 -14.109375 -5.785156 -14.640625 -6.703125 C -15.171875 -7.628906 -15.4375 -8.679688 -15.4375 -9.859375 Z M -15.4375 -9.859375 "/></g></g></g><g fill="#080808" fill-opacity="1"><g transform="translate(364.47637, 480.578207)"><g><path d="M 0.203125 -7.4375 C 0.203125 -4.894531 -0.441406 -2.882812 -1.734375 -1.40625 L -3.53125 -2.21875 C -2.894531 -3.039062 -2.4375 -3.867188 -2.15625 -4.703125 C -1.875 -5.546875 -1.734375 -6.484375 -1.734375 -7.515625 C -1.734375 -8.660156 -1.925781 -9.523438 -2.3125 -10.109375 C -2.707031 -10.703125 -3.273438 -11 -4.015625 -11 C -4.617188 -11 -5.097656 -10.796875 -5.453125 -10.390625 C -5.816406 -9.992188 -6.097656 -9.335938 -6.296875 -8.421875 L -6.890625 -5.875 C -7.171875 -4.613281 -7.671875 -3.640625 -8.390625 -2.953125 C -9.109375 -2.265625 -9.96875 -1.921875 -10.96875 -1.921875 C -12.289062 -1.921875 -13.363281 -2.445312 -14.1875 -3.5 C -15.019531 -4.5625 -15.4375 -5.960938 -15.4375 -7.703125 C -15.4375 -8.765625 -15.265625 -9.765625 -14.921875 -10.703125 C -14.585938 -11.640625 -14.097656 -12.425781 -13.453125 -13.0625 L -11.6875 -12.25 C -12.863281 -10.832031 -13.453125 -9.316406 -13.453125 -7.703125 C -13.453125 -6.617188 -13.25 -5.78125 -12.84375 -5.1875 C -12.4375 -4.601562 -11.863281 -4.3125 -11.125 -4.3125 C -10.5 -4.3125 -10.003906 -4.492188 -9.640625 -4.859375 C -9.285156 -5.234375 -9.007812 -5.832031 -8.8125 -6.65625 L -8.1875 -9.203125 C -7.863281 -10.597656 -7.363281 -11.632812 -6.6875 -12.3125 C -6.019531 -13 -5.148438 -13.34375 -4.078125 -13.34375 C -2.773438 -13.34375 -1.734375 -12.8125 -0.953125 -11.75 C -0.179688 -10.6875 0.203125 -9.25 0.203125 -7.4375 Z M 0.203125 -7.4375 "/></g></g></g><g fill="#080808" fill-opacity="1"><g transform="translate(364.47637, 465.710918)"><g><path d="M -15.078125 -15.609375 L 0 -15.609375 L 0 -13.21875 L -2.734375 -13.21875 C -1.785156 -12.78125 -1.054688 -12.113281 -0.546875 -11.21875 C -0.046875 -10.332031 0.203125 -9.300781 0.203125 -8.125 C 0.203125 -6.78125 -0.113281 -5.601562 -0.75 -4.59375 C -1.382812 -3.59375 -2.285156 -2.816406 -3.453125 -2.265625 C -4.628906 -1.710938 -5.992188 -1.4375 -7.546875 -1.4375 C -9.109375 -1.4375 -10.484375 -1.710938 -11.671875 -2.265625 C -12.859375 -2.828125 -13.78125 -3.613281 -14.4375 -4.625 C -15.101562 -5.632812 -15.4375 -6.800781 -15.4375 -8.125 C -15.4375 -9.300781 -15.175781 -10.328125 -14.65625 -11.203125 C -14.132812 -12.085938 -13.40625 -12.757812 -12.46875 -13.21875 L -15.078125 -13.21875 Z M -1.796875 -8.59375 C -1.796875 -10.070312 -2.300781 -11.210938 -3.3125 -12.015625 C -4.320312 -12.816406 -5.753906 -13.21875 -7.609375 -13.21875 C -9.472656 -13.21875 -10.898438 -12.816406 -11.890625 -12.015625 C -12.890625 -11.210938 -13.390625 -10.070312 -13.390625 -8.59375 C -13.390625 -7.125 -12.875 -5.972656 -11.84375 -5.140625 C -10.820312 -4.304688 -9.390625 -3.890625 -7.546875 -3.890625 C -5.710938 -3.890625 -4.296875 -4.300781 -3.296875 -5.125 C -2.296875 -5.945312 -1.796875 -7.101562 -1.796875 -8.59375 Z M -1.796875 -8.59375 "/></g></g></g><g fill="#080808" fill-opacity="1"><g transform="translate(364.47637, 447.726289)"><g><path d="M -15.4375 -9.859375 C -15.4375 -11.179688 -15.113281 -12.347656 -14.46875 -13.359375 C -13.832031 -14.378906 -12.929688 -15.171875 -11.765625 -15.734375 C -10.597656 -16.296875 -9.234375 -16.578125 -7.671875 -16.578125 C -6.109375 -16.578125 -4.734375 -16.296875 -3.546875 -15.734375 C -2.359375 -15.171875 -1.4375 -14.378906 -0.78125 -13.359375 C -0.125 -12.347656 0.203125 -11.179688 0.203125 -9.859375 C 0.203125 -8.679688 -0.0507812 -7.648438 -0.5625 -6.765625 C -1.082031 -5.890625 -1.820312 -5.222656 -2.78125 -4.765625 L 0 -4.765625 L 0 -2.34375 L -22.0625 -2.34375 L -22.0625 -4.765625 L -12.40625 -4.765625 C -13.382812 -5.203125 -14.132812 -5.863281 -14.65625 -6.75 C -15.175781 -7.644531 -15.4375 -8.679688 -15.4375 -9.859375 Z M -1.796875 -9.40625 C -1.796875 -10.863281 -2.3125 -12.003906 -3.34375 -12.828125 C -4.375 -13.648438 -5.816406 -14.0625 -7.671875 -14.0625 C -9.492188 -14.0625 -10.898438 -13.65625 -11.890625 -12.84375 C -12.890625 -12.03125 -13.390625 -10.882812 -13.390625 -9.40625 C -13.390625 -7.90625 -12.890625 -6.753906 -11.890625 -5.953125 C -10.898438 -5.160156 -9.472656 -4.765625 -7.609375 -4.765625 C -5.753906 -4.765625 -4.320312 -5.160156 -3.3125 -5.953125 C -2.300781 -6.753906 -1.796875 -7.90625 -1.796875 -9.40625 Z M -1.796875 -9.40625 "/></g></g></g><g fill="#080808" fill-opacity="1"><g transform="translate(364.47637, 429.741659)"><g><path d="M 0 -2.34375 L -15.078125 -2.34375 L -15.078125 -4.765625 L 0 -4.765625 Z M -21.453125 -2.09375 L -21.453125 -5.0625 L -18.703125 -5.0625 L -18.703125 -2.09375 Z M -21.453125 -2.09375 "/></g></g></g><g fill="#080808" fill-opacity="1"><g transform="translate(364.47637, 422.60776)"><g><path d="M 0 -2.34375 L -22.0625 -2.34375 L -22.0625 -4.765625 L 0 -4.765625 Z M 0 -2.34375 "/></g></g></g><g fill="#080808" fill-opacity="1"><g transform="translate(364.47637, 415.47386)"><g><path d="M 0 -2.34375 L -15.078125 -2.34375 L -15.078125 -4.765625 L 0 -4.765625 Z M -21.453125 -2.09375 L -21.453125 -5.0625 L -18.703125 -5.0625 L -18.703125 -2.09375 Z M -21.453125 -2.09375 "/></g></g></g><g fill="#080808" fill-opacity="1"><g transform="translate(364.47637, 408.339961)"><g><path d="M -13.15625 -5.578125 L -4.921875 -5.578125 C -3.796875 -5.578125 -3.007812 -5.804688 -2.5625 -6.265625 C -2.113281 -6.722656 -1.890625 -7.375 -1.890625 -8.21875 C -1.890625 -8.769531 -1.976562 -9.304688 -2.15625 -9.828125 L -0.09375 -9.828125 C 0.101562 -9.210938 0.203125 -8.515625 0.203125 -7.734375 C 0.203125 -6.296875 -0.195312 -5.171875 -1 -4.359375 C -1.8125 -3.546875 -3.003906 -3.140625 -4.578125 -3.140625 L -13.15625 -3.140625 L -13.15625 -0.203125 L -15.078125 -0.203125 L -15.078125 -3.140625 L -18.9375 -3.140625 L -19.8125 -5.578125 L -15.078125 -5.578125 L -15.078125 -9.890625 L -13.15625 -9.890625 Z M -13.15625 -5.578125 "/></g></g></g><g fill="#080808" fill-opacity="1"><g transform="translate(364.47637, 397.848932)"><g><path d="M 0 -2.34375 L -15.078125 -2.34375 L -15.078125 -4.765625 L 0 -4.765625 Z M -21.453125 -2.09375 L -21.453125 -5.0625 L -18.703125 -5.0625 L -18.703125 -2.09375 Z M -21.453125 -2.09375 "/></g></g></g><g fill="#080808" fill-opacity="1"><g transform="translate(364.47637, 390.715021)"><g><path d="M -7.609375 -14.953125 L -7.609375 -3.890625 C -5.691406 -3.910156 -4.242188 -4.351562 -3.265625 -5.21875 C -2.285156 -6.09375 -1.796875 -7.359375 -1.796875 -9.015625 C -1.796875 -10.773438 -2.382812 -12.394531 -3.5625 -13.875 L -1.796875 -14.6875 C -1.179688 -14.03125 -0.691406 -13.1875 -0.328125 -12.15625 C 0.0234375 -11.125 0.203125 -10.066406 0.203125 -8.984375 C 0.203125 -6.628906 -0.488281 -4.78125 -1.875 -3.4375 C -3.257812 -2.101562 -5.160156 -1.4375 -7.578125 -1.4375 C -9.117188 -1.4375 -10.484375 -1.734375 -11.671875 -2.328125 C -12.859375 -2.929688 -13.78125 -3.769531 -14.4375 -4.84375 C -15.101562 -5.925781 -15.4375 -7.160156 -15.4375 -8.546875 C -15.4375 -10.535156 -14.78125 -12.097656 -13.46875 -13.234375 C -12.164062 -14.378906 -10.363281 -14.953125 -8.0625 -14.953125 Z M -13.546875 -8.578125 C -13.546875 -7.316406 -13.164062 -6.289062 -12.40625 -5.5 C -11.644531 -4.707031 -10.578125 -4.203125 -9.203125 -3.984375 L -9.203125 -12.765625 C -10.617188 -12.648438 -11.695312 -12.234375 -12.4375 -11.515625 C -13.175781 -10.804688 -13.546875 -9.828125 -13.546875 -8.578125 Z M -13.546875 -8.578125 "/></g></g></g><g fill="#080808" fill-opacity="1"><g transform="translate(364.47637, 374.408963)"><g><path d="M 0.203125 -7.4375 C 0.203125 -4.894531 -0.441406 -2.882812 -1.734375 -1.40625 L -3.53125 -2.21875 C -2.894531 -3.039062 -2.4375 -3.867188 -2.15625 -4.703125 C -1.875 -5.546875 -1.734375 -6.484375 -1.734375 -7.515625 C -1.734375 -8.660156 -1.925781 -9.523438 -2.3125 -10.109375 C -2.707031 -10.703125 -3.273438 -11 -4.015625 -11 C -4.617188 -11 -5.097656 -10.796875 -5.453125 -10.390625 C -5.816406 -9.992188 -6.097656 -9.335938 -6.296875 -8.421875 L -6.890625 -5.875 C -7.171875 -4.613281 -7.671875 -3.640625 -8.390625 -2.953125 C -9.109375 -2.265625 -9.96875 -1.921875 -10.96875 -1.921875 C -12.289062 -1.921875 -13.363281 -2.445312 -14.1875 -3.5 C -15.019531 -4.5625 -15.4375 -5.960938 -15.4375 -7.703125 C -15.4375 -8.765625 -15.265625 -9.765625 -14.921875 -10.703125 C -14.585938 -11.640625 -14.097656 -12.425781 -13.453125 -13.0625 L -11.6875 -12.25 C -12.863281 -10.832031 -13.453125 -9.316406 -13.453125 -7.703125 C -13.453125 -6.617188 -13.25 -5.78125 -12.84375 -5.1875 C -12.4375 -4.601562 -11.863281 -4.3125 -11.125 -4.3125 C -10.5 -4.3125 -10.003906 -4.492188 -9.640625 -4.859375 C -9.285156 -5.234375 -9.007812 -5.832031 -8.8125 -6.65625 L -8.1875 -9.203125 C -7.863281 -10.597656 -7.363281 -11.632812 -6.6875 -12.3125 C -6.019531 -13 -5.148438 -13.34375 -4.078125 -13.34375 C -2.773438 -13.34375 -1.734375 -12.8125 -0.953125 -11.75 C -0.179688 -10.6875 0.203125 -9.25 0.203125 -7.4375 Z M 0.203125 -7.4375 "/></g></g></g><g fill="#080808" fill-opacity="1"><g transform="translate(554.813822, 571.829086)"><g><path d="M 0.234375 -11.75 C 0.234375 -9.726562 -0.203125 -7.972656 -1.078125 -6.484375 C -1.953125 -4.992188 -3.210938 -3.847656 -4.859375 -3.046875 C -6.515625 -2.253906 -8.460938 -1.859375 -10.703125 -1.859375 C -12.941406 -1.859375 -14.875 -2.253906 -16.5 -3.046875 C -18.125 -3.847656 -19.375 -4.992188 -20.25 -6.484375 C -21.132812 -7.972656 -21.578125 -9.726562 -21.578125 -11.75 C -21.578125 -13.226562 -21.351562 -14.582031 -20.90625 -15.8125 C -20.457031 -17.039062 -19.78125 -18.101562 -18.875 -19 L -17 -18.078125 C -17.875 -17.054688 -18.5 -16.050781 -18.875 -15.0625 C -19.257812 -14.070312 -19.453125 -12.976562 -19.453125 -11.78125 C -19.453125 -9.4375 -18.691406 -7.617188 -17.171875 -6.328125 C -15.648438 -5.046875 -13.492188 -4.40625 -10.703125 -4.40625 C -7.878906 -4.40625 -5.703125 -5.039062 -4.171875 -6.3125 C -2.648438 -7.59375 -1.890625 -9.414062 -1.890625 -11.78125 C -1.890625 -12.976562 -2.078125 -14.070312 -2.453125 -15.0625 C -2.835938 -16.050781 -3.46875 -17.054688 -4.34375 -18.078125 L -2.453125 -19 C -1.554688 -18.101562 -0.882812 -17.039062 -0.4375 -15.8125 C 0.0078125 -14.582031 0.234375 -13.226562 0.234375 -11.75 Z M 0.234375 -11.75 "/></g></g></g><g fill="#080808" fill-opacity="1"><g transform="translate(554.813822, 551.326618)"><g><path d="M -15.4375 -9.859375 C -15.4375 -13.472656 -13.445312 -15.28125 -9.46875 -15.28125 L 0 -15.28125 L 0 -12.859375 L -9.34375 -12.859375 C -10.75 -12.859375 -11.773438 -12.578125 -12.421875 -12.015625 C -13.066406 -11.453125 -13.390625 -10.570312 -13.390625 -9.375 C -13.390625 -7.976562 -12.957031 -6.859375 -12.09375 -6.015625 C -11.238281 -5.179688 -10.082031 -4.765625 -8.625 -4.765625 L 0 -4.765625 L 0 -2.34375 L -22.0625 -2.34375 L -22.0625 -4.765625 L -12.609375 -4.765625 C -13.535156 -5.242188 -14.238281 -5.925781 -14.71875 -6.8125 C -15.195312 -7.707031 -15.4375 -8.722656 -15.4375 -9.859375 Z M -15.4375 -9.859375 "/></g></g></g><g fill="#080808" fill-opacity="1"><g transform="translate(554.813822, 533.791608)"><g><path d="M -15.078125 -15.609375 L 0 -15.609375 L 0 -13.21875 L -2.734375 -13.21875 C -1.785156 -12.78125 -1.054688 -12.113281 -0.546875 -11.21875 C -0.046875 -10.332031 0.203125 -9.300781 0.203125 -8.125 C 0.203125 -6.78125 -0.113281 -5.601562 -0.75 -4.59375 C -1.382812 -3.59375 -2.285156 -2.816406 -3.453125 -2.265625 C -4.628906 -1.710938 -5.992188 -1.4375 -7.546875 -1.4375 C -9.109375 -1.4375 -10.484375 -1.710938 -11.671875 -2.265625 C -12.859375 -2.828125 -13.78125 -3.613281 -14.4375 -4.625 C -15.101562 -5.632812 -15.4375 -6.800781 -15.4375 -8.125 C -15.4375 -9.300781 -15.175781 -10.328125 -14.65625 -11.203125 C -14.132812 -12.085938 -13.40625 -12.757812 -12.46875 -13.21875 L -15.078125 -13.21875 Z M -1.796875 -8.59375 C -1.796875 -10.070312 -2.300781 -11.210938 -3.3125 -12.015625 C -4.320312 -12.816406 -5.753906 -13.21875 -7.609375 -13.21875 C -9.472656 -13.21875 -10.898438 -12.816406 -11.890625 -12.015625 C -12.890625 -11.210938 -13.390625 -10.070312 -13.390625 -8.59375 C -13.390625 -7.125 -12.875 -5.972656 -11.84375 -5.140625 C -10.820312 -4.304688 -9.390625 -3.890625 -7.546875 -3.890625 C -5.710938 -3.890625 -4.296875 -4.300781 -3.296875 -5.125 C -2.296875 -5.945312 -1.796875 -7.101562 -1.796875 -8.59375 Z M -1.796875 -8.59375 "/></g></g></g><g fill="#080808" fill-opacity="1"><g transform="translate(554.813822, 515.806979)"><g><path d="M -15.4375 -9.859375 C -15.4375 -13.472656 -13.445312 -15.28125 -9.46875 -15.28125 L 0 -15.28125 L 0 -12.859375 L -9.34375 -12.859375 C -10.75 -12.859375 -11.773438 -12.578125 -12.421875 -12.015625 C -13.066406 -11.453125 -13.390625 -10.570312 -13.390625 -9.375 C -13.390625 -7.976562 -12.957031 -6.859375 -12.09375 -6.015625 C -11.238281 -5.179688 -10.082031 -4.765625 -8.625 -4.765625 L 0 -4.765625 L 0 -2.34375 L -10.84375 -2.34375 C -12.40625 -2.34375 -13.816406 -2.257812 -15.078125 -2.09375 L -15.078125 -4.40625 L -12.375 -4.640625 C -13.351562 -5.097656 -14.109375 -5.785156 -14.640625 -6.703125 C -15.171875 -7.628906 -15.4375 -8.679688 -15.4375 -9.859375 Z M -15.4375 -9.859375 "/></g></g></g><g fill="#080808" fill-opacity="1"><g transform="translate(554.813822, 498.27197)"><g><path d="M -15.078125 -15.765625 L -0.125 -15.765625 C 2.113281 -15.765625 3.804688 -15.1875 4.953125 -14.03125 C 6.109375 -12.882812 6.6875 -11.191406 6.6875 -8.953125 C 6.6875 -6.660156 6.164062 -4.6875 5.125 -3.03125 L 3.140625 -3.453125 C 3.679688 -4.410156 4.070312 -5.3125 4.3125 -6.15625 C 4.550781 -7.007812 4.671875 -7.941406 4.671875 -8.953125 C 4.671875 -10.410156 4.285156 -11.507812 3.515625 -12.25 C 2.753906 -12.988281 1.613281 -13.359375 0.09375 -13.359375 L -3.46875 -13.359375 C -2.507812 -12.898438 -1.765625 -12.226562 -1.234375 -11.34375 C -0.710938 -10.457031 -0.453125 -9.40625 -0.453125 -8.1875 C -0.453125 -6.863281 -0.757812 -5.6875 -1.375 -4.65625 C -2 -3.625 -2.878906 -2.828125 -4.015625 -2.265625 C -5.148438 -1.710938 -6.457031 -1.4375 -7.9375 -1.4375 C -9.414062 -1.4375 -10.722656 -1.710938 -11.859375 -2.265625 C -13.003906 -2.828125 -13.882812 -3.625 -14.5 -4.65625 C -15.125 -5.6875 -15.4375 -6.863281 -15.4375 -8.1875 C -15.4375 -9.382812 -15.175781 -10.425781 -14.65625 -11.3125 C -14.132812 -12.195312 -13.40625 -12.875 -12.46875 -13.34375 L -15.078125 -13.34375 Z M -2.484375 -8.65625 C -2.484375 -10.113281 -2.96875 -11.257812 -3.9375 -12.09375 C -4.90625 -12.925781 -6.238281 -13.34375 -7.9375 -13.34375 C -9.632812 -13.34375 -10.96875 -12.925781 -11.9375 -12.09375 C -12.90625 -11.257812 -13.390625 -10.113281 -13.390625 -8.65625 C -13.390625 -7.175781 -12.90625 -6.007812 -11.9375 -5.15625 C -10.96875 -4.3125 -9.632812 -3.890625 -7.9375 -3.890625 C -6.238281 -3.890625 -4.90625 -4.3125 -3.9375 -5.15625 C -2.96875 -6.007812 -2.484375 -7.175781 -2.484375 -8.65625 Z M -2.484375 -8.65625 "/></g></g></g><g fill="#080808" fill-opacity="1"><g transform="translate(554.813822, 480.167451)"><g><path d="M -7.609375 -14.953125 L -7.609375 -3.890625 C -5.691406 -3.910156 -4.242188 -4.351562 -3.265625 -5.21875 C -2.285156 -6.09375 -1.796875 -7.359375 -1.796875 -9.015625 C -1.796875 -10.773438 -2.382812 -12.394531 -3.5625 -13.875 L -1.796875 -14.6875 C -1.179688 -14.03125 -0.691406 -13.1875 -0.328125 -12.15625 C 0.0234375 -11.125 0.203125 -10.066406 0.203125 -8.984375 C 0.203125 -6.628906 -0.488281 -4.78125 -1.875 -3.4375 C -3.257812 -2.101562 -5.160156 -1.4375 -7.578125 -1.4375 C -9.117188 -1.4375 -10.484375 -1.734375 -11.671875 -2.328125 C -12.859375 -2.929688 -13.78125 -3.769531 -14.4375 -4.84375 C -15.101562 -5.925781 -15.4375 -7.160156 -15.4375 -8.546875 C -15.4375 -10.535156 -14.78125 -12.097656 -13.46875 -13.234375 C -12.164062 -14.378906 -10.363281 -14.953125 -8.0625 -14.953125 Z M -13.546875 -8.578125 C -13.546875 -7.316406 -13.164062 -6.289062 -12.40625 -5.5 C -11.644531 -4.707031 -10.578125 -4.203125 -9.203125 -3.984375 L -9.203125 -12.765625 C -10.617188 -12.648438 -11.695312 -12.234375 -12.4375 -11.515625 C -13.175781 -10.804688 -13.546875 -9.828125 -13.546875 -8.578125 Z M -13.546875 -8.578125 "/></g></g></g><g fill="#080808" fill-opacity="1"><g transform="translate(554.813822, 463.861393)"><g/></g></g><g fill="#080808" fill-opacity="1"><g transform="translate(554.813822, 456.038084)"><g><path d="M 0 -7.796875 L -19.234375 -7.796875 L -19.234375 -0.359375 L -21.34375 -0.359375 L -21.34375 -17.71875 L -19.234375 -17.71875 L -19.234375 -10.28125 L 0 -10.28125 Z M 0 -7.796875 "/></g></g></g><g fill="#080808" fill-opacity="1"><g transform="translate(554.813822, 437.963534)"><g><path d="M -15.078125 -15.578125 L 1.375 -8.546875 C 3.09375 -7.804688 4.351562 -6.875 5.15625 -5.75 C 5.957031 -4.632812 6.503906 -3.257812 6.796875 -1.625 L 4.921875 -1.109375 C 4.597656 -2.523438 4.171875 -3.597656 3.640625 -4.328125 C 3.109375 -5.054688 2.296875 -5.660156 1.203125 -6.140625 L -0.15625 -6.75 L -15.078125 -0.359375 L -15.078125 -2.90625 L -2.640625 -8 L -15.078125 -13.15625 Z M -15.078125 -15.578125 "/></g></g></g><g fill="#080808" fill-opacity="1"><g transform="translate(554.813822, 422.047146)"><g><path d="M -15.4375 -9.859375 C -15.4375 -11.179688 -15.101562 -12.347656 -14.4375 -13.359375 C -13.78125 -14.378906 -12.859375 -15.171875 -11.671875 -15.734375 C -10.484375 -16.296875 -9.109375 -16.578125 -7.546875 -16.578125 C -5.992188 -16.578125 -4.628906 -16.296875 -3.453125 -15.734375 C -2.285156 -15.171875 -1.382812 -14.382812 -0.75 -13.375 C -0.113281 -12.375 0.203125 -11.203125 0.203125 -9.859375 C 0.203125 -8.679688 -0.0507812 -7.648438 -0.5625 -6.765625 C -1.082031 -5.890625 -1.820312 -5.222656 -2.78125 -4.765625 L 6.46875 -4.765625 L 6.46875 -2.34375 L -10.84375 -2.34375 C -12.40625 -2.34375 -13.816406 -2.257812 -15.078125 -2.09375 L -15.078125 -4.40625 L -12.171875 -4.640625 C -13.203125 -5.066406 -14.003906 -5.734375 -14.578125 -6.640625 C -15.148438 -7.546875 -15.4375 -8.617188 -15.4375 -9.859375 Z M -1.796875 -9.40625 C -1.796875 -10.882812 -2.296875 -12.03125 -3.296875 -12.84375 C -4.296875 -13.65625 -5.710938 -14.0625 -7.546875 -14.0625 C -9.390625 -14.0625 -10.820312 -13.648438 -11.84375 -12.828125 C -12.875 -12.003906 -13.390625 -10.863281 -13.390625 -9.40625 C -13.390625 -7.90625 -12.890625 -6.753906 -11.890625 -5.953125 C -10.898438 -5.160156 -9.472656 -4.765625 -7.609375 -4.765625 C -5.753906 -4.765625 -4.320312 -5.160156 -3.3125 -5.953125 C -2.300781 -6.753906 -1.796875 -7.90625 -1.796875 -9.40625 Z M -1.796875 -9.40625 "/></g></g></g><g fill="#080808" fill-opacity="1"><g transform="translate(554.813822, 404.062516)"><g><path d="M -7.609375 -14.953125 L -7.609375 -3.890625 C -5.691406 -3.910156 -4.242188 -4.351562 -3.265625 -5.21875 C -2.285156 -6.09375 -1.796875 -7.359375 -1.796875 -9.015625 C -1.796875 -10.773438 -2.382812 -12.394531 -3.5625 -13.875 L -1.796875 -14.6875 C -1.179688 -14.03125 -0.691406 -13.1875 -0.328125 -12.15625 C 0.0234375 -11.125 0.203125 -10.066406 0.203125 -8.984375 C 0.203125 -6.628906 -0.488281 -4.78125 -1.875 -3.4375 C -3.257812 -2.101562 -5.160156 -1.4375 -7.578125 -1.4375 C -9.117188 -1.4375 -10.484375 -1.734375 -11.671875 -2.328125 C -12.859375 -2.929688 -13.78125 -3.769531 -14.4375 -4.84375 C -15.101562 -5.925781 -15.4375 -7.160156 -15.4375 -8.546875 C -15.4375 -10.535156 -14.78125 -12.097656 -13.46875 -13.234375 C -12.164062 -14.378906 -10.363281 -14.953125 -8.0625 -14.953125 Z M -13.546875 -8.578125 C -13.546875 -7.316406 -13.164062 -6.289062 -12.40625 -5.5 C -11.644531 -4.707031 -10.578125 -4.203125 -9.203125 -3.984375 L -9.203125 -12.765625 C -10.617188 -12.648438 -11.695312 -12.234375 -12.4375 -11.515625 C -13.175781 -10.804688 -13.546875 -9.828125 -13.546875 -8.578125 Z M -13.546875 -8.578125 "/></g></g></g><g fill="#080808" fill-opacity="1"><g transform="translate(554.813822, 387.756458)"><g><path d="M 0.203125 -7.4375 C 0.203125 -4.894531 -0.441406 -2.882812 -1.734375 -1.40625 L -3.53125 -2.21875 C -2.894531 -3.039062 -2.4375 -3.867188 -2.15625 -4.703125 C -1.875 -5.546875 -1.734375 -6.484375 -1.734375 -7.515625 C -1.734375 -8.660156 -1.925781 -9.523438 -2.3125 -10.109375 C -2.707031 -10.703125 -3.273438 -11 -4.015625 -11 C -4.617188 -11 -5.097656 -10.796875 -5.453125 -10.390625 C -5.816406 -9.992188 -6.097656 -9.335938 -6.296875 -8.421875 L -6.890625 -5.875 C -7.171875 -4.613281 -7.671875 -3.640625 -8.390625 -2.953125 C -9.109375 -2.265625 -9.96875 -1.921875 -10.96875 -1.921875 C -12.289062 -1.921875 -13.363281 -2.445312 -14.1875 -3.5 C -15.019531 -4.5625 -15.4375 -5.960938 -15.4375 -7.703125 C -15.4375 -8.765625 -15.265625 -9.765625 -14.921875 -10.703125 C -14.585938 -11.640625 -14.097656 -12.425781 -13.453125 -13.0625 L -11.6875 -12.25 C -12.863281 -10.832031 -13.453125 -9.316406 -13.453125 -7.703125 C -13.453125 -6.617188 -13.25 -5.78125 -12.84375 -5.1875 C -12.4375 -4.601562 -11.863281 -4.3125 -11.125 -4.3125 C -10.5 -4.3125 -10.003906 -4.492188 -9.640625 -4.859375 C -9.285156 -5.234375 -9.007812 -5.832031 -8.8125 -6.65625 L -8.1875 -9.203125 C -7.863281 -10.597656 -7.363281 -11.632812 -6.6875 -12.3125 C -6.019531 -13 -5.148438 -13.34375 -4.078125 -13.34375 C -2.773438 -13.34375 -1.734375 -12.8125 -0.953125 -11.75 C -0.179688 -10.6875 0.203125 -9.25 0.203125 -7.4375 Z M 0.203125 -7.4375 "/></g></g></g><g fill="#080808" fill-opacity="1"><g transform="translate(765.725892, 573.176164)"><g><path d="M 0.234375 -11.75 C 0.234375 -9.726562 -0.203125 -7.972656 -1.078125 -6.484375 C -1.953125 -4.992188 -3.210938 -3.847656 -4.859375 -3.046875 C -6.515625 -2.253906 -8.460938 -1.859375 -10.703125 -1.859375 C -12.941406 -1.859375 -14.875 -2.253906 -16.5 -3.046875 C -18.125 -3.847656 -19.375 -4.992188 -20.25 -6.484375 C -21.132812 -7.972656 -21.578125 -9.726562 -21.578125 -11.75 C -21.578125 -13.226562 -21.351562 -14.582031 -20.90625 -15.8125 C -20.457031 -17.039062 -19.78125 -18.101562 -18.875 -19 L -17 -18.078125 C -17.875 -17.054688 -18.5 -16.050781 -18.875 -15.0625 C -19.257812 -14.070312 -19.453125 -12.976562 -19.453125 -11.78125 C -19.453125 -9.4375 -18.691406 -7.617188 -17.171875 -6.328125 C -15.648438 -5.046875 -13.492188 -4.40625 -10.703125 -4.40625 C -7.878906 -4.40625 -5.703125 -5.039062 -4.171875 -6.3125 C -2.648438 -7.59375 -1.890625 -9.414062 -1.890625 -11.78125 C -1.890625 -12.976562 -2.078125 -14.070312 -2.453125 -15.0625 C -2.835938 -16.050781 -3.46875 -17.054688 -4.34375 -18.078125 L -2.453125 -19 C -1.554688 -18.101562 -0.882812 -17.039062 -0.4375 -15.8125 C 0.0078125 -14.582031 0.234375 -13.226562 0.234375 -11.75 Z M 0.234375 -11.75 "/></g></g></g><g fill="#080808" fill-opacity="1"><g transform="translate(765.725892, 552.673696)"><g><path d="M -15.4375 -9.859375 C -15.4375 -13.472656 -13.445312 -15.28125 -9.46875 -15.28125 L 0 -15.28125 L 0 -12.859375 L -9.34375 -12.859375 C -10.75 -12.859375 -11.773438 -12.578125 -12.421875 -12.015625 C -13.066406 -11.453125 -13.390625 -10.570312 -13.390625 -9.375 C -13.390625 -7.976562 -12.957031 -6.859375 -12.09375 -6.015625 C -11.238281 -5.179688 -10.082031 -4.765625 -8.625 -4.765625 L 0 -4.765625 L 0 -2.34375 L -22.0625 -2.34375 L -22.0625 -4.765625 L -12.609375 -4.765625 C -13.535156 -5.242188 -14.238281 -5.925781 -14.71875 -6.8125 C -15.195312 -7.707031 -15.4375 -8.722656 -15.4375 -9.859375 Z M -15.4375 -9.859375 "/></g></g></g><g fill="#080808" fill-opacity="1"><g transform="translate(765.725892, 535.138687)"><g><path d="M -15.078125 -15.609375 L 0 -15.609375 L 0 -13.21875 L -2.734375 -13.21875 C -1.785156 -12.78125 -1.054688 -12.113281 -0.546875 -11.21875 C -0.046875 -10.332031 0.203125 -9.300781 0.203125 -8.125 C 0.203125 -6.78125 -0.113281 -5.601562 -0.75 -4.59375 C -1.382812 -3.59375 -2.285156 -2.816406 -3.453125 -2.265625 C -4.628906 -1.710938 -5.992188 -1.4375 -7.546875 -1.4375 C -9.109375 -1.4375 -10.484375 -1.710938 -11.671875 -2.265625 C -12.859375 -2.828125 -13.78125 -3.613281 -14.4375 -4.625 C -15.101562 -5.632812 -15.4375 -6.800781 -15.4375 -8.125 C -15.4375 -9.300781 -15.175781 -10.328125 -14.65625 -11.203125 C -14.132812 -12.085938 -13.40625 -12.757812 -12.46875 -13.21875 L -15.078125 -13.21875 Z M -1.796875 -8.59375 C -1.796875 -10.070312 -2.300781 -11.210938 -3.3125 -12.015625 C -4.320312 -12.816406 -5.753906 -13.21875 -7.609375 -13.21875 C -9.472656 -13.21875 -10.898438 -12.816406 -11.890625 -12.015625 C -12.890625 -11.210938 -13.390625 -10.070312 -13.390625 -8.59375 C -13.390625 -7.125 -12.875 -5.972656 -11.84375 -5.140625 C -10.820312 -4.304688 -9.390625 -3.890625 -7.546875 -3.890625 C -5.710938 -3.890625 -4.296875 -4.300781 -3.296875 -5.125 C -2.296875 -5.945312 -1.796875 -7.101562 -1.796875 -8.59375 Z M -1.796875 -8.59375 "/></g></g></g><g fill="#080808" fill-opacity="1"><g transform="translate(765.725892, 517.154057)"><g><path d="M -15.4375 -9.859375 C -15.4375 -13.472656 -13.445312 -15.28125 -9.46875 -15.28125 L 0 -15.28125 L 0 -12.859375 L -9.34375 -12.859375 C -10.75 -12.859375 -11.773438 -12.578125 -12.421875 -12.015625 C -13.066406 -11.453125 -13.390625 -10.570312 -13.390625 -9.375 C -13.390625 -7.976562 -12.957031 -6.859375 -12.09375 -6.015625 C -11.238281 -5.179688 -10.082031 -4.765625 -8.625 -4.765625 L 0 -4.765625 L 0 -2.34375 L -10.84375 -2.34375 C -12.40625 -2.34375 -13.816406 -2.257812 -15.078125 -2.09375 L -15.078125 -4.40625 L -12.375 -4.640625 C -13.351562 -5.097656 -14.109375 -5.785156 -14.640625 -6.703125 C -15.171875 -7.628906 -15.4375 -8.679688 -15.4375 -9.859375 Z M -15.4375 -9.859375 "/></g></g></g><g fill="#080808" fill-opacity="1"><g transform="translate(765.725892, 499.619048)"><g><path d="M -15.078125 -15.765625 L -0.125 -15.765625 C 2.113281 -15.765625 3.804688 -15.1875 4.953125 -14.03125 C 6.109375 -12.882812 6.6875 -11.191406 6.6875 -8.953125 C 6.6875 -6.660156 6.164062 -4.6875 5.125 -3.03125 L 3.140625 -3.453125 C 3.679688 -4.410156 4.070312 -5.3125 4.3125 -6.15625 C 4.550781 -7.007812 4.671875 -7.941406 4.671875 -8.953125 C 4.671875 -10.410156 4.285156 -11.507812 3.515625 -12.25 C 2.753906 -12.988281 1.613281 -13.359375 0.09375 -13.359375 L -3.46875 -13.359375 C -2.507812 -12.898438 -1.765625 -12.226562 -1.234375 -11.34375 C -0.710938 -10.457031 -0.453125 -9.40625 -0.453125 -8.1875 C -0.453125 -6.863281 -0.757812 -5.6875 -1.375 -4.65625 C -2 -3.625 -2.878906 -2.828125 -4.015625 -2.265625 C -5.148438 -1.710938 -6.457031 -1.4375 -7.9375 -1.4375 C -9.414062 -1.4375 -10.722656 -1.710938 -11.859375 -2.265625 C -13.003906 -2.828125 -13.882812 -3.625 -14.5 -4.65625 C -15.125 -5.6875 -15.4375 -6.863281 -15.4375 -8.1875 C -15.4375 -9.382812 -15.175781 -10.425781 -14.65625 -11.3125 C -14.132812 -12.195312 -13.40625 -12.875 -12.46875 -13.34375 L -15.078125 -13.34375 Z M -2.484375 -8.65625 C -2.484375 -10.113281 -2.96875 -11.257812 -3.9375 -12.09375 C -4.90625 -12.925781 -6.238281 -13.34375 -7.9375 -13.34375 C -9.632812 -13.34375 -10.96875 -12.925781 -11.9375 -12.09375 C -12.90625 -11.257812 -13.390625 -10.113281 -13.390625 -8.65625 C -13.390625 -7.175781 -12.90625 -6.007812 -11.9375 -5.15625 C -10.96875 -4.3125 -9.632812 -3.890625 -7.9375 -3.890625 C -6.238281 -3.890625 -4.90625 -4.3125 -3.9375 -5.15625 C -2.96875 -6.007812 -2.484375 -7.175781 -2.484375 -8.65625 Z M -2.484375 -8.65625 "/></g></g></g><g fill="#080808" fill-opacity="1"><g transform="translate(765.725892, 481.514529)"><g><path d="M -7.609375 -14.953125 L -7.609375 -3.890625 C -5.691406 -3.910156 -4.242188 -4.351562 -3.265625 -5.21875 C -2.285156 -6.09375 -1.796875 -7.359375 -1.796875 -9.015625 C -1.796875 -10.773438 -2.382812 -12.394531 -3.5625 -13.875 L -1.796875 -14.6875 C -1.179688 -14.03125 -0.691406 -13.1875 -0.328125 -12.15625 C 0.0234375 -11.125 0.203125 -10.066406 0.203125 -8.984375 C 0.203125 -6.628906 -0.488281 -4.78125 -1.875 -3.4375 C -3.257812 -2.101562 -5.160156 -1.4375 -7.578125 -1.4375 C -9.117188 -1.4375 -10.484375 -1.734375 -11.671875 -2.328125 C -12.859375 -2.929688 -13.78125 -3.769531 -14.4375 -4.84375 C -15.101562 -5.925781 -15.4375 -7.160156 -15.4375 -8.546875 C -15.4375 -10.535156 -14.78125 -12.097656 -13.46875 -13.234375 C -12.164062 -14.378906 -10.363281 -14.953125 -8.0625 -14.953125 Z M -13.546875 -8.578125 C -13.546875 -7.316406 -13.164062 -6.289062 -12.40625 -5.5 C -11.644531 -4.707031 -10.578125 -4.203125 -9.203125 -3.984375 L -9.203125 -12.765625 C -10.617188 -12.648438 -11.695312 -12.234375 -12.4375 -11.515625 C -13.175781 -10.804688 -13.546875 -9.828125 -13.546875 -8.578125 Z M -13.546875 -8.578125 "/></g></g></g><g fill="#080808" fill-opacity="1"><g transform="translate(765.725892, 465.208471)"><g/></g></g><g fill="#080808" fill-opacity="1"><g transform="translate(765.725892, 457.385162)"><g><path d="M -21.34375 -2.640625 L -21.34375 -11.140625 C -21.34375 -13.335938 -20.8125 -15.050781 -19.75 -16.28125 C -18.6875 -17.507812 -17.226562 -18.125 -15.375 -18.125 C -13.519531 -18.125 -12.054688 -17.503906 -10.984375 -16.265625 C -9.910156 -15.035156 -9.375 -13.328125 -9.375 -11.140625 L -9.375 -5.09375 L 0 -5.09375 L 0 -2.640625 Z M -11.421875 -10.9375 C -11.421875 -12.519531 -11.757812 -13.707031 -12.4375 -14.5 C -13.113281 -15.300781 -14.09375 -15.703125 -15.375 -15.703125 C -16.65625 -15.703125 -17.628906 -15.300781 -18.296875 -14.5 C -18.960938 -13.707031 -19.296875 -12.519531 -19.296875 -10.9375 L -19.296875 -5.09375 L -11.421875 -5.09375 Z M -11.421875 -10.9375 "/></g></g></g><g fill="#080808" fill-opacity="1"><g transform="translate(765.725892, 437.871843)"><g><path d="M -15.4375 -9.34375 C -15.4375 -9.84375 -15.375 -10.304688 -15.25 -10.734375 L -13.03125 -10.671875 C -13.195312 -10.210938 -13.28125 -9.679688 -13.28125 -9.078125 C -13.28125 -7.617188 -12.820312 -6.535156 -11.90625 -5.828125 C -11 -5.117188 -9.894531 -4.765625 -8.59375 -4.765625 L 0 -4.765625 L 0 -2.34375 L -10.84375 -2.34375 C -12.40625 -2.34375 -13.816406 -2.257812 -15.078125 -2.09375 L -15.078125 -4.40625 L -12.28125 -4.640625 C -13.300781 -5.023438 -14.082031 -5.632812 -14.625 -6.46875 C -15.164062 -7.3125 -15.4375 -8.269531 -15.4375 -9.34375 Z M -15.4375 -9.34375 "/></g></g></g><g fill="#080808" fill-opacity="1"><g transform="translate(765.725892, 427.021124)"><g><path d="M 0.203125 -8.578125 C 0.203125 -7.148438 -0.113281 -5.894531 -0.75 -4.8125 C -1.382812 -3.738281 -2.289062 -2.90625 -3.46875 -2.3125 C -4.65625 -1.726562 -6.035156 -1.4375 -7.609375 -1.4375 C -9.191406 -1.4375 -10.570312 -1.726562 -11.75 -2.3125 C -12.925781 -2.90625 -13.832031 -3.738281 -14.46875 -4.8125 C -15.113281 -5.894531 -15.4375 -7.148438 -15.4375 -8.578125 C -15.4375 -9.992188 -15.113281 -11.238281 -14.46875 -12.3125 C -13.832031 -13.394531 -12.925781 -14.226562 -11.75 -14.8125 C -10.570312 -15.40625 -9.191406 -15.703125 -7.609375 -15.703125 C -6.035156 -15.703125 -4.65625 -15.40625 -3.46875 -14.8125 C -2.289062 -14.226562 -1.382812 -13.394531 -0.75 -12.3125 C -0.113281 -11.238281 0.203125 -9.992188 0.203125 -8.578125 Z M -1.796875 -8.578125 C -1.796875 -10.066406 -2.289062 -11.210938 -3.28125 -12.015625 C -4.269531 -12.816406 -5.710938 -13.21875 -7.609375 -13.21875 C -9.453125 -13.21875 -10.875 -12.804688 -11.875 -11.984375 C -12.882812 -11.171875 -13.390625 -10.035156 -13.390625 -8.578125 C -13.390625 -7.097656 -12.882812 -5.945312 -11.875 -5.125 C -10.875 -4.300781 -9.453125 -3.890625 -7.609375 -3.890625 C -5.710938 -3.890625 -4.269531 -4.296875 -3.28125 -5.109375 C -2.289062 -5.921875 -1.796875 -7.078125 -1.796875 -8.578125 Z M -1.796875 -8.578125 "/></g></g></g><g fill="#080808" fill-opacity="1"><g transform="translate(765.725892, 409.875786)"><g><path d="M 0.203125 -8.65625 C 0.203125 -7.195312 -0.113281 -5.921875 -0.75 -4.828125 C -1.382812 -3.742188 -2.285156 -2.90625 -3.453125 -2.3125 C -4.628906 -1.726562 -5.992188 -1.4375 -7.546875 -1.4375 C -9.109375 -1.4375 -10.484375 -1.734375 -11.671875 -2.328125 C -12.859375 -2.929688 -13.78125 -3.785156 -14.4375 -4.890625 C -15.101562 -6.003906 -15.4375 -7.300781 -15.4375 -8.78125 C -15.4375 -9.800781 -15.257812 -10.785156 -14.90625 -11.734375 C -14.5625 -12.679688 -14.078125 -13.460938 -13.453125 -14.078125 L -11.65625 -13.28125 C -12.257812 -12.519531 -12.695312 -11.785156 -12.96875 -11.078125 C -13.25 -10.367188 -13.390625 -9.644531 -13.390625 -8.90625 C -13.390625 -7.363281 -12.875 -6.148438 -11.84375 -5.265625 C -10.820312 -4.390625 -9.390625 -3.953125 -7.546875 -3.953125 C -5.734375 -3.953125 -4.320312 -4.382812 -3.3125 -5.25 C -2.300781 -6.125 -1.796875 -7.34375 -1.796875 -8.90625 C -1.796875 -9.644531 -1.9375 -10.367188 -2.21875 -11.078125 C -2.5 -11.785156 -2.9375 -12.519531 -3.53125 -13.28125 L -1.734375 -14.078125 C -1.140625 -13.441406 -0.664062 -12.640625 -0.3125 -11.671875 C 0.03125 -10.703125 0.203125 -9.695312 0.203125 -8.65625 Z M 0.203125 -8.65625 "/></g></g></g><g fill="#080808" fill-opacity="1"><g transform="translate(765.725892, 395.038466)"><g><path d="M -7.609375 -14.953125 L -7.609375 -3.890625 C -5.691406 -3.910156 -4.242188 -4.351562 -3.265625 -5.21875 C -2.285156 -6.09375 -1.796875 -7.359375 -1.796875 -9.015625 C -1.796875 -10.773438 -2.382812 -12.394531 -3.5625 -13.875 L -1.796875 -14.6875 C -1.179688 -14.03125 -0.691406 -13.1875 -0.328125 -12.15625 C 0.0234375 -11.125 0.203125 -10.066406 0.203125 -8.984375 C 0.203125 -6.628906 -0.488281 -4.78125 -1.875 -3.4375 C -3.257812 -2.101562 -5.160156 -1.4375 -7.578125 -1.4375 C -9.117188 -1.4375 -10.484375 -1.734375 -11.671875 -2.328125 C -12.859375 -2.929688 -13.78125 -3.769531 -14.4375 -4.84375 C -15.101562 -5.925781 -15.4375 -7.160156 -15.4375 -8.546875 C -15.4375 -10.535156 -14.78125 -12.097656 -13.46875 -13.234375 C -12.164062 -14.378906 -10.363281 -14.953125 -8.0625 -14.953125 Z M -13.546875 -8.578125 C -13.546875 -7.316406 -13.164062 -6.289062 -12.40625 -5.5 C -11.644531 -4.707031 -10.578125 -4.203125 -9.203125 -3.984375 L -9.203125 -12.765625 C -10.617188 -12.648438 -11.695312 -12.234375 -12.4375 -11.515625 C -13.175781 -10.804688 -13.546875 -9.828125 -13.546875 -8.578125 Z M -13.546875 -8.578125 "/></g></g></g><g fill="#080808" fill-opacity="1"><g transform="translate(765.725892, 378.732419)"><g><path d="M 0.203125 -7.4375 C 0.203125 -4.894531 -0.441406 -2.882812 -1.734375 -1.40625 L -3.53125 -2.21875 C -2.894531 -3.039062 -2.4375 -3.867188 -2.15625 -4.703125 C -1.875 -5.546875 -1.734375 -6.484375 -1.734375 -7.515625 C -1.734375 -8.660156 -1.925781 -9.523438 -2.3125 -10.109375 C -2.707031 -10.703125 -3.273438 -11 -4.015625 -11 C -4.617188 -11 -5.097656 -10.796875 -5.453125 -10.390625 C -5.816406 -9.992188 -6.097656 -9.335938 -6.296875 -8.421875 L -6.890625 -5.875 C -7.171875 -4.613281 -7.671875 -3.640625 -8.390625 -2.953125 C -9.109375 -2.265625 -9.96875 -1.921875 -10.96875 -1.921875 C -12.289062 -1.921875 -13.363281 -2.445312 -14.1875 -3.5 C -15.019531 -4.5625 -15.4375 -5.960938 -15.4375 -7.703125 C -15.4375 -8.765625 -15.265625 -9.765625 -14.921875 -10.703125 C -14.585938 -11.640625 -14.097656 -12.425781 -13.453125 -13.0625 L -11.6875 -12.25 C -12.863281 -10.832031 -13.453125 -9.316406 -13.453125 -7.703125 C -13.453125 -6.617188 -13.25 -5.78125 -12.84375 -5.1875 C -12.4375 -4.601562 -11.863281 -4.3125 -11.125 -4.3125 C -10.5 -4.3125 -10.003906 -4.492188 -9.640625 -4.859375 C -9.285156 -5.234375 -9.007812 -5.832031 -8.8125 -6.65625 L -8.1875 -9.203125 C -7.863281 -10.597656 -7.363281 -11.632812 -6.6875 -12.3125 C -6.019531 -13 -5.148438 -13.34375 -4.078125 -13.34375 C -2.773438 -13.34375 -1.734375 -12.8125 -0.953125 -11.75 C -0.179688 -10.6875 0.203125 -9.25 0.203125 -7.4375 Z M 0.203125 -7.4375 "/></g></g></g><g fill="#080808" fill-opacity="1"><g transform="translate(765.725892, 363.865141)"><g><path d="M 0.203125 -7.4375 C 0.203125 -4.894531 -0.441406 -2.882812 -1.734375 -1.40625 L -3.53125 -2.21875 C -2.894531 -3.039062 -2.4375 -3.867188 -2.15625 -4.703125 C -1.875 -5.546875 -1.734375 -6.484375 -1.734375 -7.515625 C -1.734375 -8.660156 -1.925781 -9.523438 -2.3125 -10.109375 C -2.707031 -10.703125 -3.273438 -11 -4.015625 -11 C -4.617188 -11 -5.097656 -10.796875 -5.453125 -10.390625 C -5.816406 -9.992188 -6.097656 -9.335938 -6.296875 -8.421875 L -6.890625 -5.875 C -7.171875 -4.613281 -7.671875 -3.640625 -8.390625 -2.953125 C -9.109375 -2.265625 -9.96875 -1.921875 -10.96875 -1.921875 C -12.289062 -1.921875 -13.363281 -2.445312 -14.1875 -3.5 C -15.019531 -4.5625 -15.4375 -5.960938 -15.4375 -7.703125 C -15.4375 -8.765625 -15.265625 -9.765625 -14.921875 -10.703125 C -14.585938 -11.640625 -14.097656 -12.425781 -13.453125 -13.0625 L -11.6875 -12.25 C -12.863281 -10.832031 -13.453125 -9.316406 -13.453125 -7.703125 C -13.453125 -6.617188 -13.25 -5.78125 -12.84375 -5.1875 C -12.4375 -4.601562 -11.863281 -4.3125 -11.125 -4.3125 C -10.5 -4.3125 -10.003906 -4.492188 -9.640625 -4.859375 C -9.285156 -5.234375 -9.007812 -5.832031 -8.8125 -6.65625 L -8.1875 -9.203125 C -7.863281 -10.597656 -7.363281 -11.632812 -6.6875 -12.3125 C -6.019531 -13 -5.148438 -13.34375 -4.078125 -13.34375 C -2.773438 -13.34375 -1.734375 -12.8125 -0.953125 -11.75 C -0.179688 -10.6875 0.203125 -9.25 0.203125 -7.4375 Z M 0.203125 -7.4375 "/></g></g></g></svg>