<svg version="1.1" viewBox="0.0 0.0 617.3280839895014 100.0" fill="none" stroke="none" stroke-linecap="square" stroke-miterlimit="10" xmlns:xlink="http://www.w3.org/1999/xlink" xmlns="http://www.w3.org/2000/svg"><clipPath id="p.0"><path d="m0 0l617.32806 0l0 100.0l-617.32806 0l0 -100.0z" clip-rule="nonzero"/></clipPath><g clip-path="url(#p.0)"><path fill="#000000" fill-opacity="0.0" d="m0 0l617.32806 0l0 100.0l-617.32806 0z" fill-rule="evenodd"/><path fill="#000000" fill-opacity="0.0" d="m8.0 48.0l204.0 0" fill-rule="evenodd"/><path stroke="#000000" stroke-width="2.0" stroke-linejoin="round" stroke-linecap="butt" d="m15.58 48.0l188.84001 0" fill-rule="evenodd"/><path stroke="#000000" stroke-width="2.0" stroke-linecap="butt" d="m9.0 48.0c0 -1.8170166 1.4729834 -3.290001 3.29 -3.290001c1.8170166 0 3.29 1.4729843 3.29 3.290001c0 1.8170166 -1.4729834 3.290001 -3.29 3.290001c-1.8170166 0 -3.29 -1.4729843 -3.29 -3.290001z" fill-rule="nonzero"/><path stroke="#000000" stroke-width="2.0" stroke-linecap="butt" d="m211.0 48.0c0 1.8170166 -1.4729767 3.290001 -3.2899933 3.290001c-1.8170166 0 -3.2900085 -1.4729843 -3.2900085 -3.290001c0 -1.8170166 1.472992 -3.290001 3.2900085 -3.290001c1.8170166 0 3.2899933 1.4729843 3.2899933 3.290001z" fill-rule="nonzero"/><path fill="#000000" fill-opacity="0.0" d="m88.50394 0l42.992126 0l0 42.015747l-42.992126 0z" fill-rule="evenodd"/><path fill="#000000" d="m103.74696 26.919998l5.125 -13.359375l1.90625 0l5.46875 13.359375l-2.015625 0l-1.546875 -4.046875l-5.59375 0l-1.46875 4.046875l-1.875 0zm3.859375 -5.484375l4.53125 0l-1.40625 -3.703125q-0.625 -1.6875 -0.9375 -2.765625q-0.265625 1.28125 -0.71875 2.546875l-1.46875 3.921875z" fill-rule="nonzero"/><path fill="#000000" fill-opacity="0.0" d="m204.0 48.0l204.0 0" fill-rule="evenodd"/><path stroke="#000000" stroke-width="2.0" stroke-linejoin="round" stroke-linecap="butt" d="m211.57999 48.0l188.84 0" fill-rule="evenodd"/><path stroke="#000000" stroke-width="2.0" stroke-linecap="butt" d="m205.0 48.0c0 -1.8170166 1.4729767 -3.290001 3.2899933 -3.290001c1.8170166 0 3.2900085 1.4729843 3.2900085 3.290001c0 1.8170166 -1.472992 3.290001 -3.2900085 3.290001c-1.8170166 0 -3.2899933 -1.4729843 -3.2899933 -3.290001z" fill-rule="nonzero"/><path stroke="#000000" stroke-width="2.0" stroke-linecap="butt" d="m407.0 48.0c0 1.8170166 -1.472992 3.290001 -3.2900085 3.290001c-1.8170166 0 -3.289978 -1.4729843 -3.289978 -3.290001c0 -1.8170166 1.4729614 -3.290001 3.289978 -3.290001c1.8170166 0 3.2900085 1.4729843 3.2900085 3.290001z" fill-rule="nonzero"/><path fill="#000000" fill-opacity="0.0" d="m284.50394 0l42.992126 0l0 42.015747l-42.992126 0z" fill-rule="evenodd"/><path fill="#000000" d="m301.1376 26.919998l0 -13.359375l5.015625 0q1.53125 0 2.453125 0.40625q0.921875 0.40625 1.4375 1.25q0.53125 0.84375 0.53125 1.765625q0 0.859375 -0.46875 1.625q-0.453125 0.75 -1.390625 1.203125q1.203125 0.359375 1.859375 1.21875q0.65625 0.859375 0.65625 2.015625q0 0.9375 -0.40625 1.75q-0.390625 0.796875 -0.984375 1.234375q-0.578125 0.4375 -1.453125 0.671875q-0.875 0.21875 -2.15625 0.21875l-5.09375 0zm1.78125 -7.75l2.875 0q1.1875 0 1.6875 -0.140625q0.671875 -0.203125 1.015625 -0.671875q0.34375 -0.46875 0.34375 -1.171875q0 -0.65625 -0.328125 -1.15625q-0.3125 -0.515625 -0.90625 -0.703125q-0.59375 -0.1875 -2.03125 -0.1875l-2.65625 0l0 4.03125zm0 6.171875l3.3125 0q0.859375 0 1.203125 -0.0625q0.609375 -0.109375 1.015625 -0.359375q0.421875 -0.265625 0.6875 -0.75q0.265625 -0.484375 0.265625 -1.125q0 -0.75 -0.390625 -1.296875q-0.375 -0.546875 -1.0625 -0.765625q-0.671875 -0.234375 -1.953125 -0.234375l-3.078125 0l0 4.59375z" fill-rule="nonzero"/><path fill="#000000" fill-opacity="0.0" d="m399.4987 48.0l203.99997 0" fill-rule="evenodd"/><path stroke="#000000" stroke-width="2.0" stroke-linejoin="round" stroke-linecap="butt" d="m407.0787 48.0l188.84 0" fill-rule="evenodd"/><path stroke="#000000" stroke-width="2.0" stroke-linecap="butt" d="m400.4987 48.0c0 -1.8170166 1.472992 -3.290001 3.2900085 -3.290001c1.8170166 0 3.289978 1.4729843 3.289978 3.290001c0 1.8170166 -1.4729614 3.290001 -3.289978 3.290001c-1.8170166 0 -3.2900085 -1.4729843 -3.2900085 -3.290001z" fill-rule="nonzero"/><path stroke="#000000" stroke-width="2.0" stroke-linecap="butt" d="m602.49866 48.0c0 1.8170166 -1.4729614 3.290001 -3.289978 3.290001c-1.8170166 0 -3.289978 -1.4729843 -3.289978 -3.290001c0 -1.8170166 1.4729614 -3.290001 3.289978 -3.290001c1.8170166 0 3.289978 1.4729843 3.289978 3.290001z" fill-rule="nonzero"/><path fill="#000000" fill-opacity="0.0" d="m480.00262 0l42.992126 0l0 42.015747l-42.992126 0z" fill-rule="evenodd"/><path fill="#000000" d="m505.73096 22.232498l1.765625 0.453125q-0.5625 2.171875 -2.0 3.328125q-1.4375 1.140625 -3.53125 1.140625q-2.15625 0 -3.515625 -0.875q-1.34375 -0.890625 -2.0625 -2.546875q-0.703125 -1.671875 -0.703125 -3.59375q0 -2.078125 0.796875 -3.625q0.796875 -1.5625 2.265625 -2.359375q1.484375 -0.8125 3.25 -0.8125q2.0 0 3.359375 1.015625q1.375 1.015625 1.90625 2.875l-1.734375 0.40625q-0.46875 -1.453125 -1.359375 -2.109375q-0.875 -0.671875 -2.203125 -0.671875q-1.546875 0 -2.578125 0.734375q-1.03125 0.734375 -1.453125 1.984375q-0.421875 1.234375 -0.421875 2.5625q0 1.703125 0.5 2.96875q0.5 1.265625 1.546875 1.90625q1.046875 0.625 2.265625 0.625q1.484375 0 2.515625 -0.859375q1.03125 -0.859375 1.390625 -2.546875z" fill-rule="nonzero"/><path fill="#000000" fill-opacity="0.0" d="m181.50394 57.501312l52.503937 0l0 42.015747l-52.503937 0z" fill-rule="evenodd"/><path fill="#000000" d="m195.28108 84.42131l5.125 -13.359375l1.90625 0l5.46875 13.359375l-2.015625 0l-1.546875 -4.046875l-5.59375 0l-1.46875 4.046875l-1.875 0zm3.859375 -5.484375l4.53125 0l-1.40625 -3.703125q-0.625 -1.6875 -0.9375 -2.765625q-0.265625 1.28125 -0.71875 2.546875l-1.46875 3.921875zm9.974823 5.484375l0 -13.359375l5.015625 0q1.53125 0 2.453125 0.40625q0.921875 0.40625 1.4375 1.25q0.53125 0.84375 0.53125 1.765625q0 0.859375 -0.46875 1.625q-0.453125 0.75 -1.390625 1.203125q1.203125 0.359375 1.859375 1.21875q0.65625 0.859375 0.65625 2.015625q0 0.9375 -0.40625 1.75q-0.390625 0.796875 -0.984375 1.234375q-0.578125 0.4375 -1.453125 0.671875q-0.875 0.21875 -2.15625 0.21875l-5.09375 0zm1.78125 -7.75l2.875 0q1.1875 0 1.6875 -0.140625q0.671875 -0.203125 1.015625 -0.671875q0.34375 -0.46875 0.34375 -1.171875q0 -0.65625 -0.328125 -1.15625q-0.3125 -0.515625 -0.90625 -0.703125q-0.59375 -0.1875 -2.03125 -0.1875l-2.65625 0l0 4.03125zm0 6.171875l3.3125 0q0.859375 0 1.203125 -0.0625q0.609375 -0.109375 1.015625 -0.359375q0.421875 -0.265625 0.6875 -0.75q0.265625 -0.484375 0.265625 -1.125q0 -0.75 -0.390625 -1.296875q-0.375 -0.546875 -1.0625 -0.765625q-0.671875 -0.234375 -1.953125 -0.234375l-3.078125 0l0 4.59375z" fill-rule="nonzero"/><path fill="#000000" fill-opacity="0.0" d="m379.50394 57.501312l52.503937 0l0 42.015747l-52.503937 0z" fill-rule="evenodd"/><path fill="#000000" d="m394.157 84.42131l0 -13.359375l5.015625 0q1.53125 0 2.453125 0.40625q0.921875 0.40625 1.4375 1.25q0.53125 0.84375 0.53125 1.765625q0 0.859375 -0.46875 1.625q-0.453125 0.75 -1.390625 1.203125q1.203125 0.359375 1.859375 1.21875q0.65625 0.859375 0.65625 2.015625q0 0.9375 -0.40625 1.75q-0.390625 0.796875 -0.984375 1.234375q-0.578125 0.4375 -1.453125 0.671875q-0.875 0.21875 -2.15625 0.21875l-5.09375 0zm1.78125 -7.75l2.875 0q1.1875 0 1.6875 -0.140625q0.671875 -0.203125 1.015625 -0.671875q0.34375 -0.46875 0.34375 -1.171875q0 -0.65625 -0.328125 -1.15625q-0.3125 -0.515625 -0.90625 -0.703125q-0.59375 -0.1875 -2.03125 -0.1875l-2.65625 0l0 4.03125zm0 6.171875l3.3125 0q0.859375 0 1.203125 -0.0625q0.609375 -0.109375 1.015625 -0.359375q0.421875 -0.265625 0.6875 -0.75q0.265625 -0.484375 0.265625 -1.125q0 -0.75 -0.390625 -1.296875q-0.375 -0.546875 -1.0625 -0.765625q-0.671875 -0.234375 -1.953125 -0.234375l-3.078125 0l0 4.59375zm20.271698 -3.109375l1.765625 0.453125q-0.5625 2.171875 -2.0 3.328125q-1.4375 1.140625 -3.53125 1.140625q-2.15625 0 -3.515625 -0.875q-1.34375 -0.890625 -2.0625 -2.546875q-0.703125 -1.671875 -0.703125 -3.59375q0 -2.078125 0.796875 -3.625q0.796875 -1.5625 2.265625 -2.359375q1.484375 -0.8125 3.25 -0.8125q2.0 0 3.359375 1.015625q1.375 1.015625 1.90625 2.875l-1.734375 0.40625q-0.46875 -1.453125 -1.359375 -2.109375q-0.875 -0.671875 -2.203125 -0.671875q-1.546875 0 -2.578125 0.734375q-1.03125 0.734375 -1.453125 1.984375q-0.421875 1.234375 -0.421875 2.5625q0 1.703125 0.5 2.96875q0.5 1.265625 1.546875 1.90625q1.046875 0.625 2.265625 0.625q1.484375 0 2.515625 -0.859375q1.03125 -0.859375 1.390625 -2.546875z" fill-rule="nonzero"/></g></svg>