<svg xmlns="http://www.w3.org/2000/svg" viewBox="-329 181 300 200" enable-background="new -329 181 300 200"><style type="text/css">.st0{fill:#FFFFFF;stroke:#010101;stroke-width:3;stroke-miterlimit:10;} .st1{fill:none;stroke:#010101;stroke-width:3;stroke-miterlimit:10;} .st2{fill:#010101;}</style><path id="XMLID_72_" class="st0" d="M-135 359.8v-156.9"/><path id="XMLID_70_" class="st1" d="M-116.6 252.1"/><circle id="XMLID_69_" class="st0" cx="-134.8" cy="196.9" r="6"/><path id="XMLID_60_" class="st2" d="M-140.5 280.4h11l-5.5 13.5z"/><path id="XMLID_71_" class="st2" d="M-140.5 359.8h11l-5.5 13.5z"/><path id="XMLID_58_" class="st2" d="M-140.5 222.7h11l-5.5 13.5z"/><path id="XMLID_13_" class="st2" d="M-59 293.9h-11l5.5-13.5z"/><path id="XMLID_12_" class="st2" d="M-106.3 328.1v-11l13.5 5.5z"/><path id="XMLID_6_" class="st2" d="M-95.1 257.6v-11l-13.5 5.5z"/><path id="XMLID_14_" class="st1" d="M-68.8 322.3h-62.2c-2.2 0-4-1.8-4-4v-62.3c0-2.2 1.8-4 4-4h62.2c2.2 0 4 1.8 4 4v62.2c0 2.3-1.8 4.1-4 4.1z"/><path id="XMLID_91_" class="st1" d="M-232.4 252.1"/><circle id="XMLID_90_" class="st0" cx="-250.6" cy="196.9" r="6"/><path id="XMLID_80_" class="st2" d="M-256.3 280.4h11l-5.5 13.5z"/><path id="XMLID_78_" class="st2" d="M-256.3 222.7h11l-5.5 13.5z"/><path id="XMLID_77_" class="st2" d="M-174.8 293.9h-11l5.5-13.5z"/><path id="XMLID_76_" class="st2" d="M-222.1 328.1v-11l13.5 5.5z"/><path id="XMLID_74_" class="st2" d="M-210.9 257.6v-11l-13.5 5.5z"/><path id="XMLID_92_" class="st2" d="M-298.2 257.6v-11l-13.5 5.5z"/><path id="XMLID_73_" class="st1" d="M-298.2 252h113.6c2.2 0 4 1.8 4 4v62.2c0 2.2-1.8 4-4 4h-62.2c-2.2 0-4-1.8-4-4v-115.3"/></svg>