<svg xmlns="http://www.w3.org/2000/svg" xmlns:xlink="http://www.w3.org/1999/xlink" width="1920" zoomAndPan="magnify" viewBox="0 0 1440 809.999993" height="1080" preserveAspectRatio="xMidYMid meet" version="1.0"><defs><g/></defs><path stroke-linecap="butt" transform="matrix(1.764634, 0, 0, 1.764634, 81.000002, 169.624317)" fill="none" stroke-linejoin="miter" d="M 14.999565 1.999296 L 237.095417 1.999296 " stroke="#000000" stroke-width="4" stroke-opacity="1" stroke-miterlimit="4"/><path stroke-linecap="round" transform="matrix(1.764634, 0, 0, 1.764634, 81.000002, 169.624317)" fill="none" stroke-linejoin="round" d="M 1.998908 1.999296 C 1.998908 -1.31451 4.686256 -3.999645 8.000063 -3.999645 C 11.313869 -3.999645 13.999004 -1.31451 13.999004 1.999296 C 13.999004 5.313102 11.313869 8.000451 8.000063 8.000451 C 4.686256 8.000451 1.998908 5.313102 1.998908 1.999296 " stroke="#000000" stroke-width="4" stroke-opacity="1" stroke-miterlimit="4"/><path stroke-linecap="round" transform="matrix(1.764634, 0, 0, 1.764634, 81.000002, 169.624317)" fill="none" stroke-linejoin="round" d="M 250.096074 1.999296 C 250.096074 5.313102 247.408725 8.000451 244.094919 8.000451 C 240.781113 8.000451 238.095978 5.313102 238.095978 1.999296 C 238.095978 -1.31451 240.781113 -3.999645 244.094919 -3.999645 C 247.408725 -3.999645 250.096074 -1.31451 250.096074 1.999296 " stroke="#000000" stroke-width="4" stroke-opacity="1" stroke-miterlimit="4"/><path stroke-linecap="butt" transform="matrix(1.764634, 0, 0, 1.764634, 496.817501, 169.624317)" fill="none" stroke-linejoin="miter" d="M 14.998946 1.999296 L 237.094797 1.999296 " stroke="#000000" stroke-width="4" stroke-opacity="1" stroke-miterlimit="4"/><path stroke-linecap="round" transform="matrix(1.764634, 0, 0, 1.764634, 496.817501, 169.624317)" fill="none" stroke-linejoin="round" d="M 2.000502 1.999296 C 2.000502 -1.31451 4.685637 -3.999645 7.999443 -3.999645 C 11.31325 -3.999645 14.000598 -1.31451 14.000598 1.999296 C 14.000598 5.313102 11.31325 8.000451 7.999443 8.000451 C 4.685637 8.000451 2.000502 5.313102 2.000502 1.999296 " stroke="#000000" stroke-width="4" stroke-opacity="1" stroke-miterlimit="4"/><path stroke-linecap="round" transform="matrix(1.764634, 0, 0, 1.764634, 496.817501, 169.624317)" fill="none" stroke-linejoin="round" d="M 250.095454 1.999296 C 250.095454 5.313102 247.41032 8.000451 244.096513 8.000451 C 240.782707 8.000451 238.095359 5.313102 238.095359 1.999296 C 238.095359 -1.31451 240.782707 -3.999645 244.096513 -3.999645 C 247.41032 -3.999645 250.095454 -1.31451 250.095454 1.999296 " stroke="#000000" stroke-width="4" stroke-opacity="1" stroke-miterlimit="4"/><path stroke-linecap="butt" transform="matrix(1.764634, 0, 0, 1.764634, 914.143016, 169.624317)" fill="none" stroke-linejoin="miter" d="M 15.000425 1.999296 L 237.096276 1.999296 " stroke="#000000" stroke-width="4" stroke-opacity="1" stroke-miterlimit="4"/><path stroke-linecap="round" transform="matrix(1.764634, 0, 0, 1.764634, 914.143016, 169.624317)" fill="none" stroke-linejoin="round" d="M 1.999768 1.999296 C 1.999768 -1.31451 4.687116 -3.999645 8.000922 -3.999645 C 11.314729 -3.999645 13.999863 -1.31451 13.999863 1.999296 C 13.999863 5.313102 11.314729 8.000451 8.000922 8.000451 C 4.687116 8.000451 1.999768 5.313102 1.999768 1.999296 " stroke="#000000" stroke-width="4" stroke-opacity="1" stroke-miterlimit="4"/><path stroke-linecap="round" transform="matrix(1.764634, 0, 0, 1.764634, 914.143016, 169.624317)" fill="none" stroke-linejoin="round" d="M 250.09472 1.999296 C 250.09472 5.313102 247.409585 8.000451 244.095779 8.000451 C 240.781973 8.000451 238.096838 5.313102 238.096838 1.999296 C 238.096838 -1.31451 240.781973 -3.999645 244.095779 -3.999645 C 247.409585 -3.999645 250.09472 -1.31451 250.09472 1.999296 " stroke="#000000" stroke-width="4" stroke-opacity="1" stroke-miterlimit="4"/><g fill="#000000" fill-opacity="1"><g transform="translate(81.000002, 237.551213)"><g><path d="M 18.890625 0 L 15.84375 0 L 13.46875 -6.15625 L 5.03125 -6.15625 L 2.828125 0 L -0.03125 0 L 7.734375 -20.21875 L 10.609375 -20.21875 Z M 8.015625 -14.234375 L 5.8125 -8.296875 L 12.65625 -8.296875 L 10.171875 -14.96875 C 9.867188 -15.757812 9.519531 -16.800781 9.125 -18.09375 C 9.125 -18 9.007812 -17.523438 8.78125 -16.671875 C 8.550781 -15.816406 8.296875 -15.003906 8.015625 -14.234375 Z M 8.015625 -14.234375 "/></g></g></g><g fill="#000000" fill-opacity="1"><g transform="translate(258.020438, 123.630803)"><g><path d="M 4.796875 -2.375 L 14.765625 -2.375 L 14.765625 0 L 2.125 0 L 2.125 -20.21875 L 4.796875 -20.21875 Z M 4.796875 -2.375 "/></g></g></g><g fill="#000000" fill-opacity="1"><g transform="translate(273.718646, 123.630803)"><g><path d="M 7.9375 -14.96875 C 9.34375 -14.96875 10.550781 -14.628906 11.5625 -13.953125 C 12.570312 -13.285156 13.328125 -12.390625 13.828125 -11.265625 C 14.335938 -10.140625 14.59375 -8.878906 14.59375 -7.484375 L 14.59375 -6.6875 L 3.671875 -6.6875 C 3.742188 -5.125 4.1875 -3.90625 5 -3.03125 C 5.8125 -2.15625 6.847656 -1.71875 8.109375 -1.71875 C 9.066406 -1.71875 9.859375 -1.972656 10.484375 -2.484375 C 11.117188 -2.992188 11.601562 -3.738281 11.9375 -4.71875 L 14.515625 -4.40625 C 14.117188 -2.9375 13.367188 -1.78125 12.265625 -0.9375 C 11.160156 -0.101562 9.8125 0.3125 8.21875 0.3125 C 5.976562 0.3125 4.226562 -0.34375 2.96875 -1.65625 C 1.71875 -2.976562 1.09375 -4.828125 1.09375 -7.203125 C 1.09375 -8.785156 1.375 -10.160156 1.9375 -11.328125 C 2.507812 -12.492188 3.304688 -13.390625 4.328125 -14.015625 C 5.359375 -14.648438 6.5625 -14.96875 7.9375 -14.96875 Z M 3.8125 -8.75 L 11.96875 -8.75 C 11.914062 -10.144531 11.488281 -11.191406 10.6875 -11.890625 C 9.882812 -12.585938 8.96875 -12.9375 7.9375 -12.9375 C 6.769531 -12.9375 5.8125 -12.539062 5.0625 -11.75 C 4.320312 -10.957031 3.90625 -9.957031 3.8125 -8.75 Z M 3.8125 -8.75 "/></g></g></g><g fill="#000000" fill-opacity="1"><g transform="translate(289.416853, 123.630803)"><g><path d="M 7.34375 -14.96875 C 9.03125 -14.96875 10.441406 -14.269531 11.578125 -12.875 L 11.578125 -14.625 L 13.859375 -14.625 L 13.859375 -1.75 C 13.859375 0.394531 13.585938 1.984375 13.046875 3.015625 C 12.578125 3.898438 11.863281 4.601562 10.90625 5.125 C 9.957031 5.65625 8.738281 5.921875 7.25 5.921875 C 6.007812 5.921875 4.953125 5.722656 4.078125 5.328125 C 3.203125 4.941406 2.539062 4.421875 2.09375 3.765625 C 1.65625 3.117188 1.4375 2.410156 1.4375 1.640625 L 1.46875 1.21875 L 3.875 1.578125 L 3.875 1.640625 C 4 2.410156 4.335938 2.976562 4.890625 3.34375 C 5.453125 3.707031 6.28125 3.890625 7.375 3.890625 C 8.101562 3.890625 8.742188 3.765625 9.296875 3.515625 C 9.859375 3.273438 10.296875 2.941406 10.609375 2.515625 C 10.898438 2.117188 11.09375 1.648438 11.1875 1.109375 C 11.289062 0.578125 11.34375 -0.0703125 11.34375 -0.84375 L 11.34375 -1.921875 C 10.238281 -0.640625 8.90625 0 7.34375 0 C 6.082031 0 4.96875 -0.3125 4 -0.9375 C 3.039062 -1.570312 2.289062 -2.453125 1.75 -3.578125 C 1.21875 -4.710938 0.953125 -5.992188 0.953125 -7.421875 C 0.953125 -8.929688 1.21875 -10.253906 1.75 -11.390625 C 2.28125 -12.523438 3.03125 -13.40625 4 -14.03125 C 4.96875 -14.65625 6.082031 -14.96875 7.34375 -14.96875 Z M 3.5 -7.59375 C 3.5 -5.789062 3.863281 -4.410156 4.59375 -3.453125 C 5.332031 -2.503906 6.332031 -2.03125 7.59375 -2.03125 C 8.125 -2.03125 8.734375 -2.203125 9.421875 -2.546875 C 10.109375 -2.898438 10.65625 -3.546875 11.0625 -4.484375 C 11.382812 -5.242188 11.546875 -6.222656 11.546875 -7.421875 C 11.546875 -9.171875 11.171875 -10.523438 10.421875 -11.484375 C 9.671875 -12.453125 8.679688 -12.9375 7.453125 -12.9375 C 6.304688 -12.9375 5.359375 -12.457031 4.609375 -11.5 C 3.867188 -10.550781 3.5 -9.25 3.5 -7.59375 Z M 3.5 -7.59375 "/></g></g></g><g fill="#000000" fill-opacity="1"><g transform="translate(305.11506, 123.630803)"><g/></g></g><g fill="#000000" fill-opacity="1"><g transform="translate(312.964177, 123.630803)"><g><path d="M 18.890625 0 L 15.84375 0 L 13.46875 -6.15625 L 5.03125 -6.15625 L 2.828125 0 L -0.03125 0 L 7.734375 -20.21875 L 10.609375 -20.21875 Z M 8.015625 -14.234375 L 5.8125 -8.296875 L 12.65625 -8.296875 L 10.171875 -14.96875 C 9.867188 -15.757812 9.519531 -16.800781 9.125 -18.09375 C 9.125 -18 9.007812 -17.523438 8.78125 -16.671875 C 8.550781 -15.816406 8.296875 -15.003906 8.015625 -14.234375 Z M 8.015625 -14.234375 "/></g></g></g><g fill="#000000" fill-opacity="1"><g transform="translate(331.796404, 123.630803)"><g><path d="M 14.40625 -19 C 15.15625 -18.4375 15.675781 -17.800781 15.96875 -17.09375 C 16.257812 -16.382812 16.40625 -15.757812 16.40625 -15.21875 C 16.40625 -13.1875 15.453125 -11.695312 13.546875 -10.75 C 14.847656 -10.363281 15.804688 -9.734375 16.421875 -8.859375 C 17.035156 -7.992188 17.34375 -6.960938 17.34375 -5.765625 C 17.34375 -4.835938 17.101562 -3.898438 16.625 -2.953125 C 16.15625 -2.003906 15.335938 -1.253906 14.171875 -0.703125 C 13.171875 -0.234375 11.785156 0 10.015625 0 L 2.09375 0 L 2.09375 -20.21875 L 9.859375 -20.21875 C 10.984375 -20.21875 11.882812 -20.117188 12.5625 -19.921875 C 13.238281 -19.722656 13.851562 -19.414062 14.40625 -19 Z M 13.75 -14.734375 C 13.75 -15.960938 13.359375 -16.785156 12.578125 -17.203125 C 11.796875 -17.628906 10.625 -17.84375 9.0625 -17.84375 L 4.765625 -17.84375 L 4.765625 -11.71875 L 9.3125 -11.71875 C 10.84375 -11.71875 11.960938 -11.957031 12.671875 -12.4375 C 13.390625 -12.914062 13.75 -13.679688 13.75 -14.734375 Z M 12.796875 -2.859375 C 13.429688 -3.171875 13.882812 -3.597656 14.15625 -4.140625 C 14.425781 -4.691406 14.5625 -5.257812 14.5625 -5.84375 C 14.5625 -6.632812 14.363281 -7.300781 13.96875 -7.84375 C 13.582031 -8.394531 13.019531 -8.789062 12.28125 -9.03125 C 11.675781 -9.238281 10.800781 -9.34375 9.65625 -9.34375 L 4.765625 -9.34375 L 4.765625 -2.375 L 10.171875 -2.375 C 10.785156 -2.375 11.289062 -2.410156 11.6875 -2.484375 C 12.082031 -2.554688 12.453125 -2.679688 12.796875 -2.859375 Z M 12.796875 -2.859375 "/></g></g></g><g fill="#000000" fill-opacity="1"><g transform="translate(672.904702, 123.630803)"><g><path d="M 4.796875 -2.375 L 14.765625 -2.375 L 14.765625 0 L 2.125 0 L 2.125 -20.21875 L 4.796875 -20.21875 Z M 4.796875 -2.375 "/></g></g></g><g fill="#000000" fill-opacity="1"><g transform="translate(688.602909, 123.630803)"><g><path d="M 7.9375 -14.96875 C 9.34375 -14.96875 10.550781 -14.628906 11.5625 -13.953125 C 12.570312 -13.285156 13.328125 -12.390625 13.828125 -11.265625 C 14.335938 -10.140625 14.59375 -8.878906 14.59375 -7.484375 L 14.59375 -6.6875 L 3.671875 -6.6875 C 3.742188 -5.125 4.1875 -3.90625 5 -3.03125 C 5.8125 -2.15625 6.847656 -1.71875 8.109375 -1.71875 C 9.066406 -1.71875 9.859375 -1.972656 10.484375 -2.484375 C 11.117188 -2.992188 11.601562 -3.738281 11.9375 -4.71875 L 14.515625 -4.40625 C 14.117188 -2.9375 13.367188 -1.78125 12.265625 -0.9375 C 11.160156 -0.101562 9.8125 0.3125 8.21875 0.3125 C 5.976562 0.3125 4.226562 -0.34375 2.96875 -1.65625 C 1.71875 -2.976562 1.09375 -4.828125 1.09375 -7.203125 C 1.09375 -8.785156 1.375 -10.160156 1.9375 -11.328125 C 2.507812 -12.492188 3.304688 -13.390625 4.328125 -14.015625 C 5.359375 -14.648438 6.5625 -14.96875 7.9375 -14.96875 Z M 3.8125 -8.75 L 11.96875 -8.75 C 11.914062 -10.144531 11.488281 -11.191406 10.6875 -11.890625 C 9.882812 -12.585938 8.96875 -12.9375 7.9375 -12.9375 C 6.769531 -12.9375 5.8125 -12.539062 5.0625 -11.75 C 4.320312 -10.957031 3.90625 -9.957031 3.8125 -8.75 Z M 3.8125 -8.75 "/></g></g></g><g fill="#000000" fill-opacity="1"><g transform="translate(704.301117, 123.630803)"><g><path d="M 7.34375 -14.96875 C 9.03125 -14.96875 10.441406 -14.269531 11.578125 -12.875 L 11.578125 -14.625 L 13.859375 -14.625 L 13.859375 -1.75 C 13.859375 0.394531 13.585938 1.984375 13.046875 3.015625 C 12.578125 3.898438 11.863281 4.601562 10.90625 5.125 C 9.957031 5.65625 8.738281 5.921875 7.25 5.921875 C 6.007812 5.921875 4.953125 5.722656 4.078125 5.328125 C 3.203125 4.941406 2.539062 4.421875 2.09375 3.765625 C 1.65625 3.117188 1.4375 2.410156 1.4375 1.640625 L 1.46875 1.21875 L 3.875 1.578125 L 3.875 1.640625 C 4 2.410156 4.335938 2.976562 4.890625 3.34375 C 5.453125 3.707031 6.28125 3.890625 7.375 3.890625 C 8.101562 3.890625 8.742188 3.765625 9.296875 3.515625 C 9.859375 3.273438 10.296875 2.941406 10.609375 2.515625 C 10.898438 2.117188 11.09375 1.648438 11.1875 1.109375 C 11.289062 0.578125 11.34375 -0.0703125 11.34375 -0.84375 L 11.34375 -1.921875 C 10.238281 -0.640625 8.90625 0 7.34375 0 C 6.082031 0 4.96875 -0.3125 4 -0.9375 C 3.039062 -1.570312 2.289062 -2.453125 1.75 -3.578125 C 1.21875 -4.710938 0.953125 -5.992188 0.953125 -7.421875 C 0.953125 -8.929688 1.21875 -10.253906 1.75 -11.390625 C 2.28125 -12.523438 3.03125 -13.40625 4 -14.03125 C 4.96875 -14.65625 6.082031 -14.96875 7.34375 -14.96875 Z M 3.5 -7.59375 C 3.5 -5.789062 3.863281 -4.410156 4.59375 -3.453125 C 5.332031 -2.503906 6.332031 -2.03125 7.59375 -2.03125 C 8.125 -2.03125 8.734375 -2.203125 9.421875 -2.546875 C 10.109375 -2.898438 10.65625 -3.546875 11.0625 -4.484375 C 11.382812 -5.242188 11.546875 -6.222656 11.546875 -7.421875 C 11.546875 -9.171875 11.171875 -10.523438 10.421875 -11.484375 C 9.671875 -12.453125 8.679688 -12.9375 7.453125 -12.9375 C 6.304688 -12.9375 5.359375 -12.457031 4.609375 -11.5 C 3.867188 -10.550781 3.5 -9.25 3.5 -7.59375 Z M 3.5 -7.59375 "/></g></g></g><g fill="#000000" fill-opacity="1"><g transform="translate(727.848441, 123.630803)"><g><path d="M 14.40625 -19 C 15.15625 -18.4375 15.675781 -17.800781 15.96875 -17.09375 C 16.257812 -16.382812 16.40625 -15.757812 16.40625 -15.21875 C 16.40625 -13.1875 15.453125 -11.695312 13.546875 -10.75 C 14.847656 -10.363281 15.804688 -9.734375 16.421875 -8.859375 C 17.035156 -7.992188 17.34375 -6.960938 17.34375 -5.765625 C 17.34375 -4.835938 17.101562 -3.898438 16.625 -2.953125 C 16.15625 -2.003906 15.335938 -1.253906 14.171875 -0.703125 C 13.171875 -0.234375 11.785156 0 10.015625 0 L 2.09375 0 L 2.09375 -20.21875 L 9.859375 -20.21875 C 10.984375 -20.21875 11.882812 -20.117188 12.5625 -19.921875 C 13.238281 -19.722656 13.851562 -19.414062 14.40625 -19 Z M 13.75 -14.734375 C 13.75 -15.960938 13.359375 -16.785156 12.578125 -17.203125 C 11.796875 -17.628906 10.625 -17.84375 9.0625 -17.84375 L 4.765625 -17.84375 L 4.765625 -11.71875 L 9.3125 -11.71875 C 10.84375 -11.71875 11.960938 -11.957031 12.671875 -12.4375 C 13.390625 -12.914062 13.75 -13.679688 13.75 -14.734375 Z M 12.796875 -2.859375 C 13.429688 -3.171875 13.882812 -3.597656 14.15625 -4.140625 C 14.425781 -4.691406 14.5625 -5.257812 14.5625 -5.84375 C 14.5625 -6.632812 14.363281 -7.300781 13.96875 -7.84375 C 13.582031 -8.394531 13.019531 -8.789062 12.28125 -9.03125 C 11.675781 -9.238281 10.800781 -9.34375 9.65625 -9.34375 L 4.765625 -9.34375 L 4.765625 -2.375 L 10.171875 -2.375 C 10.785156 -2.375 11.289062 -2.410156 11.6875 -2.484375 C 12.082031 -2.554688 12.453125 -2.679688 12.796875 -2.859375 Z M 12.796875 -2.859375 "/></g></g></g><g fill="#000000" fill-opacity="1"><g transform="translate(746.680667, 123.630803)"><g><path d="M 10.984375 -20.5625 C 13.035156 -20.5625 14.75 -20.03125 16.125 -18.96875 C 17.5 -17.914062 18.445312 -16.476562 18.96875 -14.65625 L 16.3125 -14.03125 C 15.882812 -15.382812 15.238281 -16.425781 14.375 -17.15625 C 13.507812 -17.894531 12.359375 -18.265625 10.921875 -18.265625 C 8.816406 -18.265625 7.171875 -17.566406 5.984375 -16.171875 C 4.796875 -14.785156 4.203125 -12.8125 4.203125 -10.25 C 4.203125 -7.570312 4.78125 -5.519531 5.9375 -4.09375 C 7.101562 -2.664062 8.71875 -1.953125 10.78125 -1.953125 C 12.25 -1.953125 13.5 -2.390625 14.53125 -3.265625 C 15.570312 -4.140625 16.269531 -5.414062 16.625 -7.09375 L 19.3125 -6.40625 C 18.75 -4.28125 17.742188 -2.625 16.296875 -1.4375 C 14.847656 -0.25 13.039062 0.34375 10.875 0.34375 C 9.382812 0.34375 8.113281 0.144531 7.0625 -0.25 C 6.007812 -0.644531 5.113281 -1.226562 4.375 -2 C 3.363281 -3.070312 2.617188 -4.320312 2.140625 -5.75 C 1.671875 -7.1875 1.4375 -8.6875 1.4375 -10.25 C 1.4375 -12.34375 1.835938 -14.164062 2.640625 -15.71875 C 3.441406 -17.269531 4.5625 -18.460938 6 -19.296875 C 7.4375 -20.140625 9.097656 -20.5625 10.984375 -20.5625 Z M 10.984375 -20.5625 "/></g></g></g><g fill="#000000" fill-opacity="1"><g transform="translate(1087.927782, 123.630803)"><g><path d="M 4.796875 -2.375 L 14.765625 -2.375 L 14.765625 0 L 2.125 0 L 2.125 -20.21875 L 4.796875 -20.21875 Z M 4.796875 -2.375 "/></g></g></g><g fill="#000000" fill-opacity="1"><g transform="translate(1103.625989, 123.630803)"><g><path d="M 7.9375 -14.96875 C 9.34375 -14.96875 10.550781 -14.628906 11.5625 -13.953125 C 12.570312 -13.285156 13.328125 -12.390625 13.828125 -11.265625 C 14.335938 -10.140625 14.59375 -8.878906 14.59375 -7.484375 L 14.59375 -6.6875 L 3.671875 -6.6875 C 3.742188 -5.125 4.1875 -3.90625 5 -3.03125 C 5.8125 -2.15625 6.847656 -1.71875 8.109375 -1.71875 C 9.066406 -1.71875 9.859375 -1.972656 10.484375 -2.484375 C 11.117188 -2.992188 11.601562 -3.738281 11.9375 -4.71875 L 14.515625 -4.40625 C 14.117188 -2.9375 13.367188 -1.78125 12.265625 -0.9375 C 11.160156 -0.101562 9.8125 0.3125 8.21875 0.3125 C 5.976562 0.3125 4.226562 -0.34375 2.96875 -1.65625 C 1.71875 -2.976562 1.09375 -4.828125 1.09375 -7.203125 C 1.09375 -8.785156 1.375 -10.160156 1.9375 -11.328125 C 2.507812 -12.492188 3.304688 -13.390625 4.328125 -14.015625 C 5.359375 -14.648438 6.5625 -14.96875 7.9375 -14.96875 Z M 3.8125 -8.75 L 11.96875 -8.75 C 11.914062 -10.144531 11.488281 -11.191406 10.6875 -11.890625 C 9.882812 -12.585938 8.96875 -12.9375 7.9375 -12.9375 C 6.769531 -12.9375 5.8125 -12.539062 5.0625 -11.75 C 4.320312 -10.957031 3.90625 -9.957031 3.8125 -8.75 Z M 3.8125 -8.75 "/></g></g></g><g fill="#000000" fill-opacity="1"><g transform="translate(1119.324196, 123.630803)"><g><path d="M 7.34375 -14.96875 C 9.03125 -14.96875 10.441406 -14.269531 11.578125 -12.875 L 11.578125 -14.625 L 13.859375 -14.625 L 13.859375 -1.75 C 13.859375 0.394531 13.585938 1.984375 13.046875 3.015625 C 12.578125 3.898438 11.863281 4.601562 10.90625 5.125 C 9.957031 5.65625 8.738281 5.921875 7.25 5.921875 C 6.007812 5.921875 4.953125 5.722656 4.078125 5.328125 C 3.203125 4.941406 2.539062 4.421875 2.09375 3.765625 C 1.65625 3.117188 1.4375 2.410156 1.4375 1.640625 L 1.46875 1.21875 L 3.875 1.578125 L 3.875 1.640625 C 4 2.410156 4.335938 2.976562 4.890625 3.34375 C 5.453125 3.707031 6.28125 3.890625 7.375 3.890625 C 8.101562 3.890625 8.742188 3.765625 9.296875 3.515625 C 9.859375 3.273438 10.296875 2.941406 10.609375 2.515625 C 10.898438 2.117188 11.09375 1.648438 11.1875 1.109375 C 11.289062 0.578125 11.34375 -0.0703125 11.34375 -0.84375 L 11.34375 -1.921875 C 10.238281 -0.640625 8.90625 0 7.34375 0 C 6.082031 0 4.96875 -0.3125 4 -0.9375 C 3.039062 -1.570312 2.289062 -2.453125 1.75 -3.578125 C 1.21875 -4.710938 0.953125 -5.992188 0.953125 -7.421875 C 0.953125 -8.929688 1.21875 -10.253906 1.75 -11.390625 C 2.28125 -12.523438 3.03125 -13.40625 4 -14.03125 C 4.96875 -14.65625 6.082031 -14.96875 7.34375 -14.96875 Z M 3.5 -7.59375 C 3.5 -5.789062 3.863281 -4.410156 4.59375 -3.453125 C 5.332031 -2.503906 6.332031 -2.03125 7.59375 -2.03125 C 8.125 -2.03125 8.734375 -2.203125 9.421875 -2.546875 C 10.109375 -2.898438 10.65625 -3.546875 11.0625 -4.484375 C 11.382812 -5.242188 11.546875 -6.222656 11.546875 -7.421875 C 11.546875 -9.171875 11.171875 -10.523438 10.421875 -11.484375 C 9.671875 -12.453125 8.679688 -12.9375 7.453125 -12.9375 C 6.304688 -12.9375 5.359375 -12.457031 4.609375 -11.5 C 3.867188 -10.550781 3.5 -9.25 3.5 -7.59375 Z M 3.5 -7.59375 "/></g></g></g><g fill="#000000" fill-opacity="1"><g transform="translate(1135.022403, 123.630803)"><g/></g></g><g fill="#000000" fill-opacity="1"><g transform="translate(1142.871521, 123.630803)"><g><path d="M 10.984375 -20.5625 C 13.035156 -20.5625 14.75 -20.03125 16.125 -18.96875 C 17.5 -17.914062 18.445312 -16.476562 18.96875 -14.65625 L 16.3125 -14.03125 C 15.882812 -15.382812 15.238281 -16.425781 14.375 -17.15625 C 13.507812 -17.894531 12.359375 -18.265625 10.921875 -18.265625 C 8.816406 -18.265625 7.171875 -17.566406 5.984375 -16.171875 C 4.796875 -14.785156 4.203125 -12.8125 4.203125 -10.25 C 4.203125 -7.570312 4.78125 -5.519531 5.9375 -4.09375 C 7.101562 -2.664062 8.71875 -1.953125 10.78125 -1.953125 C 12.25 -1.953125 13.5 -2.390625 14.53125 -3.265625 C 15.570312 -4.140625 16.269531 -5.414062 16.625 -7.09375 L 19.3125 -6.40625 C 18.75 -4.28125 17.742188 -2.625 16.296875 -1.4375 C 14.847656 -0.25 13.039062 0.34375 10.875 0.34375 C 9.382812 0.34375 8.113281 0.144531 7.0625 -0.25 C 6.007812 -0.644531 5.113281 -1.226562 4.375 -2 C 3.363281 -3.070312 2.617188 -4.320312 2.140625 -5.75 C 1.671875 -7.1875 1.4375 -8.6875 1.4375 -10.25 C 1.4375 -12.34375 1.835938 -14.164062 2.640625 -15.71875 C 3.441406 -17.269531 4.5625 -18.460938 6 -19.296875 C 7.4375 -20.140625 9.097656 -20.5625 10.984375 -20.5625 Z M 10.984375 -20.5625 "/></g></g></g><g fill="#000000" fill-opacity="1"><g transform="translate(1163.256607, 123.630803)"><g><path d="M 14.796875 -19.171875 C 16.171875 -18.378906 17.207031 -17.210938 17.90625 -15.671875 C 18.613281 -14.128906 18.96875 -12.320312 18.96875 -10.25 C 18.96875 -8.539062 18.710938 -6.941406 18.203125 -5.453125 C 17.703125 -3.960938 16.929688 -2.785156 15.890625 -1.921875 C 15.117188 -1.273438 14.265625 -0.789062 13.328125 -0.46875 C 12.390625 -0.15625 11.210938 0 9.796875 0 L 2.265625 0 L 2.265625 -20.21875 L 9.59375 -20.21875 C 10.78125 -20.21875 11.765625 -20.144531 12.546875 -20 C 13.328125 -19.863281 14.078125 -19.585938 14.796875 -19.171875 Z M 16.203125 -10.28125 C 16.203125 -12.332031 15.878906 -13.914062 15.234375 -15.03125 C 14.597656 -16.15625 13.835938 -16.90625 12.953125 -17.28125 C 12.066406 -17.65625 10.957031 -17.84375 9.625 -17.84375 L 4.9375 -17.84375 L 4.9375 -2.375 L 9.375 -2.375 C 10.6875 -2.375 11.789062 -2.523438 12.6875 -2.828125 C 13.582031 -3.140625 14.390625 -3.878906 15.109375 -5.046875 C 15.835938 -6.210938 16.203125 -7.957031 16.203125 -10.28125 Z M 16.203125 -10.28125 "/></g></g></g><g fill="#000000" fill-opacity="1"><g transform="translate(501.488957, 237.551213)"><g><path d="M 14.40625 -19 C 15.15625 -18.4375 15.675781 -17.800781 15.96875 -17.09375 C 16.257812 -16.382812 16.40625 -15.757812 16.40625 -15.21875 C 16.40625 -13.1875 15.453125 -11.695312 13.546875 -10.75 C 14.847656 -10.363281 15.804688 -9.734375 16.421875 -8.859375 C 17.035156 -7.992188 17.34375 -6.960938 17.34375 -5.765625 C 17.34375 -4.835938 17.101562 -3.898438 16.625 -2.953125 C 16.15625 -2.003906 15.335938 -1.253906 14.171875 -0.703125 C 13.171875 -0.234375 11.785156 0 10.015625 0 L 2.09375 0 L 2.09375 -20.21875 L 9.859375 -20.21875 C 10.984375 -20.21875 11.882812 -20.117188 12.5625 -19.921875 C 13.238281 -19.722656 13.851562 -19.414062 14.40625 -19 Z M 13.75 -14.734375 C 13.75 -15.960938 13.359375 -16.785156 12.578125 -17.203125 C 11.796875 -17.628906 10.625 -17.84375 9.0625 -17.84375 L 4.765625 -17.84375 L 4.765625 -11.71875 L 9.3125 -11.71875 C 10.84375 -11.71875 11.960938 -11.957031 12.671875 -12.4375 C 13.390625 -12.914062 13.75 -13.679688 13.75 -14.734375 Z M 12.796875 -2.859375 C 13.429688 -3.171875 13.882812 -3.597656 14.15625 -4.140625 C 14.425781 -4.691406 14.5625 -5.257812 14.5625 -5.84375 C 14.5625 -6.632812 14.363281 -7.300781 13.96875 -7.84375 C 13.582031 -8.394531 13.019531 -8.789062 12.28125 -9.03125 C 11.675781 -9.238281 10.800781 -9.34375 9.65625 -9.34375 L 4.765625 -9.34375 L 4.765625 -2.375 L 10.171875 -2.375 C 10.785156 -2.375 11.289062 -2.410156 11.6875 -2.484375 C 12.082031 -2.554688 12.453125 -2.679688 12.796875 -2.859375 Z M 12.796875 -2.859375 "/></g></g></g><g fill="#000000" fill-opacity="1"><g transform="translate(921.899264, 237.551213)"><g><path d="M 10.984375 -20.5625 C 13.035156 -20.5625 14.75 -20.03125 16.125 -18.96875 C 17.5 -17.914062 18.445312 -16.476562 18.96875 -14.65625 L 16.3125 -14.03125 C 15.882812 -15.382812 15.238281 -16.425781 14.375 -17.15625 C 13.507812 -17.894531 12.359375 -18.265625 10.921875 -18.265625 C 8.816406 -18.265625 7.171875 -17.566406 5.984375 -16.171875 C 4.796875 -14.785156 4.203125 -12.8125 4.203125 -10.25 C 4.203125 -7.570312 4.78125 -5.519531 5.9375 -4.09375 C 7.101562 -2.664062 8.71875 -1.953125 10.78125 -1.953125 C 12.25 -1.953125 13.5 -2.390625 14.53125 -3.265625 C 15.570312 -4.140625 16.269531 -5.414062 16.625 -7.09375 L 19.3125 -6.40625 C 18.75 -4.28125 17.742188 -2.625 16.296875 -1.4375 C 14.847656 -0.25 13.039062 0.34375 10.875 0.34375 C 9.382812 0.34375 8.113281 0.144531 7.0625 -0.25 C 6.007812 -0.644531 5.113281 -1.226562 4.375 -2 C 3.363281 -3.070312 2.617188 -4.320312 2.140625 -5.75 C 1.671875 -7.1875 1.4375 -8.6875 1.4375 -10.25 C 1.4375 -12.34375 1.835938 -14.164062 2.640625 -15.71875 C 3.441406 -17.269531 4.5625 -18.460938 6 -19.296875 C 7.4375 -20.140625 9.097656 -20.5625 10.984375 -20.5625 Z M 10.984375 -20.5625 "/></g></g></g><g fill="#000000" fill-opacity="1"><g transform="translate(1338.610259, 237.551213)"><g><path d="M 14.796875 -19.171875 C 16.171875 -18.378906 17.207031 -17.210938 17.90625 -15.671875 C 18.613281 -14.128906 18.96875 -12.320312 18.96875 -10.25 C 18.96875 -8.539062 18.710938 -6.941406 18.203125 -5.453125 C 17.703125 -3.960938 16.929688 -2.785156 15.890625 -1.921875 C 15.117188 -1.273438 14.265625 -0.789062 13.328125 -0.46875 C 12.390625 -0.15625 11.210938 0 9.796875 0 L 2.265625 0 L 2.265625 -20.21875 L 9.59375 -20.21875 C 10.78125 -20.21875 11.765625 -20.144531 12.546875 -20 C 13.328125 -19.863281 14.078125 -19.585938 14.796875 -19.171875 Z M 16.203125 -10.28125 C 16.203125 -12.332031 15.878906 -13.914062 15.234375 -15.03125 C 14.597656 -16.15625 13.835938 -16.90625 12.953125 -17.28125 C 12.066406 -17.65625 10.957031 -17.84375 9.625 -17.84375 L 4.9375 -17.84375 L 4.9375 -2.375 L 9.375 -2.375 C 10.6875 -2.375 11.789062 -2.523438 12.6875 -2.828125 C 13.582031 -3.140625 14.390625 -3.878906 15.109375 -5.046875 C 15.835938 -6.210938 16.203125 -7.957031 16.203125 -10.28125 Z M 16.203125 -10.28125 "/></g></g></g><path stroke-linecap="butt" transform="matrix(1.764634, 0, 0, 1.764634, 81.000002, 610.021501)" fill="none" stroke-linejoin="miter" d="M 14.999565 2.000006 L 252.094983 2.000006 " stroke="#000000" stroke-width="4" stroke-opacity="1" stroke-miterlimit="4"/><path stroke-linecap="round" transform="matrix(1.764634, 0, 0, 1.764634, 81.000002, 610.021501)" fill="none" stroke-linejoin="round" d="M 1.998908 2.000006 C 1.998908 -1.3138 4.686256 -3.998935 8.000063 -3.998935 C 11.313869 -3.998935 13.999004 -1.3138 13.999004 2.000006 C 13.999004 5.313813 11.313869 7.998947 8.000063 7.998947 C 4.686256 7.998947 1.998908 5.313813 1.998908 2.000006 " stroke="#000000" stroke-width="4" stroke-opacity="1" stroke-miterlimit="4"/><path stroke-linecap="butt" transform="matrix(1.764634, 0, 0, 1.764634, 496.817501, 610.021501)" fill="none" stroke-linejoin="miter" d="M -0.000620513 2.000006 L 252.096577 2.000006 " stroke="#000000" stroke-width="4" stroke-opacity="1" stroke-miterlimit="4"/><path stroke-linecap="butt" transform="matrix(1.764634, 0, 0, 1.764634, 914.143016, 610.021501)" fill="none" stroke-linejoin="miter" d="M 0.000858544 2.000006 L 237.096276 2.000006 " stroke="#000000" stroke-width="4" stroke-opacity="1" stroke-miterlimit="4"/><path stroke-linecap="round" transform="matrix(1.764634, 0, 0, 1.764634, 914.143016, 610.021501)" fill="none" stroke-linejoin="round" d="M 250.09472 2.000006 C 250.09472 5.313813 247.409585 7.998947 244.095779 7.998947 C 240.781973 7.998947 238.096838 5.313813 238.096838 2.000006 C 238.096838 -1.3138 240.781973 -3.998935 244.095779 -3.998935 C 247.409585 -3.998935 250.09472 -1.3138 250.09472 2.000006 " stroke="#000000" stroke-width="4" stroke-opacity="1" stroke-miterlimit="4"/><g fill="#000000" fill-opacity="1"><g transform="translate(81.000002, 677.948484)"><g><path d="M 18.890625 0 L 15.84375 0 L 13.46875 -6.15625 L 5.03125 -6.15625 L 2.828125 0 L -0.03125 0 L 7.734375 -20.21875 L 10.609375 -20.21875 Z M 8.015625 -14.234375 L 5.8125 -8.296875 L 12.65625 -8.296875 L 10.171875 -14.96875 C 9.867188 -15.757812 9.519531 -16.800781 9.125 -18.09375 C 9.125 -18 9.007812 -17.523438 8.78125 -16.671875 C 8.550781 -15.816406 8.296875 -15.003906 8.015625 -14.234375 Z M 8.015625 -14.234375 "/></g></g></g><g fill="#000000" fill-opacity="1"><g transform="translate(323.696429, 557.244714)"><g><path d="M 16.65625 -17.84375 L 9.96875 -17.84375 L 9.96875 0 L 7.28125 0 L 7.28125 -17.84375 L 0.625 -17.84375 L 0.625 -20.21875 L 16.65625 -20.21875 Z M 16.65625 -17.84375 "/></g></g></g><g fill="#000000" fill-opacity="1"><g transform="translate(340.947523, 557.244714)"><g><path d="M 7.84375 -14.96875 C 8.957031 -14.96875 10.035156 -14.722656 11.078125 -14.234375 C 12.128906 -13.742188 12.992188 -12.925781 13.671875 -11.78125 C 14.359375 -10.644531 14.703125 -9.15625 14.703125 -7.3125 C 14.703125 -5.675781 14.410156 -4.285156 13.828125 -3.140625 C 13.242188 -2.003906 12.4375 -1.144531 11.40625 -0.5625 C 10.375 0.0195312 9.1875 0.3125 7.84375 0.3125 C 5.882812 0.3125 4.285156 -0.300781 3.046875 -1.53125 C 1.671875 -2.863281 0.984375 -4.789062 0.984375 -7.3125 C 0.984375 -8.945312 1.273438 -10.335938 1.859375 -11.484375 C 2.441406 -12.640625 3.25 -13.507812 4.28125 -14.09375 C 5.320312 -14.675781 6.507812 -14.96875 7.84375 -14.96875 Z M 3.53125 -7.3125 C 3.53125 -5.539062 3.921875 -4.164062 4.703125 -3.1875 C 5.484375 -2.207031 6.53125 -1.71875 7.84375 -1.71875 C 9.144531 -1.71875 10.191406 -2.203125 10.984375 -3.171875 C 11.773438 -4.140625 12.171875 -5.519531 12.171875 -7.3125 C 12.171875 -9.039062 11.785156 -10.410156 11.015625 -11.421875 C 10.242188 -12.429688 9.179688 -12.9375 7.828125 -12.9375 C 6.546875 -12.9375 5.507812 -12.441406 4.71875 -11.453125 C 3.925781 -10.460938 3.53125 -9.082031 3.53125 -7.3125 Z M 3.53125 -7.3125 "/></g></g></g><g fill="#000000" fill-opacity="1"><g transform="translate(356.64573, 557.244714)"><g><path d="M 4.765625 -14.625 L 7.25 -14.625 L 7.25 -12.765625 L 4.765625 -12.765625 L 4.765625 -3.703125 C 4.765625 -3.054688 4.851562 -2.601562 5.03125 -2.34375 C 5.21875 -2.082031 5.59375 -1.953125 6.15625 -1.953125 C 6.289062 -1.953125 6.65625 -2 7.25 -2.09375 L 7.625 0.109375 C 6.875 0.265625 6.257812 0.34375 5.78125 0.34375 C 4.820312 0.34375 4.085938 0.1875 3.578125 -0.125 C 3.078125 -0.4375 2.734375 -0.867188 2.546875 -1.421875 C 2.367188 -1.984375 2.28125 -2.703125 2.28125 -3.578125 L 2.28125 -12.765625 L 0.484375 -12.765625 L 0.484375 -14.625 L 2.28125 -14.625 L 2.28125 -18.265625 L 4.765625 -19.765625 Z M 4.765625 -14.625 "/></g></g></g><g fill="#000000" fill-opacity="1"><g transform="translate(364.494847, 557.244714)"><g><path d="M 8.015625 -14.96875 C 9.222656 -14.96875 10.195312 -14.847656 10.9375 -14.609375 C 11.6875 -14.378906 12.273438 -14.035156 12.703125 -13.578125 C 13.117188 -13.148438 13.398438 -12.671875 13.546875 -12.140625 C 13.703125 -11.609375 13.78125 -10.910156 13.78125 -10.046875 L 13.78125 -4.15625 C 13.78125 -2.25 14.039062 -0.863281 14.5625 0 L 11.96875 0 C 11.726562 -0.507812 11.5625 -1.113281 11.46875 -1.8125 C 10.5625 -1.050781 9.675781 -0.5 8.8125 -0.15625 C 7.957031 0.175781 7.070312 0.34375 6.15625 0.34375 C 4.570312 0.34375 3.328125 -0.0390625 2.421875 -0.8125 C 1.523438 -1.582031 1.078125 -2.601562 1.078125 -3.875 C 1.078125 -4.53125 1.222656 -5.160156 1.515625 -5.765625 C 1.816406 -6.378906 2.234375 -6.859375 2.765625 -7.203125 C 3.328125 -7.578125 3.898438 -7.847656 4.484375 -8.015625 C 5.066406 -8.179688 5.785156 -8.3125 6.640625 -8.40625 C 7.535156 -8.507812 8.429688 -8.640625 9.328125 -8.796875 C 10.222656 -8.953125 10.878906 -9.117188 11.296875 -9.296875 L 11.296875 -9.90625 C 11.296875 -10.90625 11.023438 -11.660156 10.484375 -12.171875 C 9.953125 -12.679688 9.035156 -12.9375 7.734375 -12.9375 C 6.515625 -12.9375 5.632812 -12.71875 5.09375 -12.28125 C 4.5625 -11.84375 4.171875 -11.128906 3.921875 -10.140625 L 1.5 -10.453125 C 1.832031 -12.023438 2.539062 -13.171875 3.625 -13.890625 C 4.707031 -14.609375 6.171875 -14.96875 8.015625 -14.96875 Z M 7.734375 -6.5 C 6.773438 -6.34375 6.035156 -6.191406 5.515625 -6.046875 C 5.003906 -5.910156 4.578125 -5.675781 4.234375 -5.34375 C 3.898438 -5.019531 3.734375 -4.546875 3.734375 -3.921875 C 3.734375 -3.191406 4 -2.625 4.53125 -2.21875 C 5.070312 -1.8125 5.828125 -1.609375 6.796875 -1.609375 C 7.367188 -1.609375 7.984375 -1.722656 8.640625 -1.953125 C 9.296875 -2.191406 9.867188 -2.601562 10.359375 -3.1875 C 10.679688 -3.5625 10.914062 -3.984375 11.0625 -4.453125 C 11.21875 -4.929688 11.296875 -5.535156 11.296875 -6.265625 L 11.296875 -7.34375 C 10.546875 -7.039062 9.359375 -6.757812 7.734375 -6.5 Z M 7.734375 -6.5 "/></g></g></g><g fill="#000000" fill-opacity="1"><g transform="translate(380.193054, 557.244714)"><g><path d="M 4.375 0 L 1.890625 0 L 1.890625 -20.21875 L 4.375 -20.21875 Z M 4.375 0 "/></g></g></g><g fill="#000000" fill-opacity="1"><g transform="translate(386.461039, 557.244714)"><g/></g></g><g fill="#000000" fill-opacity="1"><g transform="translate(394.310156, 557.244714)"><g><path d="M 11.859375 -20.21875 L 11.859375 -6.234375 C 11.859375 -5.054688 11.742188 -4.082031 11.515625 -3.3125 C 11.296875 -2.550781 10.957031 -1.914062 10.5 -1.40625 C 9.976562 -0.820312 9.335938 -0.382812 8.578125 -0.09375 C 7.828125 0.195312 7.019531 0.34375 6.15625 0.34375 C 4.40625 0.34375 3.0625 -0.160156 2.125 -1.171875 C 1.195312 -2.179688 0.734375 -3.625 0.734375 -5.5 L 0.734375 -5.734375 L 3.140625 -6.078125 L 3.140625 -5.953125 C 3.210938 -4.660156 3.46875 -3.6875 3.90625 -3.03125 C 4.351562 -2.382812 5.128906 -2.0625 6.234375 -2.0625 C 7.140625 -2.0625 7.863281 -2.351562 8.40625 -2.9375 C 8.707031 -3.257812 8.910156 -3.660156 9.015625 -4.140625 C 9.117188 -4.617188 9.171875 -5.1875 9.171875 -5.84375 L 9.171875 -20.21875 Z M 11.859375 -20.21875 "/></g></g></g><g fill="#000000" fill-opacity="1"><g transform="translate(408.427258, 557.244714)"><g><path d="M 7.84375 -14.96875 C 8.957031 -14.96875 10.035156 -14.722656 11.078125 -14.234375 C 12.128906 -13.742188 12.992188 -12.925781 13.671875 -11.78125 C 14.359375 -10.644531 14.703125 -9.15625 14.703125 -7.3125 C 14.703125 -5.675781 14.410156 -4.285156 13.828125 -3.140625 C 13.242188 -2.003906 12.4375 -1.144531 11.40625 -0.5625 C 10.375 0.0195312 9.1875 0.3125 7.84375 0.3125 C 5.882812 0.3125 4.285156 -0.300781 3.046875 -1.53125 C 1.671875 -2.863281 0.984375 -4.789062 0.984375 -7.3125 C 0.984375 -8.945312 1.273438 -10.335938 1.859375 -11.484375 C 2.441406 -12.640625 3.25 -13.507812 4.28125 -14.09375 C 5.320312 -14.675781 6.507812 -14.96875 7.84375 -14.96875 Z M 3.53125 -7.3125 C 3.53125 -5.539062 3.921875 -4.164062 4.703125 -3.1875 C 5.484375 -2.207031 6.53125 -1.71875 7.84375 -1.71875 C 9.144531 -1.71875 10.191406 -2.203125 10.984375 -3.171875 C 11.773438 -4.140625 12.171875 -5.519531 12.171875 -7.3125 C 12.171875 -9.039062 11.785156 -10.410156 11.015625 -11.421875 C 10.242188 -12.429688 9.179688 -12.9375 7.828125 -12.9375 C 6.546875 -12.9375 5.507812 -12.441406 4.71875 -11.453125 C 3.925781 -10.460938 3.53125 -9.082031 3.53125 -7.3125 Z M 3.53125 -7.3125 "/></g></g></g><g fill="#000000" fill-opacity="1"><g transform="translate(424.125465, 557.244714)"><g><path d="M 4.34375 -5.25 C 4.34375 -4.125 4.609375 -3.269531 5.140625 -2.6875 C 5.679688 -2.101562 6.472656 -1.8125 7.515625 -1.8125 C 8.210938 -1.8125 8.882812 -2.007812 9.53125 -2.40625 C 10.175781 -2.8125 10.640625 -3.382812 10.921875 -4.125 C 11.148438 -4.664062 11.265625 -5.492188 11.265625 -6.609375 L 11.265625 -14.625 L 13.75 -14.625 L 13.75 0 L 11.515625 0 L 11.515625 -2.140625 C 10.347656 -0.484375 8.796875 0.34375 6.859375 0.34375 C 6.066406 0.34375 5.265625 0.175781 4.453125 -0.15625 C 3.648438 -0.488281 3.019531 -1.019531 2.5625 -1.75 C 2.300781 -2.1875 2.117188 -2.664062 2.015625 -3.1875 C 1.910156 -3.71875 1.859375 -4.359375 1.859375 -5.109375 L 1.859375 -14.625 L 4.34375 -14.625 Z M 4.34375 -5.25 "/></g></g></g><g fill="#000000" fill-opacity="1"><g transform="translate(439.823672, 557.244714)"><g><path d="M 7.25 -14.96875 C 8.101562 -14.96875 8.941406 -14.703125 9.765625 -14.171875 L 8.921875 -11.890625 C 8.316406 -12.242188 7.6875 -12.421875 7.03125 -12.421875 C 6.09375 -12.421875 5.398438 -11.992188 4.953125 -11.140625 C 4.515625 -10.285156 4.296875 -9.179688 4.296875 -7.828125 L 4.296875 0 L 1.8125 0 L 1.8125 -14.625 L 4.03125 -14.625 L 4.03125 -12.421875 C 4.507812 -13.265625 4.976562 -13.898438 5.4375 -14.328125 C 5.894531 -14.753906 6.5 -14.96875 7.25 -14.96875 Z M 7.25 -14.96875 "/></g></g></g><g fill="#000000" fill-opacity="1"><g transform="translate(449.225676, 557.244714)"><g><path d="M 8.8125 -14.96875 C 9.863281 -14.96875 10.769531 -14.757812 11.53125 -14.34375 C 12.289062 -13.925781 12.851562 -13.398438 13.21875 -12.765625 C 13.4375 -12.328125 13.59375 -11.859375 13.6875 -11.359375 C 13.78125 -10.859375 13.828125 -10.234375 13.828125 -9.484375 L 13.828125 0 L 11.34375 0 L 11.34375 -9.03125 C 11.34375 -11.550781 10.316406 -12.8125 8.265625 -12.8125 C 7.492188 -12.8125 6.785156 -12.625 6.140625 -12.25 C 5.492188 -11.875 5.03125 -11.328125 4.75 -10.609375 C 4.519531 -10.015625 4.40625 -9.207031 4.40625 -8.1875 L 4.40625 0 L 1.921875 0 L 1.921875 -14.625 L 4.15625 -14.625 L 4.15625 -12.5625 C 5.257812 -14.164062 6.8125 -14.96875 8.8125 -14.96875 Z M 8.8125 -14.96875 "/></g></g></g><g fill="#000000" fill-opacity="1"><g transform="translate(464.923884, 557.244714)"><g><path d="M 7.9375 -14.96875 C 9.34375 -14.96875 10.550781 -14.628906 11.5625 -13.953125 C 12.570312 -13.285156 13.328125 -12.390625 13.828125 -11.265625 C 14.335938 -10.140625 14.59375 -8.878906 14.59375 -7.484375 L 14.59375 -6.6875 L 3.671875 -6.6875 C 3.742188 -5.125 4.1875 -3.90625 5 -3.03125 C 5.8125 -2.15625 6.847656 -1.71875 8.109375 -1.71875 C 9.066406 -1.71875 9.859375 -1.972656 10.484375 -2.484375 C 11.117188 -2.992188 11.601562 -3.738281 11.9375 -4.71875 L 14.515625 -4.40625 C 14.117188 -2.9375 13.367188 -1.78125 12.265625 -0.9375 C 11.160156 -0.101562 9.8125 0.3125 8.21875 0.3125 C 5.976562 0.3125 4.226562 -0.34375 2.96875 -1.65625 C 1.71875 -2.976562 1.09375 -4.828125 1.09375 -7.203125 C 1.09375 -8.785156 1.375 -10.160156 1.9375 -11.328125 C 2.507812 -12.492188 3.304688 -13.390625 4.328125 -14.015625 C 5.359375 -14.648438 6.5625 -14.96875 7.9375 -14.96875 Z M 3.8125 -8.75 L 11.96875 -8.75 C 11.914062 -10.144531 11.488281 -11.191406 10.6875 -11.890625 C 9.882812 -12.585938 8.96875 -12.9375 7.9375 -12.9375 C 6.769531 -12.9375 5.8125 -12.539062 5.0625 -11.75 C 4.320312 -10.957031 3.90625 -9.957031 3.8125 -8.75 Z M 3.8125 -8.75 "/></g></g></g><g fill="#000000" fill-opacity="1"><g transform="translate(480.622091, 557.244714)"><g><path d="M 6.21875 -6.078125 C 6.625 -4.867188 6.960938 -3.765625 7.234375 -2.765625 C 7.515625 -3.878906 7.832031 -4.925781 8.1875 -5.90625 L 11.375 -14.625 L 13.859375 -14.625 L 8.296875 0.25 C 7.773438 1.664062 7.320312 2.742188 6.9375 3.484375 C 6.5625 4.234375 6.09375 4.828125 5.53125 5.265625 C 4.96875 5.703125 4.242188 5.921875 3.359375 5.921875 C 2.773438 5.921875 2.238281 5.828125 1.75 5.640625 L 1.46875 3.296875 C 2.070312 3.453125 2.5625 3.53125 2.9375 3.53125 C 3.519531 3.53125 3.976562 3.425781 4.3125 3.21875 C 4.65625 3.007812 4.910156 2.734375 5.078125 2.390625 C 5.253906 2.054688 5.472656 1.523438 5.734375 0.796875 L 6.015625 0.03125 L 0.453125 -14.625 L 3.140625 -14.625 Z M 6.21875 -6.078125 "/></g></g></g><g fill="#000000" fill-opacity="1"><g transform="translate(494.739193, 557.244714)"><g/></g></g><g fill="#000000" fill-opacity="1"><g transform="translate(502.58831, 557.244714)"><g><path d="M 14.90625 -11.859375 L 1.546875 -11.859375 L 1.546875 -14.234375 L 14.90625 -14.234375 Z M 14.90625 -5.765625 L 1.546875 -5.765625 L 1.546875 -8.046875 L 14.90625 -8.046875 Z M 14.90625 -5.765625 "/></g></g></g><g fill="#000000" fill-opacity="1"><g transform="translate(519.077097, 557.244714)"><g/></g></g><g fill="#000000" fill-opacity="1"><g transform="translate(526.926214, 557.244714)"><g><path d="M 16.859375 -17.84375 L 4.90625 -17.84375 L 4.90625 -11.625 L 16.09375 -11.625 L 16.09375 -9.265625 L 4.90625 -9.265625 L 4.90625 -2.375 L 17.3125 -2.375 L 17.3125 0 L 2.234375 0 L 2.234375 -20.21875 L 16.859375 -20.21875 Z M 16.859375 -17.84375 "/></g></g></g><g fill="#000000" fill-opacity="1"><g transform="translate(545.75844, 557.244714)"><g><path d="M 6.515625 -20.5625 C 7.160156 -20.5625 7.914062 -20.472656 8.78125 -20.296875 L 8.40625 -18.125 C 7.90625 -18.21875 7.421875 -18.265625 6.953125 -18.265625 C 6.210938 -18.265625 5.6875 -18.101562 5.375 -17.78125 C 5.0625 -17.46875 4.90625 -16.914062 4.90625 -16.125 L 4.90625 -14.625 L 7.734375 -14.625 L 7.734375 -12.765625 L 4.90625 -12.765625 L 4.90625 0 L 2.421875 0 L 2.421875 -12.765625 L 0.21875 -12.765625 L 0.21875 -14.625 L 2.421875 -14.625 L 2.421875 -16.34375 C 2.421875 -17.851562 2.757812 -18.929688 3.4375 -19.578125 C 4.125 -20.234375 5.148438 -20.5625 6.515625 -20.5625 Z M 6.515625 -20.5625 "/></g></g></g><g fill="#000000" fill-opacity="1"><g transform="translate(553.607557, 557.244714)"><g><path d="M 6.515625 -20.5625 C 7.160156 -20.5625 7.914062 -20.472656 8.78125 -20.296875 L 8.40625 -18.125 C 7.90625 -18.21875 7.421875 -18.265625 6.953125 -18.265625 C 6.210938 -18.265625 5.6875 -18.101562 5.375 -17.78125 C 5.0625 -17.46875 4.90625 -16.914062 4.90625 -16.125 L 4.90625 -14.625 L 7.734375 -14.625 L 7.734375 -12.765625 L 4.90625 -12.765625 L 4.90625 0 L 2.421875 0 L 2.421875 -12.765625 L 0.21875 -12.765625 L 0.21875 -14.625 L 2.421875 -14.625 L 2.421875 -16.34375 C 2.421875 -17.851562 2.757812 -18.929688 3.4375 -19.578125 C 4.125 -20.234375 5.148438 -20.5625 6.515625 -20.5625 Z M 6.515625 -20.5625 "/></g></g></g><g fill="#000000" fill-opacity="1"><g transform="translate(561.456675, 557.244714)"><g><path d="M 7.9375 -14.96875 C 9.34375 -14.96875 10.550781 -14.628906 11.5625 -13.953125 C 12.570312 -13.285156 13.328125 -12.390625 13.828125 -11.265625 C 14.335938 -10.140625 14.59375 -8.878906 14.59375 -7.484375 L 14.59375 -6.6875 L 3.671875 -6.6875 C 3.742188 -5.125 4.1875 -3.90625 5 -3.03125 C 5.8125 -2.15625 6.847656 -1.71875 8.109375 -1.71875 C 9.066406 -1.71875 9.859375 -1.972656 10.484375 -2.484375 C 11.117188 -2.992188 11.601562 -3.738281 11.9375 -4.71875 L 14.515625 -4.40625 C 14.117188 -2.9375 13.367188 -1.78125 12.265625 -0.9375 C 11.160156 -0.101562 9.8125 0.3125 8.21875 0.3125 C 5.976562 0.3125 4.226562 -0.34375 2.96875 -1.65625 C 1.71875 -2.976562 1.09375 -4.828125 1.09375 -7.203125 C 1.09375 -8.785156 1.375 -10.160156 1.9375 -11.328125 C 2.507812 -12.492188 3.304688 -13.390625 4.328125 -14.015625 C 5.359375 -14.648438 6.5625 -14.96875 7.9375 -14.96875 Z M 3.8125 -8.75 L 11.96875 -8.75 C 11.914062 -10.144531 11.488281 -11.191406 10.6875 -11.890625 C 9.882812 -12.585938 8.96875 -12.9375 7.9375 -12.9375 C 6.769531 -12.9375 5.8125 -12.539062 5.0625 -11.75 C 4.320312 -10.957031 3.90625 -9.957031 3.8125 -8.75 Z M 3.8125 -8.75 "/></g></g></g><g fill="#000000" fill-opacity="1"><g transform="translate(577.154882, 557.244714)"><g><path d="M 8.015625 -14.96875 C 9.460938 -14.96875 10.6875 -14.566406 11.6875 -13.765625 C 12.6875 -12.960938 13.328125 -11.816406 13.609375 -10.328125 L 11.203125 -9.96875 C 11.003906 -10.851562 10.628906 -11.566406 10.078125 -12.109375 C 9.535156 -12.660156 8.800781 -12.9375 7.875 -12.9375 C 6.5625 -12.9375 5.523438 -12.460938 4.765625 -11.515625 C 4.015625 -10.578125 3.640625 -9.203125 3.640625 -7.390625 C 3.640625 -5.546875 3.992188 -4.140625 4.703125 -3.171875 C 5.410156 -2.203125 6.421875 -1.71875 7.734375 -1.71875 C 8.804688 -1.71875 9.644531 -2.039062 10.25 -2.6875 C 10.851562 -3.34375 11.238281 -4.234375 11.40625 -5.359375 L 13.859375 -5.046875 C 13.597656 -3.359375 12.914062 -2.039062 11.8125 -1.09375 C 10.71875 -0.15625 9.359375 0.3125 7.734375 0.3125 C 5.648438 0.3125 4.019531 -0.367188 2.84375 -1.734375 C 1.675781 -3.097656 1.09375 -5.023438 1.09375 -7.515625 C 1.09375 -9.847656 1.707031 -11.671875 2.9375 -12.984375 C 4.175781 -14.304688 5.867188 -14.96875 8.015625 -14.96875 Z M 8.015625 -14.96875 "/></g></g></g><g fill="#000000" fill-opacity="1"><g transform="translate(591.271984, 557.244714)"><g><path d="M 4.765625 -14.625 L 7.25 -14.625 L 7.25 -12.765625 L 4.765625 -12.765625 L 4.765625 -3.703125 C 4.765625 -3.054688 4.851562 -2.601562 5.03125 -2.34375 C 5.21875 -2.082031 5.59375 -1.953125 6.15625 -1.953125 C 6.289062 -1.953125 6.65625 -2 7.25 -2.09375 L 7.625 0.109375 C 6.875 0.265625 6.257812 0.34375 5.78125 0.34375 C 4.820312 0.34375 4.085938 0.1875 3.578125 -0.125 C 3.078125 -0.4375 2.734375 -0.867188 2.546875 -1.421875 C 2.367188 -1.984375 2.28125 -2.703125 2.28125 -3.578125 L 2.28125 -12.765625 L 0.484375 -12.765625 L 0.484375 -14.625 L 2.28125 -14.625 L 2.28125 -18.265625 L 4.765625 -19.765625 Z M 4.765625 -14.625 "/></g></g></g><g fill="#000000" fill-opacity="1"><g transform="translate(599.121101, 557.244714)"><g><path d="M 4.375 -17.390625 L 1.890625 -17.390625 L 1.890625 -20.21875 L 4.375 -20.21875 Z M 4.375 0 L 1.890625 0 L 1.890625 -14.625 L 4.375 -14.625 Z M 4.375 0 "/></g></g></g><g fill="#000000" fill-opacity="1"><g transform="translate(605.389085, 557.244714)"><g><path d="M 5.984375 -6.265625 C 6.148438 -5.816406 6.394531 -5.066406 6.71875 -4.015625 L 7.09375 -2.90625 C 7.5 -4.300781 7.796875 -5.222656 7.984375 -5.671875 L 11.234375 -14.625 L 13.8125 -14.625 L 8.265625 0 L 5.921875 0 L 0.359375 -14.625 L 3 -14.625 Z M 5.984375 -6.265625 "/></g></g></g><g fill="#000000" fill-opacity="1"><g transform="translate(619.506187, 557.244714)"><g><path d="M 7.9375 -14.96875 C 9.34375 -14.96875 10.550781 -14.628906 11.5625 -13.953125 C 12.570312 -13.285156 13.328125 -12.390625 13.828125 -11.265625 C 14.335938 -10.140625 14.59375 -8.878906 14.59375 -7.484375 L 14.59375 -6.6875 L 3.671875 -6.6875 C 3.742188 -5.125 4.1875 -3.90625 5 -3.03125 C 5.8125 -2.15625 6.847656 -1.71875 8.109375 -1.71875 C 9.066406 -1.71875 9.859375 -1.972656 10.484375 -2.484375 C 11.117188 -2.992188 11.601562 -3.738281 11.9375 -4.71875 L 14.515625 -4.40625 C 14.117188 -2.9375 13.367188 -1.78125 12.265625 -0.9375 C 11.160156 -0.101562 9.8125 0.3125 8.21875 0.3125 C 5.976562 0.3125 4.226562 -0.34375 2.96875 -1.65625 C 1.71875 -2.976562 1.09375 -4.828125 1.09375 -7.203125 C 1.09375 -8.785156 1.375 -10.160156 1.9375 -11.328125 C 2.507812 -12.492188 3.304688 -13.390625 4.328125 -14.015625 C 5.359375 -14.648438 6.5625 -14.96875 7.9375 -14.96875 Z M 3.8125 -8.75 L 11.96875 -8.75 C 11.914062 -10.144531 11.488281 -11.191406 10.6875 -11.890625 C 9.882812 -12.585938 8.96875 -12.9375 7.9375 -12.9375 C 6.769531 -12.9375 5.8125 -12.539062 5.0625 -11.75 C 4.320312 -10.957031 3.90625 -9.957031 3.8125 -8.75 Z M 3.8125 -8.75 "/></g></g></g><g fill="#000000" fill-opacity="1"><g transform="translate(635.204395, 557.244714)"><g/></g></g><g fill="#000000" fill-opacity="1"><g transform="translate(643.053512, 557.244714)"><g><path d="M 4.796875 -2.375 L 14.765625 -2.375 L 14.765625 0 L 2.125 0 L 2.125 -20.21875 L 4.796875 -20.21875 Z M 4.796875 -2.375 "/></g></g></g><g fill="#000000" fill-opacity="1"><g transform="translate(658.751719, 557.244714)"><g><path d="M 7.9375 -14.96875 C 9.34375 -14.96875 10.550781 -14.628906 11.5625 -13.953125 C 12.570312 -13.285156 13.328125 -12.390625 13.828125 -11.265625 C 14.335938 -10.140625 14.59375 -8.878906 14.59375 -7.484375 L 14.59375 -6.6875 L 3.671875 -6.6875 C 3.742188 -5.125 4.1875 -3.90625 5 -3.03125 C 5.8125 -2.15625 6.847656 -1.71875 8.109375 -1.71875 C 9.066406 -1.71875 9.859375 -1.972656 10.484375 -2.484375 C 11.117188 -2.992188 11.601562 -3.738281 11.9375 -4.71875 L 14.515625 -4.40625 C 14.117188 -2.9375 13.367188 -1.78125 12.265625 -0.9375 C 11.160156 -0.101562 9.8125 0.3125 8.21875 0.3125 C 5.976562 0.3125 4.226562 -0.34375 2.96875 -1.65625 C 1.71875 -2.976562 1.09375 -4.828125 1.09375 -7.203125 C 1.09375 -8.785156 1.375 -10.160156 1.9375 -11.328125 C 2.507812 -12.492188 3.304688 -13.390625 4.328125 -14.015625 C 5.359375 -14.648438 6.5625 -14.96875 7.9375 -14.96875 Z M 3.8125 -8.75 L 11.96875 -8.75 C 11.914062 -10.144531 11.488281 -11.191406 10.6875 -11.890625 C 9.882812 -12.585938 8.96875 -12.9375 7.9375 -12.9375 C 6.769531 -12.9375 5.8125 -12.539062 5.0625 -11.75 C 4.320312 -10.957031 3.90625 -9.957031 3.8125 -8.75 Z M 3.8125 -8.75 "/></g></g></g><g fill="#000000" fill-opacity="1"><g transform="translate(674.449926, 557.244714)"><g><path d="M 7.34375 -14.96875 C 9.03125 -14.96875 10.441406 -14.269531 11.578125 -12.875 L 11.578125 -14.625 L 13.859375 -14.625 L 13.859375 -1.75 C 13.859375 0.394531 13.585938 1.984375 13.046875 3.015625 C 12.578125 3.898438 11.863281 4.601562 10.90625 5.125 C 9.957031 5.65625 8.738281 5.921875 7.25 5.921875 C 6.007812 5.921875 4.953125 5.722656 4.078125 5.328125 C 3.203125 4.941406 2.539062 4.421875 2.09375 3.765625 C 1.65625 3.117188 1.4375 2.410156 1.4375 1.640625 L 1.46875 1.21875 L 3.875 1.578125 L 3.875 1.640625 C 4 2.410156 4.335938 2.976562 4.890625 3.34375 C 5.453125 3.707031 6.28125 3.890625 7.375 3.890625 C 8.101562 3.890625 8.742188 3.765625 9.296875 3.515625 C 9.859375 3.273438 10.296875 2.941406 10.609375 2.515625 C 10.898438 2.117188 11.09375 1.648438 11.1875 1.109375 C 11.289062 0.578125 11.34375 -0.0703125 11.34375 -0.84375 L 11.34375 -1.921875 C 10.238281 -0.640625 8.90625 0 7.34375 0 C 6.082031 0 4.96875 -0.3125 4 -0.9375 C 3.039062 -1.570312 2.289062 -2.453125 1.75 -3.578125 C 1.21875 -4.710938 0.953125 -5.992188 0.953125 -7.421875 C 0.953125 -8.929688 1.21875 -10.253906 1.75 -11.390625 C 2.28125 -12.523438 3.03125 -13.40625 4 -14.03125 C 4.96875 -14.65625 6.082031 -14.96875 7.34375 -14.96875 Z M 3.5 -7.59375 C 3.5 -5.789062 3.863281 -4.410156 4.59375 -3.453125 C 5.332031 -2.503906 6.332031 -2.03125 7.59375 -2.03125 C 8.125 -2.03125 8.734375 -2.203125 9.421875 -2.546875 C 10.109375 -2.898438 10.65625 -3.546875 11.0625 -4.484375 C 11.382812 -5.242188 11.546875 -6.222656 11.546875 -7.421875 C 11.546875 -9.171875 11.171875 -10.523438 10.421875 -11.484375 C 9.671875 -12.453125 8.679688 -12.9375 7.453125 -12.9375 C 6.304688 -12.9375 5.359375 -12.457031 4.609375 -11.5 C 3.867188 -10.550781 3.5 -9.25 3.5 -7.59375 Z M 3.5 -7.59375 "/></g></g></g><g fill="#000000" fill-opacity="1"><g transform="translate(690.148134, 557.244714)"><g/></g></g><g fill="#000000" fill-opacity="1"><g transform="translate(697.997251, 557.244714)"><g><path d="M 18.890625 0 L 15.84375 0 L 13.46875 -6.15625 L 5.03125 -6.15625 L 2.828125 0 L -0.03125 0 L 7.734375 -20.21875 L 10.609375 -20.21875 Z M 8.015625 -14.234375 L 5.8125 -8.296875 L 12.65625 -8.296875 L 10.171875 -14.96875 C 9.867188 -15.757812 9.519531 -16.800781 9.125 -18.09375 C 9.125 -18 9.007812 -17.523438 8.78125 -16.671875 C 8.550781 -15.816406 8.296875 -15.003906 8.015625 -14.234375 Z M 8.015625 -14.234375 "/></g></g></g><g fill="#000000" fill-opacity="1"><g transform="translate(716.829477, 557.244714)"><g><path d="M 14.796875 -19.171875 C 16.171875 -18.378906 17.207031 -17.210938 17.90625 -15.671875 C 18.613281 -14.128906 18.96875 -12.320312 18.96875 -10.25 C 18.96875 -8.539062 18.710938 -6.941406 18.203125 -5.453125 C 17.703125 -3.960938 16.929688 -2.785156 15.890625 -1.921875 C 15.117188 -1.273438 14.265625 -0.789062 13.328125 -0.46875 C 12.390625 -0.15625 11.210938 0 9.796875 0 L 2.265625 0 L 2.265625 -20.21875 L 9.59375 -20.21875 C 10.78125 -20.21875 11.765625 -20.144531 12.546875 -20 C 13.328125 -19.863281 14.078125 -19.585938 14.796875 -19.171875 Z M 16.203125 -10.28125 C 16.203125 -12.332031 15.878906 -13.914062 15.234375 -15.03125 C 14.597656 -16.15625 13.835938 -16.90625 12.953125 -17.28125 C 12.066406 -17.65625 10.957031 -17.84375 9.625 -17.84375 L 4.9375 -17.84375 L 4.9375 -2.375 L 9.375 -2.375 C 10.6875 -2.375 11.789062 -2.523438 12.6875 -2.828125 C 13.582031 -3.140625 14.390625 -3.878906 15.109375 -5.046875 C 15.835938 -6.210938 16.203125 -7.957031 16.203125 -10.28125 Z M 16.203125 -10.28125 "/></g></g></g><g fill="#000000" fill-opacity="1"><g transform="translate(737.214563, 557.244714)"><g/></g></g><g fill="#000000" fill-opacity="1"><g transform="translate(745.063681, 557.244714)"><g><path d="M 14.90625 -11.859375 L 1.546875 -11.859375 L 1.546875 -14.234375 L 14.90625 -14.234375 Z M 14.90625 -5.765625 L 1.546875 -5.765625 L 1.546875 -8.046875 L 14.90625 -8.046875 Z M 14.90625 -5.765625 "/></g></g></g><g fill="#000000" fill-opacity="1"><g transform="translate(761.552468, 557.244714)"><g/></g></g><g fill="#000000" fill-opacity="1"><g transform="translate(769.401585, 557.244714)"><g><path d="M 4.796875 -2.375 L 14.765625 -2.375 L 14.765625 0 L 2.125 0 L 2.125 -20.21875 L 4.796875 -20.21875 Z M 4.796875 -2.375 "/></g></g></g><g fill="#000000" fill-opacity="1"><g transform="translate(785.099792, 557.244714)"><g><path d="M 7.9375 -14.96875 C 9.34375 -14.96875 10.550781 -14.628906 11.5625 -13.953125 C 12.570312 -13.285156 13.328125 -12.390625 13.828125 -11.265625 C 14.335938 -10.140625 14.59375 -8.878906 14.59375 -7.484375 L 14.59375 -6.6875 L 3.671875 -6.6875 C 3.742188 -5.125 4.1875 -3.90625 5 -3.03125 C 5.8125 -2.15625 6.847656 -1.71875 8.109375 -1.71875 C 9.066406 -1.71875 9.859375 -1.972656 10.484375 -2.484375 C 11.117188 -2.992188 11.601562 -3.738281 11.9375 -4.71875 L 14.515625 -4.40625 C 14.117188 -2.9375 13.367188 -1.78125 12.265625 -0.9375 C 11.160156 -0.101562 9.8125 0.3125 8.21875 0.3125 C 5.976562 0.3125 4.226562 -0.34375 2.96875 -1.65625 C 1.71875 -2.976562 1.09375 -4.828125 1.09375 -7.203125 C 1.09375 -8.785156 1.375 -10.160156 1.9375 -11.328125 C 2.507812 -12.492188 3.304688 -13.390625 4.328125 -14.015625 C 5.359375 -14.648438 6.5625 -14.96875 7.9375 -14.96875 Z M 3.8125 -8.75 L 11.96875 -8.75 C 11.914062 -10.144531 11.488281 -11.191406 10.6875 -11.890625 C 9.882812 -12.585938 8.96875 -12.9375 7.9375 -12.9375 C 6.769531 -12.9375 5.8125 -12.539062 5.0625 -11.75 C 4.320312 -10.957031 3.90625 -9.957031 3.8125 -8.75 Z M 3.8125 -8.75 "/></g></g></g><g fill="#000000" fill-opacity="1"><g transform="translate(800.798026, 557.244714)"><g><path d="M 7.34375 -14.96875 C 9.03125 -14.96875 10.441406 -14.269531 11.578125 -12.875 L 11.578125 -14.625 L 13.859375 -14.625 L 13.859375 -1.75 C 13.859375 0.394531 13.585938 1.984375 13.046875 3.015625 C 12.578125 3.898438 11.863281 4.601562 10.90625 5.125 C 9.957031 5.65625 8.738281 5.921875 7.25 5.921875 C 6.007812 5.921875 4.953125 5.722656 4.078125 5.328125 C 3.203125 4.941406 2.539062 4.421875 2.09375 3.765625 C 1.65625 3.117188 1.4375 2.410156 1.4375 1.640625 L 1.46875 1.21875 L 3.875 1.578125 L 3.875 1.640625 C 4 2.410156 4.335938 2.976562 4.890625 3.34375 C 5.453125 3.707031 6.28125 3.890625 7.375 3.890625 C 8.101562 3.890625 8.742188 3.765625 9.296875 3.515625 C 9.859375 3.273438 10.296875 2.941406 10.609375 2.515625 C 10.898438 2.117188 11.09375 1.648438 11.1875 1.109375 C 11.289062 0.578125 11.34375 -0.0703125 11.34375 -0.84375 L 11.34375 -1.921875 C 10.238281 -0.640625 8.90625 0 7.34375 0 C 6.082031 0 4.96875 -0.3125 4 -0.9375 C 3.039062 -1.570312 2.289062 -2.453125 1.75 -3.578125 C 1.21875 -4.710938 0.953125 -5.992188 0.953125 -7.421875 C 0.953125 -8.929688 1.21875 -10.253906 1.75 -11.390625 C 2.28125 -12.523438 3.03125 -13.40625 4 -14.03125 C 4.96875 -14.65625 6.082031 -14.96875 7.34375 -14.96875 Z M 3.5 -7.59375 C 3.5 -5.789062 3.863281 -4.410156 4.59375 -3.453125 C 5.332031 -2.503906 6.332031 -2.03125 7.59375 -2.03125 C 8.125 -2.03125 8.734375 -2.203125 9.421875 -2.546875 C 10.109375 -2.898438 10.65625 -3.546875 11.0625 -4.484375 C 11.382812 -5.242188 11.546875 -6.222656 11.546875 -7.421875 C 11.546875 -9.171875 11.171875 -10.523438 10.421875 -11.484375 C 9.671875 -12.453125 8.679688 -12.9375 7.453125 -12.9375 C 6.304688 -12.9375 5.359375 -12.457031 4.609375 -11.5 C 3.867188 -10.550781 3.5 -9.25 3.5 -7.59375 Z M 3.5 -7.59375 "/></g></g></g><g fill="#000000" fill-opacity="1"><g transform="translate(816.496206, 557.244714)"><g/></g></g><g fill="#000000" fill-opacity="1"><g transform="translate(824.345296, 557.244714)"><g><path d="M 18.890625 0 L 15.84375 0 L 13.46875 -6.15625 L 5.03125 -6.15625 L 2.828125 0 L -0.03125 0 L 7.734375 -20.21875 L 10.609375 -20.21875 Z M 8.015625 -14.234375 L 5.8125 -8.296875 L 12.65625 -8.296875 L 10.171875 -14.96875 C 9.867188 -15.757812 9.519531 -16.800781 9.125 -18.09375 C 9.125 -18 9.007812 -17.523438 8.78125 -16.671875 C 8.550781 -15.816406 8.296875 -15.003906 8.015625 -14.234375 Z M 8.015625 -14.234375 "/></g></g></g><g fill="#000000" fill-opacity="1"><g transform="translate(843.177523, 557.244714)"><g><path d="M 14.40625 -19 C 15.15625 -18.4375 15.675781 -17.800781 15.96875 -17.09375 C 16.257812 -16.382812 16.40625 -15.757812 16.40625 -15.21875 C 16.40625 -13.1875 15.453125 -11.695312 13.546875 -10.75 C 14.847656 -10.363281 15.804688 -9.734375 16.421875 -8.859375 C 17.035156 -7.992188 17.34375 -6.960938 17.34375 -5.765625 C 17.34375 -4.835938 17.101562 -3.898438 16.625 -2.953125 C 16.15625 -2.003906 15.335938 -1.253906 14.171875 -0.703125 C 13.171875 -0.234375 11.785156 0 10.015625 0 L 2.09375 0 L 2.09375 -20.21875 L 9.859375 -20.21875 C 10.984375 -20.21875 11.882812 -20.117188 12.5625 -19.921875 C 13.238281 -19.722656 13.851562 -19.414062 14.40625 -19 Z M 13.75 -14.734375 C 13.75 -15.960938 13.359375 -16.785156 12.578125 -17.203125 C 11.796875 -17.628906 10.625 -17.84375 9.0625 -17.84375 L 4.765625 -17.84375 L 4.765625 -11.71875 L 9.3125 -11.71875 C 10.84375 -11.71875 11.960938 -11.957031 12.671875 -12.4375 C 13.390625 -12.914062 13.75 -13.679688 13.75 -14.734375 Z M 12.796875 -2.859375 C 13.429688 -3.171875 13.882812 -3.597656 14.15625 -4.140625 C 14.425781 -4.691406 14.5625 -5.257812 14.5625 -5.84375 C 14.5625 -6.632812 14.363281 -7.300781 13.96875 -7.84375 C 13.582031 -8.394531 13.019531 -8.789062 12.28125 -9.03125 C 11.675781 -9.238281 10.800781 -9.34375 9.65625 -9.34375 L 4.765625 -9.34375 L 4.765625 -2.375 L 10.171875 -2.375 C 10.785156 -2.375 11.289062 -2.410156 11.6875 -2.484375 C 12.082031 -2.554688 12.453125 -2.679688 12.796875 -2.859375 Z M 12.796875 -2.859375 "/></g></g></g><g fill="#000000" fill-opacity="1"><g transform="translate(862.009749, 557.244714)"><g/></g></g><g fill="#000000" fill-opacity="1"><g transform="translate(869.858839, 557.244714)"><g><path d="M 9.40625 -16.625 L 9.40625 -11.15625 L 14.90625 -11.15625 L 14.90625 -8.78125 L 9.40625 -8.78125 L 9.40625 -3.28125 L 7.0625 -3.28125 L 7.0625 -8.78125 L 1.546875 -8.78125 L 1.546875 -11.15625 L 7.0625 -11.15625 L 7.0625 -16.625 Z M 9.40625 -16.625 "/></g></g></g><g fill="#000000" fill-opacity="1"><g transform="translate(886.347626, 557.244714)"><g/></g></g><g fill="#000000" fill-opacity="1"><g transform="translate(894.19677, 557.244714)"><g><path d="M 4.796875 -2.375 L 14.765625 -2.375 L 14.765625 0 L 2.125 0 L 2.125 -20.21875 L 4.796875 -20.21875 Z M 4.796875 -2.375 "/></g></g></g><g fill="#000000" fill-opacity="1"><g transform="translate(909.894951, 557.244714)"><g><path d="M 7.9375 -14.96875 C 9.34375 -14.96875 10.550781 -14.628906 11.5625 -13.953125 C 12.570312 -13.285156 13.328125 -12.390625 13.828125 -11.265625 C 14.335938 -10.140625 14.59375 -8.878906 14.59375 -7.484375 L 14.59375 -6.6875 L 3.671875 -6.6875 C 3.742188 -5.125 4.1875 -3.90625 5 -3.03125 C 5.8125 -2.15625 6.847656 -1.71875 8.109375 -1.71875 C 9.066406 -1.71875 9.859375 -1.972656 10.484375 -2.484375 C 11.117188 -2.992188 11.601562 -3.738281 11.9375 -4.71875 L 14.515625 -4.40625 C 14.117188 -2.9375 13.367188 -1.78125 12.265625 -0.9375 C 11.160156 -0.101562 9.8125 0.3125 8.21875 0.3125 C 5.976562 0.3125 4.226562 -0.34375 2.96875 -1.65625 C 1.71875 -2.976562 1.09375 -4.828125 1.09375 -7.203125 C 1.09375 -8.785156 1.375 -10.160156 1.9375 -11.328125 C 2.507812 -12.492188 3.304688 -13.390625 4.328125 -14.015625 C 5.359375 -14.648438 6.5625 -14.96875 7.9375 -14.96875 Z M 3.8125 -8.75 L 11.96875 -8.75 C 11.914062 -10.144531 11.488281 -11.191406 10.6875 -11.890625 C 9.882812 -12.585938 8.96875 -12.9375 7.9375 -12.9375 C 6.769531 -12.9375 5.8125 -12.539062 5.0625 -11.75 C 4.320312 -10.957031 3.90625 -9.957031 3.8125 -8.75 Z M 3.8125 -8.75 "/></g></g></g><g fill="#000000" fill-opacity="1"><g transform="translate(925.593131, 557.244714)"><g><path d="M 7.34375 -14.96875 C 9.03125 -14.96875 10.441406 -14.269531 11.578125 -12.875 L 11.578125 -14.625 L 13.859375 -14.625 L 13.859375 -1.75 C 13.859375 0.394531 13.585938 1.984375 13.046875 3.015625 C 12.578125 3.898438 11.863281 4.601562 10.90625 5.125 C 9.957031 5.65625 8.738281 5.921875 7.25 5.921875 C 6.007812 5.921875 4.953125 5.722656 4.078125 5.328125 C 3.203125 4.941406 2.539062 4.421875 2.09375 3.765625 C 1.65625 3.117188 1.4375 2.410156 1.4375 1.640625 L 1.46875 1.21875 L 3.875 1.578125 L 3.875 1.640625 C 4 2.410156 4.335938 2.976562 4.890625 3.34375 C 5.453125 3.707031 6.28125 3.890625 7.375 3.890625 C 8.101562 3.890625 8.742188 3.765625 9.296875 3.515625 C 9.859375 3.273438 10.296875 2.941406 10.609375 2.515625 C 10.898438 2.117188 11.09375 1.648438 11.1875 1.109375 C 11.289062 0.578125 11.34375 -0.0703125 11.34375 -0.84375 L 11.34375 -1.921875 C 10.238281 -0.640625 8.90625 0 7.34375 0 C 6.082031 0 4.96875 -0.3125 4 -0.9375 C 3.039062 -1.570312 2.289062 -2.453125 1.75 -3.578125 C 1.21875 -4.710938 0.953125 -5.992188 0.953125 -7.421875 C 0.953125 -8.929688 1.21875 -10.253906 1.75 -11.390625 C 2.28125 -12.523438 3.03125 -13.40625 4 -14.03125 C 4.96875 -14.65625 6.082031 -14.96875 7.34375 -14.96875 Z M 3.5 -7.59375 C 3.5 -5.789062 3.863281 -4.410156 4.59375 -3.453125 C 5.332031 -2.503906 6.332031 -2.03125 7.59375 -2.03125 C 8.125 -2.03125 8.734375 -2.203125 9.421875 -2.546875 C 10.109375 -2.898438 10.65625 -3.546875 11.0625 -4.484375 C 11.382812 -5.242188 11.546875 -6.222656 11.546875 -7.421875 C 11.546875 -9.171875 11.171875 -10.523438 10.421875 -11.484375 C 9.671875 -12.453125 8.679688 -12.9375 7.453125 -12.9375 C 6.304688 -12.9375 5.359375 -12.457031 4.609375 -11.5 C 3.867188 -10.550781 3.5 -9.25 3.5 -7.59375 Z M 3.5 -7.59375 "/></g></g></g><g fill="#000000" fill-opacity="1"><g transform="translate(941.291311, 557.244714)"><g/></g></g><g fill="#000000" fill-opacity="1"><g transform="translate(949.140401, 557.244714)"><g><path d="M 14.40625 -19 C 15.15625 -18.4375 15.675781 -17.800781 15.96875 -17.09375 C 16.257812 -16.382812 16.40625 -15.757812 16.40625 -15.21875 C 16.40625 -13.1875 15.453125 -11.695312 13.546875 -10.75 C 14.847656 -10.363281 15.804688 -9.734375 16.421875 -8.859375 C 17.035156 -7.992188 17.34375 -6.960938 17.34375 -5.765625 C 17.34375 -4.835938 17.101562 -3.898438 16.625 -2.953125 C 16.15625 -2.003906 15.335938 -1.253906 14.171875 -0.703125 C 13.171875 -0.234375 11.785156 0 10.015625 0 L 2.09375 0 L 2.09375 -20.21875 L 9.859375 -20.21875 C 10.984375 -20.21875 11.882812 -20.117188 12.5625 -19.921875 C 13.238281 -19.722656 13.851562 -19.414062 14.40625 -19 Z M 13.75 -14.734375 C 13.75 -15.960938 13.359375 -16.785156 12.578125 -17.203125 C 11.796875 -17.628906 10.625 -17.84375 9.0625 -17.84375 L 4.765625 -17.84375 L 4.765625 -11.71875 L 9.3125 -11.71875 C 10.84375 -11.71875 11.960938 -11.957031 12.671875 -12.4375 C 13.390625 -12.914062 13.75 -13.679688 13.75 -14.734375 Z M 12.796875 -2.859375 C 13.429688 -3.171875 13.882812 -3.597656 14.15625 -4.140625 C 14.425781 -4.691406 14.5625 -5.257812 14.5625 -5.84375 C 14.5625 -6.632812 14.363281 -7.300781 13.96875 -7.84375 C 13.582031 -8.394531 13.019531 -8.789062 12.28125 -9.03125 C 11.675781 -9.238281 10.800781 -9.34375 9.65625 -9.34375 L 4.765625 -9.34375 L 4.765625 -2.375 L 10.171875 -2.375 C 10.785156 -2.375 11.289062 -2.410156 11.6875 -2.484375 C 12.082031 -2.554688 12.453125 -2.679688 12.796875 -2.859375 Z M 12.796875 -2.859375 "/></g></g></g><g fill="#000000" fill-opacity="1"><g transform="translate(967.972628, 557.244714)"><g><path d="M 10.984375 -20.5625 C 13.035156 -20.5625 14.75 -20.03125 16.125 -18.96875 C 17.5 -17.914062 18.445312 -16.476562 18.96875 -14.65625 L 16.3125 -14.03125 C 15.882812 -15.382812 15.238281 -16.425781 14.375 -17.15625 C 13.507812 -17.894531 12.359375 -18.265625 10.921875 -18.265625 C 8.816406 -18.265625 7.171875 -17.566406 5.984375 -16.171875 C 4.796875 -14.785156 4.203125 -12.8125 4.203125 -10.25 C 4.203125 -7.570312 4.78125 -5.519531 5.9375 -4.09375 C 7.101562 -2.664062 8.71875 -1.953125 10.78125 -1.953125 C 12.25 -1.953125 13.5 -2.390625 14.53125 -3.265625 C 15.570312 -4.140625 16.269531 -5.414062 16.625 -7.09375 L 19.3125 -6.40625 C 18.75 -4.28125 17.742188 -2.625 16.296875 -1.4375 C 14.847656 -0.25 13.039062 0.34375 10.875 0.34375 C 9.382812 0.34375 8.113281 0.144531 7.0625 -0.25 C 6.007812 -0.644531 5.113281 -1.226562 4.375 -2 C 3.363281 -3.070312 2.617188 -4.320312 2.140625 -5.75 C 1.671875 -7.1875 1.4375 -8.6875 1.4375 -10.25 C 1.4375 -12.34375 1.835938 -14.164062 2.640625 -15.71875 C 3.441406 -17.269531 4.5625 -18.460938 6 -19.296875 C 7.4375 -20.140625 9.097656 -20.5625 10.984375 -20.5625 Z M 10.984375 -20.5625 "/></g></g></g><g fill="#000000" fill-opacity="1"><g transform="translate(988.357741, 557.244714)"><g/></g></g><g fill="#000000" fill-opacity="1"><g transform="translate(996.206831, 557.244714)"><g><path d="M 9.40625 -16.625 L 9.40625 -11.15625 L 14.90625 -11.15625 L 14.90625 -8.78125 L 9.40625 -8.78125 L 9.40625 -3.28125 L 7.0625 -3.28125 L 7.0625 -8.78125 L 1.546875 -8.78125 L 1.546875 -11.15625 L 7.0625 -11.15625 L 7.0625 -16.625 Z M 9.40625 -16.625 "/></g></g></g><g fill="#000000" fill-opacity="1"><g transform="translate(1012.695618, 557.244714)"><g/></g></g><g fill="#000000" fill-opacity="1"><g transform="translate(1020.544762, 557.244714)"><g><path d="M 4.796875 -2.375 L 14.765625 -2.375 L 14.765625 0 L 2.125 0 L 2.125 -20.21875 L 4.796875 -20.21875 Z M 4.796875 -2.375 "/></g></g></g><g fill="#000000" fill-opacity="1"><g transform="translate(1036.242943, 557.244714)"><g><path d="M 7.9375 -14.96875 C 9.34375 -14.96875 10.550781 -14.628906 11.5625 -13.953125 C 12.570312 -13.285156 13.328125 -12.390625 13.828125 -11.265625 C 14.335938 -10.140625 14.59375 -8.878906 14.59375 -7.484375 L 14.59375 -6.6875 L 3.671875 -6.6875 C 3.742188 -5.125 4.1875 -3.90625 5 -3.03125 C 5.8125 -2.15625 6.847656 -1.71875 8.109375 -1.71875 C 9.066406 -1.71875 9.859375 -1.972656 10.484375 -2.484375 C 11.117188 -2.992188 11.601562 -3.738281 11.9375 -4.71875 L 14.515625 -4.40625 C 14.117188 -2.9375 13.367188 -1.78125 12.265625 -0.9375 C 11.160156 -0.101562 9.8125 0.3125 8.21875 0.3125 C 5.976562 0.3125 4.226562 -0.34375 2.96875 -1.65625 C 1.71875 -2.976562 1.09375 -4.828125 1.09375 -7.203125 C 1.09375 -8.785156 1.375 -10.160156 1.9375 -11.328125 C 2.507812 -12.492188 3.304688 -13.390625 4.328125 -14.015625 C 5.359375 -14.648438 6.5625 -14.96875 7.9375 -14.96875 Z M 3.8125 -8.75 L 11.96875 -8.75 C 11.914062 -10.144531 11.488281 -11.191406 10.6875 -11.890625 C 9.882812 -12.585938 8.96875 -12.9375 7.9375 -12.9375 C 6.769531 -12.9375 5.8125 -12.539062 5.0625 -11.75 C 4.320312 -10.957031 3.90625 -9.957031 3.8125 -8.75 Z M 3.8125 -8.75 "/></g></g></g><g fill="#000000" fill-opacity="1"><g transform="translate(1051.941123, 557.244714)"><g><path d="M 7.34375 -14.96875 C 9.03125 -14.96875 10.441406 -14.269531 11.578125 -12.875 L 11.578125 -14.625 L 13.859375 -14.625 L 13.859375 -1.75 C 13.859375 0.394531 13.585938 1.984375 13.046875 3.015625 C 12.578125 3.898438 11.863281 4.601562 10.90625 5.125 C 9.957031 5.65625 8.738281 5.921875 7.25 5.921875 C 6.007812 5.921875 4.953125 5.722656 4.078125 5.328125 C 3.203125 4.941406 2.539062 4.421875 2.09375 3.765625 C 1.65625 3.117188 1.4375 2.410156 1.4375 1.640625 L 1.46875 1.21875 L 3.875 1.578125 L 3.875 1.640625 C 4 2.410156 4.335938 2.976562 4.890625 3.34375 C 5.453125 3.707031 6.28125 3.890625 7.375 3.890625 C 8.101562 3.890625 8.742188 3.765625 9.296875 3.515625 C 9.859375 3.273438 10.296875 2.941406 10.609375 2.515625 C 10.898438 2.117188 11.09375 1.648438 11.1875 1.109375 C 11.289062 0.578125 11.34375 -0.0703125 11.34375 -0.84375 L 11.34375 -1.921875 C 10.238281 -0.640625 8.90625 0 7.34375 0 C 6.082031 0 4.96875 -0.3125 4 -0.9375 C 3.039062 -1.570312 2.289062 -2.453125 1.75 -3.578125 C 1.21875 -4.710938 0.953125 -5.992188 0.953125 -7.421875 C 0.953125 -8.929688 1.21875 -10.253906 1.75 -11.390625 C 2.28125 -12.523438 3.03125 -13.40625 4 -14.03125 C 4.96875 -14.65625 6.082031 -14.96875 7.34375 -14.96875 Z M 3.5 -7.59375 C 3.5 -5.789062 3.863281 -4.410156 4.59375 -3.453125 C 5.332031 -2.503906 6.332031 -2.03125 7.59375 -2.03125 C 8.125 -2.03125 8.734375 -2.203125 9.421875 -2.546875 C 10.109375 -2.898438 10.65625 -3.546875 11.0625 -4.484375 C 11.382812 -5.242188 11.546875 -6.222656 11.546875 -7.421875 C 11.546875 -9.171875 11.171875 -10.523438 10.421875 -11.484375 C 9.671875 -12.453125 8.679688 -12.9375 7.453125 -12.9375 C 6.304688 -12.9375 5.359375 -12.457031 4.609375 -11.5 C 3.867188 -10.550781 3.5 -9.25 3.5 -7.59375 Z M 3.5 -7.59375 "/></g></g></g><g fill="#000000" fill-opacity="1"><g transform="translate(1067.639303, 557.244714)"><g/></g></g><g fill="#000000" fill-opacity="1"><g transform="translate(1075.488393, 557.244714)"><g><path d="M 10.984375 -20.5625 C 13.035156 -20.5625 14.75 -20.03125 16.125 -18.96875 C 17.5 -17.914062 18.445312 -16.476562 18.96875 -14.65625 L 16.3125 -14.03125 C 15.882812 -15.382812 15.238281 -16.425781 14.375 -17.15625 C 13.507812 -17.894531 12.359375 -18.265625 10.921875 -18.265625 C 8.816406 -18.265625 7.171875 -17.566406 5.984375 -16.171875 C 4.796875 -14.785156 4.203125 -12.8125 4.203125 -10.25 C 4.203125 -7.570312 4.78125 -5.519531 5.9375 -4.09375 C 7.101562 -2.664062 8.71875 -1.953125 10.78125 -1.953125 C 12.25 -1.953125 13.5 -2.390625 14.53125 -3.265625 C 15.570312 -4.140625 16.269531 -5.414062 16.625 -7.09375 L 19.3125 -6.40625 C 18.75 -4.28125 17.742188 -2.625 16.296875 -1.4375 C 14.847656 -0.25 13.039062 0.34375 10.875 0.34375 C 9.382812 0.34375 8.113281 0.144531 7.0625 -0.25 C 6.007812 -0.644531 5.113281 -1.226562 4.375 -2 C 3.363281 -3.070312 2.617188 -4.320312 2.140625 -5.75 C 1.671875 -7.1875 1.4375 -8.6875 1.4375 -10.25 C 1.4375 -12.34375 1.835938 -14.164062 2.640625 -15.71875 C 3.441406 -17.269531 4.5625 -18.460938 6 -19.296875 C 7.4375 -20.140625 9.097656 -20.5625 10.984375 -20.5625 Z M 10.984375 -20.5625 "/></g></g></g><g fill="#000000" fill-opacity="1"><g transform="translate(1095.873453, 557.244714)"><g><path d="M 14.796875 -19.171875 C 16.171875 -18.378906 17.207031 -17.210938 17.90625 -15.671875 C 18.613281 -14.128906 18.96875 -12.320312 18.96875 -10.25 C 18.96875 -8.539062 18.710938 -6.941406 18.203125 -5.453125 C 17.703125 -3.960938 16.929688 -2.785156 15.890625 -1.921875 C 15.117188 -1.273438 14.265625 -0.789062 13.328125 -0.46875 C 12.390625 -0.15625 11.210938 0 9.796875 0 L 2.265625 0 L 2.265625 -20.21875 L 9.59375 -20.21875 C 10.78125 -20.21875 11.765625 -20.144531 12.546875 -20 C 13.328125 -19.863281 14.078125 -19.585938 14.796875 -19.171875 Z M 16.203125 -10.28125 C 16.203125 -12.332031 15.878906 -13.914062 15.234375 -15.03125 C 14.597656 -16.15625 13.835938 -16.90625 12.953125 -17.28125 C 12.066406 -17.65625 10.957031 -17.84375 9.625 -17.84375 L 4.9375 -17.84375 L 4.9375 -2.375 L 9.375 -2.375 C 10.6875 -2.375 11.789062 -2.523438 12.6875 -2.828125 C 13.582031 -3.140625 14.390625 -3.878906 15.109375 -5.046875 C 15.835938 -6.210938 16.203125 -7.957031 16.203125 -10.28125 Z M 16.203125 -10.28125 "/></g></g></g><g fill="#000000" fill-opacity="1"><g transform="translate(501.488957, 677.948484)"><g><path d="M 14.40625 -19 C 15.15625 -18.4375 15.675781 -17.800781 15.96875 -17.09375 C 16.257812 -16.382812 16.40625 -15.757812 16.40625 -15.21875 C 16.40625 -13.1875 15.453125 -11.695312 13.546875 -10.75 C 14.847656 -10.363281 15.804688 -9.734375 16.421875 -8.859375 C 17.035156 -7.992188 17.34375 -6.960938 17.34375 -5.765625 C 17.34375 -4.835938 17.101562 -3.898438 16.625 -2.953125 C 16.15625 -2.003906 15.335938 -1.253906 14.171875 -0.703125 C 13.171875 -0.234375 11.785156 0 10.015625 0 L 2.09375 0 L 2.09375 -20.21875 L 9.859375 -20.21875 C 10.984375 -20.21875 11.882812 -20.117188 12.5625 -19.921875 C 13.238281 -19.722656 13.851562 -19.414062 14.40625 -19 Z M 13.75 -14.734375 C 13.75 -15.960938 13.359375 -16.785156 12.578125 -17.203125 C 11.796875 -17.628906 10.625 -17.84375 9.0625 -17.84375 L 4.765625 -17.84375 L 4.765625 -11.71875 L 9.3125 -11.71875 C 10.84375 -11.71875 11.960938 -11.957031 12.671875 -12.4375 C 13.390625 -12.914062 13.75 -13.679688 13.75 -14.734375 Z M 12.796875 -2.859375 C 13.429688 -3.171875 13.882812 -3.597656 14.15625 -4.140625 C 14.425781 -4.691406 14.5625 -5.257812 14.5625 -5.84375 C 14.5625 -6.632812 14.363281 -7.300781 13.96875 -7.84375 C 13.582031 -8.394531 13.019531 -8.789062 12.28125 -9.03125 C 11.675781 -9.238281 10.800781 -9.34375 9.65625 -9.34375 L 4.765625 -9.34375 L 4.765625 -2.375 L 10.171875 -2.375 C 10.785156 -2.375 11.289062 -2.410156 11.6875 -2.484375 C 12.082031 -2.554688 12.453125 -2.679688 12.796875 -2.859375 Z M 12.796875 -2.859375 "/></g></g></g><g fill="#000000" fill-opacity="1"><g transform="translate(921.899264, 677.948484)"><g><path d="M 10.984375 -20.5625 C 13.035156 -20.5625 14.75 -20.03125 16.125 -18.96875 C 17.5 -17.914062 18.445312 -16.476562 18.96875 -14.65625 L 16.3125 -14.03125 C 15.882812 -15.382812 15.238281 -16.425781 14.375 -17.15625 C 13.507812 -17.894531 12.359375 -18.265625 10.921875 -18.265625 C 8.816406 -18.265625 7.171875 -17.566406 5.984375 -16.171875 C 4.796875 -14.785156 4.203125 -12.8125 4.203125 -10.25 C 4.203125 -7.570312 4.78125 -5.519531 5.9375 -4.09375 C 7.101562 -2.664062 8.71875 -1.953125 10.78125 -1.953125 C 12.25 -1.953125 13.5 -2.390625 14.53125 -3.265625 C 15.570312 -4.140625 16.269531 -5.414062 16.625 -7.09375 L 19.3125 -6.40625 C 18.75 -4.28125 17.742188 -2.625 16.296875 -1.4375 C 14.847656 -0.25 13.039062 0.34375 10.875 0.34375 C 9.382812 0.34375 8.113281 0.144531 7.0625 -0.25 C 6.007812 -0.644531 5.113281 -1.226562 4.375 -2 C 3.363281 -3.070312 2.617188 -4.320312 2.140625 -5.75 C 1.671875 -7.1875 1.4375 -8.6875 1.4375 -10.25 C 1.4375 -12.34375 1.835938 -14.164062 2.640625 -15.71875 C 3.441406 -17.269531 4.5625 -18.460938 6 -19.296875 C 7.4375 -20.140625 9.097656 -20.5625 10.984375 -20.5625 Z M 10.984375 -20.5625 "/></g></g></g><g fill="#000000" fill-opacity="1"><g transform="translate(1338.610259, 677.948484)"><g><path d="M 14.796875 -19.171875 C 16.171875 -18.378906 17.207031 -17.210938 17.90625 -15.671875 C 18.613281 -14.128906 18.96875 -12.320312 18.96875 -10.25 C 18.96875 -8.539062 18.710938 -6.941406 18.203125 -5.453125 C 17.703125 -3.960938 16.929688 -2.785156 15.890625 -1.921875 C 15.117188 -1.273438 14.265625 -0.789062 13.328125 -0.46875 C 12.390625 -0.15625 11.210938 0 9.796875 0 L 2.265625 0 L 2.265625 -20.21875 L 9.59375 -20.21875 C 10.78125 -20.21875 11.765625 -20.144531 12.546875 -20 C 13.328125 -19.863281 14.078125 -19.585938 14.796875 -19.171875 Z M 16.203125 -10.28125 C 16.203125 -12.332031 15.878906 -13.914062 15.234375 -15.03125 C 14.597656 -16.15625 13.835938 -16.90625 12.953125 -17.28125 C 12.066406 -17.65625 10.957031 -17.84375 9.625 -17.84375 L 4.9375 -17.84375 L 4.9375 -2.375 L 9.375 -2.375 C 10.6875 -2.375 11.789062 -2.523438 12.6875 -2.828125 C 13.582031 -3.140625 14.390625 -3.878906 15.109375 -5.046875 C 15.835938 -6.210938 16.203125 -7.957031 16.203125 -10.28125 Z M 16.203125 -10.28125 "/></g></g></g><path stroke-linecap="butt" transform="matrix(0, 0.75, -0.75, 0, 723.370506, 248.849304)" fill="none" stroke-linejoin="miter" d="M -0.00219737 4.499216 L 267.575941 4.499216 " stroke="#000000" stroke-width="9" stroke-opacity="1" stroke-miterlimit="4"/><path stroke-linecap="round" transform="matrix(0, 0.75, -0.75, 0, 723.370506, 248.849304)" fill="none" stroke-linejoin="round" d="M 249.57594 -9.000784 L 267.575941 4.499216 L 249.57594 17.999217 " stroke="#000000" stroke-width="9" stroke-opacity="1" stroke-miterlimit="4"/></svg>