<svg xmlns="http://www.w3.org/2000/svg" xmlns:xlink="http://www.w3.org/1999/xlink" width="1920" zoomAndPan="magnify" viewBox="0 0 1440 809.999993" height="1080" preserveAspectRatio="xMidYMid meet" version="1.0"><defs><g/></defs><path stroke-linecap="butt" transform="matrix(1.77868, 0, 0, 1.77868, 70.827864, 116.51855)" fill="none" stroke-linejoin="miter" d="M 14.99986 1.999049 L 237.096644 1.999049 " stroke="#000000" stroke-width="4" stroke-opacity="1" stroke-miterlimit="4"/><path stroke-linecap="round" transform="matrix(1.77868, 0, 0, 1.77868, 70.827864, 116.51855)" fill="none" stroke-linejoin="round" d="M 2.00084 1.999049 C 2.00084 -1.312747 4.686734 -4.000836 8.000726 -4.000836 C 11.314718 -4.000836 14.000611 -1.312747 14.000611 1.999049 C 14.000611 5.313042 11.314718 7.998935 8.000726 7.998935 C 4.686734 7.998935 2.00084 5.313042 2.00084 1.999049 " stroke="#000000" stroke-width="4" stroke-opacity="1" stroke-miterlimit="4"/><path stroke-linecap="round" transform="matrix(1.77868, 0, 0, 1.77868, 70.827864, 116.51855)" fill="none" stroke-linejoin="round" d="M 250.095664 1.999049 C 250.095664 5.313042 247.40977 7.998935 244.095778 7.998935 C 240.781786 7.998935 238.095893 5.313042 238.095893 1.999049 C 238.095893 -1.312747 240.781786 -4.000836 244.095778 -4.000836 C 247.40977 -4.000836 250.095664 -1.312747 250.095664 1.999049 " stroke="#000000" stroke-width="4" stroke-opacity="1" stroke-miterlimit="4"/><path stroke-linecap="butt" transform="matrix(1.77868, 0, 0, 1.77868, 489.954966, 116.51855)" fill="none" stroke-linejoin="miter" d="M 15.000875 1.999049 L 237.095462 1.999049 " stroke="#000000" stroke-width="4" stroke-opacity="1" stroke-miterlimit="4"/><path stroke-linecap="round" transform="matrix(1.77868, 0, 0, 1.77868, 489.954966, 116.51855)" fill="none" stroke-linejoin="round" d="M 1.999659 1.999049 C 1.999659 -1.312747 4.685552 -4.000836 7.999544 -4.000836 C 11.313537 -4.000836 13.99943 -1.312747 13.99943 1.999049 C 13.99943 5.313042 11.313537 7.998935 7.999544 7.998935 C 4.685552 7.998935 1.999659 5.313042 1.999659 1.999049 " stroke="#000000" stroke-width="4" stroke-opacity="1" stroke-miterlimit="4"/><path stroke-linecap="round" transform="matrix(1.77868, 0, 0, 1.77868, 489.954966, 116.51855)" fill="none" stroke-linejoin="round" d="M 250.096678 1.999049 C 250.096678 5.313042 247.408589 7.998935 244.096793 7.998935 C 240.782801 7.998935 238.096907 5.313042 238.096907 1.999049 C 238.096907 -1.312747 240.782801 -4.000836 244.096793 -4.000836 C 247.408589 -4.000836 250.096678 -1.312747 250.096678 1.999049 " stroke="#000000" stroke-width="4" stroke-opacity="1" stroke-miterlimit="4"/><path stroke-linecap="butt" transform="matrix(1.77868, 0, 0, 1.77868, 910.6022, 116.51855)" fill="none" stroke-linejoin="miter" d="M 14.999355 1.999049 L 237.096139 1.999049 " stroke="#000000" stroke-width="4" stroke-opacity="1" stroke-miterlimit="4"/><path stroke-linecap="round" transform="matrix(1.77868, 0, 0, 1.77868, 910.6022, 116.51855)" fill="none" stroke-linejoin="round" d="M 2.000335 1.999049 C 2.000335 -1.312747 4.686228 -4.000836 8.000221 -4.000836 C 11.314213 -4.000836 14.000106 -1.312747 14.000106 1.999049 C 14.000106 5.313042 11.314213 7.998935 8.000221 7.998935 C 4.686228 7.998935 2.000335 5.313042 2.000335 1.999049 " stroke="#000000" stroke-width="4" stroke-opacity="1" stroke-miterlimit="4"/><path stroke-linecap="round" transform="matrix(1.77868, 0, 0, 1.77868, 910.6022, 116.51855)" fill="none" stroke-linejoin="round" d="M 250.095158 1.999049 C 250.095158 5.313042 247.409265 7.998935 244.095273 7.998935 C 240.781281 7.998935 238.095387 5.313042 238.095387 1.999049 C 238.095387 -1.312747 240.781281 -4.000836 244.095273 -4.000836 C 247.409265 -4.000836 250.095158 -1.312747 250.095158 1.999049 " stroke="#000000" stroke-width="4" stroke-opacity="1" stroke-miterlimit="4"/><g fill="#000000" fill-opacity="1"><g transform="translate(70.855656, 184.986041)"><g><path d="M 19.03125 0 L 15.96875 0 L 13.578125 -6.203125 L 5.0625 -6.203125 L 2.84375 0 L -0.03125 0 L 7.796875 -20.375 L 10.703125 -20.375 Z M 8.078125 -14.34375 L 5.859375 -8.359375 L 12.75 -8.359375 L 10.25 -15.078125 C 9.9375 -15.878906 9.582031 -16.929688 9.1875 -18.234375 C 9.1875 -18.140625 9.070312 -17.660156 8.84375 -16.796875 C 8.613281 -15.929688 8.359375 -15.113281 8.078125 -14.34375 Z M 8.078125 -14.34375 "/></g></g></g><g fill="#000000" fill-opacity="1"><g transform="translate(248.992141, 70.15888)"><g><path d="M 4.84375 -2.390625 L 14.875 -2.390625 L 14.875 0 L 2.140625 0 L 2.140625 -20.375 L 4.84375 -20.375 Z M 4.84375 -2.390625 "/></g></g></g><g fill="#000000" fill-opacity="1"><g transform="translate(264.815297, 70.15888)"><g><path d="M 8 -15.078125 C 9.414062 -15.078125 10.628906 -14.738281 11.640625 -14.0625 C 12.660156 -13.394531 13.425781 -12.488281 13.9375 -11.34375 C 14.445312 -10.207031 14.703125 -8.941406 14.703125 -7.546875 L 14.703125 -6.75 L 3.703125 -6.75 C 3.773438 -5.164062 4.21875 -3.929688 5.03125 -3.046875 C 5.851562 -2.171875 6.898438 -1.734375 8.171875 -1.734375 C 9.128906 -1.734375 9.925781 -1.988281 10.5625 -2.5 C 11.207031 -3.007812 11.695312 -3.757812 12.03125 -4.75 L 14.625 -4.4375 C 14.226562 -2.957031 13.472656 -1.796875 12.359375 -0.953125 C 11.253906 -0.109375 9.894531 0.3125 8.28125 0.3125 C 6.019531 0.3125 4.257812 -0.347656 3 -1.671875 C 1.738281 -3.003906 1.109375 -4.863281 1.109375 -7.25 C 1.109375 -8.84375 1.390625 -10.226562 1.953125 -11.40625 C 2.523438 -12.582031 3.328125 -13.488281 4.359375 -14.125 C 5.398438 -14.757812 6.613281 -15.078125 8 -15.078125 Z M 3.84375 -8.828125 L 12.0625 -8.828125 C 12.007812 -10.222656 11.578125 -11.269531 10.765625 -11.96875 C 9.960938 -12.675781 9.039062 -13.03125 8 -13.03125 C 6.820312 -13.03125 5.859375 -12.628906 5.109375 -11.828125 C 4.359375 -11.035156 3.9375 -10.035156 3.84375 -8.828125 Z M 3.84375 -8.828125 "/></g></g></g><g fill="#000000" fill-opacity="1"><g transform="translate(280.638453, 70.15888)"><g><path d="M 7.390625 -15.078125 C 9.097656 -15.078125 10.523438 -14.375 11.671875 -12.96875 L 11.671875 -14.734375 L 13.96875 -14.734375 L 13.96875 -1.765625 C 13.96875 0.398438 13.691406 2.003906 13.140625 3.046875 C 12.671875 3.929688 11.957031 4.640625 11 5.171875 C 10.039062 5.703125 8.8125 5.96875 7.3125 5.96875 C 6.0625 5.96875 4.992188 5.769531 4.109375 5.375 C 3.222656 4.976562 2.554688 4.453125 2.109375 3.796875 C 1.671875 3.140625 1.453125 2.425781 1.453125 1.65625 L 1.484375 1.21875 L 3.890625 1.59375 L 3.890625 1.65625 C 4.023438 2.425781 4.375 2.992188 4.9375 3.359375 C 5.5 3.734375 6.328125 3.921875 7.421875 3.921875 C 8.160156 3.921875 8.8125 3.796875 9.375 3.546875 C 9.9375 3.304688 10.378906 2.96875 10.703125 2.53125 C 10.984375 2.132812 11.175781 1.664062 11.28125 1.125 C 11.382812 0.582031 11.4375 -0.078125 11.4375 -0.859375 L 11.4375 -1.9375 C 10.320312 -0.644531 8.972656 0 7.390625 0 C 6.117188 0 5 -0.316406 4.03125 -0.953125 C 3.070312 -1.585938 2.320312 -2.472656 1.78125 -3.609375 C 1.238281 -4.753906 0.96875 -6.046875 0.96875 -7.484375 C 0.96875 -9.003906 1.234375 -10.335938 1.765625 -11.484375 C 2.296875 -12.628906 3.046875 -13.515625 4.015625 -14.140625 C 4.992188 -14.765625 6.117188 -15.078125 7.390625 -15.078125 Z M 3.53125 -7.65625 C 3.53125 -5.832031 3.898438 -4.441406 4.640625 -3.484375 C 5.378906 -2.523438 6.382812 -2.046875 7.65625 -2.046875 C 8.1875 -2.046875 8.796875 -2.21875 9.484375 -2.5625 C 10.179688 -2.914062 10.738281 -3.570312 11.15625 -4.53125 C 11.476562 -5.28125 11.640625 -6.265625 11.640625 -7.484375 C 11.640625 -9.242188 11.257812 -10.609375 10.5 -11.578125 C 9.738281 -12.546875 8.742188 -13.03125 7.515625 -13.03125 C 6.359375 -13.03125 5.40625 -12.550781 4.65625 -11.59375 C 3.90625 -10.632812 3.53125 -9.320312 3.53125 -7.65625 Z M 3.53125 -7.65625 "/></g></g></g><g fill="#000000" fill-opacity="1"><g transform="translate(296.461609, 70.15888)"><g/></g></g><g fill="#000000" fill-opacity="1"><g transform="translate(304.3732, 70.15888)"><g><path d="M 19.03125 0 L 15.96875 0 L 13.578125 -6.203125 L 5.0625 -6.203125 L 2.84375 0 L -0.03125 0 L 7.796875 -20.375 L 10.703125 -20.375 Z M 8.078125 -14.34375 L 5.859375 -8.359375 L 12.75 -8.359375 L 10.25 -15.078125 C 9.9375 -15.878906 9.582031 -16.929688 9.1875 -18.234375 C 9.1875 -18.140625 9.070312 -17.660156 8.84375 -16.796875 C 8.613281 -15.929688 8.359375 -15.113281 8.078125 -14.34375 Z M 8.078125 -14.34375 "/></g></g></g><g fill="#000000" fill-opacity="1"><g transform="translate(323.35532, 70.15888)"><g><path d="M 14.515625 -19.15625 C 15.273438 -18.582031 15.800781 -17.9375 16.09375 -17.21875 C 16.382812 -16.507812 16.53125 -15.882812 16.53125 -15.34375 C 16.53125 -13.289062 15.570312 -11.789062 13.65625 -10.84375 C 14.96875 -10.445312 15.929688 -9.8125 16.546875 -8.9375 C 17.160156 -8.0625 17.46875 -7.015625 17.46875 -5.796875 C 17.46875 -4.867188 17.226562 -3.925781 16.75 -2.96875 C 16.28125 -2.007812 15.457031 -1.257812 14.28125 -0.71875 C 13.28125 -0.238281 11.882812 0 10.09375 0 L 2.109375 0 L 2.109375 -20.375 L 9.9375 -20.375 C 11.070312 -20.375 11.976562 -20.273438 12.65625 -20.078125 C 13.34375 -19.878906 13.960938 -19.570312 14.515625 -19.15625 Z M 13.859375 -14.859375 C 13.859375 -16.085938 13.460938 -16.914062 12.671875 -17.34375 C 11.890625 -17.769531 10.710938 -17.984375 9.140625 -17.984375 L 4.8125 -17.984375 L 4.8125 -11.8125 L 9.390625 -11.8125 C 10.921875 -11.8125 12.046875 -12.050781 12.765625 -12.53125 C 13.492188 -13.019531 13.859375 -13.796875 13.859375 -14.859375 Z M 12.890625 -2.875 C 13.535156 -3.195312 13.992188 -3.628906 14.265625 -4.171875 C 14.546875 -4.722656 14.6875 -5.296875 14.6875 -5.890625 C 14.6875 -6.679688 14.484375 -7.351562 14.078125 -7.90625 C 13.679688 -8.457031 13.113281 -8.859375 12.375 -9.109375 C 11.769531 -9.316406 10.890625 -9.421875 9.734375 -9.421875 L 4.8125 -9.421875 L 4.8125 -2.390625 L 10.25 -2.390625 C 10.875 -2.390625 11.382812 -2.425781 11.78125 -2.5 C 12.175781 -2.582031 12.546875 -2.707031 12.890625 -2.875 Z M 12.890625 -2.875 "/></g></g></g><g fill="#000000" fill-opacity="1"><g transform="translate(667.150902, 70.15888)"><g><path d="M 4.84375 -2.390625 L 14.875 -2.390625 L 14.875 0 L 2.140625 0 L 2.140625 -20.375 L 4.84375 -20.375 Z M 4.84375 -2.390625 "/></g></g></g><g fill="#000000" fill-opacity="1"><g transform="translate(682.974057, 70.15888)"><g><path d="M 8 -15.078125 C 9.414062 -15.078125 10.628906 -14.738281 11.640625 -14.0625 C 12.660156 -13.394531 13.425781 -12.488281 13.9375 -11.34375 C 14.445312 -10.207031 14.703125 -8.941406 14.703125 -7.546875 L 14.703125 -6.75 L 3.703125 -6.75 C 3.773438 -5.164062 4.21875 -3.929688 5.03125 -3.046875 C 5.851562 -2.171875 6.898438 -1.734375 8.171875 -1.734375 C 9.128906 -1.734375 9.925781 -1.988281 10.5625 -2.5 C 11.207031 -3.007812 11.695312 -3.757812 12.03125 -4.75 L 14.625 -4.4375 C 14.226562 -2.957031 13.472656 -1.796875 12.359375 -0.953125 C 11.253906 -0.109375 9.894531 0.3125 8.28125 0.3125 C 6.019531 0.3125 4.257812 -0.347656 3 -1.671875 C 1.738281 -3.003906 1.109375 -4.863281 1.109375 -7.25 C 1.109375 -8.84375 1.390625 -10.226562 1.953125 -11.40625 C 2.523438 -12.582031 3.328125 -13.488281 4.359375 -14.125 C 5.398438 -14.757812 6.613281 -15.078125 8 -15.078125 Z M 3.84375 -8.828125 L 12.0625 -8.828125 C 12.007812 -10.222656 11.578125 -11.269531 10.765625 -11.96875 C 9.960938 -12.675781 9.039062 -13.03125 8 -13.03125 C 6.820312 -13.03125 5.859375 -12.628906 5.109375 -11.828125 C 4.359375 -11.035156 3.9375 -10.035156 3.84375 -8.828125 Z M 3.84375 -8.828125 "/></g></g></g><g fill="#000000" fill-opacity="1"><g transform="translate(698.797213, 70.15888)"><g><path d="M 7.390625 -15.078125 C 9.097656 -15.078125 10.523438 -14.375 11.671875 -12.96875 L 11.671875 -14.734375 L 13.96875 -14.734375 L 13.96875 -1.765625 C 13.96875 0.398438 13.691406 2.003906 13.140625 3.046875 C 12.671875 3.929688 11.957031 4.640625 11 5.171875 C 10.039062 5.703125 8.8125 5.96875 7.3125 5.96875 C 6.0625 5.96875 4.992188 5.769531 4.109375 5.375 C 3.222656 4.976562 2.554688 4.453125 2.109375 3.796875 C 1.671875 3.140625 1.453125 2.425781 1.453125 1.65625 L 1.484375 1.21875 L 3.890625 1.59375 L 3.890625 1.65625 C 4.023438 2.425781 4.375 2.992188 4.9375 3.359375 C 5.5 3.734375 6.328125 3.921875 7.421875 3.921875 C 8.160156 3.921875 8.8125 3.796875 9.375 3.546875 C 9.9375 3.304688 10.378906 2.96875 10.703125 2.53125 C 10.984375 2.132812 11.175781 1.664062 11.28125 1.125 C 11.382812 0.582031 11.4375 -0.078125 11.4375 -0.859375 L 11.4375 -1.9375 C 10.320312 -0.644531 8.972656 0 7.390625 0 C 6.117188 0 5 -0.316406 4.03125 -0.953125 C 3.070312 -1.585938 2.320312 -2.472656 1.78125 -3.609375 C 1.238281 -4.753906 0.96875 -6.046875 0.96875 -7.484375 C 0.96875 -9.003906 1.234375 -10.335938 1.765625 -11.484375 C 2.296875 -12.628906 3.046875 -13.515625 4.015625 -14.140625 C 4.992188 -14.765625 6.117188 -15.078125 7.390625 -15.078125 Z M 3.53125 -7.65625 C 3.53125 -5.832031 3.898438 -4.441406 4.640625 -3.484375 C 5.378906 -2.523438 6.382812 -2.046875 7.65625 -2.046875 C 8.1875 -2.046875 8.796875 -2.21875 9.484375 -2.5625 C 10.179688 -2.914062 10.738281 -3.570312 11.15625 -4.53125 C 11.476562 -5.28125 11.640625 -6.265625 11.640625 -7.484375 C 11.640625 -9.242188 11.257812 -10.609375 10.5 -11.578125 C 9.738281 -12.546875 8.742188 -13.03125 7.515625 -13.03125 C 6.359375 -13.03125 5.40625 -12.550781 4.65625 -11.59375 C 3.90625 -10.632812 3.53125 -9.320312 3.53125 -7.65625 Z M 3.53125 -7.65625 "/></g></g></g><g fill="#000000" fill-opacity="1"><g transform="translate(714.620369, 70.15888)"><g/></g></g><g fill="#000000" fill-opacity="1"><g transform="translate(722.53196, 70.15888)"><g><path d="M 14.515625 -19.15625 C 15.273438 -18.582031 15.800781 -17.9375 16.09375 -17.21875 C 16.382812 -16.507812 16.53125 -15.882812 16.53125 -15.34375 C 16.53125 -13.289062 15.570312 -11.789062 13.65625 -10.84375 C 14.96875 -10.445312 15.929688 -9.8125 16.546875 -8.9375 C 17.160156 -8.0625 17.46875 -7.015625 17.46875 -5.796875 C 17.46875 -4.867188 17.226562 -3.925781 16.75 -2.96875 C 16.28125 -2.007812 15.457031 -1.257812 14.28125 -0.71875 C 13.28125 -0.238281 11.882812 0 10.09375 0 L 2.109375 0 L 2.109375 -20.375 L 9.9375 -20.375 C 11.070312 -20.375 11.976562 -20.273438 12.65625 -20.078125 C 13.34375 -19.878906 13.960938 -19.570312 14.515625 -19.15625 Z M 13.859375 -14.859375 C 13.859375 -16.085938 13.460938 -16.914062 12.671875 -17.34375 C 11.890625 -17.769531 10.710938 -17.984375 9.140625 -17.984375 L 4.8125 -17.984375 L 4.8125 -11.8125 L 9.390625 -11.8125 C 10.921875 -11.8125 12.046875 -12.050781 12.765625 -12.53125 C 13.492188 -13.019531 13.859375 -13.796875 13.859375 -14.859375 Z M 12.890625 -2.875 C 13.535156 -3.195312 13.992188 -3.628906 14.265625 -4.171875 C 14.546875 -4.722656 14.6875 -5.296875 14.6875 -5.890625 C 14.6875 -6.679688 14.484375 -7.351562 14.078125 -7.90625 C 13.679688 -8.457031 13.113281 -8.859375 12.375 -9.109375 C 11.769531 -9.316406 10.890625 -9.421875 9.734375 -9.421875 L 4.8125 -9.421875 L 4.8125 -2.390625 L 10.25 -2.390625 C 10.875 -2.390625 11.382812 -2.425781 11.78125 -2.5 C 12.175781 -2.582031 12.546875 -2.707031 12.890625 -2.875 Z M 12.890625 -2.875 "/></g></g></g><g fill="#000000" fill-opacity="1"><g transform="translate(741.51408, 70.15888)"><g><path d="M 11.0625 -20.71875 C 13.132812 -20.71875 14.863281 -20.1875 16.25 -19.125 C 17.632812 -18.0625 18.59375 -16.609375 19.125 -14.765625 L 16.453125 -14.140625 C 16.015625 -15.503906 15.359375 -16.554688 14.484375 -17.296875 C 13.609375 -18.035156 12.453125 -18.40625 11.015625 -18.40625 C 8.890625 -18.40625 7.226562 -17.703125 6.03125 -16.296875 C 4.832031 -14.898438 4.234375 -12.910156 4.234375 -10.328125 C 4.234375 -7.628906 4.816406 -5.5625 5.984375 -4.125 C 7.148438 -2.6875 8.78125 -1.96875 10.875 -1.96875 C 12.351562 -1.96875 13.613281 -2.40625 14.65625 -3.28125 C 15.695312 -4.164062 16.398438 -5.453125 16.765625 -7.140625 L 19.46875 -6.453125 C 18.894531 -4.316406 17.875 -2.648438 16.40625 -1.453125 C 14.945312 -0.253906 13.128906 0.34375 10.953125 0.34375 C 9.453125 0.34375 8.171875 0.144531 7.109375 -0.25 C 6.046875 -0.65625 5.144531 -1.242188 4.40625 -2.015625 C 3.382812 -3.097656 2.632812 -4.359375 2.15625 -5.796875 C 1.6875 -7.242188 1.453125 -8.753906 1.453125 -10.328125 C 1.453125 -12.429688 1.851562 -14.265625 2.65625 -15.828125 C 3.46875 -17.398438 4.597656 -18.609375 6.046875 -19.453125 C 7.492188 -20.296875 9.164062 -20.71875 11.0625 -20.71875 Z M 11.0625 -20.71875 "/></g></g></g><g fill="#000000" fill-opacity="1"><g transform="translate(1085.477268, 70.15888)"><g><path d="M 4.84375 -2.390625 L 14.875 -2.390625 L 14.875 0 L 2.140625 0 L 2.140625 -20.375 L 4.84375 -20.375 Z M 4.84375 -2.390625 "/></g></g></g><g fill="#000000" fill-opacity="1"><g transform="translate(1101.300424, 70.15888)"><g><path d="M 8 -15.078125 C 9.414062 -15.078125 10.628906 -14.738281 11.640625 -14.0625 C 12.660156 -13.394531 13.425781 -12.488281 13.9375 -11.34375 C 14.445312 -10.207031 14.703125 -8.941406 14.703125 -7.546875 L 14.703125 -6.75 L 3.703125 -6.75 C 3.773438 -5.164062 4.21875 -3.929688 5.03125 -3.046875 C 5.851562 -2.171875 6.898438 -1.734375 8.171875 -1.734375 C 9.128906 -1.734375 9.925781 -1.988281 10.5625 -2.5 C 11.207031 -3.007812 11.695312 -3.757812 12.03125 -4.75 L 14.625 -4.4375 C 14.226562 -2.957031 13.472656 -1.796875 12.359375 -0.953125 C 11.253906 -0.109375 9.894531 0.3125 8.28125 0.3125 C 6.019531 0.3125 4.257812 -0.347656 3 -1.671875 C 1.738281 -3.003906 1.109375 -4.863281 1.109375 -7.25 C 1.109375 -8.84375 1.390625 -10.226562 1.953125 -11.40625 C 2.523438 -12.582031 3.328125 -13.488281 4.359375 -14.125 C 5.398438 -14.757812 6.613281 -15.078125 8 -15.078125 Z M 3.84375 -8.828125 L 12.0625 -8.828125 C 12.007812 -10.222656 11.578125 -11.269531 10.765625 -11.96875 C 9.960938 -12.675781 9.039062 -13.03125 8 -13.03125 C 6.820312 -13.03125 5.859375 -12.628906 5.109375 -11.828125 C 4.359375 -11.035156 3.9375 -10.035156 3.84375 -8.828125 Z M 3.84375 -8.828125 "/></g></g></g><g fill="#000000" fill-opacity="1"><g transform="translate(1117.12358, 70.15888)"><g><path d="M 7.390625 -15.078125 C 9.097656 -15.078125 10.523438 -14.375 11.671875 -12.96875 L 11.671875 -14.734375 L 13.96875 -14.734375 L 13.96875 -1.765625 C 13.96875 0.398438 13.691406 2.003906 13.140625 3.046875 C 12.671875 3.929688 11.957031 4.640625 11 5.171875 C 10.039062 5.703125 8.8125 5.96875 7.3125 5.96875 C 6.0625 5.96875 4.992188 5.769531 4.109375 5.375 C 3.222656 4.976562 2.554688 4.453125 2.109375 3.796875 C 1.671875 3.140625 1.453125 2.425781 1.453125 1.65625 L 1.484375 1.21875 L 3.890625 1.59375 L 3.890625 1.65625 C 4.023438 2.425781 4.375 2.992188 4.9375 3.359375 C 5.5 3.734375 6.328125 3.921875 7.421875 3.921875 C 8.160156 3.921875 8.8125 3.796875 9.375 3.546875 C 9.9375 3.304688 10.378906 2.96875 10.703125 2.53125 C 10.984375 2.132812 11.175781 1.664062 11.28125 1.125 C 11.382812 0.582031 11.4375 -0.078125 11.4375 -0.859375 L 11.4375 -1.9375 C 10.320312 -0.644531 8.972656 0 7.390625 0 C 6.117188 0 5 -0.316406 4.03125 -0.953125 C 3.070312 -1.585938 2.320312 -2.472656 1.78125 -3.609375 C 1.238281 -4.753906 0.96875 -6.046875 0.96875 -7.484375 C 0.96875 -9.003906 1.234375 -10.335938 1.765625 -11.484375 C 2.296875 -12.628906 3.046875 -13.515625 4.015625 -14.140625 C 4.992188 -14.765625 6.117188 -15.078125 7.390625 -15.078125 Z M 3.53125 -7.65625 C 3.53125 -5.832031 3.898438 -4.441406 4.640625 -3.484375 C 5.378906 -2.523438 6.382812 -2.046875 7.65625 -2.046875 C 8.1875 -2.046875 8.796875 -2.21875 9.484375 -2.5625 C 10.179688 -2.914062 10.738281 -3.570312 11.15625 -4.53125 C 11.476562 -5.28125 11.640625 -6.265625 11.640625 -7.484375 C 11.640625 -9.242188 11.257812 -10.609375 10.5 -11.578125 C 9.738281 -12.546875 8.742188 -13.03125 7.515625 -13.03125 C 6.359375 -13.03125 5.40625 -12.550781 4.65625 -11.59375 C 3.90625 -10.632812 3.53125 -9.320312 3.53125 -7.65625 Z M 3.53125 -7.65625 "/></g></g></g><g fill="#000000" fill-opacity="1"><g transform="translate(1132.946735, 70.15888)"><g/></g></g><g fill="#000000" fill-opacity="1"><g transform="translate(1140.858327, 70.15888)"><g><path d="M 11.0625 -20.71875 C 13.132812 -20.71875 14.863281 -20.1875 16.25 -19.125 C 17.632812 -18.0625 18.59375 -16.609375 19.125 -14.765625 L 16.453125 -14.140625 C 16.015625 -15.503906 15.359375 -16.554688 14.484375 -17.296875 C 13.609375 -18.035156 12.453125 -18.40625 11.015625 -18.40625 C 8.890625 -18.40625 7.226562 -17.703125 6.03125 -16.296875 C 4.832031 -14.898438 4.234375 -12.910156 4.234375 -10.328125 C 4.234375 -7.628906 4.816406 -5.5625 5.984375 -4.125 C 7.148438 -2.6875 8.78125 -1.96875 10.875 -1.96875 C 12.351562 -1.96875 13.613281 -2.40625 14.65625 -3.28125 C 15.695312 -4.164062 16.398438 -5.453125 16.765625 -7.140625 L 19.46875 -6.453125 C 18.894531 -4.316406 17.875 -2.648438 16.40625 -1.453125 C 14.945312 -0.253906 13.128906 0.34375 10.953125 0.34375 C 9.453125 0.34375 8.171875 0.144531 7.109375 -0.25 C 6.046875 -0.65625 5.144531 -1.242188 4.40625 -2.015625 C 3.382812 -3.097656 2.632812 -4.359375 2.15625 -5.796875 C 1.6875 -7.242188 1.453125 -8.753906 1.453125 -10.328125 C 1.453125 -12.429688 1.851562 -14.265625 2.65625 -15.828125 C 3.46875 -17.398438 4.597656 -18.609375 6.046875 -19.453125 C 7.492188 -20.296875 9.164062 -20.71875 11.0625 -20.71875 Z M 11.0625 -20.71875 "/></g></g></g><g fill="#000000" fill-opacity="1"><g transform="translate(1161.405666, 70.15888)"><g><path d="M 14.90625 -19.3125 C 16.289062 -18.519531 17.335938 -17.34375 18.046875 -15.78125 C 18.765625 -14.226562 19.125 -12.410156 19.125 -10.328125 C 19.125 -8.597656 18.863281 -6.984375 18.34375 -5.484375 C 17.832031 -3.992188 17.054688 -2.8125 16.015625 -1.9375 C 15.242188 -1.289062 14.378906 -0.804688 13.421875 -0.484375 C 12.472656 -0.160156 11.289062 0 9.875 0 L 2.28125 0 L 2.28125 -20.375 L 9.671875 -20.375 C 10.867188 -20.375 11.859375 -20.300781 12.640625 -20.15625 C 13.429688 -20.019531 14.1875 -19.738281 14.90625 -19.3125 Z M 16.328125 -10.359375 C 16.328125 -12.421875 16.003906 -14.015625 15.359375 -15.140625 C 14.710938 -16.273438 13.941406 -17.03125 13.046875 -17.40625 C 12.160156 -17.789062 11.046875 -17.984375 9.703125 -17.984375 L 4.984375 -17.984375 L 4.984375 -2.390625 L 9.453125 -2.390625 C 10.773438 -2.390625 11.882812 -2.546875 12.78125 -2.859375 C 13.6875 -3.171875 14.503906 -3.914062 15.234375 -5.09375 C 15.960938 -6.269531 16.328125 -8.023438 16.328125 -10.359375 Z M 16.328125 -10.359375 "/></g></g></g><g fill="#000000" fill-opacity="1"><g transform="translate(494.606885, 184.986041)"><g><path d="M 14.515625 -19.15625 C 15.273438 -18.582031 15.800781 -17.9375 16.09375 -17.21875 C 16.382812 -16.507812 16.53125 -15.882812 16.53125 -15.34375 C 16.53125 -13.289062 15.570312 -11.789062 13.65625 -10.84375 C 14.96875 -10.445312 15.929688 -9.8125 16.546875 -8.9375 C 17.160156 -8.0625 17.46875 -7.015625 17.46875 -5.796875 C 17.46875 -4.867188 17.226562 -3.925781 16.75 -2.96875 C 16.28125 -2.007812 15.457031 -1.257812 14.28125 -0.71875 C 13.28125 -0.238281 11.882812 0 10.09375 0 L 2.109375 0 L 2.109375 -20.375 L 9.9375 -20.375 C 11.070312 -20.375 11.976562 -20.273438 12.65625 -20.078125 C 13.34375 -19.878906 13.960938 -19.570312 14.515625 -19.15625 Z M 13.859375 -14.859375 C 13.859375 -16.085938 13.460938 -16.914062 12.671875 -17.34375 C 11.890625 -17.769531 10.710938 -17.984375 9.140625 -17.984375 L 4.8125 -17.984375 L 4.8125 -11.8125 L 9.390625 -11.8125 C 10.921875 -11.8125 12.046875 -12.050781 12.765625 -12.53125 C 13.492188 -13.019531 13.859375 -13.796875 13.859375 -14.859375 Z M 12.890625 -2.875 C 13.535156 -3.195312 13.992188 -3.628906 14.265625 -4.171875 C 14.546875 -4.722656 14.6875 -5.296875 14.6875 -5.890625 C 14.6875 -6.679688 14.484375 -7.351562 14.078125 -7.90625 C 13.679688 -8.457031 13.113281 -8.859375 12.375 -9.109375 C 11.769531 -9.316406 10.890625 -9.421875 9.734375 -9.421875 L 4.8125 -9.421875 L 4.8125 -2.390625 L 10.25 -2.390625 C 10.875 -2.390625 11.382812 -2.425781 11.78125 -2.5 C 12.175781 -2.582031 12.546875 -2.707031 12.890625 -2.875 Z M 12.890625 -2.875 "/></g></g></g><g fill="#000000" fill-opacity="1"><g transform="translate(918.356528, 184.986041)"><g><path d="M 11.0625 -20.71875 C 13.132812 -20.71875 14.863281 -20.1875 16.25 -19.125 C 17.632812 -18.0625 18.59375 -16.609375 19.125 -14.765625 L 16.453125 -14.140625 C 16.015625 -15.503906 15.359375 -16.554688 14.484375 -17.296875 C 13.609375 -18.035156 12.453125 -18.40625 11.015625 -18.40625 C 8.890625 -18.40625 7.226562 -17.703125 6.03125 -16.296875 C 4.832031 -14.898438 4.234375 -12.910156 4.234375 -10.328125 C 4.234375 -7.628906 4.816406 -5.5625 5.984375 -4.125 C 7.148438 -2.6875 8.78125 -1.96875 10.875 -1.96875 C 12.351562 -1.96875 13.613281 -2.40625 14.65625 -3.28125 C 15.695312 -4.164062 16.398438 -5.453125 16.765625 -7.140625 L 19.46875 -6.453125 C 18.894531 -4.316406 17.875 -2.648438 16.40625 -1.453125 C 14.945312 -0.253906 13.128906 0.34375 10.953125 0.34375 C 9.453125 0.34375 8.171875 0.144531 7.109375 -0.25 C 6.046875 -0.65625 5.144531 -1.242188 4.40625 -2.015625 C 3.382812 -3.097656 2.632812 -4.359375 2.15625 -5.796875 C 1.6875 -7.242188 1.453125 -8.753906 1.453125 -10.328125 C 1.453125 -12.429688 1.851562 -14.265625 2.65625 -15.828125 C 3.46875 -17.398438 4.597656 -18.609375 6.046875 -19.453125 C 7.492188 -20.296875 9.164062 -20.71875 11.0625 -20.71875 Z M 11.0625 -20.71875 "/></g></g></g><g fill="#000000" fill-opacity="1"><g transform="translate(1338.384227, 184.986041)"><g><path d="M 14.90625 -19.3125 C 16.289062 -18.519531 17.335938 -17.34375 18.046875 -15.78125 C 18.765625 -14.226562 19.125 -12.410156 19.125 -10.328125 C 19.125 -8.597656 18.863281 -6.984375 18.34375 -5.484375 C 17.832031 -3.992188 17.054688 -2.8125 16.015625 -1.9375 C 15.242188 -1.289062 14.378906 -0.804688 13.421875 -0.484375 C 12.472656 -0.160156 11.289062 0 9.875 0 L 2.28125 0 L 2.28125 -20.375 L 9.671875 -20.375 C 10.867188 -20.375 11.859375 -20.300781 12.640625 -20.15625 C 13.429688 -20.019531 14.1875 -19.738281 14.90625 -19.3125 Z M 16.328125 -10.359375 C 16.328125 -12.421875 16.003906 -14.015625 15.359375 -15.140625 C 14.710938 -16.273438 13.941406 -17.03125 13.046875 -17.40625 C 12.160156 -17.789062 11.046875 -17.984375 9.703125 -17.984375 L 4.984375 -17.984375 L 4.984375 -2.390625 L 9.453125 -2.390625 C 10.773438 -2.390625 11.882812 -2.546875 12.78125 -2.859375 C 13.6875 -3.171875 14.503906 -3.914062 15.234375 -5.09375 C 15.960938 -6.269531 16.328125 -8.023438 16.328125 -10.359375 Z M 16.328125 -10.359375 "/></g></g></g><path stroke-linecap="butt" transform="matrix(0, 0.75, -0.75, 0, 718.286802, 196.371689)" fill="none" stroke-linejoin="miter" d="M -0.000794094 4.502195 L 269.738803 4.502195 " stroke="#000000" stroke-width="9" stroke-opacity="1" stroke-miterlimit="4"/><path stroke-linecap="round" transform="matrix(0, 0.75, -0.75, 0, 718.286802, 196.371689)" fill="none" stroke-linejoin="round" d="M 251.738802 -8.997806 L 269.738803 4.502195 L 251.738802 18.002195 " stroke="#000000" stroke-width="9" stroke-opacity="1" stroke-miterlimit="4"/><g fill="#000000" fill-opacity="1"><g transform="translate(264.739399, 507.224161)"><g><path d="M 16.78125 -17.984375 L 10.046875 -17.984375 L 10.046875 0 L 7.34375 0 L 7.34375 -17.984375 L 0.625 -17.984375 L 0.625 -20.375 L 16.78125 -20.375 Z M 16.78125 -17.984375 "/></g></g></g><g fill="#000000" fill-opacity="1"><g transform="translate(282.127801, 507.224161)"><g><path d="M 7.90625 -15.078125 C 9.03125 -15.078125 10.117188 -14.828125 11.171875 -14.328125 C 12.222656 -13.835938 13.09375 -13.019531 13.78125 -11.875 C 14.476562 -10.726562 14.828125 -9.226562 14.828125 -7.375 C 14.828125 -5.71875 14.53125 -4.316406 13.9375 -3.171875 C 13.351562 -2.023438 12.539062 -1.15625 11.5 -0.5625 C 10.457031 0.0195312 9.257812 0.3125 7.90625 0.3125 C 5.9375 0.3125 4.328125 -0.300781 3.078125 -1.53125 C 1.691406 -2.882812 1 -4.832031 1 -7.375 C 1 -9.019531 1.289062 -10.421875 1.875 -11.578125 C 2.46875 -12.734375 3.285156 -13.601562 4.328125 -14.1875 C 5.367188 -14.78125 6.5625 -15.078125 7.90625 -15.078125 Z M 3.5625 -7.375 C 3.5625 -5.582031 3.953125 -4.191406 4.734375 -3.203125 C 5.523438 -2.222656 6.582031 -1.734375 7.90625 -1.734375 C 9.21875 -1.734375 10.269531 -2.222656 11.0625 -3.203125 C 11.863281 -4.179688 12.265625 -5.570312 12.265625 -7.375 C 12.265625 -9.113281 11.875 -10.488281 11.09375 -11.5 C 10.320312 -12.519531 9.25 -13.03125 7.875 -13.03125 C 6.59375 -13.03125 5.550781 -12.53125 4.75 -11.53125 C 3.957031 -10.539062 3.5625 -9.15625 3.5625 -7.375 Z M 3.5625 -7.375 "/></g></g></g><g fill="#000000" fill-opacity="1"><g transform="translate(297.950957, 507.224161)"><g><path d="M 4.8125 -14.734375 L 7.3125 -14.734375 L 7.3125 -12.859375 L 4.8125 -12.859375 L 4.8125 -3.734375 C 4.8125 -3.085938 4.898438 -2.628906 5.078125 -2.359375 C 5.253906 -2.097656 5.628906 -1.96875 6.203125 -1.96875 C 6.335938 -1.96875 6.707031 -2.015625 7.3125 -2.109375 L 7.6875 0.109375 C 6.925781 0.265625 6.304688 0.34375 5.828125 0.34375 C 4.859375 0.34375 4.117188 0.1875 3.609375 -0.125 C 3.097656 -0.4375 2.753906 -0.875 2.578125 -1.4375 C 2.398438 -2 2.3125 -2.722656 2.3125 -3.609375 L 2.3125 -12.859375 L 0.484375 -12.859375 L 0.484375 -14.734375 L 2.3125 -14.734375 L 2.3125 -18.40625 L 4.8125 -19.921875 Z M 4.8125 -14.734375 "/></g></g></g><g fill="#000000" fill-opacity="1"><g transform="translate(305.862548, 507.224161)"><g><path d="M 8.078125 -15.078125 C 9.296875 -15.078125 10.28125 -14.957031 11.03125 -14.71875 C 11.78125 -14.488281 12.367188 -14.144531 12.796875 -13.6875 C 13.222656 -13.25 13.507812 -12.765625 13.65625 -12.234375 C 13.8125 -11.703125 13.890625 -11 13.890625 -10.125 L 13.890625 -4.1875 C 13.890625 -2.269531 14.15625 -0.875 14.6875 0 L 12.0625 0 C 11.8125 -0.507812 11.640625 -1.117188 11.546875 -1.828125 C 10.640625 -1.066406 9.753906 -0.515625 8.890625 -0.171875 C 8.023438 0.171875 7.128906 0.34375 6.203125 0.34375 C 4.609375 0.34375 3.351562 -0.0390625 2.4375 -0.8125 C 1.53125 -1.59375 1.078125 -2.617188 1.078125 -3.890625 C 1.078125 -4.554688 1.226562 -5.195312 1.53125 -5.8125 C 1.832031 -6.4375 2.25 -6.914062 2.78125 -7.25 C 3.351562 -7.632812 3.929688 -7.910156 4.515625 -8.078125 C 5.109375 -8.253906 5.832031 -8.390625 6.6875 -8.484375 C 7.59375 -8.578125 8.492188 -8.703125 9.390625 -8.859375 C 10.296875 -9.023438 10.957031 -9.191406 11.375 -9.359375 L 11.375 -9.984375 C 11.375 -10.992188 11.101562 -11.753906 10.5625 -12.265625 C 10.03125 -12.773438 9.109375 -13.03125 7.796875 -13.03125 C 6.566406 -13.03125 5.679688 -12.8125 5.140625 -12.375 C 4.597656 -11.9375 4.203125 -11.21875 3.953125 -10.21875 L 1.515625 -10.53125 C 1.847656 -12.125 2.5625 -13.28125 3.65625 -14 C 4.75 -14.71875 6.222656 -15.078125 8.078125 -15.078125 Z M 7.796875 -6.546875 C 6.828125 -6.390625 6.082031 -6.238281 5.5625 -6.09375 C 5.039062 -5.957031 4.609375 -5.722656 4.265625 -5.390625 C 3.921875 -5.054688 3.75 -4.578125 3.75 -3.953125 C 3.75 -3.210938 4.019531 -2.640625 4.5625 -2.234375 C 5.101562 -1.828125 5.867188 -1.625 6.859375 -1.625 C 7.421875 -1.625 8.035156 -1.738281 8.703125 -1.96875 C 9.367188 -2.207031 9.945312 -2.625 10.4375 -3.21875 C 10.757812 -3.59375 10.992188 -4.015625 11.140625 -4.484375 C 11.296875 -4.960938 11.375 -5.570312 11.375 -6.3125 L 11.375 -7.390625 C 10.625 -7.085938 9.429688 -6.804688 7.796875 -6.546875 Z M 7.796875 -6.546875 "/></g></g></g><g fill="#000000" fill-opacity="1"><g transform="translate(321.685704, 507.224161)"><g><path d="M 4.40625 0 L 1.90625 0 L 1.90625 -20.375 L 4.40625 -20.375 Z M 4.40625 0 "/></g></g></g><g fill="#000000" fill-opacity="1"><g transform="translate(328.003578, 507.224161)"><g/></g></g><g fill="#000000" fill-opacity="1"><g transform="translate(335.91517, 507.224161)"><g><path d="M 4.375 -17.53125 L 1.875 -17.53125 L 1.875 -20.375 L 4.375 -20.375 Z M 4.375 -14.734375 L 4.375 0.96875 C 4.375 2.8125 4.078125 4.101562 3.484375 4.84375 C 2.890625 5.59375 1.972656 5.96875 0.734375 5.96875 C 0.015625 5.96875 -0.65625 5.882812 -1.28125 5.71875 L -0.796875 3.609375 C -0.304688 3.742188 0.0859375 3.8125 0.390625 3.8125 C 0.941406 3.8125 1.328125 3.609375 1.546875 3.203125 C 1.765625 2.796875 1.875 2.039062 1.875 0.9375 L 1.875 -14.734375 Z M 4.375 -14.734375 "/></g></g></g><g fill="#000000" fill-opacity="1"><g transform="translate(342.233044, 507.224161)"><g><path d="M 7.90625 -15.078125 C 9.03125 -15.078125 10.117188 -14.828125 11.171875 -14.328125 C 12.222656 -13.835938 13.09375 -13.019531 13.78125 -11.875 C 14.476562 -10.726562 14.828125 -9.226562 14.828125 -7.375 C 14.828125 -5.71875 14.53125 -4.316406 13.9375 -3.171875 C 13.351562 -2.023438 12.539062 -1.15625 11.5 -0.5625 C 10.457031 0.0195312 9.257812 0.3125 7.90625 0.3125 C 5.9375 0.3125 4.328125 -0.300781 3.078125 -1.53125 C 1.691406 -2.882812 1 -4.832031 1 -7.375 C 1 -9.019531 1.289062 -10.421875 1.875 -11.578125 C 2.46875 -12.734375 3.285156 -13.601562 4.328125 -14.1875 C 5.367188 -14.78125 6.5625 -15.078125 7.90625 -15.078125 Z M 3.5625 -7.375 C 3.5625 -5.582031 3.953125 -4.191406 4.734375 -3.203125 C 5.523438 -2.222656 6.582031 -1.734375 7.90625 -1.734375 C 9.21875 -1.734375 10.269531 -2.222656 11.0625 -3.203125 C 11.863281 -4.179688 12.265625 -5.570312 12.265625 -7.375 C 12.265625 -9.113281 11.875 -10.488281 11.09375 -11.5 C 10.320312 -12.519531 9.25 -13.03125 7.875 -13.03125 C 6.59375 -13.03125 5.550781 -12.53125 4.75 -11.53125 C 3.957031 -10.539062 3.5625 -9.15625 3.5625 -7.375 Z M 3.5625 -7.375 "/></g></g></g><g fill="#000000" fill-opacity="1"><g transform="translate(358.0562, 507.224161)"><g><path d="M 4.375 -5.296875 C 4.375 -4.148438 4.644531 -3.285156 5.1875 -2.703125 C 5.726562 -2.117188 6.519531 -1.828125 7.5625 -1.828125 C 8.269531 -1.828125 8.945312 -2.03125 9.59375 -2.4375 C 10.25 -2.84375 10.722656 -3.414062 11.015625 -4.15625 C 11.242188 -4.707031 11.359375 -5.539062 11.359375 -6.65625 L 11.359375 -14.734375 L 13.859375 -14.734375 L 13.859375 0 L 11.609375 0 L 11.609375 -2.15625 C 10.429688 -0.488281 8.867188 0.34375 6.921875 0.34375 C 6.117188 0.34375 5.304688 0.175781 4.484375 -0.15625 C 3.671875 -0.488281 3.039062 -1.023438 2.59375 -1.765625 C 2.320312 -2.203125 2.132812 -2.6875 2.03125 -3.21875 C 1.925781 -3.75 1.875 -4.394531 1.875 -5.15625 L 1.875 -14.734375 L 4.375 -14.734375 Z M 4.375 -5.296875 "/></g></g></g><g fill="#000000" fill-opacity="1"><g transform="translate(373.879355, 507.224161)"><g><path d="M 7.3125 -15.078125 C 8.164062 -15.078125 9.007812 -14.8125 9.84375 -14.28125 L 8.984375 -11.984375 C 8.378906 -12.335938 7.742188 -12.515625 7.078125 -12.515625 C 6.128906 -12.515625 5.429688 -12.082031 4.984375 -11.21875 C 4.546875 -10.363281 4.328125 -9.25 4.328125 -7.875 L 4.328125 0 L 1.828125 0 L 1.828125 -14.734375 L 4.0625 -14.734375 L 4.0625 -12.515625 C 4.539062 -13.367188 5.007812 -14.007812 5.46875 -14.4375 C 5.9375 -14.863281 6.550781 -15.078125 7.3125 -15.078125 Z M 7.3125 -15.078125 "/></g></g></g><g fill="#000000" fill-opacity="1"><g transform="translate(383.356194, 507.224161)"><g><path d="M 8.875 -15.078125 C 9.9375 -15.078125 10.851562 -14.867188 11.625 -14.453125 C 12.394531 -14.035156 12.957031 -13.503906 13.3125 -12.859375 C 13.539062 -12.421875 13.703125 -11.953125 13.796875 -11.453125 C 13.890625 -10.953125 13.9375 -10.320312 13.9375 -9.5625 L 13.9375 0 L 11.4375 0 L 11.4375 -9.109375 C 11.4375 -11.648438 10.40625 -12.921875 8.34375 -12.921875 C 7.5625 -12.921875 6.84375 -12.726562 6.1875 -12.34375 C 5.53125 -11.96875 5.0625 -11.421875 4.78125 -10.703125 C 4.550781 -10.085938 4.4375 -9.269531 4.4375 -8.25 L 4.4375 0 L 1.9375 0 L 1.9375 -14.734375 L 4.1875 -14.734375 L 4.1875 -12.65625 C 5.300781 -14.269531 6.863281 -15.078125 8.875 -15.078125 Z M 8.875 -15.078125 "/></g></g></g><g fill="#000000" fill-opacity="1"><g transform="translate(399.17935, 507.224161)"><g><path d="M 8 -15.078125 C 9.414062 -15.078125 10.628906 -14.738281 11.640625 -14.0625 C 12.660156 -13.394531 13.425781 -12.488281 13.9375 -11.34375 C 14.445312 -10.207031 14.703125 -8.941406 14.703125 -7.546875 L 14.703125 -6.75 L 3.703125 -6.75 C 3.773438 -5.164062 4.21875 -3.929688 5.03125 -3.046875 C 5.851562 -2.171875 6.898438 -1.734375 8.171875 -1.734375 C 9.128906 -1.734375 9.925781 -1.988281 10.5625 -2.5 C 11.207031 -3.007812 11.695312 -3.757812 12.03125 -4.75 L 14.625 -4.4375 C 14.226562 -2.957031 13.472656 -1.796875 12.359375 -0.953125 C 11.253906 -0.109375 9.894531 0.3125 8.28125 0.3125 C 6.019531 0.3125 4.257812 -0.347656 3 -1.671875 C 1.738281 -3.003906 1.109375 -4.863281 1.109375 -7.25 C 1.109375 -8.84375 1.390625 -10.226562 1.953125 -11.40625 C 2.523438 -12.582031 3.328125 -13.488281 4.359375 -14.125 C 5.398438 -14.757812 6.613281 -15.078125 8 -15.078125 Z M 3.84375 -8.828125 L 12.0625 -8.828125 C 12.007812 -10.222656 11.578125 -11.269531 10.765625 -11.96875 C 9.960938 -12.675781 9.039062 -13.03125 8 -13.03125 C 6.820312 -13.03125 5.859375 -12.628906 5.109375 -11.828125 C 4.359375 -11.035156 3.9375 -10.035156 3.84375 -8.828125 Z M 3.84375 -8.828125 "/></g></g></g><g fill="#000000" fill-opacity="1"><g transform="translate(415.002505, 507.224161)"><g><path d="M 6.265625 -6.125 C 6.679688 -4.90625 7.019531 -3.789062 7.28125 -2.78125 C 7.5625 -3.90625 7.882812 -4.960938 8.25 -5.953125 L 11.46875 -14.734375 L 13.96875 -14.734375 L 8.359375 0.25 C 7.828125 1.675781 7.375 2.765625 7 3.515625 C 6.625 4.265625 6.148438 4.859375 5.578125 5.296875 C 5.003906 5.742188 4.273438 5.96875 3.390625 5.96875 C 2.796875 5.96875 2.253906 5.875 1.765625 5.6875 L 1.484375 3.328125 C 2.085938 3.484375 2.578125 3.5625 2.953125 3.5625 C 3.546875 3.5625 4.007812 3.457031 4.34375 3.25 C 4.6875 3.039062 4.941406 2.765625 5.109375 2.421875 C 5.285156 2.078125 5.507812 1.535156 5.78125 0.796875 L 6.0625 0.03125 L 0.453125 -14.734375 L 3.15625 -14.734375 Z M 6.265625 -6.125 "/></g></g></g><g fill="#000000" fill-opacity="1"><g transform="translate(429.231971, 507.224161)"><g/></g></g><g fill="#000000" fill-opacity="1"><g transform="translate(437.143562, 507.224161)"><g><path d="M 15.015625 -11.953125 L 1.5625 -11.953125 L 1.5625 -14.34375 L 15.015625 -14.34375 Z M 15.015625 -5.796875 L 1.5625 -5.796875 L 1.5625 -8.109375 L 15.015625 -8.109375 Z M 15.015625 -5.796875 "/></g></g></g><g fill="#000000" fill-opacity="1"><g transform="translate(453.76359, 507.224161)"><g/></g></g><g fill="#000000" fill-opacity="1"><g transform="translate(461.675182, 507.224161)"><g><path d="M 16.984375 -17.984375 L 4.953125 -17.984375 L 4.953125 -11.71875 L 16.21875 -11.71875 L 16.21875 -9.328125 L 4.953125 -9.328125 L 4.953125 -2.390625 L 17.4375 -2.390625 L 17.4375 0 L 2.25 0 L 2.25 -20.375 L 16.984375 -20.375 Z M 16.984375 -17.984375 "/></g></g></g><g fill="#000000" fill-opacity="1"><g transform="translate(480.657302, 507.224161)"><g><path d="M 6.578125 -20.71875 C 7.222656 -20.71875 7.976562 -20.628906 8.84375 -20.453125 L 8.484375 -18.265625 C 7.960938 -18.359375 7.46875 -18.40625 7 -18.40625 C 6.257812 -18.40625 5.734375 -18.242188 5.421875 -17.921875 C 5.109375 -17.597656 4.953125 -17.039062 4.953125 -16.25 L 4.953125 -14.734375 L 7.796875 -14.734375 L 7.796875 -12.859375 L 4.953125 -12.859375 L 4.953125 0 L 2.453125 0 L 2.453125 -12.859375 L 0.234375 -12.859375 L 0.234375 -14.734375 L 2.453125 -14.734375 L 2.453125 -16.46875 C 2.453125 -17.988281 2.789062 -19.078125 3.46875 -19.734375 C 4.15625 -20.390625 5.191406 -20.71875 6.578125 -20.71875 Z M 6.578125 -20.71875 "/></g></g></g><g fill="#000000" fill-opacity="1"><g transform="translate(488.568893, 507.224161)"><g><path d="M 6.578125 -20.71875 C 7.222656 -20.71875 7.976562 -20.628906 8.84375 -20.453125 L 8.484375 -18.265625 C 7.960938 -18.359375 7.46875 -18.40625 7 -18.40625 C 6.257812 -18.40625 5.734375 -18.242188 5.421875 -17.921875 C 5.109375 -17.597656 4.953125 -17.039062 4.953125 -16.25 L 4.953125 -14.734375 L 7.796875 -14.734375 L 7.796875 -12.859375 L 4.953125 -12.859375 L 4.953125 0 L 2.453125 0 L 2.453125 -12.859375 L 0.234375 -12.859375 L 0.234375 -14.734375 L 2.453125 -14.734375 L 2.453125 -16.46875 C 2.453125 -17.988281 2.789062 -19.078125 3.46875 -19.734375 C 4.15625 -20.390625 5.191406 -20.71875 6.578125 -20.71875 Z M 6.578125 -20.71875 "/></g></g></g><g fill="#000000" fill-opacity="1"><g transform="translate(496.480484, 507.224161)"><g><path d="M 8 -15.078125 C 9.414062 -15.078125 10.628906 -14.738281 11.640625 -14.0625 C 12.660156 -13.394531 13.425781 -12.488281 13.9375 -11.34375 C 14.445312 -10.207031 14.703125 -8.941406 14.703125 -7.546875 L 14.703125 -6.75 L 3.703125 -6.75 C 3.773438 -5.164062 4.21875 -3.929688 5.03125 -3.046875 C 5.851562 -2.171875 6.898438 -1.734375 8.171875 -1.734375 C 9.128906 -1.734375 9.925781 -1.988281 10.5625 -2.5 C 11.207031 -3.007812 11.695312 -3.757812 12.03125 -4.75 L 14.625 -4.4375 C 14.226562 -2.957031 13.472656 -1.796875 12.359375 -0.953125 C 11.253906 -0.109375 9.894531 0.3125 8.28125 0.3125 C 6.019531 0.3125 4.257812 -0.347656 3 -1.671875 C 1.738281 -3.003906 1.109375 -4.863281 1.109375 -7.25 C 1.109375 -8.84375 1.390625 -10.226562 1.953125 -11.40625 C 2.523438 -12.582031 3.328125 -13.488281 4.359375 -14.125 C 5.398438 -14.757812 6.613281 -15.078125 8 -15.078125 Z M 3.84375 -8.828125 L 12.0625 -8.828125 C 12.007812 -10.222656 11.578125 -11.269531 10.765625 -11.96875 C 9.960938 -12.675781 9.039062 -13.03125 8 -13.03125 C 6.820312 -13.03125 5.859375 -12.628906 5.109375 -11.828125 C 4.359375 -11.035156 3.9375 -10.035156 3.84375 -8.828125 Z M 3.84375 -8.828125 "/></g></g></g><g fill="#000000" fill-opacity="1"><g transform="translate(512.30364, 507.224161)"><g><path d="M 8.078125 -15.078125 C 9.535156 -15.078125 10.765625 -14.671875 11.765625 -13.859375 C 12.773438 -13.054688 13.425781 -11.90625 13.71875 -10.40625 L 11.296875 -10.046875 C 11.085938 -10.929688 10.707031 -11.648438 10.15625 -12.203125 C 9.601562 -12.753906 8.863281 -13.03125 7.9375 -13.03125 C 6.613281 -13.03125 5.570312 -12.554688 4.8125 -11.609375 C 4.050781 -10.660156 3.671875 -9.273438 3.671875 -7.453125 C 3.671875 -5.597656 4.023438 -4.179688 4.734375 -3.203125 C 5.441406 -2.222656 6.460938 -1.734375 7.796875 -1.734375 C 8.878906 -1.734375 9.722656 -2.0625 10.328125 -2.71875 C 10.929688 -3.375 11.320312 -4.269531 11.5 -5.40625 L 13.96875 -5.09375 C 13.707031 -3.382812 13.019531 -2.054688 11.90625 -1.109375 C 10.800781 -0.160156 9.429688 0.3125 7.796875 0.3125 C 5.691406 0.3125 4.050781 -0.375 2.875 -1.75 C 1.695312 -3.125 1.109375 -5.0625 1.109375 -7.5625 C 1.109375 -9.914062 1.726562 -11.753906 2.96875 -13.078125 C 4.21875 -14.410156 5.921875 -15.078125 8.078125 -15.078125 Z M 8.078125 -15.078125 "/></g></g></g><g fill="#000000" fill-opacity="1"><g transform="translate(526.533106, 507.224161)"><g><path d="M 4.8125 -14.734375 L 7.3125 -14.734375 L 7.3125 -12.859375 L 4.8125 -12.859375 L 4.8125 -3.734375 C 4.8125 -3.085938 4.898438 -2.628906 5.078125 -2.359375 C 5.253906 -2.097656 5.628906 -1.96875 6.203125 -1.96875 C 6.335938 -1.96875 6.707031 -2.015625 7.3125 -2.109375 L 7.6875 0.109375 C 6.925781 0.265625 6.304688 0.34375 5.828125 0.34375 C 4.859375 0.34375 4.117188 0.1875 3.609375 -0.125 C 3.097656 -0.4375 2.753906 -0.875 2.578125 -1.4375 C 2.398438 -2 2.3125 -2.722656 2.3125 -3.609375 L 2.3125 -12.859375 L 0.484375 -12.859375 L 0.484375 -14.734375 L 2.3125 -14.734375 L 2.3125 -18.40625 L 4.8125 -19.921875 Z M 4.8125 -14.734375 "/></g></g></g><g fill="#000000" fill-opacity="1"><g transform="translate(534.444697, 507.224161)"><g><path d="M 4.40625 -17.53125 L 1.90625 -17.53125 L 1.90625 -20.375 L 4.40625 -20.375 Z M 4.40625 0 L 1.90625 0 L 1.90625 -14.734375 L 4.40625 -14.734375 Z M 4.40625 0 "/></g></g></g><g fill="#000000" fill-opacity="1"><g transform="translate(540.762571, 507.224161)"><g><path d="M 6.03125 -6.3125 C 6.195312 -5.863281 6.441406 -5.109375 6.765625 -4.046875 L 7.140625 -2.9375 C 7.554688 -4.332031 7.859375 -5.257812 8.046875 -5.71875 L 11.328125 -14.734375 L 13.90625 -14.734375 L 8.34375 0 L 5.96875 0 L 0.375 -14.734375 L 3.015625 -14.734375 Z M 6.03125 -6.3125 "/></g></g></g><g fill="#000000" fill-opacity="1"><g transform="translate(554.992037, 507.224161)"><g><path d="M 8 -15.078125 C 9.414062 -15.078125 10.628906 -14.738281 11.640625 -14.0625 C 12.660156 -13.394531 13.425781 -12.488281 13.9375 -11.34375 C 14.445312 -10.207031 14.703125 -8.941406 14.703125 -7.546875 L 14.703125 -6.75 L 3.703125 -6.75 C 3.773438 -5.164062 4.21875 -3.929688 5.03125 -3.046875 C 5.851562 -2.171875 6.898438 -1.734375 8.171875 -1.734375 C 9.128906 -1.734375 9.925781 -1.988281 10.5625 -2.5 C 11.207031 -3.007812 11.695312 -3.757812 12.03125 -4.75 L 14.625 -4.4375 C 14.226562 -2.957031 13.472656 -1.796875 12.359375 -0.953125 C 11.253906 -0.109375 9.894531 0.3125 8.28125 0.3125 C 6.019531 0.3125 4.257812 -0.347656 3 -1.671875 C 1.738281 -3.003906 1.109375 -4.863281 1.109375 -7.25 C 1.109375 -8.84375 1.390625 -10.226562 1.953125 -11.40625 C 2.523438 -12.582031 3.328125 -13.488281 4.359375 -14.125 C 5.398438 -14.757812 6.613281 -15.078125 8 -15.078125 Z M 3.84375 -8.828125 L 12.0625 -8.828125 C 12.007812 -10.222656 11.578125 -11.269531 10.765625 -11.96875 C 9.960938 -12.675781 9.039062 -13.03125 8 -13.03125 C 6.820312 -13.03125 5.859375 -12.628906 5.109375 -11.828125 C 4.359375 -11.035156 3.9375 -10.035156 3.84375 -8.828125 Z M 3.84375 -8.828125 "/></g></g></g><g fill="#000000" fill-opacity="1"><g transform="translate(570.815193, 507.224161)"><g/></g></g><g fill="#000000" fill-opacity="1"><g transform="translate(578.726784, 507.224161)"><g><path d="M 4.84375 -2.390625 L 14.875 -2.390625 L 14.875 0 L 2.140625 0 L 2.140625 -20.375 L 4.84375 -20.375 Z M 4.84375 -2.390625 "/></g></g></g><g fill="#000000" fill-opacity="1"><g transform="translate(594.54994, 507.224161)"><g><path d="M 8 -15.078125 C 9.414062 -15.078125 10.628906 -14.738281 11.640625 -14.0625 C 12.660156 -13.394531 13.425781 -12.488281 13.9375 -11.34375 C 14.445312 -10.207031 14.703125 -8.941406 14.703125 -7.546875 L 14.703125 -6.75 L 3.703125 -6.75 C 3.773438 -5.164062 4.21875 -3.929688 5.03125 -3.046875 C 5.851562 -2.171875 6.898438 -1.734375 8.171875 -1.734375 C 9.128906 -1.734375 9.925781 -1.988281 10.5625 -2.5 C 11.207031 -3.007812 11.695312 -3.757812 12.03125 -4.75 L 14.625 -4.4375 C 14.226562 -2.957031 13.472656 -1.796875 12.359375 -0.953125 C 11.253906 -0.109375 9.894531 0.3125 8.28125 0.3125 C 6.019531 0.3125 4.257812 -0.347656 3 -1.671875 C 1.738281 -3.003906 1.109375 -4.863281 1.109375 -7.25 C 1.109375 -8.84375 1.390625 -10.226562 1.953125 -11.40625 C 2.523438 -12.582031 3.328125 -13.488281 4.359375 -14.125 C 5.398438 -14.757812 6.613281 -15.078125 8 -15.078125 Z M 3.84375 -8.828125 L 12.0625 -8.828125 C 12.007812 -10.222656 11.578125 -11.269531 10.765625 -11.96875 C 9.960938 -12.675781 9.039062 -13.03125 8 -13.03125 C 6.820312 -13.03125 5.859375 -12.628906 5.109375 -11.828125 C 4.359375 -11.035156 3.9375 -10.035156 3.84375 -8.828125 Z M 3.84375 -8.828125 "/></g></g></g><g fill="#000000" fill-opacity="1"><g transform="translate(610.373096, 507.224161)"><g><path d="M 7.390625 -15.078125 C 9.097656 -15.078125 10.523438 -14.375 11.671875 -12.96875 L 11.671875 -14.734375 L 13.96875 -14.734375 L 13.96875 -1.765625 C 13.96875 0.398438 13.691406 2.003906 13.140625 3.046875 C 12.671875 3.929688 11.957031 4.640625 11 5.171875 C 10.039062 5.703125 8.8125 5.96875 7.3125 5.96875 C 6.0625 5.96875 4.992188 5.769531 4.109375 5.375 C 3.222656 4.976562 2.554688 4.453125 2.109375 3.796875 C 1.671875 3.140625 1.453125 2.425781 1.453125 1.65625 L 1.484375 1.21875 L 3.890625 1.59375 L 3.890625 1.65625 C 4.023438 2.425781 4.375 2.992188 4.9375 3.359375 C 5.5 3.734375 6.328125 3.921875 7.421875 3.921875 C 8.160156 3.921875 8.8125 3.796875 9.375 3.546875 C 9.9375 3.304688 10.378906 2.96875 10.703125 2.53125 C 10.984375 2.132812 11.175781 1.664062 11.28125 1.125 C 11.382812 0.582031 11.4375 -0.078125 11.4375 -0.859375 L 11.4375 -1.9375 C 10.320312 -0.644531 8.972656 0 7.390625 0 C 6.117188 0 5 -0.316406 4.03125 -0.953125 C 3.070312 -1.585938 2.320312 -2.472656 1.78125 -3.609375 C 1.238281 -4.753906 0.96875 -6.046875 0.96875 -7.484375 C 0.96875 -9.003906 1.234375 -10.335938 1.765625 -11.484375 C 2.296875 -12.628906 3.046875 -13.515625 4.015625 -14.140625 C 4.992188 -14.765625 6.117188 -15.078125 7.390625 -15.078125 Z M 3.53125 -7.65625 C 3.53125 -5.832031 3.898438 -4.441406 4.640625 -3.484375 C 5.378906 -2.523438 6.382812 -2.046875 7.65625 -2.046875 C 8.1875 -2.046875 8.796875 -2.21875 9.484375 -2.5625 C 10.179688 -2.914062 10.738281 -3.570312 11.15625 -4.53125 C 11.476562 -5.28125 11.640625 -6.265625 11.640625 -7.484375 C 11.640625 -9.242188 11.257812 -10.609375 10.5 -11.578125 C 9.738281 -12.546875 8.742188 -13.03125 7.515625 -13.03125 C 6.359375 -13.03125 5.40625 -12.550781 4.65625 -11.59375 C 3.90625 -10.632812 3.53125 -9.320312 3.53125 -7.65625 Z M 3.53125 -7.65625 "/></g></g></g><g fill="#000000" fill-opacity="1"><g transform="translate(626.196251, 507.224161)"><g/></g></g><g fill="#000000" fill-opacity="1"><g transform="translate(634.107843, 507.224161)"><g><path d="M 19.03125 0 L 15.96875 0 L 13.578125 -6.203125 L 5.0625 -6.203125 L 2.84375 0 L -0.03125 0 L 7.796875 -20.375 L 10.703125 -20.375 Z M 8.078125 -14.34375 L 5.859375 -8.359375 L 12.75 -8.359375 L 10.25 -15.078125 C 9.9375 -15.878906 9.582031 -16.929688 9.1875 -18.234375 C 9.1875 -18.140625 9.070312 -17.660156 8.84375 -16.796875 C 8.613281 -15.929688 8.359375 -15.113281 8.078125 -14.34375 Z M 8.078125 -14.34375 "/></g></g></g><g fill="#000000" fill-opacity="1"><g transform="translate(653.089963, 507.224161)"><g><path d="M 14.515625 -19.15625 C 15.273438 -18.582031 15.800781 -17.9375 16.09375 -17.21875 C 16.382812 -16.507812 16.53125 -15.882812 16.53125 -15.34375 C 16.53125 -13.289062 15.570312 -11.789062 13.65625 -10.84375 C 14.96875 -10.445312 15.929688 -9.8125 16.546875 -8.9375 C 17.160156 -8.0625 17.46875 -7.015625 17.46875 -5.796875 C 17.46875 -4.867188 17.226562 -3.925781 16.75 -2.96875 C 16.28125 -2.007812 15.457031 -1.257812 14.28125 -0.71875 C 13.28125 -0.238281 11.882812 0 10.09375 0 L 2.109375 0 L 2.109375 -20.375 L 9.9375 -20.375 C 11.070312 -20.375 11.976562 -20.273438 12.65625 -20.078125 C 13.34375 -19.878906 13.960938 -19.570312 14.515625 -19.15625 Z M 13.859375 -14.859375 C 13.859375 -16.085938 13.460938 -16.914062 12.671875 -17.34375 C 11.890625 -17.769531 10.710938 -17.984375 9.140625 -17.984375 L 4.8125 -17.984375 L 4.8125 -11.8125 L 9.390625 -11.8125 C 10.921875 -11.8125 12.046875 -12.050781 12.765625 -12.53125 C 13.492188 -13.019531 13.859375 -13.796875 13.859375 -14.859375 Z M 12.890625 -2.875 C 13.535156 -3.195312 13.992188 -3.628906 14.265625 -4.171875 C 14.546875 -4.722656 14.6875 -5.296875 14.6875 -5.890625 C 14.6875 -6.679688 14.484375 -7.351562 14.078125 -7.90625 C 13.679688 -8.457031 13.113281 -8.859375 12.375 -9.109375 C 11.769531 -9.316406 10.890625 -9.421875 9.734375 -9.421875 L 4.8125 -9.421875 L 4.8125 -2.390625 L 10.25 -2.390625 C 10.875 -2.390625 11.382812 -2.425781 11.78125 -2.5 C 12.175781 -2.582031 12.546875 -2.707031 12.890625 -2.875 Z M 12.890625 -2.875 "/></g></g></g><g fill="#000000" fill-opacity="1"><g transform="translate(672.072083, 507.224161)"><g/></g></g><g fill="#000000" fill-opacity="1"><g transform="translate(679.983674, 507.224161)"><g><path d="M 9.46875 -16.765625 L 9.46875 -11.234375 L 15.015625 -11.234375 L 15.015625 -8.84375 L 9.46875 -8.84375 L 9.46875 -3.296875 L 7.109375 -3.296875 L 7.109375 -8.84375 L 1.5625 -8.84375 L 1.5625 -11.234375 L 7.109375 -11.234375 L 7.109375 -16.765625 Z M 9.46875 -16.765625 "/></g></g></g><g fill="#000000" fill-opacity="1"><g transform="translate(696.603702, 507.224161)"><g/></g></g><g fill="#000000" fill-opacity="1"><g transform="translate(704.515293, 507.224161)"><g><path d="M 16.984375 -17.984375 L 4.953125 -17.984375 L 4.953125 -11.71875 L 16.21875 -11.71875 L 16.21875 -9.328125 L 4.953125 -9.328125 L 4.953125 -2.390625 L 17.4375 -2.390625 L 17.4375 0 L 2.25 0 L 2.25 -20.375 L 16.984375 -20.375 Z M 16.984375 -17.984375 "/></g></g></g><g fill="#000000" fill-opacity="1"><g transform="translate(723.49744, 507.224161)"><g><path d="M 6.578125 -20.71875 C 7.222656 -20.71875 7.976562 -20.628906 8.84375 -20.453125 L 8.484375 -18.265625 C 7.960938 -18.359375 7.46875 -18.40625 7 -18.40625 C 6.257812 -18.40625 5.734375 -18.242188 5.421875 -17.921875 C 5.109375 -17.597656 4.953125 -17.039062 4.953125 -16.25 L 4.953125 -14.734375 L 7.796875 -14.734375 L 7.796875 -12.859375 L 4.953125 -12.859375 L 4.953125 0 L 2.453125 0 L 2.453125 -12.859375 L 0.234375 -12.859375 L 0.234375 -14.734375 L 2.453125 -14.734375 L 2.453125 -16.46875 C 2.453125 -17.988281 2.789062 -19.078125 3.46875 -19.734375 C 4.15625 -20.390625 5.191406 -20.71875 6.578125 -20.71875 Z M 6.578125 -20.71875 "/></g></g></g><g fill="#000000" fill-opacity="1"><g transform="translate(731.409005, 507.224161)"><g><path d="M 6.578125 -20.71875 C 7.222656 -20.71875 7.976562 -20.628906 8.84375 -20.453125 L 8.484375 -18.265625 C 7.960938 -18.359375 7.46875 -18.40625 7 -18.40625 C 6.257812 -18.40625 5.734375 -18.242188 5.421875 -17.921875 C 5.109375 -17.597656 4.953125 -17.039062 4.953125 -16.25 L 4.953125 -14.734375 L 7.796875 -14.734375 L 7.796875 -12.859375 L 4.953125 -12.859375 L 4.953125 0 L 2.453125 0 L 2.453125 -12.859375 L 0.234375 -12.859375 L 0.234375 -14.734375 L 2.453125 -14.734375 L 2.453125 -16.46875 C 2.453125 -17.988281 2.789062 -19.078125 3.46875 -19.734375 C 4.15625 -20.390625 5.191406 -20.71875 6.578125 -20.71875 Z M 6.578125 -20.71875 "/></g></g></g><g fill="#000000" fill-opacity="1"><g transform="translate(739.320569, 507.224161)"><g><path d="M 8 -15.078125 C 9.414062 -15.078125 10.628906 -14.738281 11.640625 -14.0625 C 12.660156 -13.394531 13.425781 -12.488281 13.9375 -11.34375 C 14.445312 -10.207031 14.703125 -8.941406 14.703125 -7.546875 L 14.703125 -6.75 L 3.703125 -6.75 C 3.773438 -5.164062 4.21875 -3.929688 5.03125 -3.046875 C 5.851562 -2.171875 6.898438 -1.734375 8.171875 -1.734375 C 9.128906 -1.734375 9.925781 -1.988281 10.5625 -2.5 C 11.207031 -3.007812 11.695312 -3.757812 12.03125 -4.75 L 14.625 -4.4375 C 14.226562 -2.957031 13.472656 -1.796875 12.359375 -0.953125 C 11.253906 -0.109375 9.894531 0.3125 8.28125 0.3125 C 6.019531 0.3125 4.257812 -0.347656 3 -1.671875 C 1.738281 -3.003906 1.109375 -4.863281 1.109375 -7.25 C 1.109375 -8.84375 1.390625 -10.226562 1.953125 -11.40625 C 2.523438 -12.582031 3.328125 -13.488281 4.359375 -14.125 C 5.398438 -14.757812 6.613281 -15.078125 8 -15.078125 Z M 3.84375 -8.828125 L 12.0625 -8.828125 C 12.007812 -10.222656 11.578125 -11.269531 10.765625 -11.96875 C 9.960938 -12.675781 9.039062 -13.03125 8 -13.03125 C 6.820312 -13.03125 5.859375 -12.628906 5.109375 -11.828125 C 4.359375 -11.035156 3.9375 -10.035156 3.84375 -8.828125 Z M 3.84375 -8.828125 "/></g></g></g><g fill="#000000" fill-opacity="1"><g transform="translate(755.143697, 507.224161)"><g><path d="M 8.078125 -15.078125 C 9.535156 -15.078125 10.765625 -14.671875 11.765625 -13.859375 C 12.773438 -13.054688 13.425781 -11.90625 13.71875 -10.40625 L 11.296875 -10.046875 C 11.085938 -10.929688 10.707031 -11.648438 10.15625 -12.203125 C 9.601562 -12.753906 8.863281 -13.03125 7.9375 -13.03125 C 6.613281 -13.03125 5.570312 -12.554688 4.8125 -11.609375 C 4.050781 -10.660156 3.671875 -9.273438 3.671875 -7.453125 C 3.671875 -5.597656 4.023438 -4.179688 4.734375 -3.203125 C 5.441406 -2.222656 6.460938 -1.734375 7.796875 -1.734375 C 8.878906 -1.734375 9.722656 -2.0625 10.328125 -2.71875 C 10.929688 -3.375 11.320312 -4.269531 11.5 -5.40625 L 13.96875 -5.09375 C 13.707031 -3.382812 13.019531 -2.054688 11.90625 -1.109375 C 10.800781 -0.160156 9.429688 0.3125 7.796875 0.3125 C 5.691406 0.3125 4.050781 -0.375 2.875 -1.75 C 1.695312 -3.125 1.109375 -5.0625 1.109375 -7.5625 C 1.109375 -9.914062 1.726562 -11.753906 2.96875 -13.078125 C 4.21875 -14.410156 5.921875 -15.078125 8.078125 -15.078125 Z M 8.078125 -15.078125 "/></g></g><g transform="translate(769.373136, 507.224161)"><g><path d="M 4.8125 -14.734375 L 7.3125 -14.734375 L 7.3125 -12.859375 L 4.8125 -12.859375 L 4.8125 -3.734375 C 4.8125 -3.085938 4.898438 -2.628906 5.078125 -2.359375 C 5.253906 -2.097656 5.628906 -1.96875 6.203125 -1.96875 C 6.335938 -1.96875 6.707031 -2.015625 7.3125 -2.109375 L 7.6875 0.109375 C 6.925781 0.265625 6.304688 0.34375 5.828125 0.34375 C 4.859375 0.34375 4.117188 0.1875 3.609375 -0.125 C 3.097656 -0.4375 2.753906 -0.875 2.578125 -1.4375 C 2.398438 -2 2.3125 -2.722656 2.3125 -3.609375 L 2.3125 -12.859375 L 0.484375 -12.859375 L 0.484375 -14.734375 L 2.3125 -14.734375 L 2.3125 -18.40625 L 4.8125 -19.921875 Z M 4.8125 -14.734375 "/></g></g></g><g fill="#000000" fill-opacity="1"><g transform="translate(777.2847, 507.224161)"><g><path d="M 4.40625 -17.53125 L 1.90625 -17.53125 L 1.90625 -20.375 L 4.40625 -20.375 Z M 4.40625 0 L 1.90625 0 L 1.90625 -14.734375 L 4.40625 -14.734375 Z M 4.40625 0 "/></g></g></g><g fill="#000000" fill-opacity="1"><g transform="translate(783.602574, 507.224161)"><g><path d="M 6.03125 -6.3125 C 6.195312 -5.863281 6.441406 -5.109375 6.765625 -4.046875 L 7.140625 -2.9375 C 7.554688 -4.332031 7.859375 -5.257812 8.046875 -5.71875 L 11.328125 -14.734375 L 13.90625 -14.734375 L 8.34375 0 L 5.96875 0 L 0.375 -14.734375 L 3.015625 -14.734375 Z M 6.03125 -6.3125 "/></g></g><g transform="translate(797.832012, 507.224161)"><g><path d="M 8 -15.078125 C 9.414062 -15.078125 10.628906 -14.738281 11.640625 -14.0625 C 12.660156 -13.394531 13.425781 -12.488281 13.9375 -11.34375 C 14.445312 -10.207031 14.703125 -8.941406 14.703125 -7.546875 L 14.703125 -6.75 L 3.703125 -6.75 C 3.773438 -5.164062 4.21875 -3.929688 5.03125 -3.046875 C 5.851562 -2.171875 6.898438 -1.734375 8.171875 -1.734375 C 9.128906 -1.734375 9.925781 -1.988281 10.5625 -2.5 C 11.207031 -3.007812 11.695312 -3.757812 12.03125 -4.75 L 14.625 -4.4375 C 14.226562 -2.957031 13.472656 -1.796875 12.359375 -0.953125 C 11.253906 -0.109375 9.894531 0.3125 8.28125 0.3125 C 6.019531 0.3125 4.257812 -0.347656 3 -1.671875 C 1.738281 -3.003906 1.109375 -4.863281 1.109375 -7.25 C 1.109375 -8.84375 1.390625 -10.226562 1.953125 -11.40625 C 2.523438 -12.582031 3.328125 -13.488281 4.359375 -14.125 C 5.398438 -14.757812 6.613281 -15.078125 8 -15.078125 Z M 3.84375 -8.828125 L 12.0625 -8.828125 C 12.007812 -10.222656 11.578125 -11.269531 10.765625 -11.96875 C 9.960938 -12.675781 9.039062 -13.03125 8 -13.03125 C 6.820312 -13.03125 5.859375 -12.628906 5.109375 -11.828125 C 4.359375 -11.035156 3.9375 -10.035156 3.84375 -8.828125 Z M 3.84375 -8.828125 "/></g></g></g><g fill="#000000" fill-opacity="1"><g transform="translate(813.655141, 507.224161)"><g/></g></g><g fill="#000000" fill-opacity="1"><g transform="translate(821.566705, 507.224161)"><g><path d="M 4.84375 -2.390625 L 14.875 -2.390625 L 14.875 0 L 2.140625 0 L 2.140625 -20.375 L 4.84375 -20.375 Z M 4.84375 -2.390625 "/></g></g></g><g fill="#000000" fill-opacity="1"><g transform="translate(837.389834, 507.224161)"><g><path d="M 8 -15.078125 C 9.414062 -15.078125 10.628906 -14.738281 11.640625 -14.0625 C 12.660156 -13.394531 13.425781 -12.488281 13.9375 -11.34375 C 14.445312 -10.207031 14.703125 -8.941406 14.703125 -7.546875 L 14.703125 -6.75 L 3.703125 -6.75 C 3.773438 -5.164062 4.21875 -3.929688 5.03125 -3.046875 C 5.851562 -2.171875 6.898438 -1.734375 8.171875 -1.734375 C 9.128906 -1.734375 9.925781 -1.988281 10.5625 -2.5 C 11.207031 -3.007812 11.695312 -3.757812 12.03125 -4.75 L 14.625 -4.4375 C 14.226562 -2.957031 13.472656 -1.796875 12.359375 -0.953125 C 11.253906 -0.109375 9.894531 0.3125 8.28125 0.3125 C 6.019531 0.3125 4.257812 -0.347656 3 -1.671875 C 1.738281 -3.003906 1.109375 -4.863281 1.109375 -7.25 C 1.109375 -8.84375 1.390625 -10.226562 1.953125 -11.40625 C 2.523438 -12.582031 3.328125 -13.488281 4.359375 -14.125 C 5.398438 -14.757812 6.613281 -15.078125 8 -15.078125 Z M 3.84375 -8.828125 L 12.0625 -8.828125 C 12.007812 -10.222656 11.578125 -11.269531 10.765625 -11.96875 C 9.960938 -12.675781 9.039062 -13.03125 8 -13.03125 C 6.820312 -13.03125 5.859375 -12.628906 5.109375 -11.828125 C 4.359375 -11.035156 3.9375 -10.035156 3.84375 -8.828125 Z M 3.84375 -8.828125 "/></g></g></g><g fill="#000000" fill-opacity="1"><g transform="translate(853.212962, 507.224161)"><g><path d="M 7.390625 -15.078125 C 9.097656 -15.078125 10.523438 -14.375 11.671875 -12.96875 L 11.671875 -14.734375 L 13.96875 -14.734375 L 13.96875 -1.765625 C 13.96875 0.398438 13.691406 2.003906 13.140625 3.046875 C 12.671875 3.929688 11.957031 4.640625 11 5.171875 C 10.039062 5.703125 8.8125 5.96875 7.3125 5.96875 C 6.0625 5.96875 4.992188 5.769531 4.109375 5.375 C 3.222656 4.976562 2.554688 4.453125 2.109375 3.796875 C 1.671875 3.140625 1.453125 2.425781 1.453125 1.65625 L 1.484375 1.21875 L 3.890625 1.59375 L 3.890625 1.65625 C 4.023438 2.425781 4.375 2.992188 4.9375 3.359375 C 5.5 3.734375 6.328125 3.921875 7.421875 3.921875 C 8.160156 3.921875 8.8125 3.796875 9.375 3.546875 C 9.9375 3.304688 10.378906 2.96875 10.703125 2.53125 C 10.984375 2.132812 11.175781 1.664062 11.28125 1.125 C 11.382812 0.582031 11.4375 -0.078125 11.4375 -0.859375 L 11.4375 -1.9375 C 10.320312 -0.644531 8.972656 0 7.390625 0 C 6.117188 0 5 -0.316406 4.03125 -0.953125 C 3.070312 -1.585938 2.320312 -2.472656 1.78125 -3.609375 C 1.238281 -4.753906 0.96875 -6.046875 0.96875 -7.484375 C 0.96875 -9.003906 1.234375 -10.335938 1.765625 -11.484375 C 2.296875 -12.628906 3.046875 -13.515625 4.015625 -14.140625 C 4.992188 -14.765625 6.117188 -15.078125 7.390625 -15.078125 Z M 3.53125 -7.65625 C 3.53125 -5.832031 3.898438 -4.441406 4.640625 -3.484375 C 5.378906 -2.523438 6.382812 -2.046875 7.65625 -2.046875 C 8.1875 -2.046875 8.796875 -2.21875 9.484375 -2.5625 C 10.179688 -2.914062 10.738281 -3.570312 11.15625 -4.53125 C 11.476562 -5.28125 11.640625 -6.265625 11.640625 -7.484375 C 11.640625 -9.242188 11.257812 -10.609375 10.5 -11.578125 C 9.738281 -12.546875 8.742188 -13.03125 7.515625 -13.03125 C 6.359375 -13.03125 5.40625 -12.550781 4.65625 -11.59375 C 3.90625 -10.632812 3.53125 -9.320312 3.53125 -7.65625 Z M 3.53125 -7.65625 "/></g></g></g><g fill="#000000" fill-opacity="1"><g transform="translate(869.036091, 507.224161)"><g/></g></g><g fill="#000000" fill-opacity="1"><g transform="translate(876.947655, 507.224161)"><g><path d="M 19.03125 0 L 15.96875 0 L 13.578125 -6.203125 L 5.0625 -6.203125 L 2.84375 0 L -0.03125 0 L 7.796875 -20.375 L 10.703125 -20.375 Z M 8.078125 -14.34375 L 5.859375 -8.359375 L 12.75 -8.359375 L 10.25 -15.078125 C 9.9375 -15.878906 9.582031 -16.929688 9.1875 -18.234375 C 9.1875 -18.140625 9.070312 -17.660156 8.84375 -16.796875 C 8.613281 -15.929688 8.359375 -15.113281 8.078125 -14.34375 Z M 8.078125 -14.34375 "/></g></g></g><g fill="#000000" fill-opacity="1"><g transform="translate(895.929775, 507.224161)"><g><path d="M 11.0625 -20.71875 C 13.132812 -20.71875 14.863281 -20.1875 16.25 -19.125 C 17.632812 -18.0625 18.59375 -16.609375 19.125 -14.765625 L 16.453125 -14.140625 C 16.015625 -15.503906 15.359375 -16.554688 14.484375 -17.296875 C 13.609375 -18.035156 12.453125 -18.40625 11.015625 -18.40625 C 8.890625 -18.40625 7.226562 -17.703125 6.03125 -16.296875 C 4.832031 -14.898438 4.234375 -12.910156 4.234375 -10.328125 C 4.234375 -7.628906 4.816406 -5.5625 5.984375 -4.125 C 7.148438 -2.6875 8.78125 -1.96875 10.875 -1.96875 C 12.351562 -1.96875 13.613281 -2.40625 14.65625 -3.28125 C 15.695312 -4.164062 16.398438 -5.453125 16.765625 -7.140625 L 19.46875 -6.453125 C 18.894531 -4.316406 17.875 -2.648438 16.40625 -1.453125 C 14.945312 -0.253906 13.128906 0.34375 10.953125 0.34375 C 9.453125 0.34375 8.171875 0.144531 7.109375 -0.25 C 6.046875 -0.65625 5.144531 -1.242188 4.40625 -2.015625 C 3.382812 -3.097656 2.632812 -4.359375 2.15625 -5.796875 C 1.6875 -7.242188 1.453125 -8.753906 1.453125 -10.328125 C 1.453125 -12.429688 1.851562 -14.265625 2.65625 -15.828125 C 3.46875 -17.398438 4.597656 -18.609375 6.046875 -19.453125 C 7.492188 -20.296875 9.164062 -20.71875 11.0625 -20.71875 Z M 11.0625 -20.71875 "/></g></g></g><g fill="#000000" fill-opacity="1"><g transform="translate(916.477142, 507.224161)"><g/></g></g><g fill="#000000" fill-opacity="1"><g transform="translate(924.388706, 507.224161)"><g><path d="M 9.46875 -16.765625 L 9.46875 -11.234375 L 15.015625 -11.234375 L 15.015625 -8.84375 L 9.46875 -8.84375 L 9.46875 -3.296875 L 7.109375 -3.296875 L 7.109375 -8.84375 L 1.5625 -8.84375 L 1.5625 -11.234375 L 7.109375 -11.234375 L 7.109375 -16.765625 Z M 9.46875 -16.765625 "/></g></g></g><g fill="#000000" fill-opacity="1"><g transform="translate(941.008734, 507.224161)"><g/></g></g><g fill="#000000" fill-opacity="1"><g transform="translate(948.920352, 507.224161)"><g><path d="M 16.984375 -17.984375 L 4.953125 -17.984375 L 4.953125 -11.71875 L 16.21875 -11.71875 L 16.21875 -9.328125 L 4.953125 -9.328125 L 4.953125 -2.390625 L 17.4375 -2.390625 L 17.4375 0 L 2.25 0 L 2.25 -20.375 L 16.984375 -20.375 Z M 16.984375 -17.984375 "/></g></g></g><g fill="#000000" fill-opacity="1"><g transform="translate(967.902472, 507.224161)"><g><path d="M 6.578125 -20.71875 C 7.222656 -20.71875 7.976562 -20.628906 8.84375 -20.453125 L 8.484375 -18.265625 C 7.960938 -18.359375 7.46875 -18.40625 7 -18.40625 C 6.257812 -18.40625 5.734375 -18.242188 5.421875 -17.921875 C 5.109375 -17.597656 4.953125 -17.039062 4.953125 -16.25 L 4.953125 -14.734375 L 7.796875 -14.734375 L 7.796875 -12.859375 L 4.953125 -12.859375 L 4.953125 0 L 2.453125 0 L 2.453125 -12.859375 L 0.234375 -12.859375 L 0.234375 -14.734375 L 2.453125 -14.734375 L 2.453125 -16.46875 C 2.453125 -17.988281 2.789062 -19.078125 3.46875 -19.734375 C 4.15625 -20.390625 5.191406 -20.71875 6.578125 -20.71875 Z M 6.578125 -20.71875 "/></g></g></g><g fill="#000000" fill-opacity="1"><g transform="translate(975.814091, 507.224161)"><g><path d="M 6.578125 -20.71875 C 7.222656 -20.71875 7.976562 -20.628906 8.84375 -20.453125 L 8.484375 -18.265625 C 7.960938 -18.359375 7.46875 -18.40625 7 -18.40625 C 6.257812 -18.40625 5.734375 -18.242188 5.421875 -17.921875 C 5.109375 -17.597656 4.953125 -17.039062 4.953125 -16.25 L 4.953125 -14.734375 L 7.796875 -14.734375 L 7.796875 -12.859375 L 4.953125 -12.859375 L 4.953125 0 L 2.453125 0 L 2.453125 -12.859375 L 0.234375 -12.859375 L 0.234375 -14.734375 L 2.453125 -14.734375 L 2.453125 -16.46875 C 2.453125 -17.988281 2.789062 -19.078125 3.46875 -19.734375 C 4.15625 -20.390625 5.191406 -20.71875 6.578125 -20.71875 Z M 6.578125 -20.71875 "/></g></g></g><g fill="#000000" fill-opacity="1"><g transform="translate(983.725655, 507.224161)"><g><path d="M 8 -15.078125 C 9.414062 -15.078125 10.628906 -14.738281 11.640625 -14.0625 C 12.660156 -13.394531 13.425781 -12.488281 13.9375 -11.34375 C 14.445312 -10.207031 14.703125 -8.941406 14.703125 -7.546875 L 14.703125 -6.75 L 3.703125 -6.75 C 3.773438 -5.164062 4.21875 -3.929688 5.03125 -3.046875 C 5.851562 -2.171875 6.898438 -1.734375 8.171875 -1.734375 C 9.128906 -1.734375 9.925781 -1.988281 10.5625 -2.5 C 11.207031 -3.007812 11.695312 -3.757812 12.03125 -4.75 L 14.625 -4.4375 C 14.226562 -2.957031 13.472656 -1.796875 12.359375 -0.953125 C 11.253906 -0.109375 9.894531 0.3125 8.28125 0.3125 C 6.019531 0.3125 4.257812 -0.347656 3 -1.671875 C 1.738281 -3.003906 1.109375 -4.863281 1.109375 -7.25 C 1.109375 -8.84375 1.390625 -10.226562 1.953125 -11.40625 C 2.523438 -12.582031 3.328125 -13.488281 4.359375 -14.125 C 5.398438 -14.757812 6.613281 -15.078125 8 -15.078125 Z M 3.84375 -8.828125 L 12.0625 -8.828125 C 12.007812 -10.222656 11.578125 -11.269531 10.765625 -11.96875 C 9.960938 -12.675781 9.039062 -13.03125 8 -13.03125 C 6.820312 -13.03125 5.859375 -12.628906 5.109375 -11.828125 C 4.359375 -11.035156 3.9375 -10.035156 3.84375 -8.828125 Z M 3.84375 -8.828125 "/></g></g></g><g fill="#000000" fill-opacity="1"><g transform="translate(999.548784, 507.224161)"><g><path d="M 8.078125 -15.078125 C 9.535156 -15.078125 10.765625 -14.671875 11.765625 -13.859375 C 12.773438 -13.054688 13.425781 -11.90625 13.71875 -10.40625 L 11.296875 -10.046875 C 11.085938 -10.929688 10.707031 -11.648438 10.15625 -12.203125 C 9.601562 -12.753906 8.863281 -13.03125 7.9375 -13.03125 C 6.613281 -13.03125 5.570312 -12.554688 4.8125 -11.609375 C 4.050781 -10.660156 3.671875 -9.273438 3.671875 -7.453125 C 3.671875 -5.597656 4.023438 -4.179688 4.734375 -3.203125 C 5.441406 -2.222656 6.460938 -1.734375 7.796875 -1.734375 C 8.878906 -1.734375 9.722656 -2.0625 10.328125 -2.71875 C 10.929688 -3.375 11.320312 -4.269531 11.5 -5.40625 L 13.96875 -5.09375 C 13.707031 -3.382812 13.019531 -2.054688 11.90625 -1.109375 C 10.800781 -0.160156 9.429688 0.3125 7.796875 0.3125 C 5.691406 0.3125 4.050781 -0.375 2.875 -1.75 C 1.695312 -3.125 1.109375 -5.0625 1.109375 -7.5625 C 1.109375 -9.914062 1.726562 -11.753906 2.96875 -13.078125 C 4.21875 -14.410156 5.921875 -15.078125 8.078125 -15.078125 Z M 8.078125 -15.078125 "/></g></g><g transform="translate(1013.778222, 507.224161)"><g><path d="M 4.8125 -14.734375 L 7.3125 -14.734375 L 7.3125 -12.859375 L 4.8125 -12.859375 L 4.8125 -3.734375 C 4.8125 -3.085938 4.898438 -2.628906 5.078125 -2.359375 C 5.253906 -2.097656 5.628906 -1.96875 6.203125 -1.96875 C 6.335938 -1.96875 6.707031 -2.015625 7.3125 -2.109375 L 7.6875 0.109375 C 6.925781 0.265625 6.304688 0.34375 5.828125 0.34375 C 4.859375 0.34375 4.117188 0.1875 3.609375 -0.125 C 3.097656 -0.4375 2.753906 -0.875 2.578125 -1.4375 C 2.398438 -2 2.3125 -2.722656 2.3125 -3.609375 L 2.3125 -12.859375 L 0.484375 -12.859375 L 0.484375 -14.734375 L 2.3125 -14.734375 L 2.3125 -18.40625 L 4.8125 -19.921875 Z M 4.8125 -14.734375 "/></g></g></g><g fill="#000000" fill-opacity="1"><g transform="translate(1021.689786, 507.224161)"><g><path d="M 4.40625 -17.53125 L 1.90625 -17.53125 L 1.90625 -20.375 L 4.40625 -20.375 Z M 4.40625 0 L 1.90625 0 L 1.90625 -14.734375 L 4.40625 -14.734375 Z M 4.40625 0 "/></g></g></g><g fill="#000000" fill-opacity="1"><g transform="translate(1028.00766, 507.224161)"><g><path d="M 6.03125 -6.3125 C 6.195312 -5.863281 6.441406 -5.109375 6.765625 -4.046875 L 7.140625 -2.9375 C 7.554688 -4.332031 7.859375 -5.257812 8.046875 -5.71875 L 11.328125 -14.734375 L 13.90625 -14.734375 L 8.34375 0 L 5.96875 0 L 0.375 -14.734375 L 3.015625 -14.734375 Z M 6.03125 -6.3125 "/></g></g><g transform="translate(1042.237099, 507.224161)"><g><path d="M 8 -15.078125 C 9.414062 -15.078125 10.628906 -14.738281 11.640625 -14.0625 C 12.660156 -13.394531 13.425781 -12.488281 13.9375 -11.34375 C 14.445312 -10.207031 14.703125 -8.941406 14.703125 -7.546875 L 14.703125 -6.75 L 3.703125 -6.75 C 3.773438 -5.164062 4.21875 -3.929688 5.03125 -3.046875 C 5.851562 -2.171875 6.898438 -1.734375 8.171875 -1.734375 C 9.128906 -1.734375 9.925781 -1.988281 10.5625 -2.5 C 11.207031 -3.007812 11.695312 -3.757812 12.03125 -4.75 L 14.625 -4.4375 C 14.226562 -2.957031 13.472656 -1.796875 12.359375 -0.953125 C 11.253906 -0.109375 9.894531 0.3125 8.28125 0.3125 C 6.019531 0.3125 4.257812 -0.347656 3 -1.671875 C 1.738281 -3.003906 1.109375 -4.863281 1.109375 -7.25 C 1.109375 -8.84375 1.390625 -10.226562 1.953125 -11.40625 C 2.523438 -12.582031 3.328125 -13.488281 4.359375 -14.125 C 5.398438 -14.757812 6.613281 -15.078125 8 -15.078125 Z M 3.84375 -8.828125 L 12.0625 -8.828125 C 12.007812 -10.222656 11.578125 -11.269531 10.765625 -11.96875 C 9.960938 -12.675781 9.039062 -13.03125 8 -13.03125 C 6.820312 -13.03125 5.859375 -12.628906 5.109375 -11.828125 C 4.359375 -11.035156 3.9375 -10.035156 3.84375 -8.828125 Z M 3.84375 -8.828125 "/></g></g></g><g fill="#000000" fill-opacity="1"><g transform="translate(1058.060227, 507.224161)"><g/></g></g><g fill="#000000" fill-opacity="1"><g transform="translate(1065.971791, 507.224161)"><g><path d="M 4.84375 -2.390625 L 14.875 -2.390625 L 14.875 0 L 2.140625 0 L 2.140625 -20.375 L 4.84375 -20.375 Z M 4.84375 -2.390625 "/></g></g></g><g fill="#000000" fill-opacity="1"><g transform="translate(1081.79492, 507.224161)"><g><path d="M 8 -15.078125 C 9.414062 -15.078125 10.628906 -14.738281 11.640625 -14.0625 C 12.660156 -13.394531 13.425781 -12.488281 13.9375 -11.34375 C 14.445312 -10.207031 14.703125 -8.941406 14.703125 -7.546875 L 14.703125 -6.75 L 3.703125 -6.75 C 3.773438 -5.164062 4.21875 -3.929688 5.03125 -3.046875 C 5.851562 -2.171875 6.898438 -1.734375 8.171875 -1.734375 C 9.128906 -1.734375 9.925781 -1.988281 10.5625 -2.5 C 11.207031 -3.007812 11.695312 -3.757812 12.03125 -4.75 L 14.625 -4.4375 C 14.226562 -2.957031 13.472656 -1.796875 12.359375 -0.953125 C 11.253906 -0.109375 9.894531 0.3125 8.28125 0.3125 C 6.019531 0.3125 4.257812 -0.347656 3 -1.671875 C 1.738281 -3.003906 1.109375 -4.863281 1.109375 -7.25 C 1.109375 -8.84375 1.390625 -10.226562 1.953125 -11.40625 C 2.523438 -12.582031 3.328125 -13.488281 4.359375 -14.125 C 5.398438 -14.757812 6.613281 -15.078125 8 -15.078125 Z M 3.84375 -8.828125 L 12.0625 -8.828125 C 12.007812 -10.222656 11.578125 -11.269531 10.765625 -11.96875 C 9.960938 -12.675781 9.039062 -13.03125 8 -13.03125 C 6.820312 -13.03125 5.859375 -12.628906 5.109375 -11.828125 C 4.359375 -11.035156 3.9375 -10.035156 3.84375 -8.828125 Z M 3.84375 -8.828125 "/></g></g></g><g fill="#000000" fill-opacity="1"><g transform="translate(1097.618048, 507.224161)"><g><path d="M 7.390625 -15.078125 C 9.097656 -15.078125 10.523438 -14.375 11.671875 -12.96875 L 11.671875 -14.734375 L 13.96875 -14.734375 L 13.96875 -1.765625 C 13.96875 0.398438 13.691406 2.003906 13.140625 3.046875 C 12.671875 3.929688 11.957031 4.640625 11 5.171875 C 10.039062 5.703125 8.8125 5.96875 7.3125 5.96875 C 6.0625 5.96875 4.992188 5.769531 4.109375 5.375 C 3.222656 4.976562 2.554688 4.453125 2.109375 3.796875 C 1.671875 3.140625 1.453125 2.425781 1.453125 1.65625 L 1.484375 1.21875 L 3.890625 1.59375 L 3.890625 1.65625 C 4.023438 2.425781 4.375 2.992188 4.9375 3.359375 C 5.5 3.734375 6.328125 3.921875 7.421875 3.921875 C 8.160156 3.921875 8.8125 3.796875 9.375 3.546875 C 9.9375 3.304688 10.378906 2.96875 10.703125 2.53125 C 10.984375 2.132812 11.175781 1.664062 11.28125 1.125 C 11.382812 0.582031 11.4375 -0.078125 11.4375 -0.859375 L 11.4375 -1.9375 C 10.320312 -0.644531 8.972656 0 7.390625 0 C 6.117188 0 5 -0.316406 4.03125 -0.953125 C 3.070312 -1.585938 2.320312 -2.472656 1.78125 -3.609375 C 1.238281 -4.753906 0.96875 -6.046875 0.96875 -7.484375 C 0.96875 -9.003906 1.234375 -10.335938 1.765625 -11.484375 C 2.296875 -12.628906 3.046875 -13.515625 4.015625 -14.140625 C 4.992188 -14.765625 6.117188 -15.078125 7.390625 -15.078125 Z M 3.53125 -7.65625 C 3.53125 -5.832031 3.898438 -4.441406 4.640625 -3.484375 C 5.378906 -2.523438 6.382812 -2.046875 7.65625 -2.046875 C 8.1875 -2.046875 8.796875 -2.21875 9.484375 -2.5625 C 10.179688 -2.914062 10.738281 -3.570312 11.15625 -4.53125 C 11.476562 -5.28125 11.640625 -6.265625 11.640625 -7.484375 C 11.640625 -9.242188 11.257812 -10.609375 10.5 -11.578125 C 9.738281 -12.546875 8.742188 -13.03125 7.515625 -13.03125 C 6.359375 -13.03125 5.40625 -12.550781 4.65625 -11.59375 C 3.90625 -10.632812 3.53125 -9.320312 3.53125 -7.65625 Z M 3.53125 -7.65625 "/></g></g></g><g fill="#000000" fill-opacity="1"><g transform="translate(1113.441177, 507.224161)"><g/></g></g><g fill="#000000" fill-opacity="1"><g transform="translate(1121.352741, 507.224161)"><g><path d="M 19.03125 0 L 15.96875 0 L 13.578125 -6.203125 L 5.0625 -6.203125 L 2.84375 0 L -0.03125 0 L 7.796875 -20.375 L 10.703125 -20.375 Z M 8.078125 -14.34375 L 5.859375 -8.359375 L 12.75 -8.359375 L 10.25 -15.078125 C 9.9375 -15.878906 9.582031 -16.929688 9.1875 -18.234375 C 9.1875 -18.140625 9.070312 -17.660156 8.84375 -16.796875 C 8.613281 -15.929688 8.359375 -15.113281 8.078125 -14.34375 Z M 8.078125 -14.34375 "/></g></g></g><g fill="#000000" fill-opacity="1"><g transform="translate(1140.334861, 507.224161)"><g><path d="M 14.90625 -19.3125 C 16.289062 -18.519531 17.335938 -17.34375 18.046875 -15.78125 C 18.765625 -14.226562 19.125 -12.410156 19.125 -10.328125 C 19.125 -8.597656 18.863281 -6.984375 18.34375 -5.484375 C 17.832031 -3.992188 17.054688 -2.8125 16.015625 -1.9375 C 15.242188 -1.289062 14.378906 -0.804688 13.421875 -0.484375 C 12.472656 -0.160156 11.289062 0 9.875 0 L 2.28125 0 L 2.28125 -20.375 L 9.671875 -20.375 C 10.867188 -20.375 11.859375 -20.300781 12.640625 -20.15625 C 13.429688 -20.019531 14.1875 -19.738281 14.90625 -19.3125 Z M 16.328125 -10.359375 C 16.328125 -12.421875 16.003906 -14.015625 15.359375 -15.140625 C 14.710938 -16.273438 13.941406 -17.03125 13.046875 -17.40625 C 12.160156 -17.789062 11.046875 -17.984375 9.703125 -17.984375 L 4.984375 -17.984375 L 4.984375 -2.390625 L 9.453125 -2.390625 C 10.773438 -2.390625 11.882812 -2.546875 12.78125 -2.859375 C 13.6875 -3.171875 14.503906 -3.914062 15.234375 -5.09375 C 15.960938 -6.269531 16.328125 -8.023438 16.328125 -10.359375 Z M 16.328125 -10.359375 "/></g></g></g><path stroke-linecap="butt" transform="matrix(1.77868, 0, 0, 1.77868, 70.827864, 557.738656)" fill="none" stroke-linejoin="miter" d="M 14.99986 2.000483 L 237.096644 2.000483 " stroke="#000000" stroke-width="4" stroke-opacity="1" stroke-miterlimit="4"/><path stroke-linecap="round" transform="matrix(1.77868, 0, 0, 1.77868, 70.827864, 557.738656)" fill="none" stroke-linejoin="round" d="M 2.00084 2.000483 C 2.00084 -1.313509 4.686734 -3.999402 8.000726 -3.999402 C 11.314718 -3.999402 14.000611 -1.313509 14.000611 2.000483 C 14.000611 5.314476 11.314718 8.000369 8.000726 8.000369 C 4.686734 8.000369 2.00084 5.314476 2.00084 2.000483 " stroke="#000000" stroke-width="4" stroke-opacity="1" stroke-miterlimit="4"/><path stroke-linecap="round" transform="matrix(1.77868, 0, 0, 1.77868, 70.827864, 557.738656)" fill="none" stroke-linejoin="round" d="M 250.095664 2.000483 C 250.095664 5.314476 247.40977 8.000369 244.095778 8.000369 C 240.781786 8.000369 238.095893 5.314476 238.095893 2.000483 C 238.095893 -1.313509 240.781786 -3.999402 244.095778 -3.999402 C 247.40977 -3.999402 250.095664 -1.313509 250.095664 2.000483 " stroke="#000000" stroke-width="4" stroke-opacity="1" stroke-miterlimit="4"/><path stroke-linecap="butt" transform="matrix(1.77868, 0, 0, 1.77868, 70.827864, 619.992421)" fill="none" stroke-linejoin="miter" d="M 14.99986 2.000563 L 252.096357 2.000563 " stroke="#000000" stroke-width="4" stroke-opacity="1" stroke-miterlimit="4"/><path stroke-linecap="round" transform="matrix(1.77868, 0, 0, 1.77868, 70.827864, 619.992421)" fill="none" stroke-linejoin="round" d="M 2.00084 2.000563 C 2.00084 -1.31343 4.686734 -3.999323 8.000726 -3.999323 C 11.314718 -3.999323 14.000611 -1.31343 14.000611 2.000563 C 14.000611 5.314555 11.314718 8.000448 8.000726 8.000448 C 4.686734 8.000448 2.00084 5.314555 2.00084 2.000563 " stroke="#000000" stroke-width="4" stroke-opacity="1" stroke-miterlimit="4"/><path stroke-linecap="butt" transform="matrix(1.77868, 0, 0, 1.77868, 489.954966, 619.992421)" fill="none" stroke-linejoin="miter" d="M -0.0010348 2.000563 L 237.095462 2.000563 " stroke="#000000" stroke-width="4" stroke-opacity="1" stroke-miterlimit="4"/><path stroke-linecap="round" transform="matrix(1.77868, 0, 0, 1.77868, 489.954966, 619.992421)" fill="none" stroke-linejoin="round" d="M 250.096678 2.000563 C 250.096678 5.314555 247.408589 8.000448 244.096793 8.000448 C 240.782801 8.000448 238.096907 5.314555 238.096907 2.000563 C 238.096907 -1.31343 240.782801 -3.999323 244.096793 -3.999323 C 247.408589 -3.999323 250.096678 -1.31343 250.096678 2.000563 " stroke="#000000" stroke-width="4" stroke-opacity="1" stroke-miterlimit="4"/><path stroke-linecap="butt" transform="matrix(1.77868, 0, 0, 1.77868, 70.827864, 682.045642)" fill="none" stroke-linejoin="miter" d="M 14.99986 1.999191 L 252.096357 1.999191 " stroke="#000000" stroke-width="4" stroke-opacity="1" stroke-miterlimit="4"/><path stroke-linecap="round" transform="matrix(1.77868, 0, 0, 1.77868, 70.827864, 682.045642)" fill="none" stroke-linejoin="round" d="M 2.00084 1.999191 C 2.00084 -1.314801 4.686734 -4.000694 8.000726 -4.000694 C 11.314718 -4.000694 14.000611 -1.314801 14.000611 1.999191 C 14.000611 5.313183 11.314718 7.999077 8.000726 7.999077 C 4.686734 7.999077 2.00084 5.313183 2.00084 1.999191 " stroke="#000000" stroke-width="4" stroke-opacity="1" stroke-miterlimit="4"/><path stroke-linecap="butt" transform="matrix(1.77868, 0, 0, 1.77868, 489.954966, 682.045642)" fill="none" stroke-linejoin="miter" d="M -0.0010348 1.999191 L 252.095176 1.999191 " stroke="#000000" stroke-width="4" stroke-opacity="1" stroke-miterlimit="4"/><path stroke-linecap="butt" transform="matrix(1.77868, 0, 0, 1.77868, 910.6022, 682.045642)" fill="none" stroke-linejoin="miter" d="M -0.000358643 1.999191 L 237.096139 1.999191 " stroke="#000000" stroke-width="4" stroke-opacity="1" stroke-miterlimit="4"/><path stroke-linecap="round" transform="matrix(1.77868, 0, 0, 1.77868, 910.6022, 682.045642)" fill="none" stroke-linejoin="round" d="M 250.095158 1.999191 C 250.095158 5.313183 247.409265 7.999077 244.095273 7.999077 C 240.781281 7.999077 238.095387 5.313183 238.095387 1.999191 C 238.095387 -1.314801 240.781281 -4.000694 244.095273 -4.000694 C 247.409265 -4.000694 250.095158 -1.314801 250.095158 1.999191 " stroke="#000000" stroke-width="4" stroke-opacity="1" stroke-miterlimit="4"/><g fill="#000000" fill-opacity="1"><g transform="translate(70.855656, 750.513133)"><g><path d="M 19.03125 0 L 15.96875 0 L 13.578125 -6.203125 L 5.0625 -6.203125 L 2.84375 0 L -0.03125 0 L 7.796875 -20.375 L 10.703125 -20.375 Z M 8.078125 -14.34375 L 5.859375 -8.359375 L 12.75 -8.359375 L 10.25 -15.078125 C 9.9375 -15.878906 9.582031 -16.929688 9.1875 -18.234375 C 9.1875 -18.140625 9.070312 -17.660156 8.84375 -16.796875 C 8.613281 -15.929688 8.359375 -15.113281 8.078125 -14.34375 Z M 8.078125 -14.34375 "/></g></g></g><g fill="#000000" fill-opacity="1"><g transform="translate(494.606885, 750.513133)"><g><path d="M 14.515625 -19.15625 C 15.273438 -18.582031 15.800781 -17.9375 16.09375 -17.21875 C 16.382812 -16.507812 16.53125 -15.882812 16.53125 -15.34375 C 16.53125 -13.289062 15.570312 -11.789062 13.65625 -10.84375 C 14.96875 -10.445312 15.929688 -9.8125 16.546875 -8.9375 C 17.160156 -8.0625 17.46875 -7.015625 17.46875 -5.796875 C 17.46875 -4.867188 17.226562 -3.925781 16.75 -2.96875 C 16.28125 -2.007812 15.457031 -1.257812 14.28125 -0.71875 C 13.28125 -0.238281 11.882812 0 10.09375 0 L 2.109375 0 L 2.109375 -20.375 L 9.9375 -20.375 C 11.070312 -20.375 11.976562 -20.273438 12.65625 -20.078125 C 13.34375 -19.878906 13.960938 -19.570312 14.515625 -19.15625 Z M 13.859375 -14.859375 C 13.859375 -16.085938 13.460938 -16.914062 12.671875 -17.34375 C 11.890625 -17.769531 10.710938 -17.984375 9.140625 -17.984375 L 4.8125 -17.984375 L 4.8125 -11.8125 L 9.390625 -11.8125 C 10.921875 -11.8125 12.046875 -12.050781 12.765625 -12.53125 C 13.492188 -13.019531 13.859375 -13.796875 13.859375 -14.859375 Z M 12.890625 -2.875 C 13.535156 -3.195312 13.992188 -3.628906 14.265625 -4.171875 C 14.546875 -4.722656 14.6875 -5.296875 14.6875 -5.890625 C 14.6875 -6.679688 14.484375 -7.351562 14.078125 -7.90625 C 13.679688 -8.457031 13.113281 -8.859375 12.375 -9.109375 C 11.769531 -9.316406 10.890625 -9.421875 9.734375 -9.421875 L 4.8125 -9.421875 L 4.8125 -2.390625 L 10.25 -2.390625 C 10.875 -2.390625 11.382812 -2.425781 11.78125 -2.5 C 12.175781 -2.582031 12.546875 -2.707031 12.890625 -2.875 Z M 12.890625 -2.875 "/></g></g></g><g fill="#000000" fill-opacity="1"><g transform="translate(918.356528, 750.513133)"><g><path d="M 11.0625 -20.71875 C 13.132812 -20.71875 14.863281 -20.1875 16.25 -19.125 C 17.632812 -18.0625 18.59375 -16.609375 19.125 -14.765625 L 16.453125 -14.140625 C 16.015625 -15.503906 15.359375 -16.554688 14.484375 -17.296875 C 13.609375 -18.035156 12.453125 -18.40625 11.015625 -18.40625 C 8.890625 -18.40625 7.226562 -17.703125 6.03125 -16.296875 C 4.832031 -14.898438 4.234375 -12.910156 4.234375 -10.328125 C 4.234375 -7.628906 4.816406 -5.5625 5.984375 -4.125 C 7.148438 -2.6875 8.78125 -1.96875 10.875 -1.96875 C 12.351562 -1.96875 13.613281 -2.40625 14.65625 -3.28125 C 15.695312 -4.164062 16.398438 -5.453125 16.765625 -7.140625 L 19.46875 -6.453125 C 18.894531 -4.316406 17.875 -2.648438 16.40625 -1.453125 C 14.945312 -0.253906 13.128906 0.34375 10.953125 0.34375 C 9.453125 0.34375 8.171875 0.144531 7.109375 -0.25 C 6.046875 -0.65625 5.144531 -1.242188 4.40625 -2.015625 C 3.382812 -3.097656 2.632812 -4.359375 2.15625 -5.796875 C 1.6875 -7.242188 1.453125 -8.753906 1.453125 -10.328125 C 1.453125 -12.429688 1.851562 -14.265625 2.65625 -15.828125 C 3.46875 -17.398438 4.597656 -18.609375 6.046875 -19.453125 C 7.492188 -20.296875 9.164062 -20.71875 11.0625 -20.71875 Z M 11.0625 -20.71875 "/></g></g></g><g fill="#000000" fill-opacity="1"><g transform="translate(1338.384227, 750.513133)"><g><path d="M 14.90625 -19.3125 C 16.289062 -18.519531 17.335938 -17.34375 18.046875 -15.78125 C 18.765625 -14.226562 19.125 -12.410156 19.125 -10.328125 C 19.125 -8.597656 18.863281 -6.984375 18.34375 -5.484375 C 17.832031 -3.992188 17.054688 -2.8125 16.015625 -1.9375 C 15.242188 -1.289062 14.378906 -0.804688 13.421875 -0.484375 C 12.472656 -0.160156 11.289062 0 9.875 0 L 2.28125 0 L 2.28125 -20.375 L 9.671875 -20.375 C 10.867188 -20.375 11.859375 -20.300781 12.640625 -20.15625 C 13.429688 -20.019531 14.1875 -19.738281 14.90625 -19.3125 Z M 16.328125 -10.359375 C 16.328125 -12.421875 16.003906 -14.015625 15.359375 -15.140625 C 14.710938 -16.273438 13.941406 -17.03125 13.046875 -17.40625 C 12.160156 -17.789062 11.046875 -17.984375 9.703125 -17.984375 L 4.984375 -17.984375 L 4.984375 -2.390625 L 9.453125 -2.390625 C 10.773438 -2.390625 11.882812 -2.546875 12.78125 -2.859375 C 13.6875 -3.171875 14.503906 -3.914062 15.234375 -5.09375 C 15.960938 -6.269531 16.328125 -8.023438 16.328125 -10.359375 Z M 16.328125 -10.359375 "/></g></g></g></svg>