<?xml version="1.0" encoding="UTF-8"?>
<svg version="1.1" xmlns="http://www.w3.org/2000/svg" width="1440" height="810">
<path d="M0 0 C475.2 0 950.4 0 1440 0 C1440 267.3 1440 534.6 1440 810 C964.8 810 489.6 810 0 810 C0 542.7 0 275.4 0 0 Z " fill="#FEFEFE" transform="translate(0,0)"/>
<path d="M0 0 C3.5185358 1.82693205 5.53938531 3.31875902 7.76141572 6.60510272 C9.81308977 9.2599463 9.81308977 9.2599463 12.99107337 9.62740451 C14.76132955 9.62911325 14.76132955 9.62911325 16.56734848 9.63085651 C17.22874122 9.63831411 17.89013396 9.6457717 18.57156891 9.65345529 C20.79793099 9.67243438 23.02260052 9.65568625 25.2489624 9.63923645 C26.85697174 9.64554523 28.46497373 9.6540463 30.07296109 9.66455668 C34.49930361 9.68711819 38.92512647 9.67847678 43.35148549 9.6648711 C48.12178563 9.65562899 52.89197677 9.67513768 57.6622467 9.69119263 C65.92958242 9.71506451 74.19676903 9.72063336 82.46413422 9.71384621 C94.41739036 9.70405944 106.37048078 9.72175898 118.32371011 9.74621352 C137.71597314 9.78513868 157.10818888 9.80176816 176.50048828 9.80444336 C195.34068224 9.80708999 214.18082091 9.82019552 233.02099609 9.84741211 C234.18188648 9.84908549 235.34277687 9.85075887 236.53884575 9.85248295 C242.36256719 9.86094229 248.1862883 9.86960773 254.01000929 9.87837565 C302.33999635 9.95087226 350.6699628 9.98721338 399 10 C399.2784375 9.22140625 399.556875 8.4428125 399.84375 7.640625 C401.52383305 3.80367858 404.30486051 1.84756975 408 0 C412.70697417 -0.57425085 416.12144792 -0.45554552 420.375 1.75 C422.68564743 3.73055494 424.43937784 5.39896307 426 8 C426 8.66 426 9.32 426 10 C475.48825965 10.00977921 524.97641947 9.98815275 574.46464182 9.92420971 C580.30276224 9.91669336 586.14088296 9.90943794 591.97900391 9.90234375 C593.14130381 9.900927 594.30360372 9.89951025 595.50112483 9.89805056 C614.33866246 9.87571179 633.17614535 9.87452577 652.01369253 9.88111137 C671.33245393 9.88739607 690.6510999 9.87105515 709.96982646 9.83356392 C721.89745579 9.81113391 733.82482251 9.80650373 745.75246063 9.82440336 C753.92374188 9.83497792 762.09480661 9.8236416 770.26604328 9.79483847 C774.98558239 9.77885684 779.70460685 9.77276257 784.42414284 9.79260826 C788.74112628 9.81054871 793.0571335 9.80110887 797.3740302 9.76946117 C798.93935809 9.7628955 800.50476764 9.76656443 802.07004037 9.78125392 C804.19210206 9.79970264 806.31076346 9.78153167 808.43265152 9.75390434 C809.61282231 9.7531449 810.79299309 9.75238546 812.00892663 9.75160301 C815.28434719 9.25543871 815.28434719 9.25543871 817.27374053 6.07006848 C817.84340616 5.05694588 818.41307178 4.04382328 819 3 C822.73266167 -0.19942429 826.11071635 -0.46993842 830.859375 -0.28125 C833.92750126 0.12186148 835.62387143 1.01989285 838 3 C838.55538767 4.01268007 839.11077534 5.02536015 839.68299294 6.06872749 C841.7123898 8.49462596 842.84580366 8.97110256 846.00203013 9.56260085 C850.1192451 9.784837 854.20067909 9.80996273 858.32211304 9.77536011 C859.926002 9.78370454 861.52987916 9.79465837 863.13373435 9.80799973 C867.54437009 9.83697808 871.95426064 9.82839892 876.36493778 9.81366611 C881.12038305 9.80422406 885.87566457 9.82920346 890.63105774 9.84970093 C899.94869974 9.8841305 909.26607232 9.88574591 918.58376144 9.87527512 C926.15607456 9.8671988 933.72830792 9.87007036 941.30061722 9.88077164 C942.37753423 9.88226848 943.45445124 9.88376533 944.5640021 9.88530753 C946.75162734 9.88837042 948.93925255 9.89144712 951.12687774 9.89453746 C971.65216188 9.92200716 992.17729365 9.91109863 1012.70257433 9.88816704 C1031.48617171 9.86830225 1050.26937508 9.89418001 1069.05291168 9.94203542 C1088.33228641 9.99078461 1107.61147751 10.01004117 1126.89091265 9.99672997 C1137.71789227 9.98973788 1148.54456882 9.99425978 1159.37150192 10.02923203 C1168.58887858 10.05863539 1177.80573883 10.06000129 1187.02310513 10.0250902 C1191.72699955 10.00803027 1196.42997071 10.00386479 1201.13381767 10.03439331 C1205.43990798 10.06199455 1209.74428025 10.05268812 1214.05026992 10.01391484 C1215.60810307 10.00636476 1217.1660723 10.01232639 1218.72378473 10.03313814 C1227.03913045 10.35928081 1227.03913045 10.35928081 1234.44119191 7.18734384 C1236.16907054 5.20564246 1237.56992592 3.19844187 1239 1 C1242.20178039 -0.60089019 1245.51768987 -0.3573266 1249 0 C1254.34740414 1.95385921 1257.45618143 4.91236287 1260 10 C1260.54280937 16.40515061 1259.8679143 19.80885186 1256 25 C1251.89135142 27.96204897 1248.13101937 28.5262359 1243.18359375 28.359375 C1239.75452729 27.79502059 1237.60447392 26.2233314 1235 24 C1233 21 1233 21 1233 18 C1104.3 18 975.6 18 843 18 C842.34 19.65 841.68 21.3 841 23 C835.89980279 27.59017748 832.59824986 28.46237352 825.83984375 28.41796875 C821.97561698 27.84923111 820.02459213 26.33908728 817.2421875 23.703125 C816 22 816 22 815 18 C686.63 18 558.26 18 426 18 C425.34 19.65 424.68 21.3 424 23 C421.18980194 26.24253622 419.61108083 27.72230999 415.37109375 28.453125 C409.44637713 28.67882849 405.56528072 28.0970468 401 24 C399 21 399 21 399 18 C270.3 18 141.6 18 9 18 C8.67 19.65 8.34 21.3 8 23 C3.08679208 27.53526885 -0.01213332 28.31014969 -6.52734375 28.20703125 C-9.85195111 27.9286676 -11.52585072 27.25584199 -14 25 C-17.77109363 19.80200607 -18.81155954 16.39103136 -18 10 C-14.26645869 2.53291738 -8.35924786 -1.65513108 0 0 Z " fill="#141414" transform="translate(99,159)"/>
<path d="M0 0 C3.91075925 1.98968453 5.57689098 3.36533646 8 7 C8 7.99 8 8.98 8 10 C411.92 10 815.84 10 1232 10 C1232.33 8.35 1232.66 6.7 1233 5 C1235.77644921 1.71209962 1237.38097462 0.27864532 1241.6328125 -0.453125 C1247.53446419 -0.67825613 1251.50943588 -0.15377181 1256 4 C1259.2020741 7.94922472 1259.51829445 10.98982028 1259 16 C1257.75145017 20.09246888 1256.56640765 22.44775254 1253.5 25.4375 C1248.59052784 27.62922864 1244.29136707 27.91068039 1239 27 C1236.14686087 25.64559154 1235.11196186 24.50100747 1233 22 C1232.67 20.35 1232.34 18.7 1232 17 C828.08 17 424.16 17 8 17 C7.67 18.65 7.34 20.3 7 22 C3.56423124 25.34033074 0.00812038 27.94486134 -4.91796875 28.03515625 C-9.69535888 27.6676647 -12.66027744 26.62598449 -16 23 C-18.613057 18.22441307 -19.69070127 14.42693854 -19 9 C-14.3762215 0.41298278 -9.37311559 -1.24794014 0 0 Z " fill="#000000" transform="translate(100,600)"/>
<path d="M0 0 C1.98 0 3.96 0 6 0 C6.33 62.37 6.66 124.74 7 189 C8.32 187.35 9.64 185.7 11 184 C12.65 184.33 14.3 184.66 16 185 C16 189.12207122 15.9018058 189.62943781 13.59375 192.671875 C13.09746094 193.33574219 12.60117187 193.99960937 12.08984375 194.68359375 C11.56519531 195.36550781 11.04054688 196.04742187 10.5 196.75 C9.97535156 197.44738281 9.45070313 198.14476562 8.91015625 198.86328125 C7.61526573 200.58195413 6.30873502 202.29184585 5 204 C2.86328125 203.97265625 2.86328125 203.97265625 0 203 C-2.23886678 200.69147622 -4.00245993 198.08851996 -5.8125 195.4375 C-6.31458984 194.72658203 -6.81667969 194.01566406 -7.33398438 193.28320312 C-8.56872796 191.53104318 -9.78608818 189.76665625 -11 188 C-10.01 186.02 -10.01 186.02 -9 184 C-6.6875 184.25 -6.6875 184.25 -4 185 C-3.01 186.32 -2.02 187.64 -1 189 C-0.67 126.63 -0.34 64.26 0 0 Z " fill="#010101" transform="translate(717,249)"/>
<path d="M0 0 C10.75691134 -0.7092469 10.75691134 -0.7092469 13.91015625 1.08984375 C16.2900439 3.70563863 17.00912298 6.05676523 17.5625 9.5 C16.9051093 13.59043104 15.59081908 15.79957644 13 19 C9.14854957 20.92572521 4.19956748 20.04883218 0 20 C0 13.4 0 6.8 0 0 Z " fill="#2E2E2E" transform="translate(1098,537)"/>
<path d="M0 0 C10.75691134 -0.7092469 10.75691134 -0.7092469 13.91015625 1.08984375 C16.2900439 3.70563863 17.00912298 6.05676523 17.5625 9.5 C16.9051093 13.59043104 15.59081908 15.79957644 13 19 C9.14854957 20.92572521 4.19956748 20.04883218 0 20 C0 13.4 0 6.8 0 0 Z " fill="#2E2E2E" transform="translate(719,537)"/>
<path d="M0 0 C9.84745763 -0.47457627 9.84745763 -0.47457627 14.1875 1.3125 C17.11636376 5.65529798 16.89042615 9.94178086 16 15 C14.1875 18.1875 14.1875 18.1875 11 20 C7.22856291 20.3919752 3.81286939 20.22969093 0 20 C0 13.4 0 6.8 0 0 Z " fill="#E8E8E8" transform="translate(1341,658)"/>
<path d="M0 0 C9.84745763 -0.47457627 9.84745763 -0.47457627 14.1875 1.3125 C17.11636376 5.65529798 16.89042615 9.94178086 16 15 C14.1875 18.1875 14.1875 18.1875 11 20 C7.22856291 20.3919752 3.81286939 20.22969093 0 20 C0 13.4 0 6.8 0 0 Z " fill="#E8E8E8" transform="translate(1341,218)"/>
<path d="M0 0 C10.00813296 -0.60289958 10.00813296 -0.60289958 14.1875 1.9375 C16.63390648 6.07108337 16.7990862 9.30749383 16 14 C13.91891892 18.54054054 13.91891892 18.54054054 11 20 C7.32984725 20.1377685 3.67388652 20.04271961 0 20 C0 13.4 0 6.8 0 0 Z " fill="#F1F1F1" transform="translate(1166,104)"/>
<path d="M0 0 C9.1796875 -0.1953125 9.1796875 -0.1953125 12 0 C14 2 14 2 14.16015625 3.91015625 C14.11181641 4.97556641 14.11181641 4.97556641 14.0625 6.0625 C14.041875 7.361875 14.02125 8.66125 14 10 C14.33 10.33 14.66 10.66 15 11 C15.25 14.4375 15.25 14.4375 15 18 C10.25368713 21.16420858 5.63243123 20.12112755 0 20 C0 13.4 0 6.8 0 0 Z " fill="#141414" transform="translate(951,537)"/>
<path d="M0 0 C9.1796875 -0.1953125 9.1796875 -0.1953125 12 0 C14 2 14 2 14.16015625 3.91015625 C14.11181641 4.97556641 14.11181641 4.97556641 14.0625 6.0625 C14.041875 7.361875 14.02125 8.66125 14 10 C14.33 10.33 14.66 10.66 15 11 C15.25 14.4375 15.25 14.4375 15 18 C10.25368713 21.16420858 5.63243123 20.12112755 0 20 C0 13.4 0 6.8 0 0 Z " fill="#141414" transform="translate(845,537)"/>
<path d="M0 0 C10.625 -0.25 10.625 -0.25 14 2 C14.47730962 5.72301503 14.1387261 6.79191085 12 10 C12.66 10 13.32 10 14 10 C14.33 12.31 14.66 14.62 15 17 C10.33220333 21.23435841 6.0499848 20.21607089 0 20 C0 13.4 0 6.8 0 0 Z " fill="#3C3C3C" transform="translate(730,104)"/>
<path d="M0 0 C10.625 -0.25 10.625 -0.25 14 2 C14.47730962 5.72301503 14.1387261 6.79191085 12 10 C12.66 10 13.32 10 14 10 C14.33 12.31 14.66 14.62 15 17 C10.33220333 21.23435841 6.0499848 20.21607089 0 20 C0 13.4 0 6.8 0 0 Z " fill="#3C3C3C" transform="translate(334,104)"/>
<path d="M0 0 C10.46074044 -0.3692026 10.46074044 -0.3692026 12.8828125 1.2890625 C14.71261165 4.09134231 13.5199392 6.82259378 13 10 C13.66 10.66 14.32 11.32 15 12 C14.8125 15 14.8125 15 14 18 C9.43362969 21.04424687 5.43284541 20.12783166 0 20 C0 13.4 0 6.8 0 0 Z " fill="#0E0E0E" transform="translate(504,658)"/>
<path d="M0 0 C10.46074044 -0.3692026 10.46074044 -0.3692026 12.8828125 1.2890625 C14.71261165 4.09134231 13.5199392 6.82259378 13 10 C13.66 10.66 14.32 11.32 15 12 C14.8125 15 14.8125 15 14 18 C9.43362969 21.04424687 5.43284541 20.12783166 0 20 C0 13.4 0 6.8 0 0 Z " fill="#0E0E0E" transform="translate(504,218)"/>
<path d="M0 0 C0.05407567 2.58361518 0.093707 5.16609255 0.125 7.75 C0.14175781 8.47960937 0.15851562 9.20921875 0.17578125 9.9609375 C0.23886395 16.90003453 0.23886395 16.90003453 -2 20 C-4.70879335 21.35439668 -7.00933268 21.06501451 -10 21 C-10.66 19.68 -11.32 18.36 -12 17 C-9.69 17.33 -7.38 17.66 -5 18 C-4.34 16.68 -3.68 15.36 -3 14 C-5.31 14.33 -7.62 14.66 -10 15 C-12.54791033 12.45208967 -13.27573375 10.4510629 -13.4375 6.9375 C-13 3 -13 3 -11.5625 1 C-7.73363249 -0.4941922 -4.05973579 -0.23421553 0 0 Z " fill="#3B3B3B" transform="translate(815,542)"/>
<path d="M0 0 C0.05407567 2.58361518 0.093707 5.16609255 0.125 7.75 C0.14175781 8.47960937 0.15851563 9.20921875 0.17578125 9.9609375 C0.23886395 16.90003453 0.23886395 16.90003453 -2 20 C-4.70879335 21.35439668 -7.00933268 21.06501451 -10 21 C-10.66 19.68 -11.32 18.36 -12 17 C-9.03 17.33 -6.06 17.66 -3 18 C-3 16.68 -3 15.36 -3 14 C-3.928125 14.20625 -4.85625 14.4125 -5.8125 14.625 C-9 15 -9 15 -12 13 C-12.96134049 10.01811752 -13.16079453 7.12163174 -13 4 C-10.16517794 -1.28307748 -5.30637713 -0.40818286 0 0 Z " fill="#272727" transform="translate(1066,542)"/>
<path d="M0 0 C1.32 0 2.64 0 4 0 C4.10812003 2.75105422 4.18734945 5.49785087 4.25 8.25 C4.30027344 9.41595703 4.30027344 9.41595703 4.3515625 10.60546875 C4.45020235 16.37589975 4.45020235 16.37589975 2.1796875 19.5234375 C-0.72015012 21.48784363 -2.56862237 21.44757099 -6 21 C-6.66 20.34 -7.32 19.68 -8 19 C-8 18.01 -8 17.02 -8 16 C-7.34 16 -6.68 16 -6 16 C-5.67 16.66 -5.34 17.32 -5 18 C-3.35 18 -1.7 18 0 18 C0 17.01 0 16.02 0 15 C-0.7425 15.103125 -1.485 15.20625 -2.25 15.3125 C-5 15 -5 15 -7.375 12.9375 C-9.49595244 9.10347059 -9.15783246 7.16819684 -8 3 C-5.81471924 -0.38718518 -3.84753618 -0.28152704 0 0 Z " fill="#181818" transform="translate(1129,109)"/>
<path d="M0 0 C1.32 0 2.64 0 4 0 C4.10812003 2.75105422 4.18734945 5.49785087 4.25 8.25 C4.30027344 9.41595703 4.30027344 9.41595703 4.3515625 10.60546875 C4.45020235 16.37589975 4.45020235 16.37589975 2.1796875 19.5234375 C-0.72015012 21.48784363 -2.56862237 21.44757099 -6 21 C-6.66 20.34 -7.32 19.68 -8 19 C-8 18.01 -8 17.02 -8 16 C-7.34 16 -6.68 16 -6 16 C-5.67 16.66 -5.34 17.32 -5 18 C-3.35 18 -1.7 18 0 18 C0 17.01 0 16.02 0 15 C-0.7425 15.103125 -1.485 15.20625 -2.25 15.3125 C-5 15 -5 15 -7.375 12.9375 C-9.49595244 9.10347059 -9.15783246 7.16819684 -8 3 C-5.81471924 -0.38718518 -3.84753618 -0.28152704 0 0 Z " fill="#181818" transform="translate(714,109)"/>
<path d="M0 0 C1.33681248 0.31909448 2.67091974 0.65009352 4 1 C4.08089542 3.77141717 4.14044062 6.54047819 4.1875 9.3125 C4.22520508 10.49102539 4.22520508 10.49102539 4.26367188 11.69335938 C4.27817383 12.8293457 4.27817383 12.8293457 4.29296875 13.98828125 C4.31653442 15.03302612 4.31653442 15.03302612 4.34057617 16.09887695 C3.89128274 18.60686832 3.00732701 19.4741731 1 21 C-3.07794425 21.42478586 -4.53076119 21.31282587 -8 19 C-8 18.01 -8 17.02 -8 16 C-7.1646875 16.5259375 -7.1646875 16.5259375 -6.3125 17.0625 C-3.46113217 18.21845993 -1.91482778 17.80967438 1 17 C1 16.01 1 15.02 1 14 C0.67 14.33 0.34 14.66 0 15 C-4.38632379 15.46171829 -4.38632379 15.46171829 -6.640625 13.765625 C-8.35400028 11.54020654 -8.40283777 10.28377657 -8.375 7.5 C-8.38273438 6.7265625 -8.39046875 5.953125 -8.3984375 5.15625 C-7.49521201 0.26820618 -4.5160013 -0.44058549 0 0 Z " fill="#0C0C0C" transform="translate(935,542)"/>
<path d="M0 0 C1.33681248 0.31909448 2.67091974 0.65009352 4 1 C4.08089542 3.77141717 4.14044062 6.54047819 4.1875 9.3125 C4.22520508 10.49102539 4.22520508 10.49102539 4.26367188 11.69335938 C4.27817383 12.8293457 4.27817383 12.8293457 4.29296875 13.98828125 C4.31653442 15.03302612 4.31653442 15.03302612 4.34057617 16.09887695 C3.89128274 18.60686832 3.00732701 19.4741731 1 21 C-3.07794425 21.42478586 -4.53076119 21.31282587 -8 19 C-8 18.01 -8 17.02 -8 16 C-7.1646875 16.5259375 -7.1646875 16.5259375 -6.3125 17.0625 C-3.46113217 18.21845993 -1.91482778 17.80967438 1 17 C1 16.01 1 15.02 1 14 C0.67 14.33 0.34 14.66 0 15 C-4.38632379 15.46171829 -4.38632379 15.46171829 -6.640625 13.765625 C-8.35400028 11.54020654 -8.40283777 10.28377657 -8.375 7.5 C-8.38273438 6.7265625 -8.39046875 5.953125 -8.3984375 5.15625 C-7.49521201 0.26820618 -4.5160013 -0.44058549 0 0 Z " fill="#0C0C0C" transform="translate(684,542)"/>
<path d="M0 0 C1.33681248 0.31909448 2.67091974 0.65009352 4 1 C4.08089542 3.77141717 4.14044062 6.54047819 4.1875 9.3125 C4.22520508 10.49102539 4.22520508 10.49102539 4.26367188 11.69335938 C4.27817383 12.8293457 4.27817383 12.8293457 4.29296875 13.98828125 C4.31653442 15.03302612 4.31653442 15.03302612 4.34057617 16.09887695 C3.89128274 18.60686832 3.00732701 19.4741731 1 21 C-3.07794425 21.42478586 -4.53076119 21.31282587 -8 19 C-8 18.01 -8 17.02 -8 16 C-7.1646875 16.5259375 -7.1646875 16.5259375 -6.3125 17.0625 C-3.46113217 18.21845993 -1.91482778 17.80967438 1 17 C1 16.01 1 15.02 1 14 C0.67 14.33 0.34 14.66 0 15 C-4.38632379 15.46171829 -4.38632379 15.46171829 -6.640625 13.765625 C-8.35400028 11.54020654 -8.40283777 10.28377657 -8.375 7.5 C-8.38273437 6.7265625 -8.39046875 5.953125 -8.3984375 5.15625 C-7.49521201 0.26820618 -4.5160013 -0.44058549 0 0 Z " fill="#0C0C0C" transform="translate(299,109)"/>
<path d="M0 0 C3.4375 1 3.4375 1 5.4375 2.625 C6.89385054 6.08383253 6.35055869 8.41298371 5.4375 12 C4.3125 13.9375 4.3125 13.9375 2.4375 15 C-1.0625 15.4375 -1.0625 15.4375 -4.5625 15 C-7.41826764 12.69696158 -7.54431881 11.14544949 -8 7.5 C-7.5625 4 -7.5625 4 -6 1.5 C-3.5625 0 -3.5625 0 0 0 Z " fill="#1C1C1C" transform="translate(349.5625,542)"/>
<path d="M0 0 C3.0625 0.4375 3.0625 0.4375 5.4375 2 C7.6710569 5.35033535 7.55648209 7.4856433 7.0625 11.4375 C6 13.875 6 13.875 4.0625 15.4375 C-1.9200854 16.18532317 -1.9200854 16.18532317 -4.6328125 14.19140625 C-6.28279514 11.97331581 -6.33992938 10.68043779 -6.3125 7.9375 C-6.32023437 7.1640625 -6.32796875 6.390625 -6.3359375 5.59375 C-5.61375833 1.68548625 -3.80643324 0.56691559 0 0 Z " fill="#0C0C0C" transform="translate(415.9375,541.5625)"/>
<path d="M0 0 C1.94238281 0.20336914 1.94238281 0.20336914 4 1 C5.09667969 2.64233398 5.09667969 2.64233398 5.921875 4.74609375 C6.22480469 5.50083984 6.52773438 6.25558594 6.83984375 7.03320312 C7.14019531 7.82662109 7.44054687 8.62003906 7.75 9.4375 C8.06582031 10.22705078 8.38164063 11.01660156 8.70703125 11.83007812 C11 17.65183644 11 17.65183644 11 20 C10.01 20 9.02 20 8 20 C7.34 18.02 6.68 16.04 6 14 C3.03 14 0.06 14 -3 14 C-3.66 15.98 -4.32 17.96 -5 20 C-5.99 19.67 -6.98 19.34 -8 19 C-6.85845386 16.01917266 -5.71104882 13.0406354 -4.5625 10.0625 C-4.23701172 9.21236328 -3.91152344 8.36222656 -3.57617188 7.48632812 C-3.26357422 6.67744141 -2.95097656 5.86855469 -2.62890625 5.03515625 C-2.34088135 4.2862915 -2.05285645 3.53742676 -1.75610352 2.76586914 C-1 1 -1 1 0 0 Z " fill="#1B1B1B" transform="translate(832,537)"/>
<path d="M0 0 C2.375 1.625 2.375 1.625 4 4 C4.61195145 7.6717087 4.48706506 9.28813568 2.375 12.375 C-0.71186432 14.48706506 -2.3282913 14.61195145 -6 14 C-8.375 12.375 -8.375 12.375 -10 10 C-10.61195145 6.3282913 -10.48706506 4.71186432 -8.375 1.625 C-5.28813568 -0.48706506 -3.6717087 -0.61195145 0 0 Z " fill="#F4F4F4" transform="translate(1348,166)"/>
<path d="M0 0 C2.375 1.625 2.375 1.625 4 4 C4.61195145 7.6717087 4.48706506 9.28813568 2.375 12.375 C-0.71186432 14.48706506 -2.3282913 14.61195145 -6 14 C-8.375 12.375 -8.375 12.375 -10 10 C-10.61195145 6.3282913 -10.48706506 4.71186432 -8.375 1.625 C-5.28813568 -0.48706506 -3.6717087 -0.61195145 0 0 Z " fill="#F4F4F4" transform="translate(98,166)"/>
<path d="M0 0 C1.32 0 2.64 0 4 0 C6.64 6.27 9.28 12.54 12 19 C11.01 19.33 10.02 19.66 9 20 C8.34 18.02 7.68 16.04 7 14 C2.545 14.495 2.545 14.495 -2 15 C-2.99 17.475 -2.99 17.475 -4 20 C-4.99 20 -5.98 20 -7 20 C-4.80962826 13.27954125 -2.44234339 6.63275997 0 0 Z " fill="#111111" transform="translate(88,658)"/>
<path d="M0 0 C0.66 0 1.32 0 2 0 C2 1.32 2 2.64 2 4 C4.64 4 7.28 4 10 4 C10 8.95 10 13.9 10 19 C6.7 19 3.4 19 0 19 C0 14.71 0 10.42 0 6 C-0.66 5.67 -1.32 5.34 -2 5 C-1.34 5 -0.68 5 0 5 C0 3.35 0 1.7 0 0 Z " fill="#A4A4A4" transform="translate(594,538)"/>
<path d="M0 0 C1.32 0 2.64 0 4 0 C6.64 6.27 9.28 12.54 12 19 C11.01 19.33 10.02 19.66 9 20 C8.34 18.02 7.68 16.04 7 14 C2.545 14.495 2.545 14.495 -2 15 C-2.99 17.475 -2.99 17.475 -4 20 C-4.99 20 -5.98 20 -7 20 C-4.80962826 13.27954125 -2.44234339 6.63275997 0 0 Z " fill="#111111" transform="translate(705,537)"/>
<path d="M0 0 C1.32 0 2.64 0 4 0 C6.64 6.27 9.28 12.54 12 19 C11.01 19.33 10.02 19.66 9 20 C8.34 18.02 7.68 16.04 7 14 C2.545 14.495 2.545 14.495 -2 15 C-2.99 17.475 -2.99 17.475 -4 20 C-4.99 20 -5.98 20 -7 20 C-4.80962826 13.27954125 -2.44234339 6.63275997 0 0 Z " fill="#111111" transform="translate(88,218)"/>
<path d="M0 0 C1.32 0 2.64 0 4 0 C6.64 6.27 9.28 12.54 12 19 C11.01 19.33 10.02 19.66 9 20 C8.34 18.02 7.68 16.04 7 14 C2.545 14.495 2.545 14.495 -2 15 C-2.99 17.475 -2.99 17.475 -4 20 C-4.99 20 -5.98 20 -7 20 C-4.80962826 13.27954125 -2.44234339 6.63275997 0 0 Z " fill="#111111" transform="translate(320,104)"/>
<path d="M0 0 C1.9375 1.125 1.9375 1.125 3 3 C3.42030443 6.29238472 3.295454 8.33957342 1.9375 11.375 C0 13 0 13 -3.4375 13.5 C-7 13 -7 13 -9.5 11.4375 C-11 9 -11 9 -10.9375 5.375 C-9.26346191 -0.65153711 -5.61343058 -0.50119916 0 0 Z " fill="#F6F6F6" transform="translate(99,607)"/>
<path d="M0 0 C2.8520847 1.97452017 3.81895125 3.09475625 4.5 6.5 C3.81895125 9.90524375 2.8520847 11.02547983 0 13 C-3.5625 13.5 -3.5625 13.5 -7 13 C-9.66266871 10.76679398 -9.95347082 9.3799883 -10.375 5.9375 C-10 3 -10 3 -8.9375 1.125 C-5.84902396 -0.66830867 -3.48856031 -0.42841969 0 0 Z " fill="#F6F6F6" transform="translate(1348,607)"/>
<path d="M0 0 C7 0 7 0 9.4375 1.5625 C11.57456191 4.89631658 11.41707387 7.10731057 11 11 C10.34 12.32 9.68 13.64 9 15 C6.03 15 3.06 15 0 15 C0 10.05 0 5.1 0 0 Z " fill="#F8F8F8" transform="translate(1101,539)"/>
<path d="M0 0 C7 0 7 0 9.4375 1.5625 C11.57456191 4.89631658 11.41707387 7.10731057 11 11 C10.34 12.32 9.68 13.64 9 15 C6.03 15 3.06 15 0 15 C0 10.05 0 5.1 0 0 Z " fill="#F8F8F8" transform="translate(722,539)"/>
<path d="M0 0 C2.46943529 3.70415293 2.46913089 5.62144505 2 10 C-0.07691798 12.38460953 -1.40556916 12.8959746 -4.5 13.4375 C-7 13 -7 13 -9.375 11.4375 C-11 9 -11 9 -11 5.4375 C-10 2 -10 2 -8.3125 0 C-5.13891085 -1.37236288 -3.27117546 -0.99557514 0 0 Z " fill="#F4F4F4" transform="translate(932,167)"/>
<path d="M0 0 C4.35653019 1.39038198 4.35653019 1.39038198 5.9375 3.9375 C6.47602618 7.55331862 6.35986225 9.27861489 4.375 12.375 C1.9375 13.9375 1.9375 13.9375 -1.6875 13.875 C-5.0625 12.9375 -5.0625 12.9375 -7.0625 9.9375 C-7.52693597 6.2994182 -7.49093764 4.58015646 -5.4375 1.5 C-3.0625 -0.0625 -3.0625 -0.0625 0 0 Z " fill="#F7F7F7" transform="translate(512.0625,166.0625)"/>
<path d="M0 0 C4.95 0 9.9 0 15 0 C15 0.66 15 1.32 15 2 C11.04 2 7.08 2 3 2 C3 3.98 3 5.96 3 8 C6.63 8 10.26 8 14 8 C14 8.99 14 9.98 14 11 C10.37 11 6.74 11 3 11 C3 13.31 3 15.62 3 18 C6.96 18 10.92 18 15 18 C15 18.66 15 19.32 15 20 C10.05 20 5.1 20 0 20 C0 13.4 0 6.8 0 0 Z " fill="#171717" transform="translate(529,537)"/>
<path d="M0 0 C1.32 0 2.64 0 4 0 C4 0.99 4 1.98 4 3 C3.01 3 2.02 3 1 3 C1 3.99 1 4.98 1 6 C1.66 6 2.32 6 3 6 C3 6.66 3 7.32 3 8 C2.01 8 1.02 8 0 8 C0 12.29 0 16.58 0 21 C-0.66 21 -1.32 21 -2 21 C-2 16.71 -2 12.42 -2 8 C-3.65 8 -5.3 8 -7 8 C-7 12.29 -7 16.58 -7 21 C-7.99 21 -8.98 21 -10 21 C-10 16.71 -10 12.42 -10 8 C-10.66 8 -11.32 8 -12 8 C-12 7.34 -12 6.68 -12 6 C-11.34 6 -10.68 6 -10 6 C-9.67 4.35 -9.34 2.7 -9 1 C-7.35 1 -5.7 1 -4 1 C-4 1.66 -4 2.32 -4 3 C-4.99 3 -5.98 3 -7 3 C-7 3.99 -7 4.98 -7 6 C-5.35 6 -3.7 6 -2 6 C-1.855625 5.195625 -1.71125 4.39125 -1.5625 3.5625 C-1 1 -1 1 0 0 Z " fill="#292929" transform="translate(558,536)"/>
<path d="M0 0 C3.5625 0.1875 3.5625 0.1875 5.5625 2.1875 C5.9765625 5.2265625 5.9765625 5.2265625 6.1875 8.8125 C6.26226562 10.00101563 6.33703125 11.18953125 6.4140625 12.4140625 C6.48753906 13.78691406 6.48753906 13.78691406 6.5625 15.1875 C4.58340602 15.21436553 2.60421029 15.23383375 0.625 15.25 C-0.47714844 15.26160156 -1.57929688 15.27320313 -2.71484375 15.28515625 C-5.4375 15.1875 -5.4375 15.1875 -6.4375 14.1875 C-6.75 11.8125 -6.75 11.8125 -6.4375 9.1875 C-4.05880509 6.53434029 -2.76625347 6.20646655 0.8125 6 C2.17375 6.0928125 2.17375 6.0928125 3.5625 6.1875 C3.5625 5.1975 3.5625 4.2075 3.5625 3.1875 C1.5825 3.1875 -0.3975 3.1875 -2.4375 3.1875 C-2.7675 3.8475 -3.0975 4.5075 -3.4375 5.1875 C-4.4275 5.1875 -5.4175 5.1875 -6.4375 5.1875 C-4.03388554 0.22003012 -4.03388554 0.22003012 0 0 Z " fill="#191919" transform="translate(372.4375,541.8125)"/>
<path d="M0 0 C1.875 1.1875 1.875 1.1875 3 3 C3 4.65 3 6.3 3 8 C-0.3 8 -3.6 8 -7 8 C-6.34 9.32 -5.68 10.64 -5 12 C-2.23723823 11.47731534 0.3260876 10.89130413 3 10 C2.125 13.875 2.125 13.875 1 15 C-6.25146199 15.58479532 -6.25146199 15.58479532 -9 13.4375 C-10.38885542 10.05216491 -10.45310904 7.62487235 -10 4 C-7.25744073 -0.1138389 -4.81424895 -0.7170158 0 0 Z " fill="#2A2A2A" transform="translate(921,542)"/>
<path d="M0 0 C1.875 1.1875 1.875 1.1875 3 3 C3 4.65 3 6.3 3 8 C-0.3 8 -3.6 8 -7 8 C-6.34 9.32 -5.68 10.64 -5 12 C-2.23723823 11.47731534 0.3260876 10.89130413 3 10 C2.125 13.875 2.125 13.875 1 15 C-6.25146199 15.58479532 -6.25146199 15.58479532 -9 13.4375 C-10.38885542 10.05216491 -10.45310904 7.62487235 -10 4 C-7.25744073 -0.1138389 -4.81424895 -0.7170158 0 0 Z " fill="#2A2A2A" transform="translate(796,542)"/>
<path d="M0 0 C1.875 1.1875 1.875 1.1875 3 3 C3 4.65 3 6.3 3 8 C-0.3 8 -3.6 8 -7 8 C-6.34 9.32 -5.68 10.64 -5 12 C-2.23723823 11.47731534 0.3260876 10.89130413 3 10 C2.125 13.875 2.125 13.875 1 15 C-6.25146199 15.58479532 -6.25146199 15.58479532 -9 13.4375 C-10.38885542 10.05216491 -10.45310904 7.62487235 -10 4 C-7.25744073 -0.1138389 -4.81424895 -0.7170158 0 0 Z " fill="#2A2A2A" transform="translate(476,542)"/>
<path d="M0 0 C10.00813296 -0.60289958 10.00813296 -0.60289958 14.1875 1.9375 C16.63390648 6.07108337 16.7990862 9.30749383 16 14 C13.91891892 18.54054054 13.91891892 18.54054054 11 20 C7.32984725 20.1377685 3.67388652 20.04271961 0 20 C0 13.4 0 6.8 0 0 Z M2 2 C2 7.28 2 12.56 2 18 C8.40126995 18.51563407 8.40126995 18.51563407 11.41015625 16.8125 C13.48801728 14.44363632 13.50712572 13.11923218 13.4375 10 C13.43621094 9.13375 13.43492188 8.2675 13.43359375 7.375 C13.13605201 5.00846556 13.13605201 5.00846556 11.97265625 3.1875 C9.24142608 1.31234313 9.24142608 1.31234313 2 2 Z " fill="#010101" transform="translate(1166,104)"/>
<path d="M0 0 C9.84745763 -0.47457627 9.84745763 -0.47457627 14.1875 1.3125 C17.11636376 5.65529798 16.89042615 9.94178086 16 15 C14.1875 18.1875 14.1875 18.1875 11 20 C7.22856291 20.3919752 3.81286939 20.22969093 0 20 C0 13.4 0 6.8 0 0 Z M2 2 C2 7.28 2 12.56 2 18 C8.64339539 18.67040216 8.64339539 18.67040216 11.9375 15.9375 C14.52001338 12.25937488 14.72125695 10.40768137 14 6 C12.6469872 3.39685006 12.6469872 3.39685006 10 2 C7.36 2 4.72 2 2 2 Z " fill="#010101" transform="translate(1341,658)"/>
<path d="M0 0 C9.84745763 -0.47457627 9.84745763 -0.47457627 14.1875 1.3125 C17.11636376 5.65529798 16.89042615 9.94178086 16 15 C14.1875 18.1875 14.1875 18.1875 11 20 C7.22856291 20.3919752 3.81286939 20.22969093 0 20 C0 13.4 0 6.8 0 0 Z M2 2 C2 7.28 2 12.56 2 18 C8.64339539 18.67040216 8.64339539 18.67040216 11.9375 15.9375 C14.52001338 12.25937488 14.72125695 10.40768137 14 6 C12.6469872 3.39685006 12.6469872 3.39685006 10 2 C7.36 2 4.72 2 2 2 Z " fill="#010101" transform="translate(1341,218)"/>
<path d="M0 0 C3.375 0.875 3.375 0.875 5.375 2.875 C5.375 4.525 5.375 6.175 5.375 7.875 C1.745 7.875 -1.885 7.875 -5.625 7.875 C-4.965 9.195 -4.305 10.515 -3.625 11.875 C-0.42597361 11.96386184 2.30177456 11.78558531 5.375 10.875 C4.375 13.875 4.375 13.875 2.375 14.875 C-3.91584967 15.44689542 -3.91584967 15.44689542 -6.5625 13.3125 C-8.03782332 9.92793473 -8.08174603 7.52896822 -7.625 3.875 C-5.32929152 0.20186643 -4.36360172 -0.15046902 0 0 Z " fill="#2D2D2D" transform="translate(667.625,542.125)"/>
<path d="M0 0 C3.375 0.875 3.375 0.875 5.375 2.875 C5.375 4.525 5.375 6.175 5.375 7.875 C1.745 7.875 -1.885 7.875 -5.625 7.875 C-4.965 9.195 -4.305 10.515 -3.625 11.875 C-0.42597361 11.96386184 2.30177456 11.78558531 5.375 10.875 C4.375 13.875 4.375 13.875 2.375 14.875 C-3.91584967 15.44689542 -3.91584967 15.44689542 -6.5625 13.3125 C-8.03782332 9.92793473 -8.08174603 7.52896822 -7.625 3.875 C-5.32929152 0.20186643 -4.36360172 -0.15046902 0 0 Z " fill="#2D2D2D" transform="translate(1112.625,109.125)"/>
<path d="M0 0 C3.375 0.875 3.375 0.875 5.375 2.875 C5.375 4.525 5.375 6.175 5.375 7.875 C1.745 7.875 -1.885 7.875 -5.625 7.875 C-4.965 9.195 -4.305 10.515 -3.625 11.875 C-0.42597361 11.96386184 2.30177456 11.78558531 5.375 10.875 C4.375 13.875 4.375 13.875 2.375 14.875 C-3.91584967 15.44689542 -3.91584967 15.44689542 -6.5625 13.3125 C-8.03782332 9.92793473 -8.08174603 7.52896822 -7.625 3.875 C-5.32929152 0.20186643 -4.36360172 -0.15046902 0 0 Z " fill="#2D2D2D" transform="translate(282.625,109.125)"/>
<path d="M0 0 C1.9375 1.375 1.9375 1.375 3 3 C3 3.99 3 4.98 3 6 C-0.875 4.125 -0.875 4.125 -2 3 C-4.95817107 2.74994614 -4.95817107 2.74994614 -8 3 C-10.18429262 4.77709032 -10.18429262 4.77709032 -10.265625 7.05859375 C-10.26046875 7.84363281 -10.2553125 8.62867188 -10.25 9.4375 C-10.25515625 10.21996094 -10.2603125 11.00242187 -10.265625 11.80859375 C-10.13176831 14.29044107 -10.13176831 14.29044107 -8 17 C-5.04253508 17.58345476 -5.04253508 17.58345476 -2 17 C-0.22590192 15.07977297 -0.22590192 15.07977297 1 13 C1.66 13 2.32 13 3 13 C2.6875 15.375 2.6875 15.375 2 18 C-1.67192113 20.44794742 -4.73106028 20.71435887 -9 20 C-11.96858157 17.79259319 -12.82865791 16.51402627 -14 13 C-14.6914329 5.85519333 -14.6914329 5.85519333 -11.625 2.0625 C-7.31206332 -1.32623596 -5.3859227 -1.13387846 0 0 Z " fill="#1D1D1D" transform="translate(1091,537)"/>
<path d="M0 0 C2.9375 0.5 2.9375 0.5 4.8125 1.6875 C5.9375 3.5 5.9375 3.5 5.9375 8.5 C2.6375 8.5 -0.6625 8.5 -4.0625 8.5 C-3.4025 9.82 -2.7425 11.14 -2.0625 12.5 C0.98136724 12.58226668 3.00925348 12.47608217 5.9375 11.5 C5.2775 12.82 4.6175 14.14 3.9375 15.5 C-2.42677851 15.86024218 -2.42677851 15.86024218 -4.9375 14.4375 C-6.69908168 11.40366489 -7.00227486 8.99305789 -7.0625 5.5 C-5.11122243 1.83159817 -4.1388604 0.67573231 0 0 Z " fill="#1B1B1B" transform="translate(1044.0625,541.5)"/>
<path d="M0 0 C2.4962614 0.60302944 3.45930025 1.56126623 5.0859375 3.50390625 C4.7559375 4.49390625 4.4259375 5.48390625 4.0859375 6.50390625 C3.7353125 6.00890625 3.3846875 5.51390625 3.0234375 5.00390625 C0.06876418 2.71641723 -2.30065164 3.10971597 -5.9140625 3.50390625 C-8.36816608 7.18506162 -8.14694093 9.15684223 -7.9140625 13.50390625 C-7.5840625 14.49390625 -7.2540625 15.48390625 -6.9140625 16.50390625 C-4.6040625 16.83390625 -2.2940625 17.16390625 0.0859375 17.50390625 C0.5190625 16.84390625 0.9521875 16.18390625 1.3984375 15.50390625 C1.9553125 14.84390625 2.5121875 14.18390625 3.0859375 13.50390625 C4.0759375 13.50390625 5.0659375 13.50390625 6.0859375 13.50390625 C5.51947377 16.78939589 4.69524265 18.41176068 2.0859375 20.50390625 C-0.96077533 21.12671495 -3.85193032 21.01333873 -6.9140625 20.50390625 C-9.94621925 18.30559261 -10.73060648 17.05427431 -11.9140625 13.50390625 C-12.41432601 9.0849119 -12.18186919 6.97904715 -9.9765625 3.06640625 C-6.33417979 0.01869827 -4.57990268 -0.117233 0 0 Z " fill="#161616" transform="translate(1155.9140625,103.49609375)"/>
<path d="M0 0 C2.4962614 0.60302944 3.45930025 1.56126623 5.0859375 3.50390625 C4.7559375 4.49390625 4.4259375 5.48390625 4.0859375 6.50390625 C3.7353125 6.00890625 3.3846875 5.51390625 3.0234375 5.00390625 C0.06876418 2.71641723 -2.30065164 3.10971597 -5.9140625 3.50390625 C-8.36816608 7.18506162 -8.14694093 9.15684223 -7.9140625 13.50390625 C-7.5840625 14.49390625 -7.2540625 15.48390625 -6.9140625 16.50390625 C-4.6040625 16.83390625 -2.2940625 17.16390625 0.0859375 17.50390625 C0.5190625 16.84390625 0.9521875 16.18390625 1.3984375 15.50390625 C1.9553125 14.84390625 2.5121875 14.18390625 3.0859375 13.50390625 C4.0759375 13.50390625 5.0659375 13.50390625 6.0859375 13.50390625 C5.51947377 16.78939589 4.69524265 18.41176068 2.0859375 20.50390625 C-0.96077533 21.12671495 -3.85193032 21.01333873 -6.9140625 20.50390625 C-9.94621925 18.30559261 -10.73060648 17.05427431 -11.9140625 13.50390625 C-12.41432601 9.0849119 -12.18186919 6.97904715 -9.9765625 3.06640625 C-6.33417979 0.01869827 -4.57990268 -0.117233 0 0 Z " fill="#161616" transform="translate(759.9140625,103.49609375)"/>
<path d="M0 0 C2.5625 1.875 2.5625 1.875 4 4 C4 4.66 4 5.32 4 6 C3.01 6 2.02 6 1 6 C0.34 5.01 -0.32 4.02 -1 3 C-2.97747122 2.63702064 -2.97747122 2.63702064 -5.125 2.8125 C-6.40375 2.874375 -7.6825 2.93625 -9 3 C-10.18823797 6.56471391 -10.26274852 9.2558336 -10 13 C-8.64114884 15.40083438 -8.64114884 15.40083438 -7 17 C-3.535 16.505 -3.535 16.505 0 16 C0.33 15.01 0.66 14.02 1 13 C1.99 13 2.98 13 4 13 C3.43327836 16.28698552 2.60684613 17.9039548 0 20 C-3.07233373 20.67896878 -5.9114487 20.56307524 -9 20 C-11.5625 18.1875 -11.5625 18.1875 -13 15 C-13.68710917 10.1106758 -13.92698232 5.73305391 -11.5625 1.3125 C-7.72664466 -0.65220639 -4.21771746 -0.78937097 0 0 Z " fill="#0E0E0E" transform="translate(937,658)"/>
<path d="M0 0 C2.5625 1.875 2.5625 1.875 4 4 C4 4.66 4 5.32 4 6 C3.01 6 2.02 6 1 6 C0.34 5.01 -0.32 4.02 -1 3 C-2.97747122 2.63702064 -2.97747122 2.63702064 -5.125 2.8125 C-6.40375 2.874375 -7.6825 2.93625 -9 3 C-10.18823797 6.56471391 -10.26274852 9.2558336 -10 13 C-8.64114884 15.40083438 -8.64114884 15.40083438 -7 17 C-3.535 16.505 -3.535 16.505 0 16 C0.33 15.01 0.66 14.02 1 13 C1.99 13 2.98 13 4 13 C3.43327836 16.28698552 2.60684613 17.9039548 0 20 C-3.07233373 20.67896878 -5.9114487 20.56307524 -9 20 C-11.5625 18.1875 -11.5625 18.1875 -13 15 C-13.68710917 10.1106758 -13.92698232 5.73305391 -11.5625 1.3125 C-7.72664466 -0.65220639 -4.21771746 -0.78937097 0 0 Z " fill="#0E0E0E" transform="translate(983,537)"/>
<path d="M0 0 C2.5625 1.875 2.5625 1.875 4 4 C4 4.66 4 5.32 4 6 C3.01 6 2.02 6 1 6 C0.34 5.01 -0.32 4.02 -1 3 C-2.97747122 2.63702064 -2.97747122 2.63702064 -5.125 2.8125 C-6.40375 2.874375 -7.6825 2.93625 -9 3 C-10.18823797 6.56471391 -10.26274852 9.2558336 -10 13 C-8.64114884 15.40083438 -8.64114884 15.40083438 -7 17 C-3.535 16.505 -3.535 16.505 0 16 C0.33 15.01 0.66 14.02 1 13 C1.99 13 2.98 13 4 13 C3.43327836 16.28698552 2.60684613 17.9039548 0 20 C-3.07233373 20.67896878 -5.9114487 20.56307524 -9 20 C-11.5625 18.1875 -11.5625 18.1875 -13 15 C-13.68710917 10.1106758 -13.92698232 5.73305391 -11.5625 1.3125 C-7.72664466 -0.65220639 -4.21771746 -0.78937097 0 0 Z " fill="#0E0E0E" transform="translate(937,218)"/>
<path d="M0 0 C0.99 0 1.98 0 3 0 C3.33 3.96 3.66 7.92 4 12 C5.32 12 6.64 12 8 12 C8.33 8.04 8.66 4.08 9 0 C9.99 0 10.98 0 12 0 C12 4.95 12 9.9 12 15 C10.68 15 9.36 15 8 15 C6.453125 15.0928125 6.453125 15.0928125 4.875 15.1875 C3.92625 15.125625 2.9775 15.06375 2 15 C-0.35119399 11.47320901 -0.21443452 9.97120515 -0.125 5.8125 C-0.10695313 4.72582031 -0.08890625 3.63914062 -0.0703125 2.51953125 C-0.04710937 1.68808594 -0.02390625 0.85664062 0 0 Z " fill="#1F1F1F" transform="translate(426,542)"/>
<path d="M0 0 C0.99 0 1.98 0 3 0 C4.32 2.97 5.64 5.94 7 9 C8.32 6.03 9.64 3.06 11 0 C11.66 0 12.32 0 13 0 C11.52963969 5.23537382 9.94432532 10.43732746 8.125 15.5625 C7.83882813 16.38878906 7.55265625 17.21507812 7.2578125 18.06640625 C6 20 6 20 3.3671875 20.77734375 C2.58601563 20.85082031 1.80484375 20.92429687 1 21 C1 20.01 1 19.02 1 18 C1.99 17.67 2.98 17.34 4 17 C3.45018084 10.95198929 2.09570426 5.69398894 0 0 Z " fill="#1B1B1B" transform="translate(481,542)"/>
<path d="M0 0 C3.63 0 7.26 0 11 0 C11 0.66 11 1.32 11 2 C8.03 2 5.06 2 2 2 C2 3.98 2 5.96 2 8 C4.64 8 7.28 8 10 8 C9.67 8.66 9.34 9.32 9 10 C5.9375 10.625 5.9375 10.625 3 11 C2.67 13.31 2.34 15.62 2 18 C4.64 18 7.28 18 10 18 C10 18.66 10 19.32 10 20 C6.7 20 3.4 20 0 20 C0 13.4 0 6.8 0 0 Z " fill="#060606" transform="translate(730,104)"/>
<path d="M0 0 C3.63 0 7.26 0 11 0 C11 0.66 11 1.32 11 2 C8.03 2 5.06 2 2 2 C2 3.98 2 5.96 2 8 C4.64 8 7.28 8 10 8 C9.67 8.66 9.34 9.32 9 10 C5.9375 10.625 5.9375 10.625 3 11 C2.67 13.31 2.34 15.62 2 18 C4.64 18 7.28 18 10 18 C10 18.66 10 19.32 10 20 C6.7 20 3.4 20 0 20 C0 13.4 0 6.8 0 0 Z " fill="#060606" transform="translate(334,104)"/>
<path d="M0 0 C8.625 -0.25 8.625 -0.25 12 2 C12.29296875 5.0390625 12.29296875 5.0390625 12.1875 8.625 C12.16042969 9.81351563 12.13335937 11.00203125 12.10546875 12.2265625 C12.07066406 13.14179687 12.03585937 14.05703125 12 15 C11.34 15 10.68 15 10 15 C9.67 11.37 9.34 7.74 9 4 C7.68 3.67 6.36 3.34 5 3 C3.26043342 4.73956658 3.62809614 7.1936622 3.4375 9.5625 C3.35371094 10.57441406 3.26992188 11.58632813 3.18359375 12.62890625 C3.12300781 13.41136719 3.06242187 14.19382812 3 15 C2.01 15 1.02 15 0 15 C0 10.05 0 5.1 0 0 Z " fill="#0E0E0E" transform="translate(451,542)"/>
<path d="M0 0 C5.28 0 10.56 0 16 0 C16 0.66 16 1.32 16 2 C14.02 2 12.04 2 10 2 C10 7.94 10 13.88 10 20 C9.01 20 8.02 20 7 20 C7 14.06 7 8.12 7 2 C4.69 2 2.38 2 0 2 C0 1.34 0 0.68 0 0 Z " fill="#121212" transform="translate(324,537)"/>
<path d="M0 0 C0.99 0 1.98 0 3 0 C3.05392397 2.77109307 3.09363455 5.54113818 3.125 8.3125 C3.14175781 9.09818359 3.15851563 9.88386719 3.17578125 10.69335938 C3.18222656 11.45068359 3.18867188 12.20800781 3.1953125 12.98828125 C3.20578613 13.68477783 3.21625977 14.38127441 3.22705078 15.09887695 C3 17 3 17 1 20 C-2.5 20.375 -2.5 20.375 -6 20 C-8 17 -8 17 -8 14 C-7.01 14 -6.02 14 -5 14 C-4.67 14.99 -4.34 15.98 -4 17 C-3.01 17 -2.02 17 -1 17 C-0.67 11.39 -0.34 5.78 0 0 Z " fill="#1F1F1F" transform="translate(403,537)"/>
<path d="M0 0 C0.99 0 1.98 0 3 0 C3 5.94 3 11.88 3 18 C6.3 18 9.6 18 13 18 C13 18.66 13 19.32 13 20 C8.71 20 4.42 20 0 20 C0 13.4 0 6.8 0 0 Z " fill="#141414" transform="translate(645,537)"/>
<path d="M0 0 C0.99 0 1.98 0 3 0 C3 5.94 3 11.88 3 18 C6.3 18 9.6 18 13 18 C13 18.66 13 19.32 13 20 C8.71 20 4.42 20 0 20 C0 13.4 0 6.8 0 0 Z " fill="#171717" transform="translate(896,537)"/>
<path d="M0 0 C0.99 0 1.98 0 3 0 C3 5.94 3 11.88 3 18 C6.3 18 9.6 18 13 18 C13 18.66 13 19.32 13 20 C8.71 20 4.42 20 0 20 C0 13.4 0 6.8 0 0 Z " fill="#141414" transform="translate(1090,104)"/>
<path d="M0 0 C0.99 0 1.98 0 3 0 C3 5.94 3 11.88 3 18 C6.3 18 9.6 18 13 18 C13 18.66 13 19.32 13 20 C8.71 20 4.42 20 0 20 C0 13.4 0 6.8 0 0 Z " fill="#141414" transform="translate(675,104)"/>
<path d="M0 0 C0.99 0 1.98 0 3 0 C3 5.94 3 11.88 3 18 C6.3 18 9.6 18 13 18 C13 18.66 13 19.32 13 20 C8.71 20 4.42 20 0 20 C0 13.4 0 6.8 0 0 Z " fill="#141414" transform="translate(260,104)"/>
<path d="M0 0 C0 0.66 0 1.32 0 2 C-1.98 2.33 -3.96 2.66 -6 3 C-6.33 4.32 -6.66 5.64 -7 7 C-4.03 7 -1.06 7 2 7 C2.33 6.34 2.66 5.68 3 5 C3.33 5.99 3.66 6.98 4 8 C0.37 8 -3.26 8 -7 8 C-6.34 9.32 -5.68 10.64 -5 12 C-3.35 12 -1.7 12 0 12 C0.33 11.34 0.66 10.68 1 10 C1.99 10 2.98 10 4 10 C2.125 13.875 2.125 13.875 1 15 C-5.35226548 15.47053818 -5.35226548 15.47053818 -7.69921875 13.765625 C-9.76749636 10.95823317 -9.47250882 8.47865565 -9.3515625 5.09765625 C-9 3 -9 3 -7.3125 0.9375 C-4.69914404 -0.12196863 -2.79491785 -0.23290982 0 0 Z " fill="#0F0F0F" transform="translate(630,542)"/>
<path d="M0 0 C0 0.66 0 1.32 0 2 C-1.98 2.33 -3.96 2.66 -6 3 C-6.33 4.32 -6.66 5.64 -7 7 C-4.03 7 -1.06 7 2 7 C2.33 6.34 2.66 5.68 3 5 C3.33 5.99 3.66 6.98 4 8 C0.37 8 -3.26 8 -7 8 C-6.34 9.32 -5.68 10.64 -5 12 C-3.35 12 -1.7 12 0 12 C0.33 11.34 0.66 10.68 1 10 C1.99 10 2.98 10 4 10 C2.125 13.875 2.125 13.875 1 15 C-5.35226548 15.47053818 -5.35226548 15.47053818 -7.69921875 13.765625 C-9.76749636 10.95823317 -9.47250882 8.47865565 -9.3515625 5.09765625 C-9 3 -9 3 -7.3125 0.9375 C-4.69914404 -0.12196863 -2.79491785 -0.23290982 0 0 Z " fill="#0F0F0F" transform="translate(572,542)"/>
<path d="M0 0 C0 0.66 0 1.32 0 2 C-1.98 2.33 -3.96 2.66 -6 3 C-6.33 4.32 -6.66 5.64 -7 7 C-4.03 7 -1.06 7 2 7 C2.33 6.34 2.66 5.68 3 5 C3.33 5.99 3.66 6.98 4 8 C0.37 8 -3.26 8 -7 8 C-6.34 9.32 -5.68 10.64 -5 12 C-3.35 12 -1.7 12 0 12 C0.33 11.34 0.66 10.68 1 10 C1.99 10 2.98 10 4 10 C2.125 13.875 2.125 13.875 1 15 C-5.35226548 15.47053818 -5.35226548 15.47053818 -7.69921875 13.765625 C-9.76749636 10.95823317 -9.47250882 8.47865565 -9.3515625 5.09765625 C-9 3 -9 3 -7.3125 0.9375 C-4.69914404 -0.12196863 -2.79491785 -0.23290982 0 0 Z " fill="#0F0F0F" transform="translate(699,109)"/>
<path d="M0 0 C4.875 0.875 4.875 0.875 6 2 C6.1328125 3.8125 6.1328125 3.8125 6.125 6 C6.12757813 6.721875 6.13015625 7.44375 6.1328125 8.1875 C6 10 6 10 5 11 C2.5625 11.1875 2.5625 11.1875 0 11 C-2 9 -2 9 -2.25 6.0625 C-2 3 -2 3 0 0 Z " fill="#F3F3F3" transform="translate(414,544)"/>
<path d="M0 0 C2.875 0.4375 2.875 0.4375 4.875 2.4375 C4.875 3.4275 4.875 4.4175 4.875 5.4375 C4.215 5.4375 3.555 5.4375 2.875 5.4375 C2.545 4.7775 2.215 4.1175 1.875 3.4375 C0.225 3.7675 -1.425 4.0975 -3.125 4.4375 C-3.125 6.7475 -3.125 9.0575 -3.125 11.4375 C-1.475 11.7675 0.175 12.0975 1.875 12.4375 C2.205 11.7775 2.535 11.1175 2.875 10.4375 C3.865 10.4375 4.855 10.4375 5.875 10.4375 C4 14.3125 4 14.3125 2.875 15.4375 C-2.34994432 15.89184298 -2.34994432 15.89184298 -4.9375 14.375 C-6.78725706 11.35697533 -7.06431504 8.95722785 -7.125 5.4375 C-5.1504576 1.72536029 -4.20785313 0.58909944 0 0 Z " fill="#212121" transform="translate(585.125,541.5625)"/>
<path d="M0 0 C4.55555556 0.55555556 4.55555556 0.55555556 6 2 C6.1875 5.4375 6.1875 5.4375 6 9 C5.34 9.66 4.68 10.32 4 11 C-0.55555556 10.44444444 -0.55555556 10.44444444 -2 9 C-2.1875 5.5625 -2.1875 5.5625 -2 2 C-1.34 1.34 -0.68 0.68 0 0 Z " fill="#F7F7F7" transform="translate(347,544)"/>
<path d="M0 0 C3.96 0 7.92 0 12 0 C11.01 1.485 11.01 1.485 10 3 C7.36 2.67 4.72 2.34 2 2 C2 7.28 2 12.56 2 18 C4.64 18 7.28 18 10 18 C10 18.66 10 19.32 10 20 C6.7 20 3.4 20 0 20 C0 13.4 0 6.8 0 0 Z " fill="#030303" transform="translate(1098,537)"/>
<path d="M0 0 C3.96 0 7.92 0 12 0 C11.01 1.485 11.01 1.485 10 3 C7.36 2.67 4.72 2.34 2 2 C2 7.28 2 12.56 2 18 C4.64 18 7.28 18 10 18 C10 18.66 10 19.32 10 20 C6.7 20 3.4 20 0 20 C0 13.4 0 6.8 0 0 Z " fill="#030303" transform="translate(719,537)"/>
<path d="M0 0 C4.55555556 0.55555556 4.55555556 0.55555556 6 2 C6.1875 5.4375 6.1875 5.4375 6 9 C5.34 9.66 4.68 10.32 4 11 C1.4375 10.75 1.4375 10.75 -1 10 C-2.38125018 7.23749964 -2.19079306 5.05268901 -2 2 C-1.34 1.34 -0.68 0.68 0 0 Z " fill="#EDEDED" transform="translate(931,544)"/>
<path d="M0 0 C4.55555556 0.55555556 4.55555556 0.55555556 6 2 C6.1875 5.4375 6.1875 5.4375 6 9 C5.34 9.66 4.68 10.32 4 11 C1.4375 10.75 1.4375 10.75 -1 10 C-2.38125018 7.23749964 -2.19079306 5.05268901 -2 2 C-1.34 1.34 -0.68 0.68 0 0 Z " fill="#EDEDED" transform="translate(680,544)"/>
<path d="M0 0 C4.55555556 0.55555556 4.55555556 0.55555556 6 2 C6.1875 5.4375 6.1875 5.4375 6 9 C5.34 9.66 4.68 10.32 4 11 C1.4375 10.75 1.4375 10.75 -1 10 C-2.38125018 7.23749964 -2.19079306 5.05268901 -2 2 C-1.34 1.34 -0.68 0.68 0 0 Z " fill="#EDEDED" transform="translate(295,111)"/>
<path d="M0 0 C1.54571278 2.31856917 2.79618552 4.50638429 4 7 C4.66 6.67 5.32 6.34 6 6 C7.32 9.63 8.64 13.26 10 17 C8.68 16.67 7.36 16.34 6 16 C5.67 14.35 5.34 12.7 5 11 C2.03 11 -0.94 11 -4 11 C-3.5247412 9.35303396 -3.04468109 7.70745272 -2.5625 6.0625 C-2.29566406 5.14597656 -2.02882813 4.22945312 -1.75390625 3.28515625 C-1 1 -1 1 0 0 Z " fill="#1B1B1B" transform="translate(90,661)"/>
<path d="M0 0 C1.54571278 2.31856917 2.79618552 4.50638429 4 7 C4.66 6.67 5.32 6.34 6 6 C7.32 9.63 8.64 13.26 10 17 C8.68 16.67 7.36 16.34 6 16 C5.67 14.35 5.34 12.7 5 11 C2.03 11 -0.94 11 -4 11 C-3.5247412 9.35303396 -3.04468109 7.70745272 -2.5625 6.0625 C-2.29566406 5.14597656 -2.02882813 4.22945312 -1.75390625 3.28515625 C-1 1 -1 1 0 0 Z " fill="#1B1B1B" transform="translate(707,540)"/>
<path d="M0 0 C4.875 0.875 4.875 0.875 6 2 C6.1875 5.4375 6.1875 5.4375 6 9 C5.34 9.66 4.68 10.32 4 11 C1.375 10.625 1.375 10.625 -1 10 C-2.25 3.375 -2.25 3.375 0 0 Z " fill="#EDEDED" transform="translate(806,544)"/>
<path d="M0 0 C1.54571278 2.31856917 2.79618552 4.50638429 4 7 C4.66 6.67 5.32 6.34 6 6 C7.32 9.63 8.64 13.26 10 17 C8.68 16.67 7.36 16.34 6 16 C5.67 14.35 5.34 12.7 5 11 C2.03 11 -0.94 11 -4 11 C-3.5247412 9.35303396 -3.04468109 7.70745272 -2.5625 6.0625 C-2.29566406 5.14597656 -2.02882813 4.22945312 -1.75390625 3.28515625 C-1 1 -1 1 0 0 Z " fill="#1B1B1B" transform="translate(90,221)"/>
<path d="M0 0 C1.54571278 2.31856917 2.79618552 4.50638429 4 7 C4.66 6.67 5.32 6.34 6 6 C7.32 9.63 8.64 13.26 10 17 C8.68 16.67 7.36 16.34 6 16 C5.67 14.35 5.34 12.7 5 11 C2.03 11 -0.94 11 -4 11 C-3.5247412 9.35303396 -3.04468109 7.70745272 -2.5625 6.0625 C-2.29566406 5.14597656 -2.02882813 4.22945313 -1.75390625 3.28515625 C-1 1 -1 1 0 0 Z " fill="#1B1B1B" transform="translate(322,107)"/>
<path d="M0 0 C2.625 0.375 2.625 0.375 5 1 C6.25 7.625 6.25 7.625 4 11 C-0.875 10.125 -0.875 10.125 -2 9 C-2.1875 5.5625 -2.1875 5.5625 -2 2 C-1.34 1.34 -0.68 0.68 0 0 Z " fill="#EDEDED" transform="translate(1125,111)"/>
<path d="M0 0 C2.625 0.375 2.625 0.375 5 1 C6.25 7.625 6.25 7.625 4 11 C-0.875 10.125 -0.875 10.125 -2 9 C-2.1875 5.5625 -2.1875 5.5625 -2 2 C-1.34 1.34 -0.68 0.68 0 0 Z " fill="#EDEDED" transform="translate(710,111)"/>
<path d="M0 0 C0.99 0 1.98 0 3 0 C4.32 2.97 5.64 5.94 7 9 C8.32 6.03 9.64 3.06 11 0 C11.66 0 12.32 0 13 0 C12.37321829 3.66172475 11.35548154 6.8818995 9.9375 10.3125 C9.57527344 11.19550781 9.21304688 12.07851563 8.83984375 12.98828125 C8.56269531 13.65214844 8.28554688 14.31601562 8 15 C7.01 15 6.02 15 5 15 C4.16013916 13.06532058 3.32831973 11.12714871 2.5 9.1875 C2.0359375 8.10855469 1.571875 7.02960937 1.09375 5.91796875 C0 3 0 3 0 0 Z " fill="#1E1E1E" transform="translate(606,542)"/>
<path d="M0 0 C0.99 0 1.98 0 3 0 C3 1.32 3 2.64 3 4 C3.66 4 4.32 4 5 4 C5 4.66 5 5.32 5 6 C4.34 6 3.68 6 3 6 C3 9.63 3 13.26 3 17 C3.66 17 4.32 17 5 17 C5 17.66 5 18.32 5 19 C3.35 18.67 1.7 18.34 0 18 C0 14.04 0 10.08 0 6 C-0.66 6 -1.32 6 -2 6 C-2 5.34 -2 4.68 -2 4 C-1.34 4 -0.68 4 0 4 C0 2.68 0 1.36 0 0 Z " fill="#262626" transform="translate(359,538)"/>
<path d="M0 0 C2.97 0 5.94 0 9 0 C9.625 2.375 9.625 2.375 10 5 C8 7 8 7 6.0546875 7.1953125 C4.03645833 7.13020833 2.01822917 7.06510417 0 7 C0 4.69 0 2.38 0 0 Z " fill="#E7E7E7" transform="translate(506,669)"/>
<path d="M0 0 C2.97 0 5.94 0 9 0 C9.625 2.375 9.625 2.375 10 5 C8 7 8 7 6.0546875 7.1953125 C4.03645833 7.13020833 2.01822917 7.06510417 0 7 C0 4.69 0 2.38 0 0 Z " fill="#E7E7E7" transform="translate(506,229)"/>
<path d="M0 0 C7.75 -0.125 7.75 -0.125 10 1 C9.125 5.875 9.125 5.875 8 7 C5.32941149 7.14115161 2.67567762 7.04247107 0 7 C0 4.69 0 2.38 0 0 Z " fill="#EAEAEA" transform="translate(954,548)"/>
<path d="M0 0 C7.75 -0.125 7.75 -0.125 10 1 C9.125 5.875 9.125 5.875 8 7 C5.32941149 7.14115161 2.67567762 7.04247107 0 7 C0 4.69 0 2.38 0 0 Z " fill="#EAEAEA" transform="translate(848,548)"/>
<path d="M0 0 C3.53571429 0.53571429 3.53571429 0.53571429 5 2 C5.1875 5.4375 5.1875 5.4375 5 9 C4.34 9.66 3.68 10.32 3 11 C-0.53571429 10.46428571 -0.53571429 10.46428571 -2 9 C-2.1875 5.5625 -2.1875 5.5625 -2 2 C-1.34 1.34 -0.68 0.68 0 0 Z " fill="#FAFAFA" transform="translate(1058,544)"/>
<path d="M0 0 C1.921875 0.35546875 1.921875 0.35546875 4 1 C5.78284814 4.29826907 6 6.1774751 6 10 C5.34 10 4.68 10 4 10 C3.34 8.35 2.68 6.7 2 5 C0.45428722 7.31856917 -0.79618552 9.50638429 -2 12 C-0.02 12 1.96 12 4 12 C4 12.33 4 12.66 4 13 C-0.455 13.495 -0.455 13.495 -5 14 C-4.34580901 8.93001981 -2.1453591 4.58009223 0 0 Z " fill="#1A1A1A" transform="translate(832,537)"/>
<path d="M0 0 C0.99 0 1.98 0 3 0 C3 1.98 3 3.96 3 6 C4.65 6 6.3 6 8 6 C8 6.66 8 7.32 8 8 C6.35 8 4.7 8 3 8 C3 9.98 3 11.96 3 14 C2.01 14 1.02 14 0 14 C0 12.02 0 10.04 0 8 C-1.65 8 -3.3 8 -5 8 C-5 7.34 -5 6.68 -5 6 C-3.35 6 -1.7 6 0 6 C0 4.02 0 2.04 0 0 Z " fill="#252525" transform="translate(1003,540)"/>
<path d="M0 0 C1.32 0 2.64 0 4 0 C4 0.99 4 1.98 4 3 C3.01 3 2.02 3 1 3 C1 3.99 1 4.98 1 6 C1.66 6 2.32 6 3 6 C3 6.66 3 7.32 3 8 C2.01 8 1.02 8 0 8 C0 12.29 0 16.58 0 21 C-0.66 21 -1.32 21 -2 21 C-2 16.71 -2 12.42 -2 8 C-2.66 7.67 -3.32 7.34 -4 7 C-3.34 7 -2.68 7 -2 7 C-2.04125 6.21625 -2.0825 5.4325 -2.125 4.625 C-2 2 -2 2 0 0 Z " fill="#000000" transform="translate(558,536)"/>
<path d="M0 0 C0.33 0.66 0.66 1.32 1 2 C0.67 2.66 0.34 3.32 0 4 C2.97 4 5.94 4 9 4 C9 3.34 9 2.68 9 2 C9.66 2 10.32 2 11 2 C11 2.99 11 3.98 11 5 C7.37 5 3.74 5 0 5 C0.66 6.32 1.32 7.64 2 9 C5.19902639 9.08886184 7.92677456 8.91058531 11 8 C10 11 10 11 8 12 C1.70915033 12.57189542 1.70915033 12.57189542 -0.9375 10.4375 C-2.34907805 7.19917389 -2.20145347 4.49186021 -2 1 C-1.34 0.67 -0.68 0.34 0 0 Z " fill="#070707" transform="translate(662,545)"/>
<path d="M0 0 C2.64 0 5.28 0 8 0 C8 0.99 8 1.98 8 3 C6.68 3.33 5.36 3.66 4 4 C3.67 7.63 3.34 11.26 3 15 C2.01 15 1.02 15 0 15 C0 10.05 0 5.1 0 0 Z " fill="#343434" transform="translate(441,542)"/>
<path d="M0 0 C0.99 0 1.98 0 3 0 C3 6.6 3 13.2 3 20 C2.01 20 1.02 20 0 20 C0 13.4 0 6.8 0 0 Z " fill="#2B2B2B" transform="translate(382,537)"/>
<path d="M0 0 C0.66 0 1.32 0 2 0 C2 5.94 2 11.88 2 18 C5.3 18 8.6 18 12 18 C12 18.66 12 19.32 12 20 C8.04 20 4.08 20 0 20 C0 13.4 0 6.8 0 0 Z " fill="#000000" transform="translate(1023,537)"/>
<path d="M0 0 C0.66 0 1.32 0 2 0 C2 5.94 2 11.88 2 18 C5.3 18 8.6 18 12 18 C12 18.66 12 19.32 12 20 C8.04 20 4.08 20 0 20 C0 13.4 0 6.8 0 0 Z " fill="#000000" transform="translate(772,537)"/>
<path d="M0 0 C0.33 0.66 0.66 1.32 1 2 C0.67 2.66 0.34 3.32 0 4 C2.97 4 5.94 4 9 4 C9 3.34 9 2.68 9 2 C9.66 2 10.32 2 11 2 C11 2.99 11 3.98 11 5 C7.37 5 3.74 5 0 5 C0.66 6.32 1.32 7.64 2 9 C5.19902639 9.08886184 7.92677456 8.91058531 11 8 C10 11 10 11 8 12 C1.70915033 12.57189542 1.70915033 12.57189542 -0.9375 10.4375 C-2.34907805 7.19917389 -2.20145347 4.49186021 -2 1 C-1.34 0.67 -0.68 0.34 0 0 Z " fill="#070707" transform="translate(1107,112)"/>
<path d="M0 0 C0.33 0.66 0.66 1.32 1 2 C0.67 2.66 0.34 3.32 0 4 C2.97 4 5.94 4 9 4 C9 3.34 9 2.68 9 2 C9.66 2 10.32 2 11 2 C11 2.99 11 3.98 11 5 C7.37 5 3.74 5 0 5 C0.66 6.32 1.32 7.64 2 9 C5.19902639 9.08886184 7.92677456 8.91058531 11 8 C10 11 10 11 8 12 C1.70915033 12.57189542 1.70915033 12.57189542 -0.9375 10.4375 C-2.34907805 7.19917389 -2.20145347 4.49186021 -2 1 C-1.34 0.67 -0.68 0.34 0 0 Z " fill="#070707" transform="translate(277,112)"/>
<path d="M0 0 C3.875 1.75 3.875 1.75 5 4 C5.44072083 8.31397888 5.42842984 11.97176839 3.75 16 C1.83578823 18.18767059 0.85278483 18.70488433 -2 19 C-2 18.01 -2 17.02 -2 16 C-1.01 15.34 -0.02 14.68 1 14 C1.44047137 11.66903882 1.44047137 11.66903882 1.3125 9.0625 C1.30863281 8.18722656 1.30476563 7.31195313 1.30078125 6.41015625 C1.15013081 3.74052153 1.15013081 3.74052153 -1 1 C-0.67 0.67 -0.34 0.34 0 0 Z " fill="#1F1F1F" transform="translate(1177,105)"/>
<path d="M0 0 C0.33 0 0.66 0 1 0 C1 1.65 1 3.3 1 5 C-6.28571429 8.42857143 -6.28571429 8.42857143 -11 8 C-11.66 6.35 -12.32 4.7 -13 3 C-9.37 3 -5.74 3 -2 3 C-1.67 2.34 -1.34 1.68 -1 1 C-0.67 0.67 -0.34 0.34 0 0 Z " fill="#F6F6F6" transform="translate(675,547)"/>
<path d="M0 0 C0.33 0 0.66 0 1 0 C1 1.65 1 3.3 1 5 C-6.28571429 8.42857143 -6.28571429 8.42857143 -11 8 C-11.66 6.35 -12.32 4.7 -13 3 C-9.37 3 -5.74 3 -2 3 C-1.67 2.34 -1.34 1.68 -1 1 C-0.67 0.67 -0.34 0.34 0 0 Z " fill="#F6F6F6" transform="translate(290,114)"/>
<path d="M0 0 C3.125 0.3125 3.125 0.3125 5 2.3125 C5.556875 3.3025 5.556875 3.3025 6.125 4.3125 C5.465 4.3125 4.805 4.3125 4.125 4.3125 C4.125 4.9725 4.125 5.6325 4.125 6.3125 C-3.625 6.4375 -3.625 6.4375 -5.875 5.3125 C-3.48787935 0.37911732 -3.48787935 0.37911732 0 0 Z " fill="#1A1A1A" transform="translate(1043.875,541.6875)"/>
<path d="M0 0 C2.64 0 5.28 0 8 0 C8.38218767 1.65614657 8.71395102 3.32457024 9 5 C8 6 8 6 6.15234375 6.09765625 C4.1015625 6.06510417 2.05078125 6.03255208 0 6 C0 4.02 0 2.04 0 0 Z " fill="#ECECEC" transform="translate(506,660)"/>
<path d="M0 0 C3.875 1.875 3.875 1.875 5 3 C6.08255582 12.21718954 6.08255582 12.21718954 3.8828125 15.83984375 C2.5 17.1875 2.5 17.1875 0 19 C-0.66 18.01 -1.32 17.02 -2 16 C-1.34 15.484375 -0.68 14.96875 0 14.4375 C2.68675779 11.16301394 2.37584533 9.13429864 2 5 C1.67 4.01 1.34 3.02 1 2 C0.34 1.67 -0.32 1.34 -1 1 C-0.67 0.67 -0.34 0.34 0 0 Z " fill="#0D0D0D" transform="translate(1352,659)"/>
<path d="M0 0 C0.66 0 1.32 0 2 0 C2 1.98 2 3.96 2 6 C3.98 6 5.96 6 8 6 C8 6.66 8 7.32 8 8 C6.02 8 4.04 8 2 8 C2 9.98 2 11.96 2 14 C1.34 14 0.68 14 0 14 C0 12.02 0 10.04 0 8 C-1.98 8 -3.96 8 -6 8 C-6 7.34 -6 6.68 -6 6 C-4.02 6 -2.04 6 0 6 C0 4.02 0 2.04 0 0 Z " fill="#0C0C0C" transform="translate(877,540)"/>
<path d="M0 0 C0.66 0 1.32 0 2 0 C2 1.32 2 2.64 2 4 C2.99 4 3.98 4 5 4 C5 4.66 5 5.32 5 6 C4.01 6 3.02 6 2 6 C2 9.63 2 13.26 2 17 C2.99 17 3.98 17 5 17 C5 17.66 5 18.32 5 19 C3.35 19 1.7 19 0 19 C0 14.71 0 10.42 0 6 C-0.66 5.67 -1.32 5.34 -2 5 C-1.34 5 -0.68 5 0 5 C0 3.35 0 1.7 0 0 Z " fill="#0F0F0F" transform="translate(594,538)"/>
<path d="M0 0 C2.64 0 5.28 0 8 0 C8.38218767 1.65614657 8.71395102 3.32457024 9 5 C8 6 8 6 6.15234375 6.09765625 C4.1015625 6.06510417 2.05078125 6.03255208 0 6 C0 4.02 0 2.04 0 0 Z " fill="#ECECEC" transform="translate(506,220)"/>
<path d="M0 0 C3.875 1.875 3.875 1.875 5 3 C6.08255582 12.21718954 6.08255582 12.21718954 3.8828125 15.83984375 C2.5 17.1875 2.5 17.1875 0 19 C-0.66 18.01 -1.32 17.02 -2 16 C-1.34 15.484375 -0.68 14.96875 0 14.4375 C2.68675779 11.16301394 2.37584533 9.13429864 2 5 C1.67 4.01 1.34 3.02 1 2 C0.34 1.67 -0.32 1.34 -1 1 C-0.67 0.67 -0.34 0.34 0 0 Z " fill="#0D0D0D" transform="translate(1352,219)"/>
<path d="M0 0 C2.64 0 5.28 0 8 0 C8.38218767 1.65614657 8.71395102 3.32457024 9 5 C8 6 8 6 6.15234375 6.09765625 C4.1015625 6.06510417 2.05078125 6.03255208 0 6 C0 4.02 0 2.04 0 0 Z " fill="#FDFDFD" transform="translate(733,115)"/>
<path d="M0 0 C2.64 0 5.28 0 8 0 C8.38218767 1.65614657 8.71395102 3.32457024 9 5 C8 6 8 6 6.15234375 6.09765625 C4.1015625 6.06510417 2.05078125 6.03255208 0 6 C0 4.02 0 2.04 0 0 Z " fill="#FDFDFD" transform="translate(337,115)"/>
<path d="M0 0 C2.64 0 5.28 0 8 0 C8.38218767 1.65614657 8.71395102 3.32457024 9 5 C8 6 8 6 6.15234375 6.09765625 C4.1015625 6.06510417 2.05078125 6.03255208 0 6 C0 4.02 0 2.04 0 0 Z " fill="#E7E7E7" transform="translate(732,106)"/>
<path d="M0 0 C2.64 0 5.28 0 8 0 C8.38218767 1.65614657 8.71395102 3.32457024 9 5 C8 6 8 6 6.15234375 6.09765625 C4.1015625 6.06510417 2.05078125 6.03255208 0 6 C0 4.02 0 2.04 0 0 Z " fill="#E7E7E7" transform="translate(336,106)"/>
<path d="M0 0 C6.75 -0.125 6.75 -0.125 9 1 C8.67 2.65 8.34 4.3 8 6 C5.36 6 2.72 6 0 6 C0 4.02 0 2.04 0 0 Z " fill="#F2F2F2" transform="translate(954,539)"/>
<path d="M0 0 C6.75 -0.125 6.75 -0.125 9 1 C8.67 2.65 8.34 4.3 8 6 C5.36 6 2.72 6 0 6 C0 4.02 0 2.04 0 0 Z " fill="#F2F2F2" transform="translate(848,539)"/>
<path d="M0 0 C0.66 0.99 1.32 1.98 2 3 C1 5 1 5 -1.25 6.125 C-4.01613295 7.00513321 -6.12048351 7.1645438 -9 7 C-9.66 5.35 -10.32 3.7 -11 2 C-7.37 2 -3.74 2 0 2 C0 1.34 0 0.68 0 0 Z " fill="#F6F6F6" transform="translate(1118,115)"/>
<path d="M0 0 C-0.639375 0.185625 -1.27875 0.37125 -1.9375 0.5625 C-4.3965422 1.93426474 -4.3965422 1.93426474 -4.8125 5.5 C-5.28118498 8.84964703 -5.28118498 8.84964703 -4 11 C-1.47266765 11.65555119 -1.47266765 11.65555119 1 12 C0.67 12.66 0.34 13.32 0 14 C-2.3125 14.25 -2.3125 14.25 -5 14 C-7.15658799 12.21523753 -7.86587233 10.81294456 -8.3203125 8.05859375 C-8.5077521 4.66593691 -8.48677232 2.57369595 -6.25 -0.0625 C-3.6468225 -1.14715729 -2.58518155 -1.01560704 0 0 Z " fill="#101010" transform="translate(810,543)"/>
<path d="M0 0 C0.33 0 0.66 0 1 0 C1 2.64 1 5.28 1 8 C-0.45635371 8.22174933 -1.91522956 8.42698698 -3.375 8.625 C-4.18710938 8.74101563 -4.99921875 8.85703125 -5.8359375 8.9765625 C-6.55007813 8.98429688 -7.26421875 8.99203125 -8 9 C-8.66 8.34 -9.32 7.68 -10 7 C-10 6.01 -10 5.02 -10 4 C-6.7 4 -3.4 4 0 4 C0 2.68 0 1.36 0 0 Z " fill="#CCCCCC" transform="translate(1050,546)"/>
<path d="M0 0 C0.6875 2.0625 0.6875 2.0625 1 4 C-1.40545638 5.20272819 -2.94996953 5.10071472 -5.625 5.0625 C-6.85089844 5.04896484 -6.85089844 5.04896484 -8.1015625 5.03515625 C-9.04128906 5.01775391 -9.04128906 5.01775391 -10 5 C-9.6796875 3.08203125 -9.6796875 3.08203125 -9 1 C-5.3931275 -0.64661571 -3.8148779 -1.27162597 0 0 Z " fill="#383838" transform="translate(633,544)"/>
<path d="M0 0 C0.6875 2.0625 0.6875 2.0625 1 4 C-1.40545638 5.20272819 -2.94996953 5.10071472 -5.625 5.0625 C-6.85089844 5.04896484 -6.85089844 5.04896484 -8.1015625 5.03515625 C-9.04128906 5.01775391 -9.04128906 5.01775391 -10 5 C-9.6796875 3.08203125 -9.6796875 3.08203125 -9 1 C-5.3931275 -0.64661571 -3.8148779 -1.27162597 0 0 Z " fill="#383838" transform="translate(575,544)"/>
<path d="M0 0 C0.6875 2.0625 0.6875 2.0625 1 4 C-1.40545638 5.20272819 -2.94996953 5.10071472 -5.625 5.0625 C-6.85089844 5.04896484 -6.85089844 5.04896484 -8.1015625 5.03515625 C-9.04128906 5.01775391 -9.04128906 5.01775391 -10 5 C-9.6796875 3.08203125 -9.6796875 3.08203125 -9 1 C-5.3931275 -0.64661571 -3.8148779 -1.27162597 0 0 Z " fill="#383838" transform="translate(702,111)"/>
<path d="M0 0 C3.39157221 0.06553763 4.36412363 0.18411485 7.1875 2.25 C8.625 4.375 8.625 4.375 8.625 6.375 C7.635 6.375 6.645 6.375 5.625 6.375 C4.965 5.385 4.305 4.395 3.625 3.375 C1.64752878 3.01202064 1.64752878 3.01202064 -0.5 3.1875 C-1.77875 3.249375 -3.0575 3.31125 -4.375 3.375 C-4.705 4.035 -5.035 4.695 -5.375 5.375 C-6.365 5.705 -7.355 6.035 -8.375 6.375 C-6.31173982 1.95372819 -5.03713906 0.08367341 0 0 Z " fill="#1F1F1F" transform="translate(932.375,657.625)"/>
<path d="M0 0 C3.39157221 0.06553763 4.36412363 0.18411485 7.1875 2.25 C8.625 4.375 8.625 4.375 8.625 6.375 C7.635 6.375 6.645 6.375 5.625 6.375 C4.965 5.385 4.305 4.395 3.625 3.375 C1.64752878 3.01202064 1.64752878 3.01202064 -0.5 3.1875 C-1.77875 3.249375 -3.0575 3.31125 -4.375 3.375 C-4.705 4.035 -5.035 4.695 -5.375 5.375 C-6.365 5.705 -7.355 6.035 -8.375 6.375 C-6.31173982 1.95372819 -5.03713906 0.08367341 0 0 Z " fill="#1F1F1F" transform="translate(978.375,536.625)"/>
<path d="M0 0 C3.39157221 0.06553763 4.36412363 0.18411485 7.1875 2.25 C8.625 4.375 8.625 4.375 8.625 6.375 C7.635 6.375 6.645 6.375 5.625 6.375 C4.965 5.385 4.305 4.395 3.625 3.375 C1.64752878 3.01202064 1.64752878 3.01202064 -0.5 3.1875 C-1.77875 3.249375 -3.0575 3.31125 -4.375 3.375 C-4.705 4.035 -5.035 4.695 -5.375 5.375 C-6.365 5.705 -7.355 6.035 -8.375 6.375 C-6.31173982 1.95372819 -5.03713906 0.08367341 0 0 Z " fill="#1F1F1F" transform="translate(932.375,217.625)"/>
<path d="M0 0 C0.33 1.32 0.66 2.64 1 4 C-1.1875 6.0625 -1.1875 6.0625 -4 8 C-6.8125 7.75 -6.8125 7.75 -9 7 C-9.33 5.68 -9.66 4.36 -10 3 C-6.7 3 -3.4 3 0 3 C0 2.01 0 1.02 0 0 Z " fill="#DFDFDF" transform="translate(479,547)"/>
<path d="M0 0 C0.99 0 1.98 0 3 0 C2.67 0.66 2.34 1.32 2 2 C2.33 2.33 2.66 2.66 3 3 C3.07244053 5.01964199 3.08377188 7.04167124 3.0625 9.0625 C3.05347656 10.16722656 3.04445313 11.27195312 3.03515625 12.41015625 C3.02355469 13.26480469 3.01195312 14.11945312 3 15 C2.01 15 1.02 15 0 15 C0 10.05 0 5.1 0 0 Z " fill="#2F2F2F" transform="translate(451,542)"/>
<path d="M0 0 C0.33 1.32 0.66 2.64 1 4 C-1.1875 6.0625 -1.1875 6.0625 -4 8 C-6.8125 7.75 -6.8125 7.75 -9 7 C-9.33 5.68 -9.66 4.36 -10 3 C-6.7 3 -3.4 3 0 3 C0 2.01 0 1.02 0 0 Z " fill="#DEDEDE" transform="translate(924,547)"/>
<path d="M0 0 C0.33 1.32 0.66 2.64 1 4 C-1.1875 6.0625 -1.1875 6.0625 -4 8 C-6.8125 7.75 -6.8125 7.75 -9 7 C-9.33 5.68 -9.66 4.36 -10 3 C-6.7 3 -3.4 3 0 3 C0 2.01 0 1.02 0 0 Z " fill="#DEDEDE" transform="translate(799,547)"/>
<path d="M0 0 C3.63 0 7.26 0 11 0 C10.67 0.66 10.34 1.32 10 2 C9.34 2 8.68 2 8 2 C7.67 2.99 7.34 3.98 7 5 C4.625 5.125 4.625 5.125 2 5 C1.34 4.34 0.68 3.68 0 3 C0 2.01 0 1.02 0 0 Z " fill="#DDDDDD" transform="translate(623,550)"/>
<path d="M0 0 C3.63 0 7.26 0 11 0 C10.67 0.66 10.34 1.32 10 2 C9.34 2 8.68 2 8 2 C7.67 2.99 7.34 3.98 7 5 C4.625 5.125 4.625 5.125 2 5 C1.34 4.34 0.68 3.68 0 3 C0 2.01 0 1.02 0 0 Z " fill="#DDDDDD" transform="translate(565,550)"/>
<path d="M0 0 C0.99 0.33 1.98 0.66 3 1 C4.1577506 4.47325181 4.06866652 7.36067448 4 11 C2.02 11.99 2.02 11.99 0 13 C0.66 10.36 1.32 7.72 2 5 C-1.3 4.67 -4.6 4.34 -8 4 C-8 3.67 -8 3.34 -8 3 C-6.865625 2.87625 -5.73125 2.7525 -4.5625 2.625 C-3.386875 2.41875 -2.21125 2.2125 -1 2 C-0.67 1.34 -0.34 0.68 0 0 Z " fill="#212121" transform="translate(962,544)"/>
<path d="M0 0 C0.99 0.33 1.98 0.66 3 1 C4.1577506 4.47325181 4.06866652 7.36067448 4 11 C2.02 11.99 2.02 11.99 0 13 C0.66 10.36 1.32 7.72 2 5 C-1.3 4.67 -4.6 4.34 -8 4 C-8 3.67 -8 3.34 -8 3 C-6.865625 2.87625 -5.73125 2.7525 -4.5625 2.625 C-3.386875 2.41875 -2.21125 2.2125 -1 2 C-0.67 1.34 -0.34 0.68 0 0 Z " fill="#212121" transform="translate(856,544)"/>
<path d="M0 0 C3.63 0 7.26 0 11 0 C10.67 0.66 10.34 1.32 10 2 C9.34 2 8.68 2 8 2 C7.67 2.99 7.34 3.98 7 5 C4.625 5.125 4.625 5.125 2 5 C1.34 4.34 0.68 3.68 0 3 C0 2.01 0 1.02 0 0 Z " fill="#DDDDDD" transform="translate(692,117)"/>
<path d="M0 0 C1.17369141 -0.02513672 1.17369141 -0.02513672 2.37109375 -0.05078125 C5.02377163 0.38896749 5.885467 1.26878454 7.5625 3.3125 C7.2325 4.3025 6.9025 5.2925 6.5625 6.3125 C6.211875 5.8175 5.86125 5.3225 5.5 4.8125 C2.53697821 2.51854764 0.19207303 2.92361718 -3.4375 3.3125 C-5.25226003 4.70835785 -5.25226003 4.70835785 -6.4375 6.3125 C-7.0975 6.3125 -7.7575 6.3125 -8.4375 6.3125 C-6.35023631 1.8397921 -5.0888788 0.02506837 0 0 Z " fill="#0C0C0C" transform="translate(1153.4375,103.6875)"/>
<path d="M0 0 C1.17369141 -0.02513672 1.17369141 -0.02513672 2.37109375 -0.05078125 C5.02377163 0.38896749 5.885467 1.26878454 7.5625 3.3125 C7.2325 4.3025 6.9025 5.2925 6.5625 6.3125 C6.211875 5.8175 5.86125 5.3225 5.5 4.8125 C2.53697821 2.51854764 0.19207303 2.92361718 -3.4375 3.3125 C-5.25226003 4.70835785 -5.25226003 4.70835785 -6.4375 6.3125 C-7.0975 6.3125 -7.7575 6.3125 -8.4375 6.3125 C-6.35023631 1.8397921 -5.0888788 0.02506837 0 0 Z " fill="#0C0C0C" transform="translate(757.4375,103.6875)"/>
<path d="M0 0 C3.1875 0.3125 3.1875 0.3125 5.5625 2.3125 C6.09875 2.9725 6.635 3.6325 7.1875 4.3125 C6.1975 4.8075 6.1975 4.8075 5.1875 5.3125 C5.1875 6.9625 5.1875 8.6125 5.1875 10.3125 C4.8575 10.3125 4.5275 10.3125 4.1875 10.3125 C3.5275 8.0025 2.8675 5.6925 2.1875 3.3125 C0.8675 3.3125 -0.4525 3.3125 -1.8125 3.3125 C-2.4725 3.9725 -3.1325 4.6325 -3.8125 5.3125 C-4.4725 5.3125 -5.1325 5.3125 -5.8125 5.3125 C-3.42613636 0.38068182 -3.42613636 0.38068182 0 0 Z " fill="#212121" transform="translate(415.8125,541.6875)"/>
<path d="M0 0 C0.99 0 1.98 0 3 0 C3 3.96 3 7.92 3 12 C2.01 12 1.02 12 0 12 C0 8.04 0 4.08 0 0 Z " fill="#303030" transform="translate(426,542)"/>
<path d="M0 0 C0.99 0.33 1.98 0.66 3 1 C3.22036864 4.85645121 2.60355101 7.49223216 1 11 C-1.97 10.67 -4.94 10.34 -8 10 C-8 9.67 -8 9.34 -8 9 C-6.02 8.67 -4.04 8.34 -2 8 C-1.855625 6.865625 -1.71125 5.73125 -1.5625 4.5625 C-1 1 -1 1 0 0 Z " fill="#262626" transform="translate(741,105)"/>
<path d="M0 0 C0.99 0.33 1.98 0.66 3 1 C3.22036864 4.85645121 2.60355101 7.49223216 1 11 C-1.97 10.67 -4.94 10.34 -8 10 C-8 9.67 -8 9.34 -8 9 C-6.02 8.67 -4.04 8.34 -2 8 C-1.855625 6.865625 -1.71125 5.73125 -1.5625 4.5625 C-1 1 -1 1 0 0 Z " fill="#262626" transform="translate(345,105)"/>
<path d="M0 0 C2.6855594 2.6855594 3.06049974 5.37621328 4 9 C1.69 9 -0.62 9 -3 9 C-2.01 6.03 -1.02 3.06 0 0 Z " fill="#DADADA" transform="translate(833,540)"/>
<path d="M0 0 C2 2 2 2 2 5 C1.34 5 0.68 5 0 5 C-0.33 4.34 -0.66 3.68 -1 3 C-3.45224694 3.10613836 -3.45224694 3.10613836 -6 4 C-7.37466625 6.47636012 -7.37466625 6.47636012 -8 9 C-8.33 9 -8.66 9 -9 9 C-9.36 3.6 -9.36 3.6 -7.875 1.125 C-5.15781176 -0.50531294 -3.10347254 -0.33015665 0 0 Z " fill="#121212" transform="translate(588,542)"/>
<path d="M0 0 C0.33 0.99 0.66 1.98 1 3 C2.65 3 4.3 3 6 3 C6 3.33 6 3.66 6 4 C4.02 4 2.04 4 0 4 C-0.66 6.31 -1.32 8.62 -2 11 C-2.99 11 -3.98 11 -5 11 C-4.54917531 9.53932801 -4.08906463 8.08151968 -3.625 6.625 C-3.36976562 5.81289063 -3.11453125 5.00078125 -2.8515625 4.1640625 C-2 2 -2 2 0 0 Z " fill="#111111" transform="translate(86,667)"/>
<path d="M0 0 C2.12508244 3.18762365 2.5020163 5.26512223 3 9 C1.02 9 -0.96 9 -3 9 C-2.01 6.03 -1.02 3.06 0 0 Z " fill="#DEDEDE" transform="translate(90,661)"/>
<path d="M0 0 C0.33 0 0.66 0 1 0 C1.29296875 6.0546875 1.29296875 6.0546875 1 8 C-2.4352048 10.29013653 -3.985331 10.17842973 -8 10 C-8.66 8.68 -9.32 7.36 -10 6 C-7.03 6.33 -4.06 6.66 -1 7 C-1.020625 6.030625 -1.04125 5.06125 -1.0625 4.0625 C-1 1 -1 1 0 0 Z " fill="#151515" transform="translate(1064,553)"/>
<path d="M0 0 C0.33 0.99 0.66 1.98 1 3 C2.65 3 4.3 3 6 3 C6 3.33 6 3.66 6 4 C4.02 4 2.04 4 0 4 C-0.66 6.31 -1.32 8.62 -2 11 C-2.99 11 -3.98 11 -5 11 C-4.54917531 9.53932801 -4.08906463 8.08151968 -3.625 6.625 C-3.36976563 5.81289063 -3.11453125 5.00078125 -2.8515625 4.1640625 C-2 2 -2 2 0 0 Z " fill="#111111" transform="translate(703,546)"/>
<path d="M0 0 C2.875 -0.125 2.875 -0.125 6 0 C8 2 8 2 8 7 C4.37 7 0.74 7 -3 7 C-3.33 7.66 -3.66 8.32 -4 9 C-4 7.35 -4 5.7 -4 4 C-3.67 4.66 -3.34 5.32 -3 6 C-0.03 6 2.94 6 6 6 C3.89609059 1.76421208 3.89609059 1.76421208 0 0 Z " fill="#050505" transform="translate(916,543)"/>
<path d="M0 0 C2.875 -0.125 2.875 -0.125 6 0 C8 2 8 2 8 7 C4.37 7 0.74 7 -3 7 C-3.33 7.66 -3.66 8.32 -4 9 C-4 7.35 -4 5.7 -4 4 C-3.67 4.66 -3.34 5.32 -3 6 C-0.03 6 2.94 6 6 6 C3.89609059 1.76421208 3.89609059 1.76421208 0 0 Z " fill="#050505" transform="translate(791,543)"/>
<path d="M0 0 C2.875 -0.125 2.875 -0.125 6 0 C8 2 8 2 8 7 C4.37 7 0.74 7 -3 7 C-3.33 7.66 -3.66 8.32 -4 9 C-4 7.35 -4 5.7 -4 4 C-3.67 4.66 -3.34 5.32 -3 6 C-0.03 6 2.94 6 6 6 C3.89609059 1.76421208 3.89609059 1.76421208 0 0 Z " fill="#050505" transform="translate(471,543)"/>
<path d="M0 0 C2.12508244 3.18762365 2.5020163 5.26512223 3 9 C1.02 9 -0.96 9 -3 9 C-2.01 6.03 -1.02 3.06 0 0 Z " fill="#DEDEDE" transform="translate(707,540)"/>
<path d="M0 0 C0.33 0.99 0.66 1.98 1 3 C2.65 3 4.3 3 6 3 C6 3.33 6 3.66 6 4 C4.02 4 2.04 4 0 4 C-0.66 6.31 -1.32 8.62 -2 11 C-2.99 11 -3.98 11 -5 11 C-4.54917531 9.53932801 -4.08906463 8.08151968 -3.625 6.625 C-3.36976562 5.81289062 -3.11453125 5.00078125 -2.8515625 4.1640625 C-2 2 -2 2 0 0 Z " fill="#111111" transform="translate(86,227)"/>
<path d="M0 0 C2.12508244 3.18762365 2.5020163 5.26512223 3 9 C1.02 9 -0.96 9 -3 9 C-2.01 6.03 -1.02 3.06 0 0 Z " fill="#DEDEDE" transform="translate(90,221)"/>
<path d="M0 0 C0.33 0.99 0.66 1.98 1 3 C2.65 3 4.3 3 6 3 C6 3.33 6 3.66 6 4 C4.02 4 2.04 4 0 4 C-0.66 6.31 -1.32 8.62 -2 11 C-2.99 11 -3.98 11 -5 11 C-4.54917531 9.53932801 -4.08906463 8.08151968 -3.625 6.625 C-3.36976563 5.81289062 -3.11453125 5.00078125 -2.8515625 4.1640625 C-2 2 -2 2 0 0 Z " fill="#111111" transform="translate(318,113)"/>
<path d="M0 0 C2.12508244 3.18762365 2.5020163 5.26512223 3 9 C1.02 9 -0.96 9 -3 9 C-2.01 6.03 -1.02 3.06 0 0 Z " fill="#DEDEDE" transform="translate(322,107)"/>
<path d="M0 0 C0.99 0 1.98 0 3 0 C4.32 3.96 5.64 7.92 7 12 C6.01 12.33 5.02 12.66 4 13 C3.32694982 11.39850114 2.66177773 9.79368971 2 8.1875 C1.62875 7.29417969 1.2575 6.40085937 0.875 5.48046875 C0 3 0 3 0 0 Z " fill="#2B2B2B" transform="translate(606,542)"/>
<path d="M0 0 C-0.875 3.875 -0.875 3.875 -2 5 C-3.66617115 5.04063832 -5.33388095 5.042721 -7 5 C-7 3.68 -7 2.36 -7 1 C-4.53721199 -0.231394 -2.7204945 -0.07159196 0 0 Z " fill="#E3E3E3" transform="translate(376,550)"/>
<path d="M0 0 C-0.33 1.32 -0.66 2.64 -1 4 C-3.3125 4.625 -3.3125 4.625 -6 5 C-6.99 4.34 -7.98 3.68 -9 3 C-9.33 3.66 -9.66 4.32 -10 5 C-10 4.01 -10 3.02 -10 2 C-8.7090864 1.66376204 -7.41723903 1.33110751 -6.125 1 C-5.40570312 0.814375 -4.68640625 0.62875 -3.9453125 0.4375 C-2 0 -2 0 0 0 Z " fill="#DEDEDE" transform="translate(812,556)"/>
<path d="M0 0 C0.66 0 1.32 0 2 0 C1.6875 2.375 1.6875 2.375 1 5 C-2.6441774 7.4294516 -4.71241272 7.16179575 -9 7 C-9 6.34 -9 5.68 -9 5 C-7.88625 4.731875 -6.7725 4.46375 -5.625 4.1875 C-1.78159049 3.34190981 -1.78159049 3.34190981 0 0 Z " fill="#101010" transform="translate(1092,550)"/>
<path d="M0 0 C0.94875 0.04125 1.8975 0.0825 2.875 0.125 C-0.125 2.125 -0.125 2.125 -2.125 3.125 C-1.37349977 6.40273504 -1.37349977 6.40273504 1.875 8.125 C-0.12454746 8.16754356 -2.12541636 8.16580783 -4.125 8.125 C-5.125 7.125 -5.125 7.125 -5.3125 4.6875 C-5.02108357 0.70480882 -3.90175738 0.1560703 0 0 Z " fill="#0D0D0D" transform="translate(371.125,548.875)"/>
<path d="M0 0 C4.23830976 2.82553984 3.97715348 5.12180888 5 10 C4.01 10 3.02 10 2 10 C-0.4294516 6.3558226 -0.16179575 4.28758728 0 0 Z " fill="#2B2B2B" transform="translate(342,546)"/>
<path d="M0 0 C1.2375 0.185625 2.475 0.37125 3.75 0.5625 C6.76279577 0.94711223 9.10010827 1.0874594 12 0 C11 3 11 3 9 4 C6.6670134 4.04022391 4.33293334 4.04320247 2 4 C1.34 2.68 0.68 1.36 0 0 Z " fill="#141414" transform="translate(661,553)"/>
<path d="M0 0 C6.44807122 0.60830861 6.44807122 0.60830861 8.9375 2.375 C10 4 10 4 10 7 C9.1646875 6.566875 9.1646875 6.566875 8.3125 6.125 C5.97810314 4.93364233 5.97810314 4.93364233 3.3125 4.0625 C2.549375 3.711875 1.78625 3.36125 1 3 C0.67 2.01 0.34 1.02 0 0 Z " fill="#343434" transform="translate(1084,536)"/>
<path d="M0 0 C1.2375 0.185625 2.475 0.37125 3.75 0.5625 C6.76279577 0.94711223 9.10010827 1.0874594 12 0 C11 3 11 3 9 4 C6.6670134 4.04022391 4.33293334 4.04320247 2 4 C1.34 2.68 0.68 1.36 0 0 Z " fill="#141414" transform="translate(1106,120)"/>
<path d="M0 0 C1.2375 0.185625 2.475 0.37125 3.75 0.5625 C6.76279577 0.94711223 9.10010827 1.0874594 12 0 C11 3 11 3 9 4 C6.6670134 4.04022391 4.33293334 4.04320247 2 4 C1.34 2.68 0.68 1.36 0 0 Z " fill="#141414" transform="translate(276,120)"/>
<path d="M0 0 C0.625 1.875 0.625 1.875 1 4 C0.34 4.66 -0.32 5.32 -1 6 C-3.625 5.625 -3.625 5.625 -6 5 C-6 4.01 -6 3.02 -6 2 C-4.02 1.34 -2.04 0.68 0 0 Z " fill="#E6E6E6" transform="translate(936,555)"/>
<path d="M0 0 C0.625 1.875 0.625 1.875 1 4 C0.34 4.66 -0.32 5.32 -1 6 C-3.625 5.625 -3.625 5.625 -6 5 C-6 4.01 -6 3.02 -6 2 C-4.02 1.34 -2.04 0.68 0 0 Z " fill="#E6E6E6" transform="translate(685,555)"/>
<path d="M0 0 C0.625 1.875 0.625 1.875 1 4 C0.34 4.66 -0.32 5.32 -1 6 C-3.625 5.625 -3.625 5.625 -6 5 C-6 4.01 -6 3.02 -6 2 C-4.02 1.34 -2.04 0.68 0 0 Z " fill="#E6E6E6" transform="translate(300,122)"/>
<path d="M0 0 C0.99 0.66 1.98 1.32 3 2 C2.75 4.875 2.75 4.875 2 8 C0.02 8.99 0.02 8.99 -2 10 C-1.34 6.7 -0.68 3.4 0 0 Z " fill="#161616" transform="translate(516,668)"/>
<path d="M0 0 C1.60875 0.2784375 1.60875 0.2784375 3.25 0.5625 C6.40391546 0.9304568 8.09818492 1.04465343 11 0 C10 3 10 3 8 4 C6.00039988 4.039992 3.99952758 4.04346799 2 4 C1.34 2.68 0.68 1.36 0 0 Z " fill="#1D1D1D" transform="translate(803,559)"/>
<path d="M0 0 C0.33 0 0.66 0 1 0 C1 1.65 1 3.3 1 5 C-0.98 5.33 -2.96 5.66 -5 6 C-5 5.67 -5 5.34 -5 5 C-7.64 5 -10.28 5 -13 5 C-13 4.34 -13 3.68 -13 3 C-9.37 3 -5.74 3 -2 3 C-1.67 2.34 -1.34 1.68 -1 1 C-0.67 0.67 -0.34 0.34 0 0 Z " fill="#A9A9A9" transform="translate(675,547)"/>
<path d="M0 0 C1.65 0.33 3.3 0.66 5 1 C5.33 1.99 5.66 2.98 6 4 C3.36 4 0.72 4 -2 4 C-1.34 2.68 -0.68 1.36 0 0 Z " fill="#EAEAEA" transform="translate(1042,544)"/>
<path d="M0 0 C1.65 0.33 3.3 0.66 5 1 C5.33 1.99 5.66 2.98 6 4 C3.36 4 0.72 4 -2 4 C-1.34 2.68 -0.68 1.36 0 0 Z " fill="#ECECEC" transform="translate(916,544)"/>
<path d="M0 0 C1.65 0.33 3.3 0.66 5 1 C5.33 1.99 5.66 2.98 6 4 C3.36 4 0.72 4 -2 4 C-1.34 2.68 -0.68 1.36 0 0 Z " fill="#ECECEC" transform="translate(791,544)"/>
<path d="M0 0 C1.65 0.33 3.3 0.66 5 1 C5.33 1.99 5.66 2.98 6 4 C3.36 4 0.72 4 -2 4 C-1.34 2.68 -0.68 1.36 0 0 Z " fill="#ECECEC" transform="translate(471,544)"/>
<path d="M0 0 C0.99 0.66 1.98 1.32 3 2 C2.75 4.875 2.75 4.875 2 8 C0.02 8.99 0.02 8.99 -2 10 C-1.34 6.7 -0.68 3.4 0 0 Z " fill="#161616" transform="translate(516,228)"/>
<path d="M0 0 C0.5625 1.9375 0.5625 1.9375 1 4 C0 5 0 5 -2.5625 5.0625 C-3.7690625 5.0315625 -3.7690625 5.0315625 -5 5 C-5 3.68 -5 2.36 -5 1 C-3.35 0.67 -1.7 0.34 0 0 Z " fill="#E7E7E7" transform="translate(1129,123)"/>
<path d="M0 0 C0.5625 1.9375 0.5625 1.9375 1 4 C0 5 0 5 -2.5625 5.0625 C-3.7690625 5.0315625 -3.7690625 5.0315625 -5 5 C-5 3.68 -5 2.36 -5 1 C-3.35 0.67 -1.7 0.34 0 0 Z " fill="#E7E7E7" transform="translate(714,123)"/>
<path d="M0 0 C0.33 0 0.66 0 1 0 C1 1.65 1 3.3 1 5 C-0.98 5.33 -2.96 5.66 -5 6 C-5 5.67 -5 5.34 -5 5 C-7.64 5 -10.28 5 -13 5 C-13 4.34 -13 3.68 -13 3 C-9.37 3 -5.74 3 -2 3 C-1.67 2.34 -1.34 1.68 -1 1 C-0.67 0.67 -0.34 0.34 0 0 Z " fill="#A9A9A9" transform="translate(290,114)"/>
<path d="M0 0 C0.33 0 0.66 0 1 0 C0.74438677 2.3431213 0.40729228 4.67843403 0 7 C-2.70879335 8.35439668 -5.00933268 8.06501451 -8 8 C-7 6 -7 6 -4.5625 5.125 C-1.86394485 4.22949848 -1.86394485 4.22949848 -0.6875 1.875 C-0.460625 1.25625 -0.23375 0.6375 0 0 Z " fill="#121212" transform="translate(354,549)"/>
<path d="M0 0 C-0.99 0.66 -1.98 1.32 -3 2 C-3.845625 2.86625 -4.69125 3.7325 -5.5625 4.625 C-8 7 -8 7 -10 7 C-9.6875 4.625 -9.6875 4.625 -9 2 C-5.5647952 -0.29013653 -4.014669 -0.17842973 0 0 Z " fill="#0F0F0F" transform="translate(1088,537)"/>
<path d="M0 0 C1.9375 0.75 1.9375 0.75 4 2 C4.75 4.125 4.75 4.125 5 6 C4.34 6 3.68 6 3 6 C3 7.98 3 9.96 3 12 C2.67 12 2.34 12 2 12 C1.8046875 10.01432292 1.609375 8.02864583 1.4140625 6.04296875 C1.07334609 3.70011858 1.07334609 3.70011858 -1 1 C-0.67 0.67 -0.34 0.34 0 0 Z " fill="#282828" transform="translate(1177,105)"/>
<path d="M0 0 C1.65 0.33 3.3 0.66 5 1 C5 1.99 5 2.98 5 4 C2.69 4 0.38 4 -2 4 C-1.34 2.68 -0.68 1.36 0 0 Z " fill="#F0F0F0" transform="translate(665,544)"/>
<path d="M0 0 C1.134375 0.020625 2.26875 0.04125 3.4375 0.0625 C2.4475 1.5475 2.4475 1.5475 1.4375 3.0625 C0.1175 3.0625 -1.2025 3.0625 -2.5625 3.0625 C-2.8925 3.7225 -3.2225 4.3825 -3.5625 5.0625 C-4.5525 5.0625 -5.5425 5.0625 -6.5625 5.0625 C-4.14811644 0.07277397 -4.14811644 0.07277397 0 0 Z " fill="#282828" transform="translate(372.5625,541.9375)"/>
<path d="M0 0 C1.65 0.33 3.3 0.66 5 1 C5 1.99 5 2.98 5 4 C2.69 4 0.38 4 -2 4 C-1.34 2.68 -0.68 1.36 0 0 Z " fill="#F0F0F0" transform="translate(1110,111)"/>
<path d="M0 0 C1.65 0.33 3.3 0.66 5 1 C5 1.99 5 2.98 5 4 C2.69 4 0.38 4 -2 4 C-1.34 2.68 -0.68 1.36 0 0 Z " fill="#F0F0F0" transform="translate(280,111)"/>
<path d="M0 0 C0.639375 0.2475 1.27875 0.495 1.9375 0.75 C2.2675 1.74 2.5975 2.73 2.9375 3.75 C0.6275 3.75 -1.6825 3.75 -4.0625 3.75 C-4.0625 2.76 -4.0625 1.77 -4.0625 0.75 C-2.0625 -0.25 -2.0625 -0.25 0 0 Z " fill="#F4F4F4" transform="translate(628.0625,544.25)"/>
<path d="M0 0 C0.639375 0.2475 1.27875 0.495 1.9375 0.75 C2.2675 1.74 2.5975 2.73 2.9375 3.75 C0.6275 3.75 -1.6825 3.75 -4.0625 3.75 C-4.0625 2.76 -4.0625 1.77 -4.0625 0.75 C-2.0625 -0.25 -2.0625 -0.25 0 0 Z " fill="#F4F4F4" transform="translate(570.0625,544.25)"/>
<path d="M0 0 C2.97 0.495 2.97 0.495 6 1 C6 1.99 6 2.98 6 4 C3.69 4.33 1.38 4.66 -1 5 C-0.67 3.35 -0.34 1.7 0 0 Z " fill="#E8E8E8" transform="translate(370,544)"/>
<path d="M0 0 C0.99 0 1.98 0 3 0 C2.4409112 3.24271506 1.5867822 4.93057424 -1 7 C-1.66 7 -2.32 7 -3 7 C-2.38722388 4.03824877 -1.74627478 2.61941217 0 0 Z " fill="#2A2A2A" transform="translate(1159,117)"/>
<path d="M0 0 C0.99 0 1.98 0 3 0 C2.4409112 3.24271506 1.5867822 4.93057424 -1 7 C-1.66 7 -2.32 7 -3 7 C-2.38722388 4.03824877 -1.74627478 2.61941217 0 0 Z " fill="#2A2A2A" transform="translate(763,117)"/>
<path d="M0 0 C0.639375 0.2475 1.27875 0.495 1.9375 0.75 C2.2675 1.74 2.5975 2.73 2.9375 3.75 C0.6275 3.75 -1.6825 3.75 -4.0625 3.75 C-4.0625 2.76 -4.0625 1.77 -4.0625 0.75 C-2.0625 -0.25 -2.0625 -0.25 0 0 Z " fill="#F4F4F4" transform="translate(697.0625,111.25)"/>
<path d="M0 0 C-1.47692308 4.67692308 -1.47692308 4.67692308 -4.125 6.3125 C-5.053125 6.6528125 -5.053125 6.6528125 -6 7 C-6.33 6.01 -6.66 5.02 -7 4 C-3.375 0 -3.375 0 0 0 Z " fill="#1F1F1F" transform="translate(1357,671)"/>
<path d="M0 0 C1.32 0 2.64 0 4 0 C4 0.99 4 1.98 4 3 C3.01 3 2.02 3 1 3 C1 3.99 1 4.98 1 6 C1.66 6.33 2.32 6.66 3 7 C2.01 7 1.02 7 0 7 C-0.66 5.35 -1.32 3.7 -2 2 C-1.34 1.34 -0.68 0.68 0 0 Z " fill="#3F3F3F" transform="translate(558,536)"/>
<path d="M0 0 C-1.47692308 4.67692308 -1.47692308 4.67692308 -4.125 6.3125 C-5.053125 6.6528125 -5.053125 6.6528125 -6 7 C-6.33 6.01 -6.66 5.02 -7 4 C-3.375 0 -3.375 0 0 0 Z " fill="#1F1F1F" transform="translate(1357,231)"/>
<path d="M0 0 C2 4 2 4 1.125 7.25 C0.75375 8.1575 0.3825 9.065 0 10 C-0.99 10 -1.98 10 -3 10 C-2.01 6.7 -1.02 3.4 0 0 Z " fill="#232323" transform="translate(88,658)"/>
<path d="M0 0 C0.33 0.99 0.66 1.98 1 3 C0.67 3.66 0.34 4.32 0 5 C1.98 5 3.96 5 6 5 C6 5.33 6 5.66 6 6 C1.545 6.495 1.545 6.495 -3 7 C-2.25 2.25 -2.25 2.25 0 0 Z " fill="#0B0B0B" transform="translate(830,544)"/>
<path d="M0 0 C2 4 2 4 1.125 7.25 C0.75375 8.1575 0.3825 9.065 0 10 C-0.99 10 -1.98 10 -3 10 C-2.01 6.7 -1.02 3.4 0 0 Z " fill="#232323" transform="translate(705,537)"/>
<path d="M0 0 C0 0.66 0 1.32 0 2 C-0.969375 2.12375 -1.93875 2.2475 -2.9375 2.375 C-3.948125 2.58125 -4.95875 2.7875 -6 3 C-6.33 3.66 -6.66 4.32 -7 5 C-7.66 5 -8.32 5 -9 5 C-6.81610567 0.16423399 -5.20641855 -0.13701101 0 0 Z " fill="#222222" transform="translate(630,542)"/>
<path d="M0 0 C0 0.66 0 1.32 0 2 C-0.969375 2.12375 -1.93875 2.2475 -2.9375 2.375 C-3.948125 2.58125 -4.95875 2.7875 -6 3 C-6.33 3.66 -6.66 4.32 -7 5 C-7.66 5 -8.32 5 -9 5 C-6.81610567 0.16423399 -5.20641855 -0.13701101 0 0 Z " fill="#222222" transform="translate(572,542)"/>
<path d="M0 0 C2 4 2 4 1.125 7.25 C0.75375 8.1575 0.3825 9.065 0 10 C-0.99 10 -1.98 10 -3 10 C-2.01 6.7 -1.02 3.4 0 0 Z " fill="#232323" transform="translate(88,218)"/>
<path d="M0 0 C0.66 0.99 1.32 1.98 2 3 C1.67 3.66 1.34 4.32 1 5 C0.505 4.835 0.01 4.67 -0.5 4.5 C-4.03444089 3.79311182 -7.39690701 3.93994845 -11 4 C-11 3.34 -11 2.68 -11 2 C-7.37 2 -3.74 2 0 2 C0 1.34 0 0.68 0 0 Z " fill="#AFAFAF" transform="translate(1118,115)"/>
<path d="M0 0 C0 0.66 0 1.32 0 2 C-0.969375 2.12375 -1.93875 2.2475 -2.9375 2.375 C-3.948125 2.58125 -4.95875 2.7875 -6 3 C-6.33 3.66 -6.66 4.32 -7 5 C-7.66 5 -8.32 5 -9 5 C-6.81610567 0.16423399 -5.20641855 -0.13701101 0 0 Z " fill="#222222" transform="translate(699,109)"/>
<path d="M0 0 C2 4 2 4 1.125 7.25 C0.75375 8.1575 0.3825 9.065 0 10 C-0.99 10 -1.98 10 -3 10 C-2.01 6.7 -1.02 3.4 0 0 Z " fill="#232323" transform="translate(320,104)"/>
<path d="M0 0 C0.99 0 1.98 0 3 0 C2.60196439 2.88575819 2.20990931 3.82189513 -0.0625 5.75 C-0.701875 6.1625 -1.34125 6.575 -2 7 C-2.33 6.01 -2.66 5.02 -3 4 C-2.34 3.67 -1.68 3.34 -1 3 C-0.67 2.01 -0.34 1.02 0 0 Z " fill="#1F1F1F" transform="translate(938,671)"/>
<path d="M0 0 C0.99 0 1.98 0 3 0 C2.60196439 2.88575819 2.20990931 3.82189513 -0.0625 5.75 C-0.701875 6.1625 -1.34125 6.575 -2 7 C-2.33 6.01 -2.66 5.02 -3 4 C-2.34 3.67 -1.68 3.34 -1 3 C-0.67 2.01 -0.34 1.02 0 0 Z " fill="#1F1F1F" transform="translate(984,550)"/>
<path d="M0 0 C0.99 0 1.98 0 3 0 C3.66 2.31 4.32 4.62 5 7 C4.01 7 3.02 7 2 7 C1.34 4.69 0.68 2.38 0 0 Z " fill="#2E2E2E" transform="translate(481,542)"/>
<path d="M0 0 C0.99 0 1.98 0 3 0 C2.60196439 2.88575819 2.20990931 3.82189513 -0.0625 5.75 C-0.701875 6.1625 -1.34125 6.575 -2 7 C-2.33 6.01 -2.66 5.02 -3 4 C-2.34 3.67 -1.68 3.34 -1 3 C-0.67 2.01 -0.34 1.02 0 0 Z " fill="#1F1F1F" transform="translate(938,231)"/>
<path d="M0 0 C0.86625 0.556875 0.86625 0.556875 1.75 1.125 C1.75 2.445 1.75 3.765 1.75 5.125 C1.358125 4.650625 0.96625 4.17625 0.5625 3.6875 C-1.65808374 1.77320367 -3.38375709 1.51233012 -6.25 1.125 C-2.80384615 -1.09038462 -2.80384615 -1.09038462 0 0 Z " fill="#141414" transform="translate(1158.25,104.875)"/>
<path d="M0 0 C0.86625 0.556875 0.86625 0.556875 1.75 1.125 C1.75 2.445 1.75 3.765 1.75 5.125 C1.358125 4.650625 0.96625 4.17625 0.5625 3.6875 C-1.65808374 1.77320367 -3.38375709 1.51233012 -6.25 1.125 C-2.80384615 -1.09038462 -2.80384615 -1.09038462 0 0 Z " fill="#141414" transform="translate(762.25,104.875)"/>
<path d="M0 0 C1.98 0.99 1.98 0.99 4 2 C4 2.66 4 3.32 4 4 C5.65 4 7.3 4 9 4 C9 4.33 9 4.66 9 5 C3.375 5.25 3.375 5.25 0 3 C0 2.01 0 1.02 0 0 Z " fill="#363636" transform="translate(927,558)"/>
<path d="M0 0 C1.98 0.99 1.98 0.99 4 2 C4 2.66 4 3.32 4 4 C5.65 4 7.3 4 9 4 C9 4.33 9 4.66 9 5 C3.375 5.25 3.375 5.25 0 3 C0 2.01 0 1.02 0 0 Z " fill="#363636" transform="translate(676,558)"/>
<path d="M0 0 C-0.66 1.32 -1.32 2.64 -2 4 C-3.98 4 -5.96 4 -8 4 C-8 3.34 -8 2.68 -8 2 C-2.25 0 -2.25 0 0 0 Z " fill="#0F0F0F" transform="translate(1050,553)"/>
<path d="M0 0 C1.98 0.99 1.98 0.99 4 2 C4 2.66 4 3.32 4 4 C5.65 4 7.3 4 9 4 C9 4.33 9 4.66 9 5 C3.375 5.25 3.375 5.25 0 3 C0 2.01 0 1.02 0 0 Z " fill="#363636" transform="translate(291,125)"/>
<path d="M0 0 C-0.99 1.485 -0.99 1.485 -2 3 C-3.32 3 -4.64 3 -6 3 C-6 2.01 -6 1.02 -6 0 C-3 -1 -3 -1 0 0 Z " fill="#323232" transform="translate(488,560)"/>
<path d="M0 0 C1.65 0 3.3 0 5 0 C5 2.64 5 5.28 5 8 C3.24901874 5.37352812 1.61268692 2.71224618 0 0 Z " fill="#060606" transform="translate(809,543)"/>
<path d="M0 0 C-0.61875 0.28875 -1.2375 0.5775 -1.875 0.875 C-4.13325765 1.93720042 -4.13325765 1.93720042 -6 4 C-6.66 4 -7.32 4 -8 4 C-5.97675095 -0.48005146 -4.79569304 -1.43870791 0 0 Z " fill="#202020" transform="translate(810,543)"/>
<path d="M0 0 C0.99 0.33 1.98 0.66 3 1 C3.33 1.99 3.66 2.98 4 4 C3.34 4 2.68 4 2 4 C2 5.65 2 7.3 2 9 C1.67 9 1.34 9 1 9 C0.63877119 7.68942607 0.28619689 6.37646376 -0.0625 5.0625 C-0.35833984 3.96615234 -0.35833984 3.96615234 -0.66015625 2.84765625 C-0.77230469 2.23792969 -0.88445312 1.62820313 -1 1 C-0.67 0.67 -0.34 0.34 0 0 Z " fill="#454545" transform="translate(419,543)"/>
<path d="M0 0 C0.66 0 1.32 0 2 0 C2 2.31 2 4.62 2 7 C1.01 7.33 0.02 7.66 -1 8 C-0.67 5.36 -0.34 2.72 0 0 Z " fill="#050505" transform="translate(1180,111)"/>
</svg>
