<svg xmlns="http://www.w3.org/2000/svg" viewBox="-329 181 300 200" enable-background="new -329 181 300 200"><style type="text/css">.st0{fill:none;stroke:#FCB342;stroke-width:3;stroke-miterlimit:10;} .st1{fill:none;stroke:#010101;stroke-width:3;stroke-miterlimit:10;} .st2{fill:#010101;} .st3{font-family:&apos;SourceSansPro-Regular&apos;;} .st4{font-size:12px;} .st5{fill:#FFFFFF;stroke:#010101;stroke-width:3;stroke-miterlimit:10;} .st6{fill:#FFFFFF;stroke:#FCB342;stroke-width:3;stroke-miterlimit:10;}</style><g id="XMLID_487_"><g id="XMLID_103_"><g id="XMLID_98_"><path id="XMLID_101_" class="st0" d="M-214.9 234.3l25.2-23.4h40.6l26.1 23"/><path id="XMLID_99_" class="st1" d="M-281.5 233.9h206"/></g><text id="XMLID_83_" transform="translate(-221.101 253.809)" class="st2 st3 st4">Deviation branch</text></g><g id="XMLID_75_"><g id="XMLID_87_"><path id="XMLID_89_" class="st0" d="M-174.1 290.3l25.4-24.4h73.2"/><path id="XMLID_88_" class="st1" d="M-281.5 289.9h206"/></g><text id="XMLID_82_" transform="translate(-218.071 309.589)" class="st2 st3 st4">Multiple termini</text></g><g id="XMLID_102_"><g id="XMLID_84_"><path id="XMLID_86_" class="st1" d="M-281.5 332.9h145"/><path id="XMLID_85_" class="st0" d="M-137.5 332.9h62"/></g><text id="XMLID_81_" transform="translate(-221.694 352.611)" class="st2 st3 st4">Extension branch</text></g><circle id="XMLID_15_" class="st5" cx="-281.3" cy="233.9" r="4.4"/><circle id="XMLID_17_" class="st5" cx="-251.3" cy="233.9" r="4.4"/><circle id="XMLID_18_" class="st5" cx="-215.3" cy="233.9" r="4.4"/><circle id="XMLID_21_" class="st6" cx="-189.7" cy="210.9" r="4.4"/><circle id="XMLID_28_" class="st6" cx="-148.7" cy="265.9" r="4.4"/><circle id="XMLID_34_" class="st6" cx="-137.3" cy="332.9" r="4.4"/><circle id="XMLID_38_" class="st6" cx="-75.3" cy="332.9" r="4.4"/><circle id="XMLID_29_" class="st6" cx="-75.5" cy="265.9" r="4.4"/><circle id="XMLID_22_" class="st6" cx="-149.1" cy="210.9" r="4.4"/><circle id="XMLID_19_" class="st5" cx="-123" cy="233.9" r="4.4"/><circle id="XMLID_20_" class="st5" cx="-75.3" cy="233.9" r="4.4"/><circle id="XMLID_27_" class="st5" cx="-281.3" cy="290" r="4.4"/><circle id="XMLID_26_" class="st5" cx="-226.3" cy="290" r="4.4"/><circle id="XMLID_25_" class="st5" cx="-174.1" cy="290" r="4.4"/><circle id="XMLID_32_" class="st5" cx="-281.3" cy="332.9" r="4.4"/><circle id="XMLID_31_" class="st5" cx="-226.3" cy="332.9" r="4.4"/><circle id="XMLID_30_" class="st5" cx="-171.3" cy="332.9" r="4.4"/><circle id="XMLID_24_" class="st5" cx="-124.3" cy="290" r="4.4"/><circle id="XMLID_23_" class="st5" cx="-75.3" cy="290" r="4.4"/></g></svg>