<svg xmlns="http://www.w3.org/2000/svg" viewBox="-379 131 200 300" enable-background="new -379 131 200 300"><style type="text/css">.st0{fill:#FFFFFF;stroke:#010101;stroke-width:3;stroke-miterlimit:10;} .st1{fill:#010101;} .st2{font-family:&apos;SourceSansPro-Bold&apos;;} .st3{font-size:18px;}</style><path id="XMLID_13_" class="st0" d="M-327.3 301v-120"/><path id="XMLID_12_" class="st0" d="M-229.1 382h-94c-2.2 0-4-1.8-4-4v-94c0-2.2 1.8-4 4-4h94c2.2 0 4 1.8 4 4v94c0 2.2-1.8 4-4 4z"/><circle id="XMLID_11_" class="st0" cx="-327.1" cy="279.8" r="6"/><circle id="XMLID_10_" class="st0" cx="-327.1" cy="180.8" r="6"/><path id="XMLID_9_" class="st1" d="M-332.8 324h11l-5.5 13.5z"/><path id="XMLID_8_" class="st1" d="M-332.8 236h11l-5.5 13.5z"/><path id="XMLID_7_" class="st1" d="M-321.8 214h-11l5.5-13.5z"/><path id="XMLID_6_" class="st1" d="M-219.8 338h-11l5.5-13.5z"/><path id="XMLID_5_" class="st1" d="M-282.8 387.2v-11l13.5 5.5z"/><path id="XMLID_4_" class="st1" d="M-269.8 285.2v-11l-13.5 5.5z"/><text id="XMLID_3_" transform="translate(-352.325 185.957)" class="st1 st2 st3">A</text><text id="XMLID_2_" transform="translate(-352.613 285.793)" class="st1 st2 st3">B</text></svg>